# ASTRAX zero gravity aircraft (MU-300) free area — blackout_curtain
# build_parts.py が実測値（実機サイズ表）から作る。単位はメートル。X=機首→機尾, Y=上, Z=機首を向いて左（右舷は-Z）
o Curtain
v -0.0100 1.3900 -0.0000
v -0.0100 1.3696 -0.2329
v -0.0100 1.3393 -0.3173
v -0.0100 1.3089 -0.3778
v -0.0100 1.2786 -0.4261
v -0.0100 1.2482 -0.4665
v -0.0100 1.2179 -0.5011
v -0.0100 1.1875 -0.5313
v -0.0100 1.1571 -0.5580
v -0.0100 1.1268 -0.5816
v -0.0100 1.0964 -0.6028
v -0.0100 1.0661 -0.6217
v -0.0100 1.0357 -0.6387
v -0.0100 1.0054 -0.6539
v -0.0100 0.9750 -0.6676
v -0.0100 0.9446 -0.6797
v -0.0100 0.9143 -0.6906
v -0.0100 0.8839 -0.7002
v -0.0100 0.8536 -0.7086
v -0.0100 0.8232 -0.7159
v -0.0100 0.7929 -0.7222
v -0.0100 0.7625 -0.7275
v -0.0100 0.7321 -0.7320
v -0.0100 0.7018 -0.7355
v -0.0100 0.6714 -0.7383
v -0.0100 0.6411 -0.7403
v -0.0100 0.6107 -0.7416
v -0.0100 0.5804 -0.7423
v -0.0100 0.5500 -0.7425
v -0.0100 0.4900 -0.7150
v -0.0100 0.2050 -0.6350
v -0.0100 0.1900 -0.6050
v -0.0100 0.0300 -0.6200
v -0.0100 0.0000 -0.5475
v -0.0100 0.0000 -0.0000
v -0.0100 0.0000 0.5475
v -0.0100 0.0300 0.6200
v -0.0100 0.1900 0.6050
v -0.0100 0.2050 0.6350
v -0.0100 0.4900 0.7150
v -0.0100 0.5500 0.7425
v -0.0100 0.5804 0.7423
v -0.0100 0.6107 0.7416
v -0.0100 0.6411 0.7403
v -0.0100 0.6714 0.7383
v -0.0100 0.7018 0.7355
v -0.0100 0.7321 0.7320
v -0.0100 0.7625 0.7275
v -0.0100 0.7929 0.7222
v -0.0100 0.8232 0.7159
v -0.0100 0.8536 0.7086
v -0.0100 0.8839 0.7002
v -0.0100 0.9143 0.6906
v -0.0100 0.9446 0.6797
v -0.0100 0.9750 0.6676
v -0.0100 1.0054 0.6539
v -0.0100 1.0357 0.6387
v -0.0100 1.0661 0.6217
v -0.0100 1.0964 0.6028
v -0.0100 1.1268 0.5816
v -0.0100 1.1571 0.5580
v -0.0100 1.1875 0.5313
v -0.0100 1.2179 0.5011
v -0.0100 1.2482 0.4665
v -0.0100 1.2786 0.4261
v -0.0100 1.3089 0.3778
v -0.0100 1.3393 0.3173
v -0.0100 1.3696 0.2329
v -0.0100 1.3900 0.0000
v 0.0100 1.3900 -0.0000
v 0.0100 1.3696 -0.2329
v 0.0100 1.3393 -0.3173
v 0.0100 1.3089 -0.3778
v 0.0100 1.2786 -0.4261
v 0.0100 1.2482 -0.4665
v 0.0100 1.2179 -0.5011
v 0.0100 1.1875 -0.5313
v 0.0100 1.1571 -0.5580
v 0.0100 1.1268 -0.5816
v 0.0100 1.0964 -0.6028
v 0.0100 1.0661 -0.6217
v 0.0100 1.0357 -0.6387
v 0.0100 1.0054 -0.6539
v 0.0100 0.9750 -0.6676
v 0.0100 0.9446 -0.6797
v 0.0100 0.9143 -0.6906
v 0.0100 0.8839 -0.7002
v 0.0100 0.8536 -0.7086
v 0.0100 0.8232 -0.7159
v 0.0100 0.7929 -0.7222
v 0.0100 0.7625 -0.7275
v 0.0100 0.7321 -0.7320
v 0.0100 0.7018 -0.7355
v 0.0100 0.6714 -0.7383
v 0.0100 0.6411 -0.7403
v 0.0100 0.6107 -0.7416
v 0.0100 0.5804 -0.7423
v 0.0100 0.5500 -0.7425
v 0.0100 0.4900 -0.7150
v 0.0100 0.2050 -0.6350
v 0.0100 0.1900 -0.6050
v 0.0100 0.0300 -0.6200
v 0.0100 0.0000 -0.5475
v 0.0100 0.0000 -0.0000
v 0.0100 0.0000 0.5475
v 0.0100 0.0300 0.6200
v 0.0100 0.1900 0.6050
v 0.0100 0.2050 0.6350
v 0.0100 0.4900 0.7150
v 0.0100 0.5500 0.7425
v 0.0100 0.5804 0.7423
v 0.0100 0.6107 0.7416
v 0.0100 0.6411 0.7403
v 0.0100 0.6714 0.7383
v 0.0100 0.7018 0.7355
v 0.0100 0.7321 0.7320
v 0.0100 0.7625 0.7275
v 0.0100 0.7929 0.7222
v 0.0100 0.8232 0.7159
v 0.0100 0.8536 0.7086
v 0.0100 0.8839 0.7002
v 0.0100 0.9143 0.6906
v 0.0100 0.9446 0.6797
v 0.0100 0.9750 0.6676
v 0.0100 1.0054 0.6539
v 0.0100 1.0357 0.6387
v 0.0100 1.0661 0.6217
v 0.0100 1.0964 0.6028
v 0.0100 1.1268 0.5816
v 0.0100 1.1571 0.5580
v 0.0100 1.1875 0.5313
v 0.0100 1.2179 0.5011
v 0.0100 1.2482 0.4665
v 0.0100 1.2786 0.4261
v 0.0100 1.3089 0.3778
v 0.0100 1.3393 0.3173
v 0.0100 1.3696 0.2329
v 0.0100 1.3900 0.0000
v -0.0100 0.6200 0.0000
v 0.0100 0.6200 0.0000
vt -0.0000 1.3900
vt -0.2329 1.3696
vt 0.0000 0.6200
vt -0.2329 1.3696
vt -0.0000 1.3900
vt 0.0000 0.6200
vt -0.0100 -0.2329
vt -0.0100 -0.0000
vt 0.0100 -0.0000
vt 0.0100 -0.2329
vt -0.2329 1.3696
vt -0.3173 1.3393
vt 0.0000 0.6200
vt -0.3173 1.3393
vt -0.2329 1.3696
vt 0.0000 0.6200
vt -0.0100 -0.3173
vt -0.0100 -0.2329
vt 0.0100 -0.2329
vt 0.0100 -0.3173
vt -0.3173 1.3393
vt -0.3778 1.3089
vt 0.0000 0.6200
vt -0.3778 1.3089
vt -0.3173 1.3393
vt 0.0000 0.6200
vt -0.0100 -0.3778
vt -0.0100 -0.3173
vt 0.0100 -0.3173
vt 0.0100 -0.3778
vt -0.3778 1.3089
vt -0.4261 1.2786
vt 0.0000 0.6200
vt -0.4261 1.2786
vt -0.3778 1.3089
vt 0.0000 0.6200
vt -0.0100 -0.4261
vt -0.0100 -0.3778
vt 0.0100 -0.3778
vt 0.0100 -0.4261
vt -0.4261 1.2786
vt -0.4665 1.2482
vt 0.0000 0.6200
vt -0.4665 1.2482
vt -0.4261 1.2786
vt 0.0000 0.6200
vt -0.0100 -0.4665
vt -0.0100 -0.4261
vt 0.0100 -0.4261
vt 0.0100 -0.4665
vt -0.4665 1.2482
vt -0.5011 1.2179
vt 0.0000 0.6200
vt -0.5011 1.2179
vt -0.4665 1.2482
vt 0.0000 0.6200
vt -0.0100 -0.5011
vt -0.0100 -0.4665
vt 0.0100 -0.4665
vt 0.0100 -0.5011
vt -0.5011 1.2179
vt -0.5313 1.1875
vt 0.0000 0.6200
vt -0.5313 1.1875
vt -0.5011 1.2179
vt 0.0000 0.6200
vt -0.0100 1.1875
vt -0.0100 1.2179
vt 0.0100 1.2179
vt 0.0100 1.1875
vt -0.5313 1.1875
vt -0.5580 1.1571
vt 0.0000 0.6200
vt -0.5580 1.1571
vt -0.5313 1.1875
vt 0.0000 0.6200
vt -0.0100 1.1571
vt -0.0100 1.1875
vt 0.0100 1.1875
vt 0.0100 1.1571
vt -0.5580 1.1571
vt -0.5816 1.1268
vt 0.0000 0.6200
vt -0.5816 1.1268
vt -0.5580 1.1571
vt 0.0000 0.6200
vt -0.0100 1.1268
vt -0.0100 1.1571
vt 0.0100 1.1571
vt 0.0100 1.1268
vt -0.5816 1.1268
vt -0.6028 1.0964
vt 0.0000 0.6200
vt -0.6028 1.0964
vt -0.5816 1.1268
vt 0.0000 0.6200
vt -0.0100 1.0964
vt -0.0100 1.1268
vt 0.0100 1.1268
vt 0.0100 1.0964
vt -0.6028 1.0964
vt -0.6217 1.0661
vt 0.0000 0.6200
vt -0.6217 1.0661
vt -0.6028 1.0964
vt 0.0000 0.6200
vt -0.0100 1.0661
vt -0.0100 1.0964
vt 0.0100 1.0964
vt 0.0100 1.0661
vt -0.6217 1.0661
vt -0.6387 1.0357
vt 0.0000 0.6200
vt -0.6387 1.0357
vt -0.6217 1.0661
vt 0.0000 0.6200
vt -0.0100 1.0357
vt -0.0100 1.0661
vt 0.0100 1.0661
vt 0.0100 1.0357
vt -0.6387 1.0357
vt -0.6539 1.0054
vt 0.0000 0.6200
vt -0.6539 1.0054
vt -0.6387 1.0357
vt 0.0000 0.6200
vt -0.0100 1.0054
vt -0.0100 1.0357
vt 0.0100 1.0357
vt 0.0100 1.0054
vt -0.6539 1.0054
vt -0.6676 0.9750
vt 0.0000 0.6200
vt -0.6676 0.9750
vt -0.6539 1.0054
vt 0.0000 0.6200
vt -0.0100 0.9750
vt -0.0100 1.0054
vt 0.0100 1.0054
vt 0.0100 0.9750
vt -0.6676 0.9750
vt -0.6797 0.9446
vt 0.0000 0.6200
vt -0.6797 0.9446
vt -0.6676 0.9750
vt 0.0000 0.6200
vt -0.0100 0.9446
vt -0.0100 0.9750
vt 0.0100 0.9750
vt 0.0100 0.9446
vt -0.6797 0.9446
vt -0.6906 0.9143
vt 0.0000 0.6200
vt -0.6906 0.9143
vt -0.6797 0.9446
vt 0.0000 0.6200
vt -0.0100 0.9143
vt -0.0100 0.9446
vt 0.0100 0.9446
vt 0.0100 0.9143
vt -0.6906 0.9143
vt -0.7002 0.8839
vt 0.0000 0.6200
vt -0.7002 0.8839
vt -0.6906 0.9143
vt 0.0000 0.6200
vt -0.0100 0.8839
vt -0.0100 0.9143
vt 0.0100 0.9143
vt 0.0100 0.8839
vt -0.7002 0.8839
vt -0.7086 0.8536
vt 0.0000 0.6200
vt -0.7086 0.8536
vt -0.7002 0.8839
vt 0.0000 0.6200
vt -0.0100 0.8536
vt -0.0100 0.8839
vt 0.0100 0.8839
vt 0.0100 0.8536
vt -0.7086 0.8536
vt -0.7159 0.8232
vt 0.0000 0.6200
vt -0.7159 0.8232
vt -0.7086 0.8536
vt 0.0000 0.6200
vt -0.0100 0.8232
vt -0.0100 0.8536
vt 0.0100 0.8536
vt 0.0100 0.8232
vt -0.7159 0.8232
vt -0.7222 0.7929
vt 0.0000 0.6200
vt -0.7222 0.7929
vt -0.7159 0.8232
vt 0.0000 0.6200
vt -0.0100 0.7929
vt -0.0100 0.8232
vt 0.0100 0.8232
vt 0.0100 0.7929
vt -0.7222 0.7929
vt -0.7275 0.7625
vt 0.0000 0.6200
vt -0.7275 0.7625
vt -0.7222 0.7929
vt 0.0000 0.6200
vt -0.0100 0.7625
vt -0.0100 0.7929
vt 0.0100 0.7929
vt 0.0100 0.7625
vt -0.7275 0.7625
vt -0.7320 0.7321
vt 0.0000 0.6200
vt -0.7320 0.7321
vt -0.7275 0.7625
vt 0.0000 0.6200
vt -0.0100 0.7321
vt -0.0100 0.7625
vt 0.0100 0.7625
vt 0.0100 0.7321
vt -0.7320 0.7321
vt -0.7355 0.7018
vt 0.0000 0.6200
vt -0.7355 0.7018
vt -0.7320 0.7321
vt 0.0000 0.6200
vt -0.0100 0.7018
vt -0.0100 0.7321
vt 0.0100 0.7321
vt 0.0100 0.7018
vt -0.7355 0.7018
vt -0.7383 0.6714
vt 0.0000 0.6200
vt -0.7383 0.6714
vt -0.7355 0.7018
vt 0.0000 0.6200
vt -0.0100 0.6714
vt -0.0100 0.7018
vt 0.0100 0.7018
vt 0.0100 0.6714
vt -0.7383 0.6714
vt -0.7403 0.6411
vt 0.0000 0.6200
vt -0.7403 0.6411
vt -0.7383 0.6714
vt 0.0000 0.6200
vt -0.0100 0.6411
vt -0.0100 0.6714
vt 0.0100 0.6714
vt 0.0100 0.6411
vt -0.7403 0.6411
vt -0.7416 0.6107
vt 0.0000 0.6200
vt -0.7416 0.6107
vt -0.7403 0.6411
vt 0.0000 0.6200
vt -0.0100 0.6107
vt -0.0100 0.6411
vt 0.0100 0.6411
vt 0.0100 0.6107
vt -0.7416 0.6107
vt -0.7423 0.5804
vt 0.0000 0.6200
vt -0.7423 0.5804
vt -0.7416 0.6107
vt 0.0000 0.6200
vt -0.0100 0.5804
vt -0.0100 0.6107
vt 0.0100 0.6107
vt 0.0100 0.5804
vt -0.7423 0.5804
vt -0.7425 0.5500
vt 0.0000 0.6200
vt -0.7425 0.5500
vt -0.7423 0.5804
vt 0.0000 0.6200
vt -0.0100 0.5500
vt -0.0100 0.5804
vt 0.0100 0.5804
vt 0.0100 0.5500
vt -0.7425 0.5500
vt -0.7150 0.4900
vt 0.0000 0.6200
vt -0.7150 0.4900
vt -0.7425 0.5500
vt 0.0000 0.6200
vt -0.0100 0.4900
vt -0.0100 0.5500
vt 0.0100 0.5500
vt 0.0100 0.4900
vt -0.7150 0.4900
vt -0.6350 0.2050
vt 0.0000 0.6200
vt -0.6350 0.2050
vt -0.7150 0.4900
vt 0.0000 0.6200
vt -0.0100 0.2050
vt -0.0100 0.4900
vt 0.0100 0.4900
vt 0.0100 0.2050
vt -0.6350 0.2050
vt -0.6050 0.1900
vt 0.0000 0.6200
vt -0.6050 0.1900
vt -0.6350 0.2050
vt 0.0000 0.6200
vt -0.0100 -0.6050
vt -0.0100 -0.6350
vt 0.0100 -0.6350
vt 0.0100 -0.6050
vt -0.6050 0.1900
vt -0.6200 0.0300
vt 0.0000 0.6200
vt -0.6200 0.0300
vt -0.6050 0.1900
vt 0.0000 0.6200
vt -0.0100 0.0300
vt -0.0100 0.1900
vt 0.0100 0.1900
vt 0.0100 0.0300
vt -0.6200 0.0300
vt -0.5475 0.0000
vt 0.0000 0.6200
vt -0.5475 0.0000
vt -0.6200 0.0300
vt 0.0000 0.6200
vt -0.0100 -0.5475
vt -0.0100 -0.6200
vt 0.0100 -0.6200
vt 0.0100 -0.5475
vt -0.5475 0.0000
vt -0.0000 0.0000
vt 0.0000 0.6200
vt -0.0000 0.0000
vt -0.5475 0.0000
vt 0.0000 0.6200
vt -0.0100 -0.0000
vt -0.0100 -0.5475
vt 0.0100 -0.5475
vt 0.0100 -0.0000
vt -0.0000 0.0000
vt 0.5475 0.0000
vt 0.0000 0.6200
vt 0.5475 0.0000
vt -0.0000 0.0000
vt 0.0000 0.6200
vt -0.0100 0.5475
vt -0.0100 -0.0000
vt 0.0100 -0.0000
vt 0.0100 0.5475
vt 0.5475 0.0000
vt 0.6200 0.0300
vt 0.0000 0.6200
vt 0.6200 0.0300
vt 0.5475 0.0000
vt 0.0000 0.6200
vt -0.0100 0.6200
vt -0.0100 0.5475
vt 0.0100 0.5475
vt 0.0100 0.6200
vt 0.6200 0.0300
vt 0.6050 0.1900
vt 0.0000 0.6200
vt 0.6050 0.1900
vt 0.6200 0.0300
vt 0.0000 0.6200
vt -0.0100 0.1900
vt -0.0100 0.0300
vt 0.0100 0.0300
vt 0.0100 0.1900
vt 0.6050 0.1900
vt 0.6350 0.2050
vt 0.0000 0.6200
vt 0.6350 0.2050
vt 0.6050 0.1900
vt 0.0000 0.6200
vt -0.0100 0.6350
vt -0.0100 0.6050
vt 0.0100 0.6050
vt 0.0100 0.6350
vt 0.6350 0.2050
vt 0.7150 0.4900
vt 0.0000 0.6200
vt 0.7150 0.4900
vt 0.6350 0.2050
vt 0.0000 0.6200
vt -0.0100 0.4900
vt -0.0100 0.2050
vt 0.0100 0.2050
vt 0.0100 0.4900
vt 0.7150 0.4900
vt 0.7425 0.5500
vt 0.0000 0.6200
vt 0.7425 0.5500
vt 0.7150 0.4900
vt 0.0000 0.6200
vt -0.0100 0.5500
vt -0.0100 0.4900
vt 0.0100 0.4900
vt 0.0100 0.5500
vt 0.7425 0.5500
vt 0.7423 0.5804
vt 0.0000 0.6200
vt 0.7423 0.5804
vt 0.7425 0.5500
vt 0.0000 0.6200
vt -0.0100 0.5804
vt -0.0100 0.5500
vt 0.0100 0.5500
vt 0.0100 0.5804
vt 0.7423 0.5804
vt 0.7416 0.6107
vt 0.0000 0.6200
vt 0.7416 0.6107
vt 0.7423 0.5804
vt 0.0000 0.6200
vt -0.0100 0.6107
vt -0.0100 0.5804
vt 0.0100 0.5804
vt 0.0100 0.6107
vt 0.7416 0.6107
vt 0.7403 0.6411
vt 0.0000 0.6200
vt 0.7403 0.6411
vt 0.7416 0.6107
vt 0.0000 0.6200
vt -0.0100 0.6411
vt -0.0100 0.6107
vt 0.0100 0.6107
vt 0.0100 0.6411
vt 0.7403 0.6411
vt 0.7383 0.6714
vt 0.0000 0.6200
vt 0.7383 0.6714
vt 0.7403 0.6411
vt 0.0000 0.6200
vt -0.0100 0.6714
vt -0.0100 0.6411
vt 0.0100 0.6411
vt 0.0100 0.6714
vt 0.7383 0.6714
vt 0.7355 0.7018
vt 0.0000 0.6200
vt 0.7355 0.7018
vt 0.7383 0.6714
vt 0.0000 0.6200
vt -0.0100 0.7018
vt -0.0100 0.6714
vt 0.0100 0.6714
vt 0.0100 0.7018
vt 0.7355 0.7018
vt 0.7320 0.7321
vt 0.0000 0.6200
vt 0.7320 0.7321
vt 0.7355 0.7018
vt 0.0000 0.6200
vt -0.0100 0.7321
vt -0.0100 0.7018
vt 0.0100 0.7018
vt 0.0100 0.7321
vt 0.7320 0.7321
vt 0.7275 0.7625
vt 0.0000 0.6200
vt 0.7275 0.7625
vt 0.7320 0.7321
vt 0.0000 0.6200
vt -0.0100 0.7625
vt -0.0100 0.7321
vt 0.0100 0.7321
vt 0.0100 0.7625
vt 0.7275 0.7625
vt 0.7222 0.7929
vt 0.0000 0.6200
vt 0.7222 0.7929
vt 0.7275 0.7625
vt 0.0000 0.6200
vt -0.0100 0.7929
vt -0.0100 0.7625
vt 0.0100 0.7625
vt 0.0100 0.7929
vt 0.7222 0.7929
vt 0.7159 0.8232
vt 0.0000 0.6200
vt 0.7159 0.8232
vt 0.7222 0.7929
vt 0.0000 0.6200
vt -0.0100 0.8232
vt -0.0100 0.7929
vt 0.0100 0.7929
vt 0.0100 0.8232
vt 0.7159 0.8232
vt 0.7086 0.8536
vt 0.0000 0.6200
vt 0.7086 0.8536
vt 0.7159 0.8232
vt 0.0000 0.6200
vt -0.0100 0.8536
vt -0.0100 0.8232
vt 0.0100 0.8232
vt 0.0100 0.8536
vt 0.7086 0.8536
vt 0.7002 0.8839
vt 0.0000 0.6200
vt 0.7002 0.8839
vt 0.7086 0.8536
vt 0.0000 0.6200
vt -0.0100 0.8839
vt -0.0100 0.8536
vt 0.0100 0.8536
vt 0.0100 0.8839
vt 0.7002 0.8839
vt 0.6906 0.9143
vt 0.0000 0.6200
vt 0.6906 0.9143
vt 0.7002 0.8839
vt 0.0000 0.6200
vt -0.0100 0.9143
vt -0.0100 0.8839
vt 0.0100 0.8839
vt 0.0100 0.9143
vt 0.6906 0.9143
vt 0.6797 0.9446
vt 0.0000 0.6200
vt 0.6797 0.9446
vt 0.6906 0.9143
vt 0.0000 0.6200
vt -0.0100 0.9446
vt -0.0100 0.9143
vt 0.0100 0.9143
vt 0.0100 0.9446
vt 0.6797 0.9446
vt 0.6676 0.9750
vt 0.0000 0.6200
vt 0.6676 0.9750
vt 0.6797 0.9446
vt 0.0000 0.6200
vt -0.0100 0.9750
vt -0.0100 0.9446
vt 0.0100 0.9446
vt 0.0100 0.9750
vt 0.6676 0.9750
vt 0.6539 1.0054
vt 0.0000 0.6200
vt 0.6539 1.0054
vt 0.6676 0.9750
vt 0.0000 0.6200
vt -0.0100 1.0054
vt -0.0100 0.9750
vt 0.0100 0.9750
vt 0.0100 1.0054
vt 0.6539 1.0054
vt 0.6387 1.0357
vt 0.0000 0.6200
vt 0.6387 1.0357
vt 0.6539 1.0054
vt 0.0000 0.6200
vt -0.0100 1.0357
vt -0.0100 1.0054
vt 0.0100 1.0054
vt 0.0100 1.0357
vt 0.6387 1.0357
vt 0.6217 1.0661
vt 0.0000 0.6200
vt 0.6217 1.0661
vt 0.6387 1.0357
vt 0.0000 0.6200
vt -0.0100 1.0661
vt -0.0100 1.0357
vt 0.0100 1.0357
vt 0.0100 1.0661
vt 0.6217 1.0661
vt 0.6028 1.0964
vt 0.0000 0.6200
vt 0.6028 1.0964
vt 0.6217 1.0661
vt 0.0000 0.6200
vt -0.0100 1.0964
vt -0.0100 1.0661
vt 0.0100 1.0661
vt 0.0100 1.0964
vt 0.6028 1.0964
vt 0.5816 1.1268
vt 0.0000 0.6200
vt 0.5816 1.1268
vt 0.6028 1.0964
vt 0.0000 0.6200
vt -0.0100 1.1268
vt -0.0100 1.0964
vt 0.0100 1.0964
vt 0.0100 1.1268
vt 0.5816 1.1268
vt 0.5580 1.1571
vt 0.0000 0.6200
vt 0.5580 1.1571
vt 0.5816 1.1268
vt 0.0000 0.6200
vt -0.0100 1.1571
vt -0.0100 1.1268
vt 0.0100 1.1268
vt 0.0100 1.1571
vt 0.5580 1.1571
vt 0.5313 1.1875
vt 0.0000 0.6200
vt 0.5313 1.1875
vt 0.5580 1.1571
vt 0.0000 0.6200
vt -0.0100 1.1875
vt -0.0100 1.1571
vt 0.0100 1.1571
vt 0.0100 1.1875
vt 0.5313 1.1875
vt 0.5011 1.2179
vt 0.0000 0.6200
vt 0.5011 1.2179
vt 0.5313 1.1875
vt 0.0000 0.6200
vt -0.0100 1.2179
vt -0.0100 1.1875
vt 0.0100 1.1875
vt 0.0100 1.2179
vt 0.5011 1.2179
vt 0.4665 1.2482
vt 0.0000 0.6200
vt 0.4665 1.2482
vt 0.5011 1.2179
vt 0.0000 0.6200
vt -0.0100 0.4665
vt -0.0100 0.5011
vt 0.0100 0.5011
vt 0.0100 0.4665
vt 0.4665 1.2482
vt 0.4261 1.2786
vt 0.0000 0.6200
vt 0.4261 1.2786
vt 0.4665 1.2482
vt 0.0000 0.6200
vt -0.0100 0.4261
vt -0.0100 0.4665
vt 0.0100 0.4665
vt 0.0100 0.4261
vt 0.4261 1.2786
vt 0.3778 1.3089
vt 0.0000 0.6200
vt 0.3778 1.3089
vt 0.4261 1.2786
vt 0.0000 0.6200
vt -0.0100 0.3778
vt -0.0100 0.4261
vt 0.0100 0.4261
vt 0.0100 0.3778
vt 0.3778 1.3089
vt 0.3173 1.3393
vt 0.0000 0.6200
vt 0.3173 1.3393
vt 0.3778 1.3089
vt 0.0000 0.6200
vt -0.0100 0.3173
vt -0.0100 0.3778
vt 0.0100 0.3778
vt 0.0100 0.3173
vt 0.3173 1.3393
vt 0.2329 1.3696
vt 0.0000 0.6200
vt 0.2329 1.3696
vt 0.3173 1.3393
vt 0.0000 0.6200
vt -0.0100 0.2329
vt -0.0100 0.3173
vt 0.0100 0.3173
vt 0.0100 0.2329
vt 0.2329 1.3696
vt 0.0000 1.3900
vt 0.0000 0.6200
vt 0.0000 1.3900
vt 0.2329 1.3696
vt 0.0000 0.6200
vt -0.0100 0.0000
vt -0.0100 0.2329
vt 0.0100 0.2329
vt 0.0100 0.0000
vt 0.0000 1.3900
vt -0.0000 1.3900
vt 0.0000 0.6200
vt -0.0000 1.3900
vt 0.0000 1.3900
vt 0.0000 0.6200
vt -0.0000 1.3900
vt 0.0000 1.3900
vt 0.0000 1.3900
vt -0.0000 1.3900
f 1/1 2/2 139/3
f 71/4 70/5 140/6
f 2/7 1/8 70/9 71/10
f 2/11 3/12 139/13
f 72/14 71/15 140/16
f 3/17 2/18 71/19 72/20
f 3/21 4/22 139/23
f 73/24 72/25 140/26
f 4/27 3/28 72/29 73/30
f 4/31 5/32 139/33
f 74/34 73/35 140/36
f 5/37 4/38 73/39 74/40
f 5/41 6/42 139/43
f 75/44 74/45 140/46
f 6/47 5/48 74/49 75/50
f 6/51 7/52 139/53
f 76/54 75/55 140/56
f 7/57 6/58 75/59 76/60
f 7/61 8/62 139/63
f 77/64 76/65 140/66
f 8/67 7/68 76/69 77/70
f 8/71 9/72 139/73
f 78/74 77/75 140/76
f 9/77 8/78 77/79 78/80
f 9/81 10/82 139/83
f 79/84 78/85 140/86
f 10/87 9/88 78/89 79/90
f 10/91 11/92 139/93
f 80/94 79/95 140/96
f 11/97 10/98 79/99 80/100
f 11/101 12/102 139/103
f 81/104 80/105 140/106
f 12/107 11/108 80/109 81/110
f 12/111 13/112 139/113
f 82/114 81/115 140/116
f 13/117 12/118 81/119 82/120
f 13/121 14/122 139/123
f 83/124 82/125 140/126
f 14/127 13/128 82/129 83/130
f 14/131 15/132 139/133
f 84/134 83/135 140/136
f 15/137 14/138 83/139 84/140
f 15/141 16/142 139/143
f 85/144 84/145 140/146
f 16/147 15/148 84/149 85/150
f 16/151 17/152 139/153
f 86/154 85/155 140/156
f 17/157 16/158 85/159 86/160
f 17/161 18/162 139/163
f 87/164 86/165 140/166
f 18/167 17/168 86/169 87/170
f 18/171 19/172 139/173
f 88/174 87/175 140/176
f 19/177 18/178 87/179 88/180
f 19/181 20/182 139/183
f 89/184 88/185 140/186
f 20/187 19/188 88/189 89/190
f 20/191 21/192 139/193
f 90/194 89/195 140/196
f 21/197 20/198 89/199 90/200
f 21/201 22/202 139/203
f 91/204 90/205 140/206
f 22/207 21/208 90/209 91/210
f 22/211 23/212 139/213
f 92/214 91/215 140/216
f 23/217 22/218 91/219 92/220
f 23/221 24/222 139/223
f 93/224 92/225 140/226
f 24/227 23/228 92/229 93/230
f 24/231 25/232 139/233
f 94/234 93/235 140/236
f 25/237 24/238 93/239 94/240
f 25/241 26/242 139/243
f 95/244 94/245 140/246
f 26/247 25/248 94/249 95/250
f 26/251 27/252 139/253
f 96/254 95/255 140/256
f 27/257 26/258 95/259 96/260
f 27/261 28/262 139/263
f 97/264 96/265 140/266
f 28/267 27/268 96/269 97/270
f 28/271 29/272 139/273
f 98/274 97/275 140/276
f 29/277 28/278 97/279 98/280
f 29/281 30/282 139/283
f 99/284 98/285 140/286
f 30/287 29/288 98/289 99/290
f 30/291 31/292 139/293
f 100/294 99/295 140/296
f 31/297 30/298 99/299 100/300
f 31/301 32/302 139/303
f 101/304 100/305 140/306
f 32/307 31/308 100/309 101/310
f 32/311 33/312 139/313
f 102/314 101/315 140/316
f 33/317 32/318 101/319 102/320
f 33/321 34/322 139/323
f 103/324 102/325 140/326
f 34/327 33/328 102/329 103/330
f 34/331 35/332 139/333
f 104/334 103/335 140/336
f 35/337 34/338 103/339 104/340
f 35/341 36/342 139/343
f 105/344 104/345 140/346
f 36/347 35/348 104/349 105/350
f 36/351 37/352 139/353
f 106/354 105/355 140/356
f 37/357 36/358 105/359 106/360
f 37/361 38/362 139/363
f 107/364 106/365 140/366
f 38/367 37/368 106/369 107/370
f 38/371 39/372 139/373
f 108/374 107/375 140/376
f 39/377 38/378 107/379 108/380
f 39/381 40/382 139/383
f 109/384 108/385 140/386
f 40/387 39/388 108/389 109/390
f 40/391 41/392 139/393
f 110/394 109/395 140/396
f 41/397 40/398 109/399 110/400
f 41/401 42/402 139/403
f 111/404 110/405 140/406
f 42/407 41/408 110/409 111/410
f 42/411 43/412 139/413
f 112/414 111/415 140/416
f 43/417 42/418 111/419 112/420
f 43/421 44/422 139/423
f 113/424 112/425 140/426
f 44/427 43/428 112/429 113/430
f 44/431 45/432 139/433
f 114/434 113/435 140/436
f 45/437 44/438 113/439 114/440
f 45/441 46/442 139/443
f 115/444 114/445 140/446
f 46/447 45/448 114/449 115/450
f 46/451 47/452 139/453
f 116/454 115/455 140/456
f 47/457 46/458 115/459 116/460
f 47/461 48/462 139/463
f 117/464 116/465 140/466
f 48/467 47/468 116/469 117/470
f 48/471 49/472 139/473
f 118/474 117/475 140/476
f 49/477 48/478 117/479 118/480
f 49/481 50/482 139/483
f 119/484 118/485 140/486
f 50/487 49/488 118/489 119/490
f 50/491 51/492 139/493
f 120/494 119/495 140/496
f 51/497 50/498 119/499 120/500
f 51/501 52/502 139/503
f 121/504 120/505 140/506
f 52/507 51/508 120/509 121/510
f 52/511 53/512 139/513
f 122/514 121/515 140/516
f 53/517 52/518 121/519 122/520
f 53/521 54/522 139/523
f 123/524 122/525 140/526
f 54/527 53/528 122/529 123/530
f 54/531 55/532 139/533
f 124/534 123/535 140/536
f 55/537 54/538 123/539 124/540
f 55/541 56/542 139/543
f 125/544 124/545 140/546
f 56/547 55/548 124/549 125/550
f 56/551 57/552 139/553
f 126/554 125/555 140/556
f 57/557 56/558 125/559 126/560
f 57/561 58/562 139/563
f 127/564 126/565 140/566
f 58/567 57/568 126/569 127/570
f 58/571 59/572 139/573
f 128/574 127/575 140/576
f 59/577 58/578 127/579 128/580
f 59/581 60/582 139/583
f 129/584 128/585 140/586
f 60/587 59/588 128/589 129/590
f 60/591 61/592 139/593
f 130/594 129/595 140/596
f 61/597 60/598 129/599 130/600
f 61/601 62/602 139/603
f 131/604 130/605 140/606
f 62/607 61/608 130/609 131/610
f 62/611 63/612 139/613
f 132/614 131/615 140/616
f 63/617 62/618 131/619 132/620
f 63/621 64/622 139/623
f 133/624 132/625 140/626
f 64/627 63/628 132/629 133/630
f 64/631 65/632 139/633
f 134/634 133/635 140/636
f 65/637 64/638 133/639 134/640
f 65/641 66/642 139/643
f 135/644 134/645 140/646
f 66/647 65/648 134/649 135/650
f 66/651 67/652 139/653
f 136/654 135/655 140/656
f 67/657 66/658 135/659 136/660
f 67/661 68/662 139/663
f 137/664 136/665 140/666
f 68/667 67/668 136/669 137/670
f 68/671 69/672 139/673
f 138/674 137/675 140/676
f 69/677 68/678 137/679 138/680
f 69/681 1/682 139/683
f 70/684 138/685 140/686
f 1/687 69/688 138/689 70/690
