# ASTRAX zero gravity aircraft (MU-300) free area — camera_canon
# build_parts.py が実測値（実機サイズ表）から作る。単位はメートル。X=機首→機尾, Y=上, Z=機首を向いて左（右舷は-Z）
o Canon_Body
v 0.0002 -0.0110 -0.0025
v 0.0002 -0.0110 -0.0023
v 0.0002 -0.0110 -0.0023
v 0.0000 -0.0110 -0.0023
v -0.0002 -0.0110 -0.0023
v -0.0002 -0.0110 -0.0023
v -0.0002 -0.0110 -0.0025
v -0.0002 -0.0110 -0.0027
v -0.0002 -0.0110 -0.0027
v -0.0000 -0.0110 -0.0027
v 0.0002 -0.0110 -0.0027
v 0.0002 -0.0110 -0.0027
v 0.0345 -0.0108 -0.0025
v 0.0338 -0.0108 0.0350
v 0.0313 -0.0108 0.0380
v 0.0002 -0.0108 0.0388
v -0.0313 -0.0108 0.0380
v -0.0338 -0.0108 0.0350
v -0.0345 -0.0108 -0.0023
v -0.0338 -0.0108 -0.0400
v -0.0313 -0.0108 -0.0430
v -0.0002 -0.0108 -0.0438
v 0.0313 -0.0108 -0.0430
v 0.0338 -0.0108 -0.0400
v 0.0372 -0.0100 -0.0025
v 0.0365 -0.0100 0.0380
v 0.0338 -0.0100 0.0412
v 0.0002 -0.0100 0.0421
v -0.0338 -0.0100 0.0412
v -0.0365 -0.0100 0.0380
v -0.0372 -0.0100 -0.0022
v -0.0365 -0.0100 -0.0430
v -0.0338 -0.0100 -0.0462
v -0.0002 -0.0100 -0.0471
v 0.0338 -0.0100 -0.0462
v 0.0365 -0.0100 -0.0430
v 0.0380 0.0000 -0.0025
v 0.0372 0.0000 0.0388
v 0.0345 0.0000 0.0421
v 0.0002 0.0000 0.0430
v -0.0345 0.0000 0.0421
v -0.0372 0.0000 0.0388
v -0.0380 0.0000 -0.0022
v -0.0372 0.0000 -0.0438
v -0.0345 0.0000 -0.0471
v -0.0002 0.0000 -0.0480
v 0.0345 0.0000 -0.0471
v 0.0372 0.0000 -0.0438
v 0.0372 0.0100 -0.0025
v 0.0365 0.0100 0.0380
v 0.0338 0.0100 0.0412
v 0.0002 0.0100 0.0421
v -0.0338 0.0100 0.0412
v -0.0365 0.0100 0.0380
v -0.0372 0.0100 -0.0022
v -0.0365 0.0100 -0.0430
v -0.0338 0.0100 -0.0462
v -0.0002 0.0100 -0.0471
v 0.0338 0.0100 -0.0462
v 0.0365 0.0100 -0.0430
v 0.0345 0.0108 -0.0025
v 0.0338 0.0108 0.0350
v 0.0313 0.0108 0.0380
v 0.0002 0.0108 0.0388
v -0.0313 0.0108 0.0380
v -0.0338 0.0108 0.0350
v -0.0345 0.0108 -0.0023
v -0.0338 0.0108 -0.0400
v -0.0313 0.0108 -0.0430
v -0.0002 0.0108 -0.0438
v 0.0313 0.0108 -0.0430
v 0.0338 0.0108 -0.0400
v 0.0002 0.0110 -0.0025
v 0.0002 0.0110 -0.0023
v 0.0002 0.0110 -0.0023
v 0.0000 0.0110 -0.0023
v -0.0002 0.0110 -0.0023
v -0.0002 0.0110 -0.0023
v -0.0002 0.0110 -0.0025
v -0.0002 0.0110 -0.0027
v -0.0002 0.0110 -0.0027
v -0.0000 0.0110 -0.0027
v 0.0002 0.0110 -0.0027
v 0.0002 0.0110 -0.0027
vt 0.0002 -0.0025
vt 0.0345 -0.0025
vt 0.0338 0.0350
vt 0.0002 -0.0023
vt 0.0002 -0.0023
vt 0.0338 0.0350
vt 0.0313 0.0380
vt 0.0002 -0.0023
vt 0.0002 -0.0023
vt 0.0313 0.0380
vt 0.0002 0.0388
vt 0.0000 -0.0023
vt 0.0000 -0.0023
vt 0.0002 0.0388
vt -0.0313 0.0380
vt -0.0002 -0.0023
vt -0.0002 -0.0023
vt -0.0313 0.0380
vt -0.0338 0.0350
vt -0.0002 -0.0023
vt -0.0002 -0.0023
vt -0.0338 0.0350
vt -0.0345 -0.0023
vt -0.0002 -0.0025
vt -0.0002 -0.0025
vt -0.0345 -0.0023
vt -0.0338 -0.0400
vt -0.0002 -0.0027
vt -0.0002 -0.0027
vt -0.0338 -0.0400
vt -0.0313 -0.0430
vt -0.0002 -0.0027
vt -0.0002 -0.0027
vt -0.0313 -0.0430
vt -0.0002 -0.0438
vt -0.0000 -0.0027
vt -0.0000 -0.0027
vt -0.0002 -0.0438
vt 0.0313 -0.0430
vt 0.0002 -0.0027
vt 0.0002 -0.0027
vt 0.0313 -0.0430
vt 0.0338 -0.0400
vt 0.0002 -0.0027
vt 0.0002 -0.0027
vt 0.0338 -0.0400
vt 0.0345 -0.0025
vt 0.0002 -0.0025
vt 0.0345 -0.0025
vt 0.0372 -0.0025
vt 0.0365 0.0380
vt 0.0338 0.0350
vt 0.0338 0.0350
vt 0.0365 0.0380
vt 0.0338 0.0412
vt 0.0313 0.0380
vt 0.0313 0.0380
vt 0.0338 0.0412
vt 0.0002 0.0421
vt 0.0002 0.0388
vt 0.0002 0.0388
vt 0.0002 0.0421
vt -0.0338 0.0412
vt -0.0313 0.0380
vt -0.0313 0.0380
vt -0.0338 0.0412
vt -0.0365 0.0380
vt -0.0338 0.0350
vt -0.0338 0.0350
vt -0.0365 0.0380
vt -0.0372 -0.0022
vt -0.0345 -0.0023
vt -0.0345 -0.0023
vt -0.0372 -0.0022
vt -0.0365 -0.0430
vt -0.0338 -0.0400
vt -0.0338 -0.0400
vt -0.0365 -0.0430
vt -0.0338 -0.0462
vt -0.0313 -0.0430
vt -0.0313 -0.0430
vt -0.0338 -0.0462
vt -0.0002 -0.0471
vt -0.0002 -0.0438
vt -0.0002 -0.0438
vt -0.0002 -0.0471
vt 0.0338 -0.0462
vt 0.0313 -0.0430
vt 0.0313 -0.0430
vt 0.0338 -0.0462
vt 0.0365 -0.0430
vt 0.0338 -0.0400
vt 0.0338 -0.0400
vt 0.0365 -0.0430
vt 0.0372 -0.0025
vt 0.0345 -0.0025
vt -0.0025 -0.0100
vt -0.0025 0.0000
vt 0.0388 0.0000
vt 0.0380 -0.0100
vt 0.0380 -0.0100
vt 0.0388 0.0000
vt 0.0421 0.0000
vt 0.0412 -0.0100
vt 0.0338 -0.0100
vt 0.0345 0.0000
vt 0.0002 0.0000
vt 0.0002 -0.0100
vt 0.0002 -0.0100
vt 0.0002 0.0000
vt -0.0345 0.0000
vt -0.0338 -0.0100
vt 0.0412 -0.0100
vt 0.0421 0.0000
vt 0.0388 0.0000
vt 0.0380 -0.0100
vt 0.0380 -0.0100
vt 0.0388 0.0000
vt -0.0022 0.0000
vt -0.0022 -0.0100
vt -0.0022 -0.0100
vt -0.0022 0.0000
vt -0.0438 0.0000
vt -0.0430 -0.0100
vt -0.0430 -0.0100
vt -0.0438 0.0000
vt -0.0471 0.0000
vt -0.0462 -0.0100
vt -0.0338 -0.0100
vt -0.0345 0.0000
vt -0.0002 0.0000
vt -0.0002 -0.0100
vt -0.0002 -0.0100
vt -0.0002 0.0000
vt 0.0345 0.0000
vt 0.0338 -0.0100
vt -0.0462 -0.0100
vt -0.0471 0.0000
vt -0.0438 0.0000
vt -0.0430 -0.0100
vt -0.0430 -0.0100
vt -0.0438 0.0000
vt -0.0025 0.0000
vt -0.0025 -0.0100
vt -0.0025 0.0000
vt -0.0025 0.0100
vt 0.0380 0.0100
vt 0.0388 0.0000
vt 0.0388 0.0000
vt 0.0380 0.0100
vt 0.0412 0.0100
vt 0.0421 0.0000
vt 0.0345 0.0000
vt 0.0338 0.0100
vt 0.0002 0.0100
vt 0.0002 0.0000
vt 0.0002 0.0000
vt 0.0002 0.0100
vt -0.0338 0.0100
vt -0.0345 0.0000
vt 0.0421 0.0000
vt 0.0412 0.0100
vt 0.0380 0.0100
vt 0.0388 0.0000
vt 0.0388 0.0000
vt 0.0380 0.0100
vt -0.0022 0.0100
vt -0.0022 0.0000
vt -0.0022 0.0000
vt -0.0022 0.0100
vt -0.0430 0.0100
vt -0.0438 0.0000
vt -0.0438 0.0000
vt -0.0430 0.0100
vt -0.0462 0.0100
vt -0.0471 0.0000
vt -0.0345 0.0000
vt -0.0338 0.0100
vt -0.0002 0.0100
vt -0.0002 0.0000
vt -0.0002 0.0000
vt -0.0002 0.0100
vt 0.0338 0.0100
vt 0.0345 0.0000
vt -0.0471 0.0000
vt -0.0462 0.0100
vt -0.0430 0.0100
vt -0.0438 0.0000
vt -0.0438 0.0000
vt -0.0430 0.0100
vt -0.0025 0.0100
vt -0.0025 0.0000
vt 0.0372 -0.0025
vt 0.0345 -0.0025
vt 0.0338 0.0350
vt 0.0365 0.0380
vt 0.0365 0.0380
vt 0.0338 0.0350
vt 0.0313 0.0380
vt 0.0338 0.0412
vt 0.0338 0.0412
vt 0.0313 0.0380
vt 0.0002 0.0388
vt 0.0002 0.0421
vt 0.0002 0.0421
vt 0.0002 0.0388
vt -0.0313 0.0380
vt -0.0338 0.0412
vt -0.0338 0.0412
vt -0.0313 0.0380
vt -0.0338 0.0350
vt -0.0365 0.0380
vt -0.0365 0.0380
vt -0.0338 0.0350
vt -0.0345 -0.0023
vt -0.0372 -0.0022
vt -0.0372 -0.0022
vt -0.0345 -0.0023
vt -0.0338 -0.0400
vt -0.0365 -0.0430
vt -0.0365 -0.0430
vt -0.0338 -0.0400
vt -0.0313 -0.0430
vt -0.0338 -0.0462
vt -0.0338 -0.0462
vt -0.0313 -0.0430
vt -0.0002 -0.0438
vt -0.0002 -0.0471
vt -0.0002 -0.0471
vt -0.0002 -0.0438
vt 0.0313 -0.0430
vt 0.0338 -0.0462
vt 0.0338 -0.0462
vt 0.0313 -0.0430
vt 0.0338 -0.0400
vt 0.0365 -0.0430
vt 0.0365 -0.0430
vt 0.0338 -0.0400
vt 0.0345 -0.0025
vt 0.0372 -0.0025
vt 0.0345 -0.0025
vt 0.0002 -0.0025
vt 0.0002 -0.0023
vt 0.0338 0.0350
vt 0.0338 0.0350
vt 0.0002 -0.0023
vt 0.0002 -0.0023
vt 0.0313 0.0380
vt 0.0313 0.0380
vt 0.0002 -0.0023
vt 0.0000 -0.0023
vt 0.0002 0.0388
vt 0.0002 0.0388
vt 0.0000 -0.0023
vt -0.0002 -0.0023
vt -0.0313 0.0380
vt -0.0313 0.0380
vt -0.0002 -0.0023
vt -0.0002 -0.0023
vt -0.0338 0.0350
vt -0.0338 0.0350
vt -0.0002 -0.0023
vt -0.0002 -0.0025
vt -0.0345 -0.0023
vt -0.0345 -0.0023
vt -0.0002 -0.0025
vt -0.0002 -0.0027
vt -0.0338 -0.0400
vt -0.0338 -0.0400
vt -0.0002 -0.0027
vt -0.0002 -0.0027
vt -0.0313 -0.0430
vt -0.0313 -0.0430
vt -0.0002 -0.0027
vt -0.0000 -0.0027
vt -0.0002 -0.0438
vt -0.0002 -0.0438
vt -0.0000 -0.0027
vt 0.0002 -0.0027
vt 0.0313 -0.0430
vt 0.0313 -0.0430
vt 0.0002 -0.0027
vt 0.0002 -0.0027
vt 0.0338 -0.0400
vt 0.0338 -0.0400
vt 0.0002 -0.0027
vt 0.0002 -0.0025
vt 0.0345 -0.0025
f 1/1 13/2 14/3 2/4
f 2/5 14/6 15/7 3/8
f 3/9 15/10 16/11 4/12
f 4/13 16/14 17/15 5/16
f 5/17 17/18 18/19 6/20
f 6/21 18/22 19/23 7/24
f 7/25 19/26 20/27 8/28
f 8/29 20/30 21/31 9/32
f 9/33 21/34 22/35 10/36
f 10/37 22/38 23/39 11/40
f 11/41 23/42 24/43 12/44
f 12/45 24/46 13/47 1/48
f 13/49 25/50 26/51 14/52
f 14/53 26/54 27/55 15/56
f 15/57 27/58 28/59 16/60
f 16/61 28/62 29/63 17/64
f 17/65 29/66 30/67 18/68
f 18/69 30/70 31/71 19/72
f 19/73 31/74 32/75 20/76
f 20/77 32/78 33/79 21/80
f 21/81 33/82 34/83 22/84
f 22/85 34/86 35/87 23/88
f 23/89 35/90 36/91 24/92
f 24/93 36/94 25/95 13/96
f 25/97 37/98 38/99 26/100
f 26/101 38/102 39/103 27/104
f 27/105 39/106 40/107 28/108
f 28/109 40/110 41/111 29/112
f 29/113 41/114 42/115 30/116
f 30/117 42/118 43/119 31/120
f 31/121 43/122 44/123 32/124
f 32/125 44/126 45/127 33/128
f 33/129 45/130 46/131 34/132
f 34/133 46/134 47/135 35/136
f 35/137 47/138 48/139 36/140
f 36/141 48/142 37/143 25/144
f 37/145 49/146 50/147 38/148
f 38/149 50/150 51/151 39/152
f 39/153 51/154 52/155 40/156
f 40/157 52/158 53/159 41/160
f 41/161 53/162 54/163 42/164
f 42/165 54/166 55/167 43/168
f 43/169 55/170 56/171 44/172
f 44/173 56/174 57/175 45/176
f 45/177 57/178 58/179 46/180
f 46/181 58/182 59/183 47/184
f 47/185 59/186 60/187 48/188
f 48/189 60/190 49/191 37/192
f 49/193 61/194 62/195 50/196
f 50/197 62/198 63/199 51/200
f 51/201 63/202 64/203 52/204
f 52/205 64/206 65/207 53/208
f 53/209 65/210 66/211 54/212
f 54/213 66/214 67/215 55/216
f 55/217 67/218 68/219 56/220
f 56/221 68/222 69/223 57/224
f 57/225 69/226 70/227 58/228
f 58/229 70/230 71/231 59/232
f 59/233 71/234 72/235 60/236
f 60/237 72/238 61/239 49/240
f 61/241 73/242 74/243 62/244
f 62/245 74/246 75/247 63/248
f 63/249 75/250 76/251 64/252
f 64/253 76/254 77/255 65/256
f 65/257 77/258 78/259 66/260
f 66/261 78/262 79/263 67/264
f 67/265 79/266 80/267 68/268
f 68/269 80/270 81/271 69/272
f 69/273 81/274 82/275 70/276
f 70/277 82/278 83/279 71/280
f 71/281 83/282 84/283 72/284
f 72/285 84/286 73/287 61/288
o Canon_Face
v 0.0000 -0.0110 0.0445
v 0.0000 -0.0110 0.0445
v 0.0000 -0.0110 0.0445
v 0.0000 -0.0110 0.0445
v 0.0000 -0.0110 0.0445
v -0.0000 -0.0110 0.0445
v -0.0000 -0.0110 0.0445
v -0.0000 -0.0110 0.0445
v -0.0000 -0.0110 0.0445
v -0.0000 -0.0110 0.0445
v -0.0000 -0.0110 0.0445
v -0.0000 -0.0110 0.0445
v -0.0000 -0.0110 0.0445
v 0.0000 -0.0110 0.0445
v 0.0000 -0.0110 0.0445
v 0.0000 -0.0110 0.0445
v 0.0285 -0.0107 0.0445
v 0.0278 -0.0107 0.0465
v 0.0257 -0.0107 0.0469
v 0.0214 -0.0107 0.0471
v 0.0000 -0.0107 0.0471
v -0.0214 -0.0107 0.0471
v -0.0257 -0.0107 0.0469
v -0.0278 -0.0107 0.0465
v -0.0285 -0.0107 0.0445
v -0.0278 -0.0107 0.0425
v -0.0257 -0.0107 0.0421
v -0.0214 -0.0107 0.0419
v -0.0000 -0.0107 0.0419
v 0.0214 -0.0107 0.0419
v 0.0257 -0.0107 0.0421
v 0.0278 -0.0107 0.0425
v 0.0342 -0.0099 0.0445
v 0.0334 -0.0099 0.0469
v 0.0309 -0.0099 0.0473
v 0.0257 -0.0099 0.0476
v 0.0000 -0.0099 0.0477
v -0.0257 -0.0099 0.0476
v -0.0309 -0.0099 0.0473
v -0.0334 -0.0099 0.0469
v -0.0342 -0.0099 0.0445
v -0.0334 -0.0099 0.0421
v -0.0309 -0.0099 0.0417
v -0.0257 -0.0099 0.0414
v -0.0000 -0.0099 0.0413
v 0.0257 -0.0099 0.0414
v 0.0309 -0.0099 0.0417
v 0.0334 -0.0099 0.0421
v 0.0371 -0.0082 0.0445
v 0.0362 -0.0082 0.0471
v 0.0334 -0.0082 0.0476
v 0.0278 -0.0082 0.0478
v 0.0000 -0.0082 0.0479
v -0.0278 -0.0082 0.0478
v -0.0334 -0.0082 0.0476
v -0.0362 -0.0082 0.0471
v -0.0371 -0.0082 0.0445
v -0.0362 -0.0082 0.0419
v -0.0334 -0.0082 0.0414
v -0.0278 -0.0082 0.0412
v -0.0000 -0.0082 0.0411
v 0.0278 -0.0082 0.0412
v 0.0334 -0.0082 0.0414
v 0.0362 -0.0082 0.0419
v 0.0380 0.0000 0.0445
v 0.0371 0.0000 0.0471
v 0.0342 0.0000 0.0477
v 0.0285 0.0000 0.0479
v 0.0000 0.0000 0.0480
v -0.0285 0.0000 0.0479
v -0.0342 0.0000 0.0477
v -0.0371 0.0000 0.0471
v -0.0380 0.0000 0.0445
v -0.0371 0.0000 0.0419
v -0.0342 0.0000 0.0413
v -0.0285 0.0000 0.0411
v -0.0000 0.0000 0.0410
v 0.0285 0.0000 0.0411
v 0.0342 0.0000 0.0413
v 0.0371 0.0000 0.0419
v 0.0371 0.0082 0.0445
v 0.0362 0.0082 0.0471
v 0.0334 0.0082 0.0476
v 0.0278 0.0082 0.0478
v 0.0000 0.0082 0.0479
v -0.0278 0.0082 0.0478
v -0.0334 0.0082 0.0476
v -0.0362 0.0082 0.0471
v -0.0371 0.0082 0.0445
v -0.0362 0.0082 0.0419
v -0.0334 0.0082 0.0414
v -0.0278 0.0082 0.0412
v -0.0000 0.0082 0.0411
v 0.0278 0.0082 0.0412
v 0.0334 0.0082 0.0414
v 0.0362 0.0082 0.0419
v 0.0342 0.0099 0.0445
v 0.0334 0.0099 0.0469
v 0.0309 0.0099 0.0473
v 0.0257 0.0099 0.0476
v 0.0000 0.0099 0.0477
v -0.0257 0.0099 0.0476
v -0.0309 0.0099 0.0473
v -0.0334 0.0099 0.0469
v -0.0342 0.0099 0.0445
v -0.0334 0.0099 0.0421
v -0.0309 0.0099 0.0417
v -0.0257 0.0099 0.0414
v -0.0000 0.0099 0.0413
v 0.0257 0.0099 0.0414
v 0.0309 0.0099 0.0417
v 0.0334 0.0099 0.0421
v 0.0285 0.0107 0.0445
v 0.0278 0.0107 0.0465
v 0.0257 0.0107 0.0469
v 0.0214 0.0107 0.0471
v 0.0000 0.0107 0.0471
v -0.0214 0.0107 0.0471
v -0.0257 0.0107 0.0469
v -0.0278 0.0107 0.0465
v -0.0285 0.0107 0.0445
v -0.0278 0.0107 0.0425
v -0.0257 0.0107 0.0421
v -0.0214 0.0107 0.0419
v -0.0000 0.0107 0.0419
v 0.0214 0.0107 0.0419
v 0.0257 0.0107 0.0421
v 0.0278 0.0107 0.0425
v 0.0000 0.0110 0.0445
v 0.0000 0.0110 0.0445
v 0.0000 0.0110 0.0445
v 0.0000 0.0110 0.0445
v 0.0000 0.0110 0.0445
v -0.0000 0.0110 0.0445
v -0.0000 0.0110 0.0445
v -0.0000 0.0110 0.0445
v -0.0000 0.0110 0.0445
v -0.0000 0.0110 0.0445
v -0.0000 0.0110 0.0445
v -0.0000 0.0110 0.0445
v -0.0000 0.0110 0.0445
v 0.0000 0.0110 0.0445
v 0.0000 0.0110 0.0445
v 0.0000 0.0110 0.0445
vt 0.0000 0.0445
vt 0.0285 0.0445
vt 0.0278 0.0465
vt 0.0000 0.0445
vt 0.0000 0.0445
vt 0.0278 0.0465
vt 0.0257 0.0469
vt 0.0000 0.0445
vt 0.0000 0.0445
vt 0.0257 0.0469
vt 0.0214 0.0471
vt 0.0000 0.0445
vt 0.0000 0.0445
vt 0.0214 0.0471
vt 0.0000 0.0471
vt 0.0000 0.0445
vt 0.0000 0.0445
vt 0.0000 0.0471
vt -0.0214 0.0471
vt -0.0000 0.0445
vt -0.0000 0.0445
vt -0.0214 0.0471
vt -0.0257 0.0469
vt -0.0000 0.0445
vt -0.0000 0.0445
vt -0.0257 0.0469
vt -0.0278 0.0465
vt -0.0000 0.0445
vt -0.0000 0.0445
vt -0.0278 0.0465
vt -0.0285 0.0445
vt -0.0000 0.0445
vt -0.0000 0.0445
vt -0.0285 0.0445
vt -0.0278 0.0425
vt -0.0000 0.0445
vt -0.0000 0.0445
vt -0.0278 0.0425
vt -0.0257 0.0421
vt -0.0000 0.0445
vt -0.0000 0.0445
vt -0.0257 0.0421
vt -0.0214 0.0419
vt -0.0000 0.0445
vt -0.0000 0.0445
vt -0.0214 0.0419
vt -0.0000 0.0419
vt -0.0000 0.0445
vt -0.0000 0.0445
vt -0.0000 0.0419
vt 0.0214 0.0419
vt 0.0000 0.0445
vt 0.0000 0.0445
vt 0.0214 0.0419
vt 0.0257 0.0421
vt 0.0000 0.0445
vt 0.0000 0.0445
vt 0.0257 0.0421
vt 0.0278 0.0425
vt 0.0000 0.0445
vt 0.0000 0.0445
vt 0.0278 0.0425
vt 0.0285 0.0445
vt 0.0000 0.0445
vt 0.0285 0.0445
vt 0.0342 0.0445
vt 0.0334 0.0469
vt 0.0278 0.0465
vt 0.0278 0.0465
vt 0.0334 0.0469
vt 0.0309 0.0473
vt 0.0257 0.0469
vt 0.0257 -0.0107
vt 0.0309 -0.0099
vt 0.0257 -0.0099
vt 0.0214 -0.0107
vt 0.0214 -0.0107
vt 0.0257 -0.0099
vt 0.0000 -0.0099
vt 0.0000 -0.0107
vt 0.0000 -0.0107
vt 0.0000 -0.0099
vt -0.0257 -0.0099
vt -0.0214 -0.0107
vt -0.0214 -0.0107
vt -0.0257 -0.0099
vt -0.0309 -0.0099
vt -0.0257 -0.0107
vt -0.0257 0.0469
vt -0.0309 0.0473
vt -0.0334 0.0469
vt -0.0278 0.0465
vt -0.0278 0.0465
vt -0.0334 0.0469
vt -0.0342 0.0445
vt -0.0285 0.0445
vt -0.0285 0.0445
vt -0.0342 0.0445
vt -0.0334 0.0421
vt -0.0278 0.0425
vt -0.0278 0.0425
vt -0.0334 0.0421
vt -0.0309 0.0417
vt -0.0257 0.0421
vt -0.0257 -0.0107
vt -0.0309 -0.0099
vt -0.0257 -0.0099
vt -0.0214 -0.0107
vt -0.0214 -0.0107
vt -0.0257 -0.0099
vt -0.0000 -0.0099
vt -0.0000 -0.0107
vt -0.0000 -0.0107
vt -0.0000 -0.0099
vt 0.0257 -0.0099
vt 0.0214 -0.0107
vt 0.0214 -0.0107
vt 0.0257 -0.0099
vt 0.0309 -0.0099
vt 0.0257 -0.0107
vt 0.0257 0.0421
vt 0.0309 0.0417
vt 0.0334 0.0421
vt 0.0278 0.0425
vt 0.0278 0.0425
vt 0.0334 0.0421
vt 0.0342 0.0445
vt 0.0285 0.0445
vt 0.0342 0.0445
vt 0.0371 0.0445
vt 0.0362 0.0471
vt 0.0334 0.0469
vt 0.0334 -0.0099
vt 0.0362 -0.0082
vt 0.0334 -0.0082
vt 0.0309 -0.0099
vt 0.0309 -0.0099
vt 0.0334 -0.0082
vt 0.0278 -0.0082
vt 0.0257 -0.0099
vt 0.0257 -0.0099
vt 0.0278 -0.0082
vt 0.0000 -0.0082
vt 0.0000 -0.0099
vt 0.0000 -0.0099
vt 0.0000 -0.0082
vt -0.0278 -0.0082
vt -0.0257 -0.0099
vt -0.0257 -0.0099
vt -0.0278 -0.0082
vt -0.0334 -0.0082
vt -0.0309 -0.0099
vt -0.0309 -0.0099
vt -0.0334 -0.0082
vt -0.0362 -0.0082
vt -0.0334 -0.0099
vt -0.0334 0.0469
vt -0.0362 0.0471
vt -0.0371 0.0445
vt -0.0342 0.0445
vt -0.0342 0.0445
vt -0.0371 0.0445
vt -0.0362 0.0419
vt -0.0334 0.0421
vt -0.0334 -0.0099
vt -0.0362 -0.0082
vt -0.0334 -0.0082
vt -0.0309 -0.0099
vt -0.0309 -0.0099
vt -0.0334 -0.0082
vt -0.0278 -0.0082
vt -0.0257 -0.0099
vt -0.0257 -0.0099
vt -0.0278 -0.0082
vt -0.0000 -0.0082
vt -0.0000 -0.0099
vt -0.0000 -0.0099
vt -0.0000 -0.0082
vt 0.0278 -0.0082
vt 0.0257 -0.0099
vt 0.0257 -0.0099
vt 0.0278 -0.0082
vt 0.0334 -0.0082
vt 0.0309 -0.0099
vt 0.0309 -0.0099
vt 0.0334 -0.0082
vt 0.0362 -0.0082
vt 0.0334 -0.0099
vt 0.0334 0.0421
vt 0.0362 0.0419
vt 0.0371 0.0445
vt 0.0342 0.0445
vt 0.0445 -0.0082
vt 0.0445 0.0000
vt 0.0471 0.0000
vt 0.0471 -0.0082
vt 0.0362 -0.0082
vt 0.0371 0.0000
vt 0.0342 0.0000
vt 0.0334 -0.0082
vt 0.0334 -0.0082
vt 0.0342 0.0000
vt 0.0285 0.0000
vt 0.0278 -0.0082
vt 0.0278 -0.0082
vt 0.0285 0.0000
vt 0.0000 0.0000
vt 0.0000 -0.0082
vt 0.0000 -0.0082
vt 0.0000 0.0000
vt -0.0285 0.0000
vt -0.0278 -0.0082
vt -0.0278 -0.0082
vt -0.0285 0.0000
vt -0.0342 0.0000
vt -0.0334 -0.0082
vt -0.0334 -0.0082
vt -0.0342 0.0000
vt -0.0371 0.0000
vt -0.0362 -0.0082
vt 0.0471 -0.0082
vt 0.0471 0.0000
vt 0.0445 0.0000
vt 0.0445 -0.0082
vt 0.0445 -0.0082
vt 0.0445 0.0000
vt 0.0419 0.0000
vt 0.0419 -0.0082
vt -0.0362 -0.0082
vt -0.0371 0.0000
vt -0.0342 0.0000
vt -0.0334 -0.0082
vt -0.0334 -0.0082
vt -0.0342 0.0000
vt -0.0285 0.0000
vt -0.0278 -0.0082
vt -0.0278 -0.0082
vt -0.0285 0.0000
vt -0.0000 0.0000
vt -0.0000 -0.0082
vt -0.0000 -0.0082
vt -0.0000 0.0000
vt 0.0285 0.0000
vt 0.0278 -0.0082
vt 0.0278 -0.0082
vt 0.0285 0.0000
vt 0.0342 0.0000
vt 0.0334 -0.0082
vt 0.0334 -0.0082
vt 0.0342 0.0000
vt 0.0371 0.0000
vt 0.0362 -0.0082
vt 0.0419 -0.0082
vt 0.0419 0.0000
vt 0.0445 0.0000
vt 0.0445 -0.0082
vt 0.0445 0.0000
vt 0.0445 0.0082
vt 0.0471 0.0082
vt 0.0471 0.0000
vt 0.0371 0.0000
vt 0.0362 0.0082
vt 0.0334 0.0082
vt 0.0342 0.0000
vt 0.0342 0.0000
vt 0.0334 0.0082
vt 0.0278 0.0082
vt 0.0285 0.0000
vt 0.0285 0.0000
vt 0.0278 0.0082
vt 0.0000 0.0082
vt 0.0000 0.0000
vt 0.0000 0.0000
vt 0.0000 0.0082
vt -0.0278 0.0082
vt -0.0285 0.0000
vt -0.0285 0.0000
vt -0.0278 0.0082
vt -0.0334 0.0082
vt -0.0342 0.0000
vt -0.0342 0.0000
vt -0.0334 0.0082
vt -0.0362 0.0082
vt -0.0371 0.0000
vt 0.0471 0.0000
vt 0.0471 0.0082
vt 0.0445 0.0082
vt 0.0445 0.0000
vt 0.0445 0.0000
vt 0.0445 0.0082
vt 0.0419 0.0082
vt 0.0419 0.0000
vt -0.0371 0.0000
vt -0.0362 0.0082
vt -0.0334 0.0082
vt -0.0342 0.0000
vt -0.0342 0.0000
vt -0.0334 0.0082
vt -0.0278 0.0082
vt -0.0285 0.0000
vt -0.0285 0.0000
vt -0.0278 0.0082
vt -0.0000 0.0082
vt -0.0000 0.0000
vt -0.0000 0.0000
vt -0.0000 0.0082
vt 0.0278 0.0082
vt 0.0285 0.0000
vt 0.0285 0.0000
vt 0.0278 0.0082
vt 0.0334 0.0082
vt 0.0342 0.0000
vt 0.0342 0.0000
vt 0.0334 0.0082
vt 0.0362 0.0082
vt 0.0371 0.0000
vt 0.0419 0.0000
vt 0.0419 0.0082
vt 0.0445 0.0082
vt 0.0445 0.0000
vt 0.0371 0.0445
vt 0.0342 0.0445
vt 0.0334 0.0469
vt 0.0362 0.0471
vt 0.0362 0.0082
vt 0.0334 0.0099
vt 0.0309 0.0099
vt 0.0334 0.0082
vt 0.0334 0.0082
vt 0.0309 0.0099
vt 0.0257 0.0099
vt 0.0278 0.0082
vt 0.0278 0.0082
vt 0.0257 0.0099
vt 0.0000 0.0099
vt 0.0000 0.0082
vt 0.0000 0.0082
vt 0.0000 0.0099
vt -0.0257 0.0099
vt -0.0278 0.0082
vt -0.0278 0.0082
vt -0.0257 0.0099
vt -0.0309 0.0099
vt -0.0334 0.0082
vt -0.0334 0.0082
vt -0.0309 0.0099
vt -0.0334 0.0099
vt -0.0362 0.0082
vt -0.0362 0.0471
vt -0.0334 0.0469
vt -0.0342 0.0445
vt -0.0371 0.0445
vt -0.0371 0.0445
vt -0.0342 0.0445
vt -0.0334 0.0421
vt -0.0362 0.0419
vt -0.0362 0.0082
vt -0.0334 0.0099
vt -0.0309 0.0099
vt -0.0334 0.0082
vt -0.0334 0.0082
vt -0.0309 0.0099
vt -0.0257 0.0099
vt -0.0278 0.0082
vt -0.0278 0.0082
vt -0.0257 0.0099
vt -0.0000 0.0099
vt -0.0000 0.0082
vt -0.0000 0.0082
vt -0.0000 0.0099
vt 0.0257 0.0099
vt 0.0278 0.0082
vt 0.0278 0.0082
vt 0.0257 0.0099
vt 0.0309 0.0099
vt 0.0334 0.0082
vt 0.0334 0.0082
vt 0.0309 0.0099
vt 0.0334 0.0099
vt 0.0362 0.0082
vt 0.0362 0.0419
vt 0.0334 0.0421
vt 0.0342 0.0445
vt 0.0371 0.0445
vt 0.0342 0.0445
vt 0.0285 0.0445
vt 0.0278 0.0465
vt 0.0334 0.0469
vt 0.0334 0.0469
vt 0.0278 0.0465
vt 0.0257 0.0469
vt 0.0309 0.0473
vt 0.0309 0.0099
vt 0.0257 0.0107
vt 0.0214 0.0107
vt 0.0257 0.0099
vt 0.0257 0.0099
vt 0.0214 0.0107
vt 0.0000 0.0107
vt 0.0000 0.0099
vt 0.0000 0.0099
vt 0.0000 0.0107
vt -0.0214 0.0107
vt -0.0257 0.0099
vt -0.0257 0.0099
vt -0.0214 0.0107
vt -0.0257 0.0107
vt -0.0309 0.0099
vt -0.0309 0.0473
vt -0.0257 0.0469
vt -0.0278 0.0465
vt -0.0334 0.0469
vt -0.0334 0.0469
vt -0.0278 0.0465
vt -0.0285 0.0445
vt -0.0342 0.0445
vt -0.0342 0.0445
vt -0.0285 0.0445
vt -0.0278 0.0425
vt -0.0334 0.0421
vt -0.0334 0.0421
vt -0.0278 0.0425
vt -0.0257 0.0421
vt -0.0309 0.0417
vt -0.0309 0.0099
vt -0.0257 0.0107
vt -0.0214 0.0107
vt -0.0257 0.0099
vt -0.0257 0.0099
vt -0.0214 0.0107
vt -0.0000 0.0107
vt -0.0000 0.0099
vt -0.0000 0.0099
vt -0.0000 0.0107
vt 0.0214 0.0107
vt 0.0257 0.0099
vt 0.0257 0.0099
vt 0.0214 0.0107
vt 0.0257 0.0107
vt 0.0309 0.0099
vt 0.0309 0.0417
vt 0.0257 0.0421
vt 0.0278 0.0425
vt 0.0334 0.0421
vt 0.0334 0.0421
vt 0.0278 0.0425
vt 0.0285 0.0445
vt 0.0342 0.0445
vt 0.0285 0.0445
vt 0.0000 0.0445
vt 0.0000 0.0445
vt 0.0278 0.0465
vt 0.0278 0.0465
vt 0.0000 0.0445
vt 0.0000 0.0445
vt 0.0257 0.0469
vt 0.0257 0.0469
vt 0.0000 0.0445
vt 0.0000 0.0445
vt 0.0214 0.0471
vt 0.0214 0.0471
vt 0.0000 0.0445
vt 0.0000 0.0445
vt 0.0000 0.0471
vt 0.0000 0.0471
vt 0.0000 0.0445
vt -0.0000 0.0445
vt -0.0214 0.0471
vt -0.0214 0.0471
vt -0.0000 0.0445
vt -0.0000 0.0445
vt -0.0257 0.0469
vt -0.0257 0.0469
vt -0.0000 0.0445
vt -0.0000 0.0445
vt -0.0278 0.0465
vt -0.0278 0.0465
vt -0.0000 0.0445
vt -0.0000 0.0445
vt -0.0285 0.0445
vt -0.0285 0.0445
vt -0.0000 0.0445
vt -0.0000 0.0445
vt -0.0278 0.0425
vt -0.0278 0.0425
vt -0.0000 0.0445
vt -0.0000 0.0445
vt -0.0257 0.0421
vt -0.0257 0.0421
vt -0.0000 0.0445
vt -0.0000 0.0445
vt -0.0214 0.0419
vt -0.0214 0.0419
vt -0.0000 0.0445
vt -0.0000 0.0445
vt -0.0000 0.0419
vt -0.0000 0.0419
vt -0.0000 0.0445
vt 0.0000 0.0445
vt 0.0214 0.0419
vt 0.0214 0.0419
vt 0.0000 0.0445
vt 0.0000 0.0445
vt 0.0257 0.0421
vt 0.0257 0.0421
vt 0.0000 0.0445
vt 0.0000 0.0445
vt 0.0278 0.0425
vt 0.0278 0.0425
vt 0.0000 0.0445
vt 0.0000 0.0445
vt 0.0285 0.0445
f 85/289 101/290 102/291 86/292
f 86/293 102/294 103/295 87/296
f 87/297 103/298 104/299 88/300
f 88/301 104/302 105/303 89/304
f 89/305 105/306 106/307 90/308
f 90/309 106/310 107/311 91/312
f 91/313 107/314 108/315 92/316
f 92/317 108/318 109/319 93/320
f 93/321 109/322 110/323 94/324
f 94/325 110/326 111/327 95/328
f 95/329 111/330 112/331 96/332
f 96/333 112/334 113/335 97/336
f 97/337 113/338 114/339 98/340
f 98/341 114/342 115/343 99/344
f 99/345 115/346 116/347 100/348
f 100/349 116/350 101/351 85/352
f 101/353 117/354 118/355 102/356
f 102/357 118/358 119/359 103/360
f 103/361 119/362 120/363 104/364
f 104/365 120/366 121/367 105/368
f 105/369 121/370 122/371 106/372
f 106/373 122/374 123/375 107/376
f 107/377 123/378 124/379 108/380
f 108/381 124/382 125/383 109/384
f 109/385 125/386 126/387 110/388
f 110/389 126/390 127/391 111/392
f 111/393 127/394 128/395 112/396
f 112/397 128/398 129/399 113/400
f 113/401 129/402 130/403 114/404
f 114/405 130/406 131/407 115/408
f 115/409 131/410 132/411 116/412
f 116/413 132/414 117/415 101/416
f 117/417 133/418 134/419 118/420
f 118/421 134/422 135/423 119/424
f 119/425 135/426 136/427 120/428
f 120/429 136/430 137/431 121/432
f 121/433 137/434 138/435 122/436
f 122/437 138/438 139/439 123/440
f 123/441 139/442 140/443 124/444
f 124/445 140/446 141/447 125/448
f 125/449 141/450 142/451 126/452
f 126/453 142/454 143/455 127/456
f 127/457 143/458 144/459 128/460
f 128/461 144/462 145/463 129/464
f 129/465 145/466 146/467 130/468
f 130/469 146/470 147/471 131/472
f 131/473 147/474 148/475 132/476
f 132/477 148/478 133/479 117/480
f 133/481 149/482 150/483 134/484
f 134/485 150/486 151/487 135/488
f 135/489 151/490 152/491 136/492
f 136/493 152/494 153/495 137/496
f 137/497 153/498 154/499 138/500
f 138/501 154/502 155/503 139/504
f 139/505 155/506 156/507 140/508
f 140/509 156/510 157/511 141/512
f 141/513 157/514 158/515 142/516
f 142/517 158/518 159/519 143/520
f 143/521 159/522 160/523 144/524
f 144/525 160/526 161/527 145/528
f 145/529 161/530 162/531 146/532
f 146/533 162/534 163/535 147/536
f 147/537 163/538 164/539 148/540
f 148/541 164/542 149/543 133/544
f 149/545 165/546 166/547 150/548
f 150/549 166/550 167/551 151/552
f 151/553 167/554 168/555 152/556
f 152/557 168/558 169/559 153/560
f 153/561 169/562 170/563 154/564
f 154/565 170/566 171/567 155/568
f 155/569 171/570 172/571 156/572
f 156/573 172/574 173/575 157/576
f 157/577 173/578 174/579 158/580
f 158/581 174/582 175/583 159/584
f 159/585 175/586 176/587 160/588
f 160/589 176/590 177/591 161/592
f 161/593 177/594 178/595 162/596
f 162/597 178/598 179/599 163/600
f 163/601 179/602 180/603 164/604
f 164/605 180/606 165/607 149/608
f 165/609 181/610 182/611 166/612
f 166/613 182/614 183/615 167/616
f 167/617 183/618 184/619 168/620
f 168/621 184/622 185/623 169/624
f 169/625 185/626 186/627 170/628
f 170/629 186/630 187/631 171/632
f 171/633 187/634 188/635 172/636
f 172/637 188/638 189/639 173/640
f 173/641 189/642 190/643 174/644
f 174/645 190/646 191/647 175/648
f 175/649 191/650 192/651 176/652
f 176/653 192/654 193/655 177/656
f 177/657 193/658 194/659 178/660
f 178/661 194/662 195/663 179/664
f 179/665 195/666 196/667 180/668
f 180/669 196/670 181/671 165/672
f 181/673 197/674 198/675 182/676
f 182/677 198/678 199/679 183/680
f 183/681 199/682 200/683 184/684
f 184/685 200/686 201/687 185/688
f 185/689 201/690 202/691 186/692
f 186/693 202/694 203/695 187/696
f 187/697 203/698 204/699 188/700
f 188/701 204/702 205/703 189/704
f 189/705 205/706 206/707 190/708
f 190/709 206/710 207/711 191/712
f 191/713 207/714 208/715 192/716
f 192/717 208/718 209/719 193/720
f 193/721 209/722 210/723 194/724
f 194/725 210/726 211/727 195/728
f 195/729 211/730 212/731 196/732
f 196/733 212/734 197/735 181/736
f 197/737 213/738 214/739 198/740
f 198/741 214/742 215/743 199/744
f 199/745 215/746 216/747 200/748
f 200/749 216/750 217/751 201/752
f 201/753 217/754 218/755 202/756
f 202/757 218/758 219/759 203/760
f 203/761 219/762 220/763 204/764
f 204/765 220/766 221/767 205/768
f 205/769 221/770 222/771 206/772
f 206/773 222/774 223/775 207/776
f 207/777 223/778 224/779 208/780
f 208/781 224/782 225/783 209/784
f 209/785 225/786 226/787 210/788
f 210/789 226/790 227/791 211/792
f 211/793 227/794 228/795 212/796
f 212/797 228/798 213/799 197/800
o Canon_Recess
v 0.0000 -0.0085 0.0485
v 0.0000 -0.0085 0.0485
v 0.0000 -0.0085 0.0485
v 0.0000 -0.0085 0.0485
v -0.0000 -0.0085 0.0485
v -0.0000 -0.0085 0.0485
v -0.0000 -0.0085 0.0485
v -0.0000 -0.0085 0.0485
v -0.0000 -0.0085 0.0485
v -0.0000 -0.0085 0.0485
v 0.0000 -0.0085 0.0485
v 0.0000 -0.0085 0.0485
v 0.0126 -0.0081 0.0485
v 0.0119 -0.0081 0.0494
v 0.0098 -0.0081 0.0496
v 0.0000 -0.0081 0.0497
v -0.0098 -0.0081 0.0496
v -0.0119 -0.0081 0.0494
v -0.0126 -0.0081 0.0485
v -0.0119 -0.0081 0.0476
v -0.0098 -0.0081 0.0474
v -0.0000 -0.0081 0.0473
v 0.0098 -0.0081 0.0474
v 0.0119 -0.0081 0.0476
v 0.0152 -0.0067 0.0485
v 0.0145 -0.0067 0.0496
v 0.0119 -0.0067 0.0499
v 0.0000 -0.0067 0.0499
v -0.0119 -0.0067 0.0499
v -0.0145 -0.0067 0.0496
v -0.0152 -0.0067 0.0485
v -0.0145 -0.0067 0.0474
v -0.0119 -0.0067 0.0471
v -0.0000 -0.0067 0.0471
v 0.0119 -0.0067 0.0471
v 0.0145 -0.0067 0.0474
v 0.0160 0.0000 0.0485
v 0.0152 0.0000 0.0497
v 0.0126 0.0000 0.0499
v 0.0000 0.0000 0.0500
v -0.0126 0.0000 0.0499
v -0.0152 0.0000 0.0497
v -0.0160 0.0000 0.0485
v -0.0152 0.0000 0.0473
v -0.0126 0.0000 0.0471
v -0.0000 0.0000 0.0470
v 0.0126 0.0000 0.0471
v 0.0152 0.0000 0.0473
v 0.0152 0.0067 0.0485
v 0.0145 0.0067 0.0496
v 0.0119 0.0067 0.0499
v 0.0000 0.0067 0.0499
v -0.0119 0.0067 0.0499
v -0.0145 0.0067 0.0496
v -0.0152 0.0067 0.0485
v -0.0145 0.0067 0.0474
v -0.0119 0.0067 0.0471
v -0.0000 0.0067 0.0471
v 0.0119 0.0067 0.0471
v 0.0145 0.0067 0.0474
v 0.0126 0.0081 0.0485
v 0.0119 0.0081 0.0494
v 0.0098 0.0081 0.0496
v 0.0000 0.0081 0.0497
v -0.0098 0.0081 0.0496
v -0.0119 0.0081 0.0494
v -0.0126 0.0081 0.0485
v -0.0119 0.0081 0.0476
v -0.0098 0.0081 0.0474
v -0.0000 0.0081 0.0473
v 0.0098 0.0081 0.0474
v 0.0119 0.0081 0.0476
v 0.0000 0.0085 0.0485
v 0.0000 0.0085 0.0485
v 0.0000 0.0085 0.0485
v 0.0000 0.0085 0.0485
v -0.0000 0.0085 0.0485
v -0.0000 0.0085 0.0485
v -0.0000 0.0085 0.0485
v -0.0000 0.0085 0.0485
v -0.0000 0.0085 0.0485
v -0.0000 0.0085 0.0485
v 0.0000 0.0085 0.0485
v 0.0000 0.0085 0.0485
vt 0.0000 0.0485
vt 0.0126 0.0485
vt 0.0119 0.0494
vt 0.0000 0.0485
vt 0.0000 0.0485
vt 0.0119 0.0494
vt 0.0098 0.0496
vt 0.0000 0.0485
vt 0.0000 0.0485
vt 0.0098 0.0496
vt 0.0000 0.0497
vt 0.0000 0.0485
vt 0.0000 0.0485
vt 0.0000 0.0497
vt -0.0098 0.0496
vt -0.0000 0.0485
vt -0.0000 0.0485
vt -0.0098 0.0496
vt -0.0119 0.0494
vt -0.0000 0.0485
vt -0.0000 0.0485
vt -0.0119 0.0494
vt -0.0126 0.0485
vt -0.0000 0.0485
vt -0.0000 0.0485
vt -0.0126 0.0485
vt -0.0119 0.0476
vt -0.0000 0.0485
vt -0.0000 0.0485
vt -0.0119 0.0476
vt -0.0098 0.0474
vt -0.0000 0.0485
vt -0.0000 0.0485
vt -0.0098 0.0474
vt -0.0000 0.0473
vt -0.0000 0.0485
vt -0.0000 0.0485
vt -0.0000 0.0473
vt 0.0098 0.0474
vt 0.0000 0.0485
vt 0.0000 0.0485
vt 0.0098 0.0474
vt 0.0119 0.0476
vt 0.0000 0.0485
vt 0.0000 0.0485
vt 0.0119 0.0476
vt 0.0126 0.0485
vt 0.0000 0.0485
vt 0.0126 0.0485
vt 0.0152 0.0485
vt 0.0145 0.0496
vt 0.0119 0.0494
vt 0.0119 -0.0081
vt 0.0145 -0.0067
vt 0.0119 -0.0067
vt 0.0098 -0.0081
vt 0.0098 -0.0081
vt 0.0119 -0.0067
vt 0.0000 -0.0067
vt 0.0000 -0.0081
vt 0.0000 -0.0081
vt 0.0000 -0.0067
vt -0.0119 -0.0067
vt -0.0098 -0.0081
vt -0.0098 -0.0081
vt -0.0119 -0.0067
vt -0.0145 -0.0067
vt -0.0119 -0.0081
vt -0.0119 0.0494
vt -0.0145 0.0496
vt -0.0152 0.0485
vt -0.0126 0.0485
vt -0.0126 0.0485
vt -0.0152 0.0485
vt -0.0145 0.0474
vt -0.0119 0.0476
vt -0.0119 -0.0081
vt -0.0145 -0.0067
vt -0.0119 -0.0067
vt -0.0098 -0.0081
vt -0.0098 -0.0081
vt -0.0119 -0.0067
vt -0.0000 -0.0067
vt -0.0000 -0.0081
vt -0.0000 -0.0081
vt -0.0000 -0.0067
vt 0.0119 -0.0067
vt 0.0098 -0.0081
vt 0.0098 -0.0081
vt 0.0119 -0.0067
vt 0.0145 -0.0067
vt 0.0119 -0.0081
vt 0.0119 0.0476
vt 0.0145 0.0474
vt 0.0152 0.0485
vt 0.0126 0.0485
vt 0.0485 -0.0067
vt 0.0485 0.0000
vt 0.0497 0.0000
vt 0.0496 -0.0067
vt 0.0145 -0.0067
vt 0.0152 0.0000
vt 0.0126 0.0000
vt 0.0119 -0.0067
vt 0.0119 -0.0067
vt 0.0126 0.0000
vt 0.0000 0.0000
vt 0.0000 -0.0067
vt 0.0000 -0.0067
vt 0.0000 0.0000
vt -0.0126 0.0000
vt -0.0119 -0.0067
vt -0.0119 -0.0067
vt -0.0126 0.0000
vt -0.0152 0.0000
vt -0.0145 -0.0067
vt 0.0496 -0.0067
vt 0.0497 0.0000
vt 0.0485 0.0000
vt 0.0485 -0.0067
vt 0.0485 -0.0067
vt 0.0485 0.0000
vt 0.0473 0.0000
vt 0.0474 -0.0067
vt -0.0145 -0.0067
vt -0.0152 0.0000
vt -0.0126 0.0000
vt -0.0119 -0.0067
vt -0.0119 -0.0067
vt -0.0126 0.0000
vt -0.0000 0.0000
vt -0.0000 -0.0067
vt -0.0000 -0.0067
vt -0.0000 0.0000
vt 0.0126 0.0000
vt 0.0119 -0.0067
vt 0.0119 -0.0067
vt 0.0126 0.0000
vt 0.0152 0.0000
vt 0.0145 -0.0067
vt 0.0474 -0.0067
vt 0.0473 0.0000
vt 0.0485 0.0000
vt 0.0485 -0.0067
vt 0.0485 0.0000
vt 0.0485 0.0067
vt 0.0496 0.0067
vt 0.0497 0.0000
vt 0.0152 0.0000
vt 0.0145 0.0067
vt 0.0119 0.0067
vt 0.0126 0.0000
vt 0.0126 0.0000
vt 0.0119 0.0067
vt 0.0000 0.0067
vt 0.0000 0.0000
vt 0.0000 0.0000
vt 0.0000 0.0067
vt -0.0119 0.0067
vt -0.0126 0.0000
vt -0.0126 0.0000
vt -0.0119 0.0067
vt -0.0145 0.0067
vt -0.0152 0.0000
vt 0.0497 0.0000
vt 0.0496 0.0067
vt 0.0485 0.0067
vt 0.0485 0.0000
vt 0.0485 0.0000
vt 0.0485 0.0067
vt 0.0474 0.0067
vt 0.0473 0.0000
vt -0.0152 0.0000
vt -0.0145 0.0067
vt -0.0119 0.0067
vt -0.0126 0.0000
vt -0.0126 0.0000
vt -0.0119 0.0067
vt -0.0000 0.0067
vt -0.0000 0.0000
vt -0.0000 0.0000
vt -0.0000 0.0067
vt 0.0119 0.0067
vt 0.0126 0.0000
vt 0.0126 0.0000
vt 0.0119 0.0067
vt 0.0145 0.0067
vt 0.0152 0.0000
vt 0.0473 0.0000
vt 0.0474 0.0067
vt 0.0485 0.0067
vt 0.0485 0.0000
vt 0.0152 0.0485
vt 0.0126 0.0485
vt 0.0119 0.0494
vt 0.0145 0.0496
vt 0.0145 0.0067
vt 0.0119 0.0081
vt 0.0098 0.0081
vt 0.0119 0.0067
vt 0.0119 0.0067
vt 0.0098 0.0081
vt 0.0000 0.0081
vt 0.0000 0.0067
vt 0.0000 0.0067
vt 0.0000 0.0081
vt -0.0098 0.0081
vt -0.0119 0.0067
vt -0.0119 0.0067
vt -0.0098 0.0081
vt -0.0119 0.0081
vt -0.0145 0.0067
vt -0.0145 0.0496
vt -0.0119 0.0494
vt -0.0126 0.0485
vt -0.0152 0.0485
vt -0.0152 0.0485
vt -0.0126 0.0485
vt -0.0119 0.0476
vt -0.0145 0.0474
vt -0.0145 0.0067
vt -0.0119 0.0081
vt -0.0098 0.0081
vt -0.0119 0.0067
vt -0.0119 0.0067
vt -0.0098 0.0081
vt -0.0000 0.0081
vt -0.0000 0.0067
vt -0.0000 0.0067
vt -0.0000 0.0081
vt 0.0098 0.0081
vt 0.0119 0.0067
vt 0.0119 0.0067
vt 0.0098 0.0081
vt 0.0119 0.0081
vt 0.0145 0.0067
vt 0.0145 0.0474
vt 0.0119 0.0476
vt 0.0126 0.0485
vt 0.0152 0.0485
vt 0.0126 0.0485
vt 0.0000 0.0485
vt 0.0000 0.0485
vt 0.0119 0.0494
vt 0.0119 0.0494
vt 0.0000 0.0485
vt 0.0000 0.0485
vt 0.0098 0.0496
vt 0.0098 0.0496
vt 0.0000 0.0485
vt 0.0000 0.0485
vt 0.0000 0.0497
vt 0.0000 0.0497
vt 0.0000 0.0485
vt -0.0000 0.0485
vt -0.0098 0.0496
vt -0.0098 0.0496
vt -0.0000 0.0485
vt -0.0000 0.0485
vt -0.0119 0.0494
vt -0.0119 0.0494
vt -0.0000 0.0485
vt -0.0000 0.0485
vt -0.0126 0.0485
vt -0.0126 0.0485
vt -0.0000 0.0485
vt -0.0000 0.0485
vt -0.0119 0.0476
vt -0.0119 0.0476
vt -0.0000 0.0485
vt -0.0000 0.0485
vt -0.0098 0.0474
vt -0.0098 0.0474
vt -0.0000 0.0485
vt -0.0000 0.0485
vt -0.0000 0.0473
vt -0.0000 0.0473
vt -0.0000 0.0485
vt 0.0000 0.0485
vt 0.0098 0.0474
vt 0.0098 0.0474
vt 0.0000 0.0485
vt 0.0000 0.0485
vt 0.0119 0.0476
vt 0.0119 0.0476
vt 0.0000 0.0485
vt 0.0000 0.0485
vt 0.0126 0.0485
f 229/801 241/802 242/803 230/804
f 230/805 242/806 243/807 231/808
f 231/809 243/810 244/811 232/812
f 232/813 244/814 245/815 233/816
f 233/817 245/818 246/819 234/820
f 234/821 246/822 247/823 235/824
f 235/825 247/826 248/827 236/828
f 236/829 248/830 249/831 237/832
f 237/833 249/834 250/835 238/836
f 238/837 250/838 251/839 239/840
f 239/841 251/842 252/843 240/844
f 240/845 252/846 241/847 229/848
f 241/849 253/850 254/851 242/852
f 242/853 254/854 255/855 243/856
f 243/857 255/858 256/859 244/860
f 244/861 256/862 257/863 245/864
f 245/865 257/866 258/867 246/868
f 246/869 258/870 259/871 247/872
f 247/873 259/874 260/875 248/876
f 248/877 260/878 261/879 249/880
f 249/881 261/882 262/883 250/884
f 250/885 262/886 263/887 251/888
f 251/889 263/890 264/891 252/892
f 252/893 264/894 253/895 241/896
f 253/897 265/898 266/899 254/900
f 254/901 266/902 267/903 255/904
f 255/905 267/906 268/907 256/908
f 256/909 268/910 269/911 257/912
f 257/913 269/914 270/915 258/916
f 258/917 270/918 271/919 259/920
f 259/921 271/922 272/923 260/924
f 260/925 272/926 273/927 261/928
f 261/929 273/930 274/931 262/932
f 262/933 274/934 275/935 263/936
f 263/937 275/938 276/939 264/940
f 264/941 276/942 265/943 253/944
f 265/945 277/946 278/947 266/948
f 266/949 278/950 279/951 267/952
f 267/953 279/954 280/955 268/956
f 268/957 280/958 281/959 269/960
f 269/961 281/962 282/963 270/964
f 270/965 282/966 283/967 271/968
f 271/969 283/970 284/971 272/972
f 272/973 284/974 285/975 273/976
f 273/977 285/978 286/979 274/980
f 274/981 286/982 287/983 275/984
f 275/985 287/986 288/987 276/988
f 276/989 288/990 277/991 265/992
f 277/993 289/994 290/995 278/996
f 278/997 290/998 291/999 279/1000
f 279/1001 291/1002 292/1003 280/1004
f 280/1005 292/1006 293/1007 281/1008
f 281/1009 293/1010 294/1011 282/1012
f 282/1013 294/1014 295/1015 283/1016
f 283/1017 295/1018 296/1019 284/1020
f 284/1021 296/1022 297/1023 285/1024
f 285/1025 297/1026 298/1027 286/1028
f 286/1029 298/1030 299/1031 287/1032
f 287/1033 299/1034 300/1035 288/1036
f 288/1037 300/1038 289/1039 277/1040
f 289/1041 301/1042 302/1043 290/1044
f 290/1045 302/1046 303/1047 291/1048
f 291/1049 303/1050 304/1051 292/1052
f 292/1053 304/1054 305/1055 293/1056
f 293/1057 305/1058 306/1059 294/1060
f 294/1061 306/1062 307/1063 295/1064
f 295/1065 307/1066 308/1067 296/1068
f 296/1069 308/1070 309/1071 297/1072
f 297/1073 309/1074 310/1075 298/1076
f 298/1077 310/1078 311/1079 299/1080
f 299/1081 311/1082 312/1083 300/1084
f 300/1085 312/1086 301/1087 289/1088
o Canon_Lens
v 0.0075 0.0000 0.0490
v 0.0075 0.0000 0.0540
v 0.0069 0.0029 0.0490
v 0.0069 0.0029 0.0540
v 0.0053 0.0053 0.0490
v 0.0053 0.0053 0.0540
v 0.0029 0.0069 0.0490
v 0.0029 0.0069 0.0540
v 0.0000 0.0075 0.0490
v 0.0000 0.0075 0.0540
v -0.0029 0.0069 0.0490
v -0.0029 0.0069 0.0540
v -0.0053 0.0053 0.0490
v -0.0053 0.0053 0.0540
v -0.0069 0.0029 0.0490
v -0.0069 0.0029 0.0540
v -0.0075 0.0000 0.0490
v -0.0075 0.0000 0.0540
v -0.0069 -0.0029 0.0490
v -0.0069 -0.0029 0.0540
v -0.0053 -0.0053 0.0490
v -0.0053 -0.0053 0.0540
v -0.0029 -0.0069 0.0490
v -0.0029 -0.0069 0.0540
v -0.0000 -0.0075 0.0490
v -0.0000 -0.0075 0.0540
v 0.0029 -0.0069 0.0490
v 0.0029 -0.0069 0.0540
v 0.0053 -0.0053 0.0490
v 0.0053 -0.0053 0.0540
v 0.0069 -0.0029 0.0490
v 0.0069 -0.0029 0.0540
vt 0.0490 0.0000
vt 0.0490 0.0029
vt 0.0540 0.0029
vt 0.0540 0.0000
vt 0.0490 0.0029
vt 0.0490 0.0053
vt 0.0540 0.0053
vt 0.0540 0.0029
vt 0.0053 0.0490
vt 0.0029 0.0490
vt 0.0029 0.0540
vt 0.0053 0.0540
vt 0.0029 0.0490
vt 0.0000 0.0490
vt 0.0000 0.0540
vt 0.0029 0.0540
vt 0.0000 0.0490
vt -0.0029 0.0490
vt -0.0029 0.0540
vt 0.0000 0.0540
vt -0.0029 0.0490
vt -0.0053 0.0490
vt -0.0053 0.0540
vt -0.0029 0.0540
vt 0.0490 0.0053
vt 0.0490 0.0029
vt 0.0540 0.0029
vt 0.0540 0.0053
vt 0.0490 0.0029
vt 0.0490 0.0000
vt 0.0540 0.0000
vt 0.0540 0.0029
vt 0.0490 0.0000
vt 0.0490 -0.0029
vt 0.0540 -0.0029
vt 0.0540 0.0000
vt 0.0490 -0.0029
vt 0.0490 -0.0053
vt 0.0540 -0.0053
vt 0.0540 -0.0029
vt -0.0053 0.0490
vt -0.0029 0.0490
vt -0.0029 0.0540
vt -0.0053 0.0540
vt -0.0029 0.0490
vt -0.0000 0.0490
vt -0.0000 0.0540
vt -0.0029 0.0540
vt -0.0000 0.0490
vt 0.0029 0.0490
vt 0.0029 0.0540
vt -0.0000 0.0540
vt 0.0029 0.0490
vt 0.0053 0.0490
vt 0.0053 0.0540
vt 0.0029 0.0540
vt 0.0490 -0.0053
vt 0.0490 -0.0029
vt 0.0540 -0.0029
vt 0.0540 -0.0053
vt 0.0490 -0.0029
vt 0.0490 0.0000
vt 0.0540 0.0000
vt 0.0540 -0.0029
f 313/1089 315/1090 316/1091 314/1092
f 315/1093 317/1094 318/1095 316/1096
f 317/1097 319/1098 320/1099 318/1100
f 319/1101 321/1102 322/1103 320/1104
f 321/1105 323/1106 324/1107 322/1108
f 323/1109 325/1110 326/1111 324/1112
f 325/1113 327/1114 328/1115 326/1116
f 327/1117 329/1118 330/1119 328/1120
f 329/1121 331/1122 332/1123 330/1124
f 331/1125 333/1126 334/1127 332/1128
f 333/1129 335/1130 336/1131 334/1132
f 335/1133 337/1134 338/1135 336/1136
f 337/1137 339/1138 340/1139 338/1140
f 339/1141 341/1142 342/1143 340/1144
f 341/1145 343/1146 344/1147 342/1148
f 343/1149 313/1150 314/1151 344/1152
o Canon_MicLeft
v -0.0290 -0.0020 0.0475
v -0.0250 -0.0020 0.0475
v -0.0250 0.0020 0.0475
v -0.0290 0.0020 0.0475
v -0.0290 -0.0020 0.0495
v -0.0250 -0.0020 0.0495
v -0.0250 0.0020 0.0495
v -0.0290 0.0020 0.0495
vt -0.0290 0.0020
vt -0.0250 0.0020
vt -0.0250 -0.0020
vt -0.0290 -0.0020
vt -0.0290 -0.0020
vt -0.0250 -0.0020
vt -0.0250 0.0020
vt -0.0290 0.0020
vt -0.0290 0.0475
vt -0.0250 0.0475
vt -0.0250 0.0495
vt -0.0290 0.0495
vt -0.0250 0.0475
vt -0.0290 0.0475
vt -0.0290 0.0495
vt -0.0250 0.0495
vt 0.0475 -0.0020
vt 0.0475 0.0020
vt 0.0495 0.0020
vt 0.0495 -0.0020
vt 0.0495 -0.0020
vt 0.0495 0.0020
vt 0.0475 0.0020
vt 0.0475 -0.0020
f 348/1153 347/1154 346/1155 345/1156
f 349/1157 350/1158 351/1159 352/1160
f 345/1161 346/1162 350/1163 349/1164
f 347/1165 348/1166 352/1167 351/1168
f 346/1169 347/1170 351/1171 350/1172
f 349/1173 352/1174 348/1175 345/1176
o Canon_MicRight
v 0.0250 -0.0020 0.0475
v 0.0290 -0.0020 0.0475
v 0.0290 0.0020 0.0475
v 0.0250 0.0020 0.0475
v 0.0250 -0.0020 0.0495
v 0.0290 -0.0020 0.0495
v 0.0290 0.0020 0.0495
v 0.0250 0.0020 0.0495
vt 0.0250 0.0020
vt 0.0290 0.0020
vt 0.0290 -0.0020
vt 0.0250 -0.0020
vt 0.0250 -0.0020
vt 0.0290 -0.0020
vt 0.0290 0.0020
vt 0.0250 0.0020
vt 0.0250 0.0475
vt 0.0290 0.0475
vt 0.0290 0.0495
vt 0.0250 0.0495
vt 0.0290 0.0475
vt 0.0250 0.0475
vt 0.0250 0.0495
vt 0.0290 0.0495
vt 0.0475 -0.0020
vt 0.0475 0.0020
vt 0.0495 0.0020
vt 0.0495 -0.0020
vt 0.0495 -0.0020
vt 0.0495 0.0020
vt 0.0475 0.0020
vt 0.0475 -0.0020
f 356/1177 355/1178 354/1179 353/1180
f 357/1181 358/1182 359/1183 360/1184
f 353/1185 354/1186 358/1187 357/1188
f 355/1189 356/1190 360/1191 359/1192
f 354/1193 355/1194 359/1195 358/1196
f 357/1197 360/1198 356/1199 353/1200
o Canon_Hinge
v -0.0300 0.0110 -0.0480
v 0.0300 0.0110 -0.0480
v 0.0300 0.0150 -0.0480
v -0.0300 0.0150 -0.0480
v -0.0300 0.0110 -0.0390
v 0.0300 0.0110 -0.0390
v 0.0300 0.0150 -0.0390
v -0.0300 0.0150 -0.0390
vt -0.0300 0.0150
vt 0.0300 0.0150
vt 0.0300 0.0110
vt -0.0300 0.0110
vt -0.0300 0.0110
vt 0.0300 0.0110
vt 0.0300 0.0150
vt -0.0300 0.0150
vt -0.0300 -0.0480
vt 0.0300 -0.0480
vt 0.0300 -0.0390
vt -0.0300 -0.0390
vt 0.0300 -0.0480
vt -0.0300 -0.0480
vt -0.0300 -0.0390
vt 0.0300 -0.0390
vt -0.0480 0.0110
vt -0.0480 0.0150
vt -0.0390 0.0150
vt -0.0390 0.0110
vt -0.0390 0.0110
vt -0.0390 0.0150
vt -0.0480 0.0150
vt -0.0480 0.0110
f 364/1201 363/1202 362/1203 361/1204
f 365/1205 366/1206 367/1207 368/1208
f 361/1209 362/1210 366/1211 365/1212
f 363/1213 364/1214 368/1215 367/1216
f 362/1217 363/1218 367/1219 366/1220
f 365/1221 368/1222 364/1223 361/1224
o Canon_Screen
v -0.0380 0.0130 -0.0480
v 0.0380 0.0130 -0.0480
v 0.0380 0.0770 -0.0480
v -0.0380 0.0770 -0.0480
v -0.0380 0.0130 -0.0400
v 0.0380 0.0130 -0.0400
v 0.0380 0.0770 -0.0400
v -0.0380 0.0770 -0.0400
vt -0.0380 0.0770
vt 0.0380 0.0770
vt 0.0380 0.0130
vt -0.0380 0.0130
vt -0.0380 0.0130
vt 0.0380 0.0130
vt 0.0380 0.0770
vt -0.0380 0.0770
vt -0.0380 -0.0480
vt 0.0380 -0.0480
vt 0.0380 -0.0400
vt -0.0380 -0.0400
vt 0.0380 -0.0480
vt -0.0380 -0.0480
vt -0.0380 -0.0400
vt 0.0380 -0.0400
vt -0.0480 0.0130
vt -0.0480 0.0770
vt -0.0400 0.0770
vt -0.0400 0.0130
vt -0.0400 0.0130
vt -0.0400 0.0770
vt -0.0480 0.0770
vt -0.0480 0.0130
f 372/1225 371/1226 370/1227 369/1228
f 373/1229 374/1230 375/1231 376/1232
f 369/1233 370/1234 374/1235 373/1236
f 371/1237 372/1238 376/1239 375/1240
f 370/1241 371/1242 375/1243 374/1244
f 373/1245 376/1246 372/1247 369/1248
o Canon_ScreenGlass
v -0.0300 0.0210 -0.0400
v 0.0300 0.0210 -0.0400
v 0.0300 0.0670 -0.0400
v -0.0300 0.0670 -0.0400
v -0.0300 0.0210 -0.0385
v 0.0300 0.0210 -0.0385
v 0.0300 0.0670 -0.0385
v -0.0300 0.0670 -0.0385
vt -0.0300 0.0670
vt 0.0300 0.0670
vt 0.0300 0.0210
vt -0.0300 0.0210
vt -0.0300 0.0210
vt 0.0300 0.0210
vt 0.0300 0.0670
vt -0.0300 0.0670
vt -0.0300 -0.0400
vt 0.0300 -0.0400
vt 0.0300 -0.0385
vt -0.0300 -0.0385
vt 0.0300 -0.0400
vt -0.0300 -0.0400
vt -0.0300 -0.0385
vt 0.0300 -0.0385
vt -0.0400 0.0210
vt -0.0400 0.0670
vt -0.0385 0.0670
vt -0.0385 0.0210
vt -0.0385 0.0210
vt -0.0385 0.0670
vt -0.0400 0.0670
vt -0.0400 0.0210
f 380/1249 379/1250 378/1251 377/1252
f 381/1253 382/1254 383/1255 384/1256
f 377/1257 378/1258 382/1259 381/1260
f 379/1261 380/1262 384/1263 383/1264
f 378/1265 379/1266 383/1267 382/1268
f 381/1269 384/1270 380/1271 377/1272
o Canon_Post
v -0.0050 -0.0370 -0.0050
v 0.0050 -0.0370 -0.0050
v 0.0050 -0.0110 -0.0050
v -0.0050 -0.0110 -0.0050
v -0.0050 -0.0370 0.0050
v 0.0050 -0.0370 0.0050
v 0.0050 -0.0110 0.0050
v -0.0050 -0.0110 0.0050
vt -0.0050 -0.0110
vt 0.0050 -0.0110
vt 0.0050 -0.0370
vt -0.0050 -0.0370
vt -0.0050 -0.0370
vt 0.0050 -0.0370
vt 0.0050 -0.0110
vt -0.0050 -0.0110
vt -0.0050 -0.0050
vt 0.0050 -0.0050
vt 0.0050 0.0050
vt -0.0050 0.0050
vt 0.0050 -0.0050
vt -0.0050 -0.0050
vt -0.0050 0.0050
vt 0.0050 0.0050
vt -0.0050 -0.0370
vt -0.0050 -0.0110
vt 0.0050 -0.0110
vt 0.0050 -0.0370
vt 0.0050 -0.0370
vt 0.0050 -0.0110
vt -0.0050 -0.0110
vt -0.0050 -0.0370
f 388/1273 387/1274 386/1275 385/1276
f 389/1277 390/1278 391/1279 392/1280
f 385/1281 386/1282 390/1283 389/1284
f 387/1285 388/1286 392/1287 391/1288
f 386/1289 387/1290 391/1291 390/1292
f 389/1293 392/1294 388/1295 385/1296
o Canon_Clamp
v -0.0220 -0.1100 -0.0230
v 0.0220 -0.1100 -0.0230
v 0.0220 -0.0370 -0.0230
v -0.0220 -0.0370 -0.0230
v -0.0220 -0.1100 0.0230
v 0.0220 -0.1100 0.0230
v 0.0220 -0.0370 0.0230
v -0.0220 -0.0370 0.0230
vt -0.0220 -0.0370
vt 0.0220 -0.0370
vt 0.0220 -0.1100
vt -0.0220 -0.1100
vt -0.0220 -0.1100
vt 0.0220 -0.1100
vt 0.0220 -0.0370
vt -0.0220 -0.0370
vt -0.0220 -0.0230
vt 0.0220 -0.0230
vt 0.0220 0.0230
vt -0.0220 0.0230
vt 0.0220 -0.0230
vt -0.0220 -0.0230
vt -0.0220 0.0230
vt 0.0220 0.0230
vt -0.0230 -0.1100
vt -0.0230 -0.0370
vt 0.0230 -0.0370
vt 0.0230 -0.1100
vt 0.0230 -0.1100
vt 0.0230 -0.0370
vt -0.0230 -0.0370
vt -0.0230 -0.1100
f 396/1297 395/1298 394/1299 393/1300
f 397/1301 398/1302 399/1303 400/1304
f 393/1305 394/1306 398/1307 397/1308
f 395/1309 396/1310 400/1311 399/1312
f 394/1313 395/1314 399/1315 398/1316
f 397/1317 400/1318 396/1319 393/1320
o Canon_ClampKnob
v 0.0000 -0.1420 0.0130
v 0.0000 -0.1420 0.0130
v 0.0000 -0.1420 0.0130
v 0.0000 -0.1420 0.0130
v -0.0000 -0.1420 0.0130
v -0.0000 -0.1420 0.0130
v -0.0000 -0.1420 0.0130
v -0.0000 -0.1420 0.0130
v -0.0000 -0.1420 0.0130
v -0.0000 -0.1420 0.0130
v 0.0000 -0.1420 0.0130
v 0.0000 -0.1420 0.0130
v 0.0117 -0.1410 0.0130
v 0.0110 -0.1410 0.0168
v 0.0086 -0.1410 0.0178
v 0.0000 -0.1410 0.0181
v -0.0086 -0.1410 0.0178
v -0.0110 -0.1410 0.0168
v -0.0117 -0.1410 0.0130
v -0.0110 -0.1410 0.0092
v -0.0086 -0.1410 0.0082
v -0.0000 -0.1410 0.0079
v 0.0086 -0.1410 0.0082
v 0.0110 -0.1410 0.0092
v 0.0150 -0.1377 0.0130
v 0.0141 -0.1377 0.0178
v 0.0110 -0.1377 0.0192
v 0.0000 -0.1377 0.0196
v -0.0110 -0.1377 0.0192
v -0.0141 -0.1377 0.0178
v -0.0150 -0.1377 0.0130
v -0.0141 -0.1377 0.0082
v -0.0110 -0.1377 0.0068
v -0.0000 -0.1377 0.0064
v 0.0110 -0.1377 0.0068
v 0.0141 -0.1377 0.0082
v 0.0160 -0.1260 0.0130
v 0.0150 -0.1260 0.0181
v 0.0117 -0.1260 0.0196
v 0.0000 -0.1260 0.0200
v -0.0117 -0.1260 0.0196
v -0.0150 -0.1260 0.0181
v -0.0160 -0.1260 0.0130
v -0.0150 -0.1260 0.0079
v -0.0117 -0.1260 0.0064
v -0.0000 -0.1260 0.0060
v 0.0117 -0.1260 0.0064
v 0.0150 -0.1260 0.0079
v 0.0150 -0.1143 0.0130
v 0.0141 -0.1143 0.0178
v 0.0110 -0.1143 0.0192
v 0.0000 -0.1143 0.0196
v -0.0110 -0.1143 0.0192
v -0.0141 -0.1143 0.0178
v -0.0150 -0.1143 0.0130
v -0.0141 -0.1143 0.0082
v -0.0110 -0.1143 0.0068
v -0.0000 -0.1143 0.0064
v 0.0110 -0.1143 0.0068
v 0.0141 -0.1143 0.0082
v 0.0117 -0.1110 0.0130
v 0.0110 -0.1110 0.0168
v 0.0086 -0.1110 0.0178
v 0.0000 -0.1110 0.0181
v -0.0086 -0.1110 0.0178
v -0.0110 -0.1110 0.0168
v -0.0117 -0.1110 0.0130
v -0.0110 -0.1110 0.0092
v -0.0086 -0.1110 0.0082
v -0.0000 -0.1110 0.0079
v 0.0086 -0.1110 0.0082
v 0.0110 -0.1110 0.0092
v 0.0000 -0.1100 0.0130
v 0.0000 -0.1100 0.0130
v 0.0000 -0.1100 0.0130
v 0.0000 -0.1100 0.0130
v -0.0000 -0.1100 0.0130
v -0.0000 -0.1100 0.0130
v -0.0000 -0.1100 0.0130
v -0.0000 -0.1100 0.0130
v -0.0000 -0.1100 0.0130
v -0.0000 -0.1100 0.0130
v 0.0000 -0.1100 0.0130
v 0.0000 -0.1100 0.0130
vt 0.0000 0.0130
vt 0.0117 0.0130
vt 0.0110 0.0168
vt 0.0000 0.0130
vt 0.0000 0.0130
vt 0.0110 0.0168
vt 0.0086 0.0178
vt 0.0000 0.0130
vt 0.0000 0.0130
vt 0.0086 0.0178
vt 0.0000 0.0181
vt 0.0000 0.0130
vt 0.0000 0.0130
vt 0.0000 0.0181
vt -0.0086 0.0178
vt -0.0000 0.0130
vt -0.0000 0.0130
vt -0.0086 0.0178
vt -0.0110 0.0168
vt -0.0000 0.0130
vt -0.0000 0.0130
vt -0.0110 0.0168
vt -0.0117 0.0130
vt -0.0000 0.0130
vt -0.0000 0.0130
vt -0.0117 0.0130
vt -0.0110 0.0092
vt -0.0000 0.0130
vt -0.0000 0.0130
vt -0.0110 0.0092
vt -0.0086 0.0082
vt -0.0000 0.0130
vt -0.0000 0.0130
vt -0.0086 0.0082
vt -0.0000 0.0079
vt -0.0000 0.0130
vt -0.0000 0.0130
vt -0.0000 0.0079
vt 0.0086 0.0082
vt 0.0000 0.0130
vt 0.0000 0.0130
vt 0.0086 0.0082
vt 0.0110 0.0092
vt 0.0000 0.0130
vt 0.0000 0.0130
vt 0.0110 0.0092
vt 0.0117 0.0130
vt 0.0000 0.0130
vt 0.0130 -0.1410
vt 0.0130 -0.1377
vt 0.0178 -0.1377
vt 0.0168 -0.1410
vt 0.0110 -0.1410
vt 0.0141 -0.1377
vt 0.0110 -0.1377
vt 0.0086 -0.1410
vt 0.0086 -0.1410
vt 0.0110 -0.1377
vt 0.0000 -0.1377
vt 0.0000 -0.1410
vt 0.0000 -0.1410
vt 0.0000 -0.1377
vt -0.0110 -0.1377
vt -0.0086 -0.1410
vt -0.0086 -0.1410
vt -0.0110 -0.1377
vt -0.0141 -0.1377
vt -0.0110 -0.1410
vt -0.0110 0.0168
vt -0.0141 0.0178
vt -0.0150 0.0130
vt -0.0117 0.0130
vt 0.0130 -0.1410
vt 0.0130 -0.1377
vt 0.0082 -0.1377
vt 0.0092 -0.1410
vt -0.0110 -0.1410
vt -0.0141 -0.1377
vt -0.0110 -0.1377
vt -0.0086 -0.1410
vt -0.0086 -0.1410
vt -0.0110 -0.1377
vt -0.0000 -0.1377
vt -0.0000 -0.1410
vt -0.0000 -0.1410
vt -0.0000 -0.1377
vt 0.0110 -0.1377
vt 0.0086 -0.1410
vt 0.0086 -0.1410
vt 0.0110 -0.1377
vt 0.0141 -0.1377
vt 0.0110 -0.1410
vt 0.0092 -0.1410
vt 0.0082 -0.1377
vt 0.0130 -0.1377
vt 0.0130 -0.1410
vt 0.0130 -0.1377
vt 0.0130 -0.1260
vt 0.0181 -0.1260
vt 0.0178 -0.1377
vt 0.0141 -0.1377
vt 0.0150 -0.1260
vt 0.0117 -0.1260
vt 0.0110 -0.1377
vt 0.0110 -0.1377
vt 0.0117 -0.1260
vt 0.0000 -0.1260
vt 0.0000 -0.1377
vt 0.0000 -0.1377
vt 0.0000 -0.1260
vt -0.0117 -0.1260
vt -0.0110 -0.1377
vt -0.0110 -0.1377
vt -0.0117 -0.1260
vt -0.0150 -0.1260
vt -0.0141 -0.1377
vt 0.0178 -0.1377
vt 0.0181 -0.1260
vt 0.0130 -0.1260
vt 0.0130 -0.1377
vt 0.0130 -0.1377
vt 0.0130 -0.1260
vt 0.0079 -0.1260
vt 0.0082 -0.1377
vt -0.0141 -0.1377
vt -0.0150 -0.1260
vt -0.0117 -0.1260
vt -0.0110 -0.1377
vt -0.0110 -0.1377
vt -0.0117 -0.1260
vt -0.0000 -0.1260
vt -0.0000 -0.1377
vt -0.0000 -0.1377
vt -0.0000 -0.1260
vt 0.0117 -0.1260
vt 0.0110 -0.1377
vt 0.0110 -0.1377
vt 0.0117 -0.1260
vt 0.0150 -0.1260
vt 0.0141 -0.1377
vt 0.0082 -0.1377
vt 0.0079 -0.1260
vt 0.0130 -0.1260
vt 0.0130 -0.1377
vt 0.0130 -0.1260
vt 0.0130 -0.1143
vt 0.0178 -0.1143
vt 0.0181 -0.1260
vt 0.0150 -0.1260
vt 0.0141 -0.1143
vt 0.0110 -0.1143
vt 0.0117 -0.1260
vt 0.0117 -0.1260
vt 0.0110 -0.1143
vt 0.0000 -0.1143
vt 0.0000 -0.1260
vt 0.0000 -0.1260
vt 0.0000 -0.1143
vt -0.0110 -0.1143
vt -0.0117 -0.1260
vt -0.0117 -0.1260
vt -0.0110 -0.1143
vt -0.0141 -0.1143
vt -0.0150 -0.1260
vt 0.0181 -0.1260
vt 0.0178 -0.1143
vt 0.0130 -0.1143
vt 0.0130 -0.1260
vt 0.0130 -0.1260
vt 0.0130 -0.1143
vt 0.0082 -0.1143
vt 0.0079 -0.1260
vt -0.0150 -0.1260
vt -0.0141 -0.1143
vt -0.0110 -0.1143
vt -0.0117 -0.1260
vt -0.0117 -0.1260
vt -0.0110 -0.1143
vt -0.0000 -0.1143
vt -0.0000 -0.1260
vt -0.0000 -0.1260
vt -0.0000 -0.1143
vt 0.0110 -0.1143
vt 0.0117 -0.1260
vt 0.0117 -0.1260
vt 0.0110 -0.1143
vt 0.0141 -0.1143
vt 0.0150 -0.1260
vt 0.0079 -0.1260
vt 0.0082 -0.1143
vt 0.0130 -0.1143
vt 0.0130 -0.1260
vt 0.0150 0.0130
vt 0.0117 0.0130
vt 0.0110 0.0168
vt 0.0141 0.0178
vt 0.0141 -0.1143
vt 0.0110 -0.1110
vt 0.0086 -0.1110
vt 0.0110 -0.1143
vt 0.0110 -0.1143
vt 0.0086 -0.1110
vt 0.0000 -0.1110
vt 0.0000 -0.1143
vt 0.0000 -0.1143
vt 0.0000 -0.1110
vt -0.0086 -0.1110
vt -0.0110 -0.1143
vt -0.0110 -0.1143
vt -0.0086 -0.1110
vt -0.0110 -0.1110
vt -0.0141 -0.1143
vt -0.0141 0.0178
vt -0.0110 0.0168
vt -0.0117 0.0130
vt -0.0150 0.0130
vt 0.0130 -0.1143
vt 0.0130 -0.1110
vt 0.0092 -0.1110
vt 0.0082 -0.1143
vt -0.0141 -0.1143
vt -0.0110 -0.1110
vt -0.0086 -0.1110
vt -0.0110 -0.1143
vt -0.0110 -0.1143
vt -0.0086 -0.1110
vt -0.0000 -0.1110
vt -0.0000 -0.1143
vt -0.0000 -0.1143
vt -0.0000 -0.1110
vt 0.0086 -0.1110
vt 0.0110 -0.1143
vt 0.0110 -0.1143
vt 0.0086 -0.1110
vt 0.0110 -0.1110
vt 0.0141 -0.1143
vt 0.0141 0.0082
vt 0.0110 0.0092
vt 0.0117 0.0130
vt 0.0150 0.0130
vt 0.0117 0.0130
vt 0.0000 0.0130
vt 0.0000 0.0130
vt 0.0110 0.0168
vt 0.0110 0.0168
vt 0.0000 0.0130
vt 0.0000 0.0130
vt 0.0086 0.0178
vt 0.0086 0.0178
vt 0.0000 0.0130
vt 0.0000 0.0130
vt 0.0000 0.0181
vt 0.0000 0.0181
vt 0.0000 0.0130
vt -0.0000 0.0130
vt -0.0086 0.0178
vt -0.0086 0.0178
vt -0.0000 0.0130
vt -0.0000 0.0130
vt -0.0110 0.0168
vt -0.0110 0.0168
vt -0.0000 0.0130
vt -0.0000 0.0130
vt -0.0117 0.0130
vt -0.0117 0.0130
vt -0.0000 0.0130
vt -0.0000 0.0130
vt -0.0110 0.0092
vt -0.0110 0.0092
vt -0.0000 0.0130
vt -0.0000 0.0130
vt -0.0086 0.0082
vt -0.0086 0.0082
vt -0.0000 0.0130
vt -0.0000 0.0130
vt -0.0000 0.0079
vt -0.0000 0.0079
vt -0.0000 0.0130
vt 0.0000 0.0130
vt 0.0086 0.0082
vt 0.0086 0.0082
vt 0.0000 0.0130
vt 0.0000 0.0130
vt 0.0110 0.0092
vt 0.0110 0.0092
vt 0.0000 0.0130
vt 0.0000 0.0130
vt 0.0117 0.0130
f 401/1321 413/1322 414/1323 402/1324
f 402/1325 414/1326 415/1327 403/1328
f 403/1329 415/1330 416/1331 404/1332
f 404/1333 416/1334 417/1335 405/1336
f 405/1337 417/1338 418/1339 406/1340
f 406/1341 418/1342 419/1343 407/1344
f 407/1345 419/1346 420/1347 408/1348
f 408/1349 420/1350 421/1351 409/1352
f 409/1353 421/1354 422/1355 410/1356
f 410/1357 422/1358 423/1359 411/1360
f 411/1361 423/1362 424/1363 412/1364
f 412/1365 424/1366 413/1367 401/1368
f 413/1369 425/1370 426/1371 414/1372
f 414/1373 426/1374 427/1375 415/1376
f 415/1377 427/1378 428/1379 416/1380
f 416/1381 428/1382 429/1383 417/1384
f 417/1385 429/1386 430/1387 418/1388
f 418/1389 430/1390 431/1391 419/1392
f 419/1393 431/1394 432/1395 420/1396
f 420/1397 432/1398 433/1399 421/1400
f 421/1401 433/1402 434/1403 422/1404
f 422/1405 434/1406 435/1407 423/1408
f 423/1409 435/1410 436/1411 424/1412
f 424/1413 436/1414 425/1415 413/1416
f 425/1417 437/1418 438/1419 426/1420
f 426/1421 438/1422 439/1423 427/1424
f 427/1425 439/1426 440/1427 428/1428
f 428/1429 440/1430 441/1431 429/1432
f 429/1433 441/1434 442/1435 430/1436
f 430/1437 442/1438 443/1439 431/1440
f 431/1441 443/1442 444/1443 432/1444
f 432/1445 444/1446 445/1447 433/1448
f 433/1449 445/1450 446/1451 434/1452
f 434/1453 446/1454 447/1455 435/1456
f 435/1457 447/1458 448/1459 436/1460
f 436/1461 448/1462 437/1463 425/1464
f 437/1465 449/1466 450/1467 438/1468
f 438/1469 450/1470 451/1471 439/1472
f 439/1473 451/1474 452/1475 440/1476
f 440/1477 452/1478 453/1479 441/1480
f 441/1481 453/1482 454/1483 442/1484
f 442/1485 454/1486 455/1487 443/1488
f 443/1489 455/1490 456/1491 444/1492
f 444/1493 456/1494 457/1495 445/1496
f 445/1497 457/1498 458/1499 446/1500
f 446/1501 458/1502 459/1503 447/1504
f 447/1505 459/1506 460/1507 448/1508
f 448/1509 460/1510 449/1511 437/1512
f 449/1513 461/1514 462/1515 450/1516
f 450/1517 462/1518 463/1519 451/1520
f 451/1521 463/1522 464/1523 452/1524
f 452/1525 464/1526 465/1527 453/1528
f 453/1529 465/1530 466/1531 454/1532
f 454/1533 466/1534 467/1535 455/1536
f 455/1537 467/1538 468/1539 456/1540
f 456/1541 468/1542 469/1543 457/1544
f 457/1545 469/1546 470/1547 458/1548
f 458/1549 470/1550 471/1551 459/1552
f 459/1553 471/1554 472/1555 460/1556
f 460/1557 472/1558 461/1559 449/1560
f 461/1561 473/1562 474/1563 462/1564
f 462/1565 474/1566 475/1567 463/1568
f 463/1569 475/1570 476/1571 464/1572
f 464/1573 476/1574 477/1575 465/1576
f 465/1577 477/1578 478/1579 466/1580
f 466/1581 478/1582 479/1583 467/1584
f 467/1585 479/1586 480/1587 468/1588
f 468/1589 480/1590 481/1591 469/1592
f 469/1593 481/1594 482/1595 470/1596
f 470/1597 482/1598 483/1599 471/1600
f 471/1601 483/1602 484/1603 472/1604
f 472/1605 484/1606 473/1607 461/1608
o Canon_ClampLever
v -0.0040 -0.1380 0.0190
v 0.0040 -0.1380 0.0190
v 0.0300 -0.2230 0.0190
v 0.0220 -0.2250 0.0190
v -0.0040 -0.1380 0.0270
v 0.0040 -0.1380 0.0270
v 0.0300 -0.2230 0.0270
v 0.0220 -0.2250 0.0270
vt -0.0040 -0.1380
vt 0.0040 -0.1380
vt 0.0300 -0.2230
vt 0.0220 -0.2250
vt 0.0220 -0.2250
vt 0.0300 -0.2230
vt 0.0040 -0.1380
vt -0.0040 -0.1380
vt -0.0040 0.0270
vt 0.0040 0.0270
vt 0.0040 0.0190
vt -0.0040 0.0190
vt 0.0300 0.0270
vt 0.0220 0.0270
vt 0.0220 0.0190
vt 0.0300 0.0190
vt 0.0270 -0.1380
vt 0.0270 -0.2230
vt 0.0190 -0.2230
vt 0.0190 -0.1380
vt 0.0190 -0.1380
vt 0.0190 -0.2250
vt 0.0270 -0.2250
vt 0.0270 -0.1380
f 485/1609 486/1610 487/1611 488/1612
f 492/1613 491/1614 490/1615 489/1616
f 489/1617 490/1618 486/1619 485/1620
f 491/1621 492/1622 488/1623 487/1624
f 490/1625 491/1626 487/1627 486/1628
f 485/1629 488/1630 492/1631 489/1632
