# ASTRAX zero gravity aircraft (MU-300) free area — equipment_rack
# build_parts.py が実測値（実機サイズ表）から作る。単位はメートル。X=機首→機尾, Y=上, Z=機首を向いて左（右舷は-Z）
o Rack_Upright_1
v -0.0200 0.0700 -0.2350
v 0.0200 0.0700 -0.2350
v 0.0200 1.0500 -0.2350
v -0.0200 1.0500 -0.2350
v -0.0200 0.0700 -0.1650
v 0.0200 0.0700 -0.1650
v 0.0200 1.0500 -0.1650
v -0.0200 1.0500 -0.1650
vt -0.0200 1.0500
vt 0.0200 1.0500
vt 0.0200 0.0700
vt -0.0200 0.0700
vt -0.0200 0.0700
vt 0.0200 0.0700
vt 0.0200 1.0500
vt -0.0200 1.0500
vt -0.0200 -0.2350
vt 0.0200 -0.2350
vt 0.0200 -0.1650
vt -0.0200 -0.1650
vt 0.0200 -0.2350
vt -0.0200 -0.2350
vt -0.0200 -0.1650
vt 0.0200 -0.1650
vt -0.2350 0.0700
vt -0.2350 1.0500
vt -0.1650 1.0500
vt -0.1650 0.0700
vt -0.1650 0.0700
vt -0.1650 1.0500
vt -0.2350 1.0500
vt -0.2350 0.0700
f 4/1 3/2 2/3 1/4
f 5/5 6/6 7/7 8/8
f 1/9 2/10 6/11 5/12
f 3/13 4/14 8/15 7/16
f 2/17 3/18 7/19 6/20
f 5/21 8/22 4/23 1/24
o Rack_Upright_2
v -0.0200 0.0700 0.1650
v 0.0200 0.0700 0.1650
v 0.0200 1.0500 0.1650
v -0.0200 1.0500 0.1650
v -0.0200 0.0700 0.2350
v 0.0200 0.0700 0.2350
v 0.0200 1.0500 0.2350
v -0.0200 1.0500 0.2350
vt -0.0200 1.0500
vt 0.0200 1.0500
vt 0.0200 0.0700
vt -0.0200 0.0700
vt -0.0200 0.0700
vt 0.0200 0.0700
vt 0.0200 1.0500
vt -0.0200 1.0500
vt -0.0200 0.1650
vt 0.0200 0.1650
vt 0.0200 0.2350
vt -0.0200 0.2350
vt 0.0200 0.1650
vt -0.0200 0.1650
vt -0.0200 0.2350
vt 0.0200 0.2350
vt 0.1650 0.0700
vt 0.1650 1.0500
vt 0.2350 1.0500
vt 0.2350 0.0700
vt 0.2350 0.0700
vt 0.2350 1.0500
vt 0.1650 1.0500
vt 0.1650 0.0700
f 12/25 11/26 10/27 9/28
f 13/29 14/30 15/31 16/32
f 9/33 10/34 14/35 13/36
f 11/37 12/38 16/39 15/40
f 10/41 11/42 15/43 14/44
f 13/45 16/46 12/47 9/48
o Rack_Unit_1
v -0.0550 0.1300 -0.3400
v 0.0550 0.1300 -0.3400
v 0.0550 0.2450 -0.3400
v -0.0550 0.2450 -0.3400
v -0.0550 0.1300 0.3400
v 0.0550 0.1300 0.3400
v 0.0550 0.2450 0.3400
v -0.0550 0.2450 0.3400
vt -0.0550 0.2450
vt 0.0550 0.2450
vt 0.0550 0.1300
vt -0.0550 0.1300
vt -0.0550 0.1300
vt 0.0550 0.1300
vt 0.0550 0.2450
vt -0.0550 0.2450
vt -0.0550 -0.3400
vt 0.0550 -0.3400
vt 0.0550 0.3400
vt -0.0550 0.3400
vt 0.0550 -0.3400
vt -0.0550 -0.3400
vt -0.0550 0.3400
vt 0.0550 0.3400
vt -0.3400 0.1300
vt -0.3400 0.2450
vt 0.3400 0.2450
vt 0.3400 0.1300
vt 0.3400 0.1300
vt 0.3400 0.2450
vt -0.3400 0.2450
vt -0.3400 0.1300
f 20/49 19/50 18/51 17/52
f 21/53 22/54 23/55 24/56
f 17/57 18/58 22/59 21/60
f 19/61 20/62 24/63 23/64
f 18/65 19/66 23/67 22/68
f 21/69 24/70 20/71 17/72
o Rack_Face_1
v -0.0620 0.1500 -0.3000
v -0.0540 0.1500 -0.3000
v -0.0540 0.2200 -0.3000
v -0.0620 0.2200 -0.3000
v -0.0620 0.1500 0.3000
v -0.0540 0.1500 0.3000
v -0.0540 0.2200 0.3000
v -0.0620 0.2200 0.3000
vt -0.0620 0.2200
vt -0.0540 0.2200
vt -0.0540 0.1500
vt -0.0620 0.1500
vt -0.0620 0.1500
vt -0.0540 0.1500
vt -0.0540 0.2200
vt -0.0620 0.2200
vt -0.0620 -0.3000
vt -0.0540 -0.3000
vt -0.0540 0.3000
vt -0.0620 0.3000
vt -0.0540 -0.3000
vt -0.0620 -0.3000
vt -0.0620 0.3000
vt -0.0540 0.3000
vt -0.3000 0.1500
vt -0.3000 0.2200
vt 0.3000 0.2200
vt 0.3000 0.1500
vt 0.3000 0.1500
vt 0.3000 0.2200
vt -0.3000 0.2200
vt -0.3000 0.1500
f 28/73 27/74 26/75 25/76
f 29/77 30/78 31/79 32/80
f 25/81 26/82 30/83 29/84
f 27/85 28/86 32/87 31/88
f 26/89 27/90 31/91 30/92
f 29/93 32/94 28/95 25/96
o Rack_Unit_2
v -0.0550 0.2900 -0.3400
v 0.0550 0.2900 -0.3400
v 0.0550 0.4050 -0.3400
v -0.0550 0.4050 -0.3400
v -0.0550 0.2900 0.3400
v 0.0550 0.2900 0.3400
v 0.0550 0.4050 0.3400
v -0.0550 0.4050 0.3400
vt -0.0550 0.4050
vt 0.0550 0.4050
vt 0.0550 0.2900
vt -0.0550 0.2900
vt -0.0550 0.2900
vt 0.0550 0.2900
vt 0.0550 0.4050
vt -0.0550 0.4050
vt -0.0550 -0.3400
vt 0.0550 -0.3400
vt 0.0550 0.3400
vt -0.0550 0.3400
vt 0.0550 -0.3400
vt -0.0550 -0.3400
vt -0.0550 0.3400
vt 0.0550 0.3400
vt -0.3400 0.2900
vt -0.3400 0.4050
vt 0.3400 0.4050
vt 0.3400 0.2900
vt 0.3400 0.2900
vt 0.3400 0.4050
vt -0.3400 0.4050
vt -0.3400 0.2900
f 36/97 35/98 34/99 33/100
f 37/101 38/102 39/103 40/104
f 33/105 34/106 38/107 37/108
f 35/109 36/110 40/111 39/112
f 34/113 35/114 39/115 38/116
f 37/117 40/118 36/119 33/120
o Rack_Face_2
v -0.0620 0.3100 -0.3000
v -0.0540 0.3100 -0.3000
v -0.0540 0.3800 -0.3000
v -0.0620 0.3800 -0.3000
v -0.0620 0.3100 0.3000
v -0.0540 0.3100 0.3000
v -0.0540 0.3800 0.3000
v -0.0620 0.3800 0.3000
vt -0.0620 0.3800
vt -0.0540 0.3800
vt -0.0540 0.3100
vt -0.0620 0.3100
vt -0.0620 0.3100
vt -0.0540 0.3100
vt -0.0540 0.3800
vt -0.0620 0.3800
vt -0.0620 -0.3000
vt -0.0540 -0.3000
vt -0.0540 0.3000
vt -0.0620 0.3000
vt -0.0540 -0.3000
vt -0.0620 -0.3000
vt -0.0620 0.3000
vt -0.0540 0.3000
vt -0.3000 0.3100
vt -0.3000 0.3800
vt 0.3000 0.3800
vt 0.3000 0.3100
vt 0.3000 0.3100
vt 0.3000 0.3800
vt -0.3000 0.3800
vt -0.3000 0.3100
f 44/121 43/122 42/123 41/124
f 45/125 46/126 47/127 48/128
f 41/129 42/130 46/131 45/132
f 43/133 44/134 48/135 47/136
f 42/137 43/138 47/139 46/140
f 45/141 48/142 44/143 41/144
o Rack_Unit_3
v -0.0550 0.4500 -0.3400
v 0.0550 0.4500 -0.3400
v 0.0550 0.5650 -0.3400
v -0.0550 0.5650 -0.3400
v -0.0550 0.4500 0.3400
v 0.0550 0.4500 0.3400
v 0.0550 0.5650 0.3400
v -0.0550 0.5650 0.3400
vt -0.0550 0.5650
vt 0.0550 0.5650
vt 0.0550 0.4500
vt -0.0550 0.4500
vt -0.0550 0.4500
vt 0.0550 0.4500
vt 0.0550 0.5650
vt -0.0550 0.5650
vt -0.0550 -0.3400
vt 0.0550 -0.3400
vt 0.0550 0.3400
vt -0.0550 0.3400
vt 0.0550 -0.3400
vt -0.0550 -0.3400
vt -0.0550 0.3400
vt 0.0550 0.3400
vt -0.3400 0.4500
vt -0.3400 0.5650
vt 0.3400 0.5650
vt 0.3400 0.4500
vt 0.3400 0.4500
vt 0.3400 0.5650
vt -0.3400 0.5650
vt -0.3400 0.4500
f 52/145 51/146 50/147 49/148
f 53/149 54/150 55/151 56/152
f 49/153 50/154 54/155 53/156
f 51/157 52/158 56/159 55/160
f 50/161 51/162 55/163 54/164
f 53/165 56/166 52/167 49/168
o Rack_Face_3
v -0.0620 0.4700 -0.3000
v -0.0540 0.4700 -0.3000
v -0.0540 0.5400 -0.3000
v -0.0620 0.5400 -0.3000
v -0.0620 0.4700 0.3000
v -0.0540 0.4700 0.3000
v -0.0540 0.5400 0.3000
v -0.0620 0.5400 0.3000
vt -0.0620 0.5400
vt -0.0540 0.5400
vt -0.0540 0.4700
vt -0.0620 0.4700
vt -0.0620 0.4700
vt -0.0540 0.4700
vt -0.0540 0.5400
vt -0.0620 0.5400
vt -0.0620 -0.3000
vt -0.0540 -0.3000
vt -0.0540 0.3000
vt -0.0620 0.3000
vt -0.0540 -0.3000
vt -0.0620 -0.3000
vt -0.0620 0.3000
vt -0.0540 0.3000
vt -0.3000 0.4700
vt -0.3000 0.5400
vt 0.3000 0.5400
vt 0.3000 0.4700
vt 0.3000 0.4700
vt 0.3000 0.5400
vt -0.3000 0.5400
vt -0.3000 0.4700
f 60/169 59/170 58/171 57/172
f 61/173 62/174 63/175 64/176
f 57/177 58/178 62/179 61/180
f 59/181 60/182 64/183 63/184
f 58/185 59/186 63/187 62/188
f 61/189 64/190 60/191 57/192
o Rack_Unit_4
v -0.0550 0.6100 -0.3400
v 0.0550 0.6100 -0.3400
v 0.0550 0.7250 -0.3400
v -0.0550 0.7250 -0.3400
v -0.0550 0.6100 0.3400
v 0.0550 0.6100 0.3400
v 0.0550 0.7250 0.3400
v -0.0550 0.7250 0.3400
vt -0.0550 0.7250
vt 0.0550 0.7250
vt 0.0550 0.6100
vt -0.0550 0.6100
vt -0.0550 0.6100
vt 0.0550 0.6100
vt 0.0550 0.7250
vt -0.0550 0.7250
vt -0.0550 -0.3400
vt 0.0550 -0.3400
vt 0.0550 0.3400
vt -0.0550 0.3400
vt 0.0550 -0.3400
vt -0.0550 -0.3400
vt -0.0550 0.3400
vt 0.0550 0.3400
vt -0.3400 0.6100
vt -0.3400 0.7250
vt 0.3400 0.7250
vt 0.3400 0.6100
vt 0.3400 0.6100
vt 0.3400 0.7250
vt -0.3400 0.7250
vt -0.3400 0.6100
f 68/193 67/194 66/195 65/196
f 69/197 70/198 71/199 72/200
f 65/201 66/202 70/203 69/204
f 67/205 68/206 72/207 71/208
f 66/209 67/210 71/211 70/212
f 69/213 72/214 68/215 65/216
o Rack_Face_4
v -0.0620 0.6300 -0.3000
v -0.0540 0.6300 -0.3000
v -0.0540 0.7000 -0.3000
v -0.0620 0.7000 -0.3000
v -0.0620 0.6300 0.3000
v -0.0540 0.6300 0.3000
v -0.0540 0.7000 0.3000
v -0.0620 0.7000 0.3000
vt -0.0620 0.7000
vt -0.0540 0.7000
vt -0.0540 0.6300
vt -0.0620 0.6300
vt -0.0620 0.6300
vt -0.0540 0.6300
vt -0.0540 0.7000
vt -0.0620 0.7000
vt -0.0620 -0.3000
vt -0.0540 -0.3000
vt -0.0540 0.3000
vt -0.0620 0.3000
vt -0.0540 -0.3000
vt -0.0620 -0.3000
vt -0.0620 0.3000
vt -0.0540 0.3000
vt -0.3000 0.6300
vt -0.3000 0.7000
vt 0.3000 0.7000
vt 0.3000 0.6300
vt 0.3000 0.6300
vt 0.3000 0.7000
vt -0.3000 0.7000
vt -0.3000 0.6300
f 76/217 75/218 74/219 73/220
f 77/221 78/222 79/223 80/224
f 73/225 74/226 78/227 77/228
f 75/229 76/230 80/231 79/232
f 74/233 75/234 79/235 78/236
f 77/237 80/238 76/239 73/240
o Rack_Unit_5
v -0.0550 0.7700 -0.3400
v 0.0550 0.7700 -0.3400
v 0.0550 0.8850 -0.3400
v -0.0550 0.8850 -0.3400
v -0.0550 0.7700 0.3400
v 0.0550 0.7700 0.3400
v 0.0550 0.8850 0.3400
v -0.0550 0.8850 0.3400
vt -0.0550 0.8850
vt 0.0550 0.8850
vt 0.0550 0.7700
vt -0.0550 0.7700
vt -0.0550 0.7700
vt 0.0550 0.7700
vt 0.0550 0.8850
vt -0.0550 0.8850
vt -0.0550 -0.3400
vt 0.0550 -0.3400
vt 0.0550 0.3400
vt -0.0550 0.3400
vt 0.0550 -0.3400
vt -0.0550 -0.3400
vt -0.0550 0.3400
vt 0.0550 0.3400
vt -0.3400 0.7700
vt -0.3400 0.8850
vt 0.3400 0.8850
vt 0.3400 0.7700
vt 0.3400 0.7700
vt 0.3400 0.8850
vt -0.3400 0.8850
vt -0.3400 0.7700
f 84/241 83/242 82/243 81/244
f 85/245 86/246 87/247 88/248
f 81/249 82/250 86/251 85/252
f 83/253 84/254 88/255 87/256
f 82/257 83/258 87/259 86/260
f 85/261 88/262 84/263 81/264
o Rack_Face_5
v -0.0620 0.7900 -0.3000
v -0.0540 0.7900 -0.3000
v -0.0540 0.8600 -0.3000
v -0.0620 0.8600 -0.3000
v -0.0620 0.7900 0.3000
v -0.0540 0.7900 0.3000
v -0.0540 0.8600 0.3000
v -0.0620 0.8600 0.3000
vt -0.0620 0.8600
vt -0.0540 0.8600
vt -0.0540 0.7900
vt -0.0620 0.7900
vt -0.0620 0.7900
vt -0.0540 0.7900
vt -0.0540 0.8600
vt -0.0620 0.8600
vt -0.0620 -0.3000
vt -0.0540 -0.3000
vt -0.0540 0.3000
vt -0.0620 0.3000
vt -0.0540 -0.3000
vt -0.0620 -0.3000
vt -0.0620 0.3000
vt -0.0540 0.3000
vt -0.3000 0.7900
vt -0.3000 0.8600
vt 0.3000 0.8600
vt 0.3000 0.7900
vt 0.3000 0.7900
vt 0.3000 0.8600
vt -0.3000 0.8600
vt -0.3000 0.7900
f 92/265 91/266 90/267 89/268
f 93/269 94/270 95/271 96/272
f 89/273 90/274 94/275 93/276
f 91/277 92/278 96/279 95/280
f 90/281 91/282 95/283 94/284
f 93/285 96/286 92/287 89/288
o Rack_TopBox
v -0.0800 1.0700 -0.3000
v 0.0800 1.0700 -0.3000
v 0.0800 1.1500 -0.3000
v -0.0800 1.1500 -0.3000
v -0.0800 1.0700 -0.0400
v 0.0800 1.0700 -0.0400
v 0.0800 1.1500 -0.0400
v -0.0800 1.1500 -0.0400
vt -0.0800 1.1500
vt 0.0800 1.1500
vt 0.0800 1.0700
vt -0.0800 1.0700
vt -0.0800 1.0700
vt 0.0800 1.0700
vt 0.0800 1.1500
vt -0.0800 1.1500
vt -0.0800 -0.3000
vt 0.0800 -0.3000
vt 0.0800 -0.0400
vt -0.0800 -0.0400
vt 0.0800 -0.3000
vt -0.0800 -0.3000
vt -0.0800 -0.0400
vt 0.0800 -0.0400
vt -0.3000 1.0700
vt -0.3000 1.1500
vt -0.0400 1.1500
vt -0.0400 1.0700
vt -0.0400 1.0700
vt -0.0400 1.1500
vt -0.3000 1.1500
vt -0.3000 1.0700
f 100/289 99/290 98/291 97/292
f 101/293 102/294 103/295 104/296
f 97/297 98/298 102/299 101/300
f 99/301 100/302 104/303 103/304
f 98/305 99/306 103/307 102/308
f 101/309 104/310 100/311 97/312
