# ASTRAX zero gravity aircraft (MU-300) free area — experiment_table
# build_parts.py が実測値（実機サイズ表）から作る。単位はメートル。X=機首→機尾, Y=上, Z=機首を向いて左（右舷は-Z）
o Table_Top
v 0.0013 0.0000 0.0000
v 0.0013 0.0000 0.0010
v 0.0012 0.0000 0.0011
v 0.0000 0.0000 0.0011
v -0.0012 0.0000 0.0011
v -0.0013 0.0000 0.0010
v -0.0013 0.0000 0.0000
v -0.0013 0.0000 -0.0010
v -0.0012 0.0000 -0.0011
v -0.0000 0.0000 -0.0011
v 0.0012 0.0000 -0.0011
v 0.0013 0.0000 -0.0010
v 0.3245 0.0004 0.0000
v 0.3175 0.0004 0.2437
v 0.2924 0.0004 0.2646
v 0.0012 0.0004 0.2704
v -0.2924 0.0004 0.2646
v -0.3175 0.0004 0.2437
v -0.3245 0.0004 0.0011
v -0.3175 0.0004 -0.2437
v -0.2924 0.0004 -0.2646
v -0.0014 0.0004 -0.2704
v 0.2924 0.0004 -0.2646
v 0.3175 0.0004 -0.2437
v 0.3523 0.0017 0.0000
v 0.3448 0.0017 0.2646
v 0.3175 0.0017 0.2873
v 0.0013 0.0017 0.2936
v -0.3175 0.0017 0.2873
v -0.3448 0.0017 0.2646
v -0.3523 0.0017 0.0012
v -0.3448 0.0017 -0.2646
v -0.3175 0.0017 -0.2873
v -0.0015 0.0017 -0.2936
v 0.3175 0.0017 -0.2873
v 0.3448 0.0017 -0.2646
v 0.3600 0.0175 0.0000
v 0.3523 0.0175 0.2704
v 0.3245 0.0175 0.2936
v 0.0013 0.0175 0.3000
v -0.3245 0.0175 0.2936
v -0.3523 0.0175 0.2704
v -0.3600 0.0175 0.0012
v -0.3523 0.0175 -0.2704
v -0.3245 0.0175 -0.2936
v -0.0016 0.0175 -0.3000
v 0.3245 0.0175 -0.2936
v 0.3523 0.0175 -0.2704
v 0.3523 0.0333 0.0000
v 0.3448 0.0333 0.2646
v 0.3175 0.0333 0.2873
v 0.0013 0.0333 0.2936
v -0.3175 0.0333 0.2873
v -0.3448 0.0333 0.2646
v -0.3523 0.0333 0.0012
v -0.3448 0.0333 -0.2646
v -0.3175 0.0333 -0.2873
v -0.0015 0.0333 -0.2936
v 0.3175 0.0333 -0.2873
v 0.3448 0.0333 -0.2646
v 0.3245 0.0346 0.0000
v 0.3175 0.0346 0.2437
v 0.2924 0.0346 0.2646
v 0.0012 0.0346 0.2704
v -0.2924 0.0346 0.2646
v -0.3175 0.0346 0.2437
v -0.3245 0.0346 0.0011
v -0.3175 0.0346 -0.2437
v -0.2924 0.0346 -0.2646
v -0.0014 0.0346 -0.2704
v 0.2924 0.0346 -0.2646
v 0.3175 0.0346 -0.2437
v 0.0013 0.0350 0.0000
v 0.0013 0.0350 0.0010
v 0.0012 0.0350 0.0011
v 0.0000 0.0350 0.0011
v -0.0012 0.0350 0.0011
v -0.0013 0.0350 0.0010
v -0.0013 0.0350 0.0000
v -0.0013 0.0350 -0.0010
v -0.0012 0.0350 -0.0011
v -0.0000 0.0350 -0.0011
v 0.0012 0.0350 -0.0011
v 0.0013 0.0350 -0.0010
vt 0.0013 0.0000
vt 0.3245 0.0000
vt 0.3175 0.2437
vt 0.0013 0.0010
vt 0.0013 0.0010
vt 0.3175 0.2437
vt 0.2924 0.2646
vt 0.0012 0.0011
vt 0.0012 0.0011
vt 0.2924 0.2646
vt 0.0012 0.2704
vt 0.0000 0.0011
vt 0.0000 0.0011
vt 0.0012 0.2704
vt -0.2924 0.2646
vt -0.0012 0.0011
vt -0.0012 0.0011
vt -0.2924 0.2646
vt -0.3175 0.2437
vt -0.0013 0.0010
vt -0.0013 0.0010
vt -0.3175 0.2437
vt -0.3245 0.0011
vt -0.0013 0.0000
vt -0.0013 0.0000
vt -0.3245 0.0011
vt -0.3175 -0.2437
vt -0.0013 -0.0010
vt -0.0013 -0.0010
vt -0.3175 -0.2437
vt -0.2924 -0.2646
vt -0.0012 -0.0011
vt -0.0012 -0.0011
vt -0.2924 -0.2646
vt -0.0014 -0.2704
vt -0.0000 -0.0011
vt -0.0000 -0.0011
vt -0.0014 -0.2704
vt 0.2924 -0.2646
vt 0.0012 -0.0011
vt 0.0012 -0.0011
vt 0.2924 -0.2646
vt 0.3175 -0.2437
vt 0.0013 -0.0010
vt 0.0013 -0.0010
vt 0.3175 -0.2437
vt 0.3245 0.0000
vt 0.0013 0.0000
vt 0.3245 0.0000
vt 0.3523 0.0000
vt 0.3448 0.2646
vt 0.3175 0.2437
vt 0.3175 0.2437
vt 0.3448 0.2646
vt 0.3175 0.2873
vt 0.2924 0.2646
vt 0.2924 0.2646
vt 0.3175 0.2873
vt 0.0013 0.2936
vt 0.0012 0.2704
vt 0.0012 0.2704
vt 0.0013 0.2936
vt -0.3175 0.2873
vt -0.2924 0.2646
vt -0.2924 0.2646
vt -0.3175 0.2873
vt -0.3448 0.2646
vt -0.3175 0.2437
vt -0.3175 0.2437
vt -0.3448 0.2646
vt -0.3523 0.0012
vt -0.3245 0.0011
vt -0.3245 0.0011
vt -0.3523 0.0012
vt -0.3448 -0.2646
vt -0.3175 -0.2437
vt -0.3175 -0.2437
vt -0.3448 -0.2646
vt -0.3175 -0.2873
vt -0.2924 -0.2646
vt -0.2924 -0.2646
vt -0.3175 -0.2873
vt -0.0015 -0.2936
vt -0.0014 -0.2704
vt -0.0014 -0.2704
vt -0.0015 -0.2936
vt 0.3175 -0.2873
vt 0.2924 -0.2646
vt 0.2924 -0.2646
vt 0.3175 -0.2873
vt 0.3448 -0.2646
vt 0.3175 -0.2437
vt 0.3175 -0.2437
vt 0.3448 -0.2646
vt 0.3523 0.0000
vt 0.3245 0.0000
vt 0.0000 0.0017
vt 0.0000 0.0175
vt 0.2704 0.0175
vt 0.2646 0.0017
vt 0.3448 0.0017
vt 0.3523 0.0175
vt 0.3245 0.0175
vt 0.3175 0.0017
vt 0.3175 0.0017
vt 0.3245 0.0175
vt 0.0013 0.0175
vt 0.0013 0.0017
vt 0.0013 0.0017
vt 0.0013 0.0175
vt -0.3245 0.0175
vt -0.3175 0.0017
vt -0.3175 0.0017
vt -0.3245 0.0175
vt -0.3523 0.0175
vt -0.3448 0.0017
vt 0.2646 0.0017
vt 0.2704 0.0175
vt 0.0012 0.0175
vt 0.0012 0.0017
vt 0.0012 0.0017
vt 0.0012 0.0175
vt -0.2704 0.0175
vt -0.2646 0.0017
vt -0.3448 0.0017
vt -0.3523 0.0175
vt -0.3245 0.0175
vt -0.3175 0.0017
vt -0.3175 0.0017
vt -0.3245 0.0175
vt -0.0016 0.0175
vt -0.0015 0.0017
vt -0.0015 0.0017
vt -0.0016 0.0175
vt 0.3245 0.0175
vt 0.3175 0.0017
vt 0.3175 0.0017
vt 0.3245 0.0175
vt 0.3523 0.0175
vt 0.3448 0.0017
vt -0.2646 0.0017
vt -0.2704 0.0175
vt 0.0000 0.0175
vt 0.0000 0.0017
vt 0.0000 0.0175
vt 0.0000 0.0333
vt 0.2646 0.0333
vt 0.2704 0.0175
vt 0.3523 0.0175
vt 0.3448 0.0333
vt 0.3175 0.0333
vt 0.3245 0.0175
vt 0.3245 0.0175
vt 0.3175 0.0333
vt 0.0013 0.0333
vt 0.0013 0.0175
vt 0.0013 0.0175
vt 0.0013 0.0333
vt -0.3175 0.0333
vt -0.3245 0.0175
vt -0.3245 0.0175
vt -0.3175 0.0333
vt -0.3448 0.0333
vt -0.3523 0.0175
vt 0.2704 0.0175
vt 0.2646 0.0333
vt 0.0012 0.0333
vt 0.0012 0.0175
vt 0.0012 0.0175
vt 0.0012 0.0333
vt -0.2646 0.0333
vt -0.2704 0.0175
vt -0.3523 0.0175
vt -0.3448 0.0333
vt -0.3175 0.0333
vt -0.3245 0.0175
vt -0.3245 0.0175
vt -0.3175 0.0333
vt -0.0015 0.0333
vt -0.0016 0.0175
vt -0.0016 0.0175
vt -0.0015 0.0333
vt 0.3175 0.0333
vt 0.3245 0.0175
vt 0.3245 0.0175
vt 0.3175 0.0333
vt 0.3448 0.0333
vt 0.3523 0.0175
vt -0.2704 0.0175
vt -0.2646 0.0333
vt 0.0000 0.0333
vt 0.0000 0.0175
vt 0.3523 0.0000
vt 0.3245 0.0000
vt 0.3175 0.2437
vt 0.3448 0.2646
vt 0.3448 0.2646
vt 0.3175 0.2437
vt 0.2924 0.2646
vt 0.3175 0.2873
vt 0.3175 0.2873
vt 0.2924 0.2646
vt 0.0012 0.2704
vt 0.0013 0.2936
vt 0.0013 0.2936
vt 0.0012 0.2704
vt -0.2924 0.2646
vt -0.3175 0.2873
vt -0.3175 0.2873
vt -0.2924 0.2646
vt -0.3175 0.2437
vt -0.3448 0.2646
vt -0.3448 0.2646
vt -0.3175 0.2437
vt -0.3245 0.0011
vt -0.3523 0.0012
vt -0.3523 0.0012
vt -0.3245 0.0011
vt -0.3175 -0.2437
vt -0.3448 -0.2646
vt -0.3448 -0.2646
vt -0.3175 -0.2437
vt -0.2924 -0.2646
vt -0.3175 -0.2873
vt -0.3175 -0.2873
vt -0.2924 -0.2646
vt -0.0014 -0.2704
vt -0.0015 -0.2936
vt -0.0015 -0.2936
vt -0.0014 -0.2704
vt 0.2924 -0.2646
vt 0.3175 -0.2873
vt 0.3175 -0.2873
vt 0.2924 -0.2646
vt 0.3175 -0.2437
vt 0.3448 -0.2646
vt 0.3448 -0.2646
vt 0.3175 -0.2437
vt 0.3245 0.0000
vt 0.3523 0.0000
vt 0.3245 0.0000
vt 0.0013 0.0000
vt 0.0013 0.0010
vt 0.3175 0.2437
vt 0.3175 0.2437
vt 0.0013 0.0010
vt 0.0012 0.0011
vt 0.2924 0.2646
vt 0.2924 0.2646
vt 0.0012 0.0011
vt 0.0000 0.0011
vt 0.0012 0.2704
vt 0.0012 0.2704
vt 0.0000 0.0011
vt -0.0012 0.0011
vt -0.2924 0.2646
vt -0.2924 0.2646
vt -0.0012 0.0011
vt -0.0013 0.0010
vt -0.3175 0.2437
vt -0.3175 0.2437
vt -0.0013 0.0010
vt -0.0013 0.0000
vt -0.3245 0.0011
vt -0.3245 0.0011
vt -0.0013 0.0000
vt -0.0013 -0.0010
vt -0.3175 -0.2437
vt -0.3175 -0.2437
vt -0.0013 -0.0010
vt -0.0012 -0.0011
vt -0.2924 -0.2646
vt -0.2924 -0.2646
vt -0.0012 -0.0011
vt -0.0000 -0.0011
vt -0.0014 -0.2704
vt -0.0014 -0.2704
vt -0.0000 -0.0011
vt 0.0012 -0.0011
vt 0.2924 -0.2646
vt 0.2924 -0.2646
vt 0.0012 -0.0011
vt 0.0013 -0.0010
vt 0.3175 -0.2437
vt 0.3175 -0.2437
vt 0.0013 -0.0010
vt 0.0013 0.0000
vt 0.3245 0.0000
f 1/1 13/2 14/3 2/4
f 2/5 14/6 15/7 3/8
f 3/9 15/10 16/11 4/12
f 4/13 16/14 17/15 5/16
f 5/17 17/18 18/19 6/20
f 6/21 18/22 19/23 7/24
f 7/25 19/26 20/27 8/28
f 8/29 20/30 21/31 9/32
f 9/33 21/34 22/35 10/36
f 10/37 22/38 23/39 11/40
f 11/41 23/42 24/43 12/44
f 12/45 24/46 13/47 1/48
f 13/49 25/50 26/51 14/52
f 14/53 26/54 27/55 15/56
f 15/57 27/58 28/59 16/60
f 16/61 28/62 29/63 17/64
f 17/65 29/66 30/67 18/68
f 18/69 30/70 31/71 19/72
f 19/73 31/74 32/75 20/76
f 20/77 32/78 33/79 21/80
f 21/81 33/82 34/83 22/84
f 22/85 34/86 35/87 23/88
f 23/89 35/90 36/91 24/92
f 24/93 36/94 25/95 13/96
f 25/97 37/98 38/99 26/100
f 26/101 38/102 39/103 27/104
f 27/105 39/106 40/107 28/108
f 28/109 40/110 41/111 29/112
f 29/113 41/114 42/115 30/116
f 30/117 42/118 43/119 31/120
f 31/121 43/122 44/123 32/124
f 32/125 44/126 45/127 33/128
f 33/129 45/130 46/131 34/132
f 34/133 46/134 47/135 35/136
f 35/137 47/138 48/139 36/140
f 36/141 48/142 37/143 25/144
f 37/145 49/146 50/147 38/148
f 38/149 50/150 51/151 39/152
f 39/153 51/154 52/155 40/156
f 40/157 52/158 53/159 41/160
f 41/161 53/162 54/163 42/164
f 42/165 54/166 55/167 43/168
f 43/169 55/170 56/171 44/172
f 44/173 56/174 57/175 45/176
f 45/177 57/178 58/179 46/180
f 46/181 58/182 59/183 47/184
f 47/185 59/186 60/187 48/188
f 48/189 60/190 49/191 37/192
f 49/193 61/194 62/195 50/196
f 50/197 62/198 63/199 51/200
f 51/201 63/202 64/203 52/204
f 52/205 64/206 65/207 53/208
f 53/209 65/210 66/211 54/212
f 54/213 66/214 67/215 55/216
f 55/217 67/218 68/219 56/220
f 56/221 68/222 69/223 57/224
f 57/225 69/226 70/227 58/228
f 58/229 70/230 71/231 59/232
f 59/233 71/234 72/235 60/236
f 60/237 72/238 61/239 49/240
f 61/241 73/242 74/243 62/244
f 62/245 74/246 75/247 63/248
f 63/249 75/250 76/251 64/252
f 64/253 76/254 77/255 65/256
f 65/257 77/258 78/259 66/260
f 66/261 78/262 79/263 67/264
f 67/265 79/266 80/267 68/268
f 68/269 80/270 81/271 69/272
f 69/273 81/274 82/275 70/276
f 70/277 82/278 83/279 71/280
f 71/281 83/282 84/283 72/284
f 72/285 84/286 73/287 61/288
o Table_PoleLeft
v -0.2820 -0.7000 -0.2400
v -0.2820 0.0000 -0.2400
v -0.2844 -0.7000 -0.2310
v -0.2844 0.0000 -0.2310
v -0.2910 -0.7000 -0.2244
v -0.2910 0.0000 -0.2244
v -0.3000 -0.7000 -0.2220
v -0.3000 0.0000 -0.2220
v -0.3090 -0.7000 -0.2244
v -0.3090 0.0000 -0.2244
v -0.3156 -0.7000 -0.2310
v -0.3156 0.0000 -0.2310
v -0.3180 -0.7000 -0.2400
v -0.3180 0.0000 -0.2400
v -0.3156 -0.7000 -0.2490
v -0.3156 0.0000 -0.2490
v -0.3090 -0.7000 -0.2556
v -0.3090 0.0000 -0.2556
v -0.3000 -0.7000 -0.2580
v -0.3000 0.0000 -0.2580
v -0.2910 -0.7000 -0.2556
v -0.2910 0.0000 -0.2556
v -0.2844 -0.7000 -0.2490
v -0.2844 0.0000 -0.2490
vt -0.2400 -0.7000
vt -0.2400 0.0000
vt -0.2310 0.0000
vt -0.2310 -0.7000
vt -0.2844 -0.7000
vt -0.2844 0.0000
vt -0.2910 0.0000
vt -0.2910 -0.7000
vt -0.2910 -0.7000
vt -0.2910 0.0000
vt -0.3000 0.0000
vt -0.3000 -0.7000
vt -0.3000 -0.7000
vt -0.3000 0.0000
vt -0.3090 0.0000
vt -0.3090 -0.7000
vt -0.3090 -0.7000
vt -0.3090 0.0000
vt -0.3156 0.0000
vt -0.3156 -0.7000
vt -0.2310 -0.7000
vt -0.2310 0.0000
vt -0.2400 0.0000
vt -0.2400 -0.7000
vt -0.2400 -0.7000
vt -0.2400 0.0000
vt -0.2490 0.0000
vt -0.2490 -0.7000
vt -0.2490 -0.7000
vt -0.2490 0.0000
vt -0.2556 0.0000
vt -0.2556 -0.7000
vt -0.3090 -0.7000
vt -0.3090 0.0000
vt -0.3000 0.0000
vt -0.3000 -0.7000
vt -0.3000 -0.7000
vt -0.3000 0.0000
vt -0.2910 0.0000
vt -0.2910 -0.7000
vt -0.2556 -0.7000
vt -0.2556 0.0000
vt -0.2490 0.0000
vt -0.2490 -0.7000
vt -0.2490 -0.7000
vt -0.2490 0.0000
vt -0.2400 0.0000
vt -0.2400 -0.7000
f 85/289 86/290 88/291 87/292
f 87/293 88/294 90/295 89/296
f 89/297 90/298 92/299 91/300
f 91/301 92/302 94/303 93/304
f 93/305 94/306 96/307 95/308
f 95/309 96/310 98/311 97/312
f 97/313 98/314 100/315 99/316
f 99/317 100/318 102/319 101/320
f 101/321 102/322 104/323 103/324
f 103/325 104/326 106/327 105/328
f 105/329 106/330 108/331 107/332
f 107/333 108/334 86/335 85/336
o Table_PoleRight
v 0.3180 -0.7000 0.2400
v 0.3180 0.0000 0.2400
v 0.3156 -0.7000 0.2490
v 0.3156 0.0000 0.2490
v 0.3090 -0.7000 0.2556
v 0.3090 0.0000 0.2556
v 0.3000 -0.7000 0.2580
v 0.3000 0.0000 0.2580
v 0.2910 -0.7000 0.2556
v 0.2910 0.0000 0.2556
v 0.2844 -0.7000 0.2490
v 0.2844 0.0000 0.2490
v 0.2820 -0.7000 0.2400
v 0.2820 0.0000 0.2400
v 0.2844 -0.7000 0.2310
v 0.2844 0.0000 0.2310
v 0.2910 -0.7000 0.2244
v 0.2910 0.0000 0.2244
v 0.3000 -0.7000 0.2220
v 0.3000 0.0000 0.2220
v 0.3090 -0.7000 0.2244
v 0.3090 0.0000 0.2244
v 0.3156 -0.7000 0.2310
v 0.3156 0.0000 0.2310
vt 0.2400 -0.7000
vt 0.2400 0.0000
vt 0.2490 0.0000
vt 0.2490 -0.7000
vt 0.2490 -0.7000
vt 0.2490 0.0000
vt 0.2556 0.0000
vt 0.2556 -0.7000
vt 0.3090 -0.7000
vt 0.3090 0.0000
vt 0.3000 0.0000
vt 0.3000 -0.7000
vt 0.3000 -0.7000
vt 0.3000 0.0000
vt 0.2910 0.0000
vt 0.2910 -0.7000
vt 0.2556 -0.7000
vt 0.2556 0.0000
vt 0.2490 0.0000
vt 0.2490 -0.7000
vt 0.2490 -0.7000
vt 0.2490 0.0000
vt 0.2400 0.0000
vt 0.2400 -0.7000
vt 0.2400 -0.7000
vt 0.2400 0.0000
vt 0.2310 0.0000
vt 0.2310 -0.7000
vt 0.2844 -0.7000
vt 0.2844 0.0000
vt 0.2910 0.0000
vt 0.2910 -0.7000
vt 0.2910 -0.7000
vt 0.2910 0.0000
vt 0.3000 0.0000
vt 0.3000 -0.7000
vt 0.3000 -0.7000
vt 0.3000 0.0000
vt 0.3090 0.0000
vt 0.3090 -0.7000
vt 0.3090 -0.7000
vt 0.3090 0.0000
vt 0.3156 0.0000
vt 0.3156 -0.7000
vt 0.2310 -0.7000
vt 0.2310 0.0000
vt 0.2400 0.0000
vt 0.2400 -0.7000
f 109/337 110/338 112/339 111/340
f 111/341 112/342 114/343 113/344
f 113/345 114/346 116/347 115/348
f 115/349 116/350 118/351 117/352
f 117/353 118/354 120/355 119/356
f 119/357 120/358 122/359 121/360
f 121/361 122/362 124/363 123/364
f 123/365 124/366 126/367 125/368
f 125/369 126/370 128/371 127/372
f 127/373 128/374 130/375 129/376
f 129/377 130/378 132/379 131/380
f 131/381 132/382 110/383 109/384
