# ASTRAX zero gravity aircraft (MU-300) free area — light_led
# build_parts.py が実測値（実機サイズ表）から作る。単位はメートル。X=機首→機尾, Y=上, Z=機首を向いて左（右舷は-Z）
o LED_Panel
v 0.0000 0.0000 -0.0955
v 0.0340 0.0000 -0.0955
v 0.0340 0.3020 -0.0955
v 0.0000 0.3020 -0.0955
v 0.0000 0.0000 0.0955
v 0.0340 0.0000 0.0955
v 0.0340 0.3020 0.0955
v 0.0000 0.3020 0.0955
vt 0.0000 0.3020
vt 0.0340 0.3020
vt 0.0340 0.0000
vt 0.0000 0.0000
vt 0.0000 0.0000
vt 0.0340 0.0000
vt 0.0340 0.3020
vt 0.0000 0.3020
vt 0.0000 -0.0955
vt 0.0340 -0.0955
vt 0.0340 0.0955
vt 0.0000 0.0955
vt 0.0340 -0.0955
vt 0.0000 -0.0955
vt 0.0000 0.0955
vt 0.0340 0.0955
vt -0.0955 0.0000
vt -0.0955 0.3020
vt 0.0955 0.3020
vt 0.0955 0.0000
vt 0.0955 0.0000
vt 0.0955 0.3020
vt -0.0955 0.3020
vt -0.0955 0.0000
f 4/1 3/2 2/3 1/4
f 5/5 6/6 7/7 8/8
f 1/9 2/10 6/11 5/12
f 3/13 4/14 8/15 7/16
f 2/17 3/18 7/19 6/20
f 5/21 8/22 4/23 1/24
o LED_Face
v 0.0340 0.0100 -0.0855
v 0.0420 0.0100 -0.0855
v 0.0420 0.2920 -0.0855
v 0.0340 0.2920 -0.0855
v 0.0340 0.0100 0.0855
v 0.0420 0.0100 0.0855
v 0.0420 0.2920 0.0855
v 0.0340 0.2920 0.0855
vt 0.0340 0.2920
vt 0.0420 0.2920
vt 0.0420 0.0100
vt 0.0340 0.0100
vt 0.0340 0.0100
vt 0.0420 0.0100
vt 0.0420 0.2920
vt 0.0340 0.2920
vt 0.0340 -0.0855
vt 0.0420 -0.0855
vt 0.0420 0.0855
vt 0.0340 0.0855
vt 0.0420 -0.0855
vt 0.0340 -0.0855
vt 0.0340 0.0855
vt 0.0420 0.0855
vt -0.0855 0.0100
vt -0.0855 0.2920
vt 0.0855 0.2920
vt 0.0855 0.0100
vt 0.0855 0.0100
vt 0.0855 0.2920
vt -0.0855 0.2920
vt -0.0855 0.0100
f 12/25 11/26 10/27 9/28
f 13/29 14/30 15/31 16/32
f 9/33 10/34 14/35 13/36
f 11/37 12/38 16/39 15/40
f 10/41 11/42 15/43 14/44
f 13/45 16/46 12/47 9/48
o LED_BackPlate
v -0.0040 0.0300 -0.0755
v 0.0000 0.0300 -0.0755
v 0.0000 0.2720 -0.0755
v -0.0040 0.2720 -0.0755
v -0.0040 0.0300 0.0755
v 0.0000 0.0300 0.0755
v 0.0000 0.2720 0.0755
v -0.0040 0.2720 0.0755
vt -0.0040 0.2720
vt 0.0000 0.2720
vt 0.0000 0.0300
vt -0.0040 0.0300
vt -0.0040 0.0300
vt 0.0000 0.0300
vt 0.0000 0.2720
vt -0.0040 0.2720
vt -0.0040 -0.0755
vt 0.0000 -0.0755
vt 0.0000 0.0755
vt -0.0040 0.0755
vt 0.0000 -0.0755
vt -0.0040 -0.0755
vt -0.0040 0.0755
vt 0.0000 0.0755
vt -0.0755 0.0300
vt -0.0755 0.2720
vt 0.0755 0.2720
vt 0.0755 0.0300
vt 0.0755 0.0300
vt 0.0755 0.2720
vt -0.0755 0.2720
vt -0.0755 0.0300
f 20/49 19/50 18/51 17/52
f 21/53 22/54 23/55 24/56
f 17/57 18/58 22/59 21/60
f 19/61 20/62 24/63 23/64
f 18/65 19/66 23/67 22/68
f 21/69 24/70 20/71 17/72
o LED_BackDisplay
v -0.0060 0.2120 -0.0400
v -0.0040 0.2120 -0.0400
v -0.0040 0.2420 -0.0400
v -0.0060 0.2420 -0.0400
v -0.0060 0.2120 0.0400
v -0.0040 0.2120 0.0400
v -0.0040 0.2420 0.0400
v -0.0060 0.2420 0.0400
vt -0.0060 0.2420
vt -0.0040 0.2420
vt -0.0040 0.2120
vt -0.0060 0.2120
vt -0.0060 0.2120
vt -0.0040 0.2120
vt -0.0040 0.2420
vt -0.0060 0.2420
vt -0.0060 -0.0400
vt -0.0040 -0.0400
vt -0.0040 0.0400
vt -0.0060 0.0400
vt -0.0040 -0.0400
vt -0.0060 -0.0400
vt -0.0060 0.0400
vt -0.0040 0.0400
vt -0.0400 0.2120
vt -0.0400 0.2420
vt 0.0400 0.2420
vt 0.0400 0.2120
vt 0.0400 0.2120
vt 0.0400 0.2420
vt -0.0400 0.2420
vt -0.0400 0.2120
f 28/73 27/74 26/75 25/76
f 29/77 30/78 31/79 32/80
f 25/81 26/82 30/83 29/84
f 27/85 28/86 32/87 31/88
f 26/89 27/90 31/91 30/92
f 29/93 32/94 28/95 25/96
o LED_KnobTop
v 0.0110 0.3020 -0.0120
v 0.0310 0.3020 -0.0120
v 0.0310 0.3140 -0.0120
v 0.0110 0.3140 -0.0120
v 0.0110 0.3020 0.0120
v 0.0310 0.3020 0.0120
v 0.0310 0.3140 0.0120
v 0.0110 0.3140 0.0120
vt 0.0110 0.3140
vt 0.0310 0.3140
vt 0.0310 0.3020
vt 0.0110 0.3020
vt 0.0110 0.3020
vt 0.0310 0.3020
vt 0.0310 0.3140
vt 0.0110 0.3140
vt 0.0110 -0.0120
vt 0.0310 -0.0120
vt 0.0310 0.0120
vt 0.0110 0.0120
vt 0.0310 -0.0120
vt 0.0110 -0.0120
vt 0.0110 0.0120
vt 0.0310 0.0120
vt -0.0120 0.3020
vt -0.0120 0.3140
vt 0.0120 0.3140
vt 0.0120 0.3020
vt 0.0120 0.3020
vt 0.0120 0.3140
vt -0.0120 0.3140
vt -0.0120 0.3020
f 36/97 35/98 34/99 33/100
f 37/101 38/102 39/103 40/104
f 33/105 34/106 38/107 37/108
f 35/109 36/110 40/111 39/112
f 34/113 35/114 39/115 38/116
f 37/117 40/118 36/119 33/120
o LED_KnobBottom
v 0.0110 -0.0120 -0.0120
v 0.0310 -0.0120 -0.0120
v 0.0310 0.0000 -0.0120
v 0.0110 0.0000 -0.0120
v 0.0110 -0.0120 0.0120
v 0.0310 -0.0120 0.0120
v 0.0310 0.0000 0.0120
v 0.0110 0.0000 0.0120
vt 0.0110 0.0000
vt 0.0310 0.0000
vt 0.0310 -0.0120
vt 0.0110 -0.0120
vt 0.0110 -0.0120
vt 0.0310 -0.0120
vt 0.0310 0.0000
vt 0.0110 0.0000
vt 0.0110 -0.0120
vt 0.0310 -0.0120
vt 0.0310 0.0120
vt 0.0110 0.0120
vt 0.0310 -0.0120
vt 0.0110 -0.0120
vt 0.0110 0.0120
vt 0.0310 0.0120
vt -0.0120 -0.0120
vt -0.0120 0.0000
vt 0.0120 0.0000
vt 0.0120 -0.0120
vt 0.0120 -0.0120
vt 0.0120 0.0000
vt -0.0120 0.0000
vt -0.0120 -0.0120
f 44/121 43/122 42/123 41/124
f 45/125 46/126 47/127 48/128
f 41/129 42/130 46/131 45/132
f 43/133 44/134 48/135 47/136
f 42/137 43/138 47/139 46/140
f 45/141 48/142 44/143 41/144
