# ASTRAX zero gravity aircraft (MU-300) free area — pilot_seat
# build_parts.py が実測値（実機サイズ表）から作る。単位はメートル。X=機首→機尾, Y=上, Z=機首を向いて左（右舷は-Z）
o Pilot_Base
v -0.2000 0.0000 -0.1600
v 0.2000 0.0000 -0.1600
v 0.2000 0.3000 -0.1600
v -0.2000 0.3000 -0.1600
v -0.2000 0.0000 0.1600
v 0.2000 0.0000 0.1600
v 0.2000 0.3000 0.1600
v -0.2000 0.3000 0.1600
vt -0.2000 0.3000
vt 0.2000 0.3000
vt 0.2000 0.0000
vt -0.2000 0.0000
vt -0.2000 0.0000
vt 0.2000 0.0000
vt 0.2000 0.3000
vt -0.2000 0.3000
vt -0.2000 -0.1600
vt 0.2000 -0.1600
vt 0.2000 0.1600
vt -0.2000 0.1600
vt 0.2000 -0.1600
vt -0.2000 -0.1600
vt -0.2000 0.1600
vt 0.2000 0.1600
vt -0.1600 0.0000
vt -0.1600 0.3000
vt 0.1600 0.3000
vt 0.1600 0.0000
vt 0.1600 0.0000
vt 0.1600 0.3000
vt -0.1600 0.3000
vt -0.1600 0.0000
f 4/1 3/2 2/3 1/4
f 5/5 6/6 7/7 8/8
f 1/9 2/10 6/11 5/12
f 3/13 4/14 8/15 7/16
f 2/17 3/18 7/19 6/20
f 5/21 8/22 4/23 1/24
o Pilot_Pan
v -0.0947 0.3300 0.0000
v -0.0947 0.3300 0.0002
v -0.0948 0.3300 0.0003
v -0.0948 0.3300 0.0003
v -0.0950 0.3300 0.0003
v -0.0952 0.3300 0.0003
v -0.0952 0.3300 0.0003
v -0.0953 0.3300 0.0002
v -0.0953 0.3300 0.0000
v -0.0953 0.3300 -0.0002
v -0.0952 0.3300 -0.0003
v -0.0952 0.3300 -0.0003
v -0.0950 0.3300 -0.0003
v -0.0948 0.3300 -0.0003
v -0.0948 0.3300 -0.0003
v -0.0947 0.3300 -0.0002
v 0.0859 0.3308 0.0000
v 0.0833 0.3308 0.1698
v 0.0749 0.3308 0.1897
v 0.0571 0.3308 0.1990
v -0.0948 0.3308 0.2019
v -0.2471 0.3308 0.1990
v -0.2649 0.3308 0.1897
v -0.2733 0.3308 0.1698
v -0.2759 0.3308 0.0003
v -0.2733 0.3308 -0.1698
v -0.2649 0.3308 -0.1897
v -0.2471 0.3308 -0.1990
v -0.0953 0.3308 -0.2019
v 0.0571 0.3308 -0.1990
v 0.0749 0.3308 -0.1897
v 0.0833 0.3308 -0.1698
v 0.1070 0.3336 0.0000
v 0.1041 0.3336 0.1897
v 0.0948 0.3336 0.2118
v 0.0749 0.3336 0.2223
v -0.0948 0.3336 0.2255
v -0.2649 0.3336 0.2223
v -0.2848 0.3336 0.2118
v -0.2941 0.3336 0.1897
v -0.2970 0.3336 0.0003
v -0.2941 0.3336 -0.1897
v -0.2848 0.3336 -0.2118
v -0.2649 0.3336 -0.2223
v -0.0953 0.3336 -0.2255
v 0.0749 0.3336 -0.2223
v 0.0948 0.3336 -0.2118
v 0.1041 0.3336 -0.1897
v 0.1170 0.3395 0.0000
v 0.1140 0.3395 0.1990
v 0.1041 0.3395 0.2223
v 0.0833 0.3395 0.2333
v -0.0947 0.3395 0.2366
v -0.2733 0.3395 0.2333
v -0.2941 0.3395 0.2223
v -0.3040 0.3395 0.1990
v -0.3070 0.3395 0.0003
v -0.3040 0.3395 -0.1990
v -0.2941 0.3395 -0.2223
v -0.2733 0.3395 -0.2333
v -0.0953 0.3395 -0.2366
v 0.0833 0.3395 -0.2333
v 0.1041 0.3395 -0.2223
v 0.1140 0.3395 -0.1990
v 0.1200 0.3900 0.0000
v 0.1170 0.3900 0.2019
v 0.1070 0.3900 0.2255
v 0.0859 0.3900 0.2366
v -0.0947 0.3900 0.2400
v -0.2759 0.3900 0.2366
v -0.2970 0.3900 0.2255
v -0.3070 0.3900 0.2019
v -0.3100 0.3900 0.0003
v -0.3070 0.3900 -0.2019
v -0.2970 0.3900 -0.2255
v -0.2759 0.3900 -0.2366
v -0.0953 0.3900 -0.2400
v 0.0859 0.3900 -0.2366
v 0.1070 0.3900 -0.2255
v 0.1170 0.3900 -0.2019
v 0.1170 0.4405 0.0000
v 0.1140 0.4405 0.1990
v 0.1041 0.4405 0.2223
v 0.0833 0.4405 0.2333
v -0.0947 0.4405 0.2366
v -0.2733 0.4405 0.2333
v -0.2941 0.4405 0.2223
v -0.3040 0.4405 0.1990
v -0.3070 0.4405 0.0003
v -0.3040 0.4405 -0.1990
v -0.2941 0.4405 -0.2223
v -0.2733 0.4405 -0.2333
v -0.0953 0.4405 -0.2366
v 0.0833 0.4405 -0.2333
v 0.1041 0.4405 -0.2223
v 0.1140 0.4405 -0.1990
v 0.1070 0.4464 0.0000
v 0.1041 0.4464 0.1897
v 0.0948 0.4464 0.2118
v 0.0749 0.4464 0.2223
v -0.0948 0.4464 0.2255
v -0.2649 0.4464 0.2223
v -0.2848 0.4464 0.2118
v -0.2941 0.4464 0.1897
v -0.2970 0.4464 0.0003
v -0.2941 0.4464 -0.1897
v -0.2848 0.4464 -0.2118
v -0.2649 0.4464 -0.2223
v -0.0953 0.4464 -0.2255
v 0.0749 0.4464 -0.2223
v 0.0948 0.4464 -0.2118
v 0.1041 0.4464 -0.1897
v 0.0859 0.4492 0.0000
v 0.0833 0.4492 0.1698
v 0.0749 0.4492 0.1897
v 0.0571 0.4492 0.1990
v -0.0948 0.4492 0.2019
v -0.2471 0.4492 0.1990
v -0.2649 0.4492 0.1897
v -0.2733 0.4492 0.1698
v -0.2759 0.4492 0.0003
v -0.2733 0.4492 -0.1698
v -0.2649 0.4492 -0.1897
v -0.2471 0.4492 -0.1990
v -0.0953 0.4492 -0.2019
v 0.0571 0.4492 -0.1990
v 0.0749 0.4492 -0.1897
v 0.0833 0.4492 -0.1698
v -0.0947 0.4500 0.0000
v -0.0947 0.4500 0.0002
v -0.0948 0.4500 0.0003
v -0.0948 0.4500 0.0003
v -0.0950 0.4500 0.0003
v -0.0952 0.4500 0.0003
v -0.0952 0.4500 0.0003
v -0.0953 0.4500 0.0002
v -0.0953 0.4500 0.0000
v -0.0953 0.4500 -0.0002
v -0.0952 0.4500 -0.0003
v -0.0952 0.4500 -0.0003
v -0.0950 0.4500 -0.0003
v -0.0948 0.4500 -0.0003
v -0.0948 0.4500 -0.0003
v -0.0947 0.4500 -0.0002
vt -0.0947 0.0000
vt 0.0859 0.0000
vt 0.0833 0.1698
vt -0.0947 0.0002
vt -0.0947 0.0002
vt 0.0833 0.1698
vt 0.0749 0.1897
vt -0.0948 0.0003
vt -0.0948 0.0003
vt 0.0749 0.1897
vt 0.0571 0.1990
vt -0.0948 0.0003
vt -0.0948 0.0003
vt 0.0571 0.1990
vt -0.0948 0.2019
vt -0.0950 0.0003
vt -0.0950 0.0003
vt -0.0948 0.2019
vt -0.2471 0.1990
vt -0.0952 0.0003
vt -0.0952 0.0003
vt -0.2471 0.1990
vt -0.2649 0.1897
vt -0.0952 0.0003
vt -0.0952 0.0003
vt -0.2649 0.1897
vt -0.2733 0.1698
vt -0.0953 0.0002
vt -0.0953 0.0002
vt -0.2733 0.1698
vt -0.2759 0.0003
vt -0.0953 0.0000
vt -0.0953 0.0000
vt -0.2759 0.0003
vt -0.2733 -0.1698
vt -0.0953 -0.0002
vt -0.0953 -0.0002
vt -0.2733 -0.1698
vt -0.2649 -0.1897
vt -0.0952 -0.0003
vt -0.0952 -0.0003
vt -0.2649 -0.1897
vt -0.2471 -0.1990
vt -0.0952 -0.0003
vt -0.0952 -0.0003
vt -0.2471 -0.1990
vt -0.0953 -0.2019
vt -0.0950 -0.0003
vt -0.0950 -0.0003
vt -0.0953 -0.2019
vt 0.0571 -0.1990
vt -0.0948 -0.0003
vt -0.0948 -0.0003
vt 0.0571 -0.1990
vt 0.0749 -0.1897
vt -0.0948 -0.0003
vt -0.0948 -0.0003
vt 0.0749 -0.1897
vt 0.0833 -0.1698
vt -0.0947 -0.0002
vt -0.0947 -0.0002
vt 0.0833 -0.1698
vt 0.0859 0.0000
vt -0.0947 0.0000
vt 0.0859 0.0000
vt 0.1070 0.0000
vt 0.1041 0.1897
vt 0.0833 0.1698
vt 0.0833 0.1698
vt 0.1041 0.1897
vt 0.0948 0.2118
vt 0.0749 0.1897
vt 0.0749 0.1897
vt 0.0948 0.2118
vt 0.0749 0.2223
vt 0.0571 0.1990
vt 0.0571 0.1990
vt 0.0749 0.2223
vt -0.0948 0.2255
vt -0.0948 0.2019
vt -0.0948 0.2019
vt -0.0948 0.2255
vt -0.2649 0.2223
vt -0.2471 0.1990
vt -0.2471 0.1990
vt -0.2649 0.2223
vt -0.2848 0.2118
vt -0.2649 0.1897
vt -0.2649 0.1897
vt -0.2848 0.2118
vt -0.2941 0.1897
vt -0.2733 0.1698
vt -0.2733 0.1698
vt -0.2941 0.1897
vt -0.2970 0.0003
vt -0.2759 0.0003
vt -0.2759 0.0003
vt -0.2970 0.0003
vt -0.2941 -0.1897
vt -0.2733 -0.1698
vt -0.2733 -0.1698
vt -0.2941 -0.1897
vt -0.2848 -0.2118
vt -0.2649 -0.1897
vt -0.2649 -0.1897
vt -0.2848 -0.2118
vt -0.2649 -0.2223
vt -0.2471 -0.1990
vt -0.2471 -0.1990
vt -0.2649 -0.2223
vt -0.0953 -0.2255
vt -0.0953 -0.2019
vt -0.0953 -0.2019
vt -0.0953 -0.2255
vt 0.0749 -0.2223
vt 0.0571 -0.1990
vt 0.0571 -0.1990
vt 0.0749 -0.2223
vt 0.0948 -0.2118
vt 0.0749 -0.1897
vt 0.0749 -0.1897
vt 0.0948 -0.2118
vt 0.1041 -0.1897
vt 0.0833 -0.1698
vt 0.0833 -0.1698
vt 0.1041 -0.1897
vt 0.1070 0.0000
vt 0.0859 0.0000
vt 0.1070 0.0000
vt 0.1170 0.0000
vt 0.1140 0.1990
vt 0.1041 0.1897
vt 0.1041 0.1897
vt 0.1140 0.1990
vt 0.1041 0.2223
vt 0.0948 0.2118
vt 0.0948 0.2118
vt 0.1041 0.2223
vt 0.0833 0.2333
vt 0.0749 0.2223
vt 0.0749 0.2223
vt 0.0833 0.2333
vt -0.0947 0.2366
vt -0.0948 0.2255
vt -0.0948 0.2255
vt -0.0947 0.2366
vt -0.2733 0.2333
vt -0.2649 0.2223
vt -0.2649 0.2223
vt -0.2733 0.2333
vt -0.2941 0.2223
vt -0.2848 0.2118
vt -0.2848 0.2118
vt -0.2941 0.2223
vt -0.3040 0.1990
vt -0.2941 0.1897
vt -0.2941 0.1897
vt -0.3040 0.1990
vt -0.3070 0.0003
vt -0.2970 0.0003
vt -0.2970 0.0003
vt -0.3070 0.0003
vt -0.3040 -0.1990
vt -0.2941 -0.1897
vt -0.2941 -0.1897
vt -0.3040 -0.1990
vt -0.2941 -0.2223
vt -0.2848 -0.2118
vt -0.2848 -0.2118
vt -0.2941 -0.2223
vt -0.2733 -0.2333
vt -0.2649 -0.2223
vt -0.2649 -0.2223
vt -0.2733 -0.2333
vt -0.0953 -0.2366
vt -0.0953 -0.2255
vt -0.0953 -0.2255
vt -0.0953 -0.2366
vt 0.0833 -0.2333
vt 0.0749 -0.2223
vt 0.0749 -0.2223
vt 0.0833 -0.2333
vt 0.1041 -0.2223
vt 0.0948 -0.2118
vt 0.0948 -0.2118
vt 0.1041 -0.2223
vt 0.1140 -0.1990
vt 0.1041 -0.1897
vt 0.1041 -0.1897
vt 0.1140 -0.1990
vt 0.1170 0.0000
vt 0.1070 0.0000
vt 0.0000 0.3395
vt 0.0000 0.3900
vt 0.2019 0.3900
vt 0.1990 0.3395
vt 0.1990 0.3395
vt 0.2019 0.3900
vt 0.2255 0.3900
vt 0.2223 0.3395
vt 0.1041 0.3395
vt 0.1070 0.3900
vt 0.0859 0.3900
vt 0.0833 0.3395
vt 0.0833 0.3395
vt 0.0859 0.3900
vt -0.0947 0.3900
vt -0.0947 0.3395
vt -0.0947 0.3395
vt -0.0947 0.3900
vt -0.2759 0.3900
vt -0.2733 0.3395
vt -0.2733 0.3395
vt -0.2759 0.3900
vt -0.2970 0.3900
vt -0.2941 0.3395
vt 0.2223 0.3395
vt 0.2255 0.3900
vt 0.2019 0.3900
vt 0.1990 0.3395
vt 0.1990 0.3395
vt 0.2019 0.3900
vt 0.0003 0.3900
vt 0.0003 0.3395
vt 0.0003 0.3395
vt 0.0003 0.3900
vt -0.2019 0.3900
vt -0.1990 0.3395
vt -0.1990 0.3395
vt -0.2019 0.3900
vt -0.2255 0.3900
vt -0.2223 0.3395
vt -0.2941 0.3395
vt -0.2970 0.3900
vt -0.2759 0.3900
vt -0.2733 0.3395
vt -0.2733 0.3395
vt -0.2759 0.3900
vt -0.0953 0.3900
vt -0.0953 0.3395
vt -0.0953 0.3395
vt -0.0953 0.3900
vt 0.0859 0.3900
vt 0.0833 0.3395
vt 0.0833 0.3395
vt 0.0859 0.3900
vt 0.1070 0.3900
vt 0.1041 0.3395
vt -0.2223 0.3395
vt -0.2255 0.3900
vt -0.2019 0.3900
vt -0.1990 0.3395
vt -0.1990 0.3395
vt -0.2019 0.3900
vt 0.0000 0.3900
vt 0.0000 0.3395
vt 0.0000 0.3900
vt 0.0000 0.4405
vt 0.1990 0.4405
vt 0.2019 0.3900
vt 0.2019 0.3900
vt 0.1990 0.4405
vt 0.2223 0.4405
vt 0.2255 0.3900
vt 0.1070 0.3900
vt 0.1041 0.4405
vt 0.0833 0.4405
vt 0.0859 0.3900
vt 0.0859 0.3900
vt 0.0833 0.4405
vt -0.0947 0.4405
vt -0.0947 0.3900
vt -0.0947 0.3900
vt -0.0947 0.4405
vt -0.2733 0.4405
vt -0.2759 0.3900
vt -0.2759 0.3900
vt -0.2733 0.4405
vt -0.2941 0.4405
vt -0.2970 0.3900
vt 0.2255 0.3900
vt 0.2223 0.4405
vt 0.1990 0.4405
vt 0.2019 0.3900
vt 0.2019 0.3900
vt 0.1990 0.4405
vt 0.0003 0.4405
vt 0.0003 0.3900
vt 0.0003 0.3900
vt 0.0003 0.4405
vt -0.1990 0.4405
vt -0.2019 0.3900
vt -0.2019 0.3900
vt -0.1990 0.4405
vt -0.2223 0.4405
vt -0.2255 0.3900
vt -0.2970 0.3900
vt -0.2941 0.4405
vt -0.2733 0.4405
vt -0.2759 0.3900
vt -0.2759 0.3900
vt -0.2733 0.4405
vt -0.0953 0.4405
vt -0.0953 0.3900
vt -0.0953 0.3900
vt -0.0953 0.4405
vt 0.0833 0.4405
vt 0.0859 0.3900
vt 0.0859 0.3900
vt 0.0833 0.4405
vt 0.1041 0.4405
vt 0.1070 0.3900
vt -0.2255 0.3900
vt -0.2223 0.4405
vt -0.1990 0.4405
vt -0.2019 0.3900
vt -0.2019 0.3900
vt -0.1990 0.4405
vt 0.0000 0.4405
vt 0.0000 0.3900
vt 0.1170 0.0000
vt 0.1070 0.0000
vt 0.1041 0.1897
vt 0.1140 0.1990
vt 0.1140 0.1990
vt 0.1041 0.1897
vt 0.0948 0.2118
vt 0.1041 0.2223
vt 0.1041 0.2223
vt 0.0948 0.2118
vt 0.0749 0.2223
vt 0.0833 0.2333
vt 0.0833 0.2333
vt 0.0749 0.2223
vt -0.0948 0.2255
vt -0.0947 0.2366
vt -0.0947 0.2366
vt -0.0948 0.2255
vt -0.2649 0.2223
vt -0.2733 0.2333
vt -0.2733 0.2333
vt -0.2649 0.2223
vt -0.2848 0.2118
vt -0.2941 0.2223
vt -0.2941 0.2223
vt -0.2848 0.2118
vt -0.2941 0.1897
vt -0.3040 0.1990
vt -0.3040 0.1990
vt -0.2941 0.1897
vt -0.2970 0.0003
vt -0.3070 0.0003
vt -0.3070 0.0003
vt -0.2970 0.0003
vt -0.2941 -0.1897
vt -0.3040 -0.1990
vt -0.3040 -0.1990
vt -0.2941 -0.1897
vt -0.2848 -0.2118
vt -0.2941 -0.2223
vt -0.2941 -0.2223
vt -0.2848 -0.2118
vt -0.2649 -0.2223
vt -0.2733 -0.2333
vt -0.2733 -0.2333
vt -0.2649 -0.2223
vt -0.0953 -0.2255
vt -0.0953 -0.2366
vt -0.0953 -0.2366
vt -0.0953 -0.2255
vt 0.0749 -0.2223
vt 0.0833 -0.2333
vt 0.0833 -0.2333
vt 0.0749 -0.2223
vt 0.0948 -0.2118
vt 0.1041 -0.2223
vt 0.1041 -0.2223
vt 0.0948 -0.2118
vt 0.1041 -0.1897
vt 0.1140 -0.1990
vt 0.1140 -0.1990
vt 0.1041 -0.1897
vt 0.1070 0.0000
vt 0.1170 0.0000
vt 0.1070 0.0000
vt 0.0859 0.0000
vt 0.0833 0.1698
vt 0.1041 0.1897
vt 0.1041 0.1897
vt 0.0833 0.1698
vt 0.0749 0.1897
vt 0.0948 0.2118
vt 0.0948 0.2118
vt 0.0749 0.1897
vt 0.0571 0.1990
vt 0.0749 0.2223
vt 0.0749 0.2223
vt 0.0571 0.1990
vt -0.0948 0.2019
vt -0.0948 0.2255
vt -0.0948 0.2255
vt -0.0948 0.2019
vt -0.2471 0.1990
vt -0.2649 0.2223
vt -0.2649 0.2223
vt -0.2471 0.1990
vt -0.2649 0.1897
vt -0.2848 0.2118
vt -0.2848 0.2118
vt -0.2649 0.1897
vt -0.2733 0.1698
vt -0.2941 0.1897
vt -0.2941 0.1897
vt -0.2733 0.1698
vt -0.2759 0.0003
vt -0.2970 0.0003
vt -0.2970 0.0003
vt -0.2759 0.0003
vt -0.2733 -0.1698
vt -0.2941 -0.1897
vt -0.2941 -0.1897
vt -0.2733 -0.1698
vt -0.2649 -0.1897
vt -0.2848 -0.2118
vt -0.2848 -0.2118
vt -0.2649 -0.1897
vt -0.2471 -0.1990
vt -0.2649 -0.2223
vt -0.2649 -0.2223
vt -0.2471 -0.1990
vt -0.0953 -0.2019
vt -0.0953 -0.2255
vt -0.0953 -0.2255
vt -0.0953 -0.2019
vt 0.0571 -0.1990
vt 0.0749 -0.2223
vt 0.0749 -0.2223
vt 0.0571 -0.1990
vt 0.0749 -0.1897
vt 0.0948 -0.2118
vt 0.0948 -0.2118
vt 0.0749 -0.1897
vt 0.0833 -0.1698
vt 0.1041 -0.1897
vt 0.1041 -0.1897
vt 0.0833 -0.1698
vt 0.0859 0.0000
vt 0.1070 0.0000
vt 0.0859 0.0000
vt -0.0947 0.0000
vt -0.0947 0.0002
vt 0.0833 0.1698
vt 0.0833 0.1698
vt -0.0947 0.0002
vt -0.0948 0.0003
vt 0.0749 0.1897
vt 0.0749 0.1897
vt -0.0948 0.0003
vt -0.0948 0.0003
vt 0.0571 0.1990
vt 0.0571 0.1990
vt -0.0948 0.0003
vt -0.0950 0.0003
vt -0.0948 0.2019
vt -0.0948 0.2019
vt -0.0950 0.0003
vt -0.0952 0.0003
vt -0.2471 0.1990
vt -0.2471 0.1990
vt -0.0952 0.0003
vt -0.0952 0.0003
vt -0.2649 0.1897
vt -0.2649 0.1897
vt -0.0952 0.0003
vt -0.0953 0.0002
vt -0.2733 0.1698
vt -0.2733 0.1698
vt -0.0953 0.0002
vt -0.0953 0.0000
vt -0.2759 0.0003
vt -0.2759 0.0003
vt -0.0953 0.0000
vt -0.0953 -0.0002
vt -0.2733 -0.1698
vt -0.2733 -0.1698
vt -0.0953 -0.0002
vt -0.0952 -0.0003
vt -0.2649 -0.1897
vt -0.2649 -0.1897
vt -0.0952 -0.0003
vt -0.0952 -0.0003
vt -0.2471 -0.1990
vt -0.2471 -0.1990
vt -0.0952 -0.0003
vt -0.0950 -0.0003
vt -0.0953 -0.2019
vt -0.0953 -0.2019
vt -0.0950 -0.0003
vt -0.0948 -0.0003
vt 0.0571 -0.1990
vt 0.0571 -0.1990
vt -0.0948 -0.0003
vt -0.0948 -0.0003
vt 0.0749 -0.1897
vt 0.0749 -0.1897
vt -0.0948 -0.0003
vt -0.0947 -0.0002
vt 0.0833 -0.1698
vt 0.0833 -0.1698
vt -0.0947 -0.0002
vt -0.0947 0.0000
vt 0.0859 0.0000
f 9/25 25/26 26/27 10/28
f 10/29 26/30 27/31 11/32
f 11/33 27/34 28/35 12/36
f 12/37 28/38 29/39 13/40
f 13/41 29/42 30/43 14/44
f 14/45 30/46 31/47 15/48
f 15/49 31/50 32/51 16/52
f 16/53 32/54 33/55 17/56
f 17/57 33/58 34/59 18/60
f 18/61 34/62 35/63 19/64
f 19/65 35/66 36/67 20/68
f 20/69 36/70 37/71 21/72
f 21/73 37/74 38/75 22/76
f 22/77 38/78 39/79 23/80
f 23/81 39/82 40/83 24/84
f 24/85 40/86 25/87 9/88
f 25/89 41/90 42/91 26/92
f 26/93 42/94 43/95 27/96
f 27/97 43/98 44/99 28/100
f 28/101 44/102 45/103 29/104
f 29/105 45/106 46/107 30/108
f 30/109 46/110 47/111 31/112
f 31/113 47/114 48/115 32/116
f 32/117 48/118 49/119 33/120
f 33/121 49/122 50/123 34/124
f 34/125 50/126 51/127 35/128
f 35/129 51/130 52/131 36/132
f 36/133 52/134 53/135 37/136
f 37/137 53/138 54/139 38/140
f 38/141 54/142 55/143 39/144
f 39/145 55/146 56/147 40/148
f 40/149 56/150 41/151 25/152
f 41/153 57/154 58/155 42/156
f 42/157 58/158 59/159 43/160
f 43/161 59/162 60/163 44/164
f 44/165 60/166 61/167 45/168
f 45/169 61/170 62/171 46/172
f 46/173 62/174 63/175 47/176
f 47/177 63/178 64/179 48/180
f 48/181 64/182 65/183 49/184
f 49/185 65/186 66/187 50/188
f 50/189 66/190 67/191 51/192
f 51/193 67/194 68/195 52/196
f 52/197 68/198 69/199 53/200
f 53/201 69/202 70/203 54/204
f 54/205 70/206 71/207 55/208
f 55/209 71/210 72/211 56/212
f 56/213 72/214 57/215 41/216
f 57/217 73/218 74/219 58/220
f 58/221 74/222 75/223 59/224
f 59/225 75/226 76/227 60/228
f 60/229 76/230 77/231 61/232
f 61/233 77/234 78/235 62/236
f 62/237 78/238 79/239 63/240
f 63/241 79/242 80/243 64/244
f 64/245 80/246 81/247 65/248
f 65/249 81/250 82/251 66/252
f 66/253 82/254 83/255 67/256
f 67/257 83/258 84/259 68/260
f 68/261 84/262 85/263 69/264
f 69/265 85/266 86/267 70/268
f 70/269 86/270 87/271 71/272
f 71/273 87/274 88/275 72/276
f 72/277 88/278 73/279 57/280
f 73/281 89/282 90/283 74/284
f 74/285 90/286 91/287 75/288
f 75/289 91/290 92/291 76/292
f 76/293 92/294 93/295 77/296
f 77/297 93/298 94/299 78/300
f 78/301 94/302 95/303 79/304
f 79/305 95/306 96/307 80/308
f 80/309 96/310 97/311 81/312
f 81/313 97/314 98/315 82/316
f 82/317 98/318 99/319 83/320
f 83/321 99/322 100/323 84/324
f 84/325 100/326 101/327 85/328
f 85/329 101/330 102/331 86/332
f 86/333 102/334 103/335 87/336
f 87/337 103/338 104/339 88/340
f 88/341 104/342 89/343 73/344
f 89/345 105/346 106/347 90/348
f 90/349 106/350 107/351 91/352
f 91/353 107/354 108/355 92/356
f 92/357 108/358 109/359 93/360
f 93/361 109/362 110/363 94/364
f 94/365 110/366 111/367 95/368
f 95/369 111/370 112/371 96/372
f 96/373 112/374 113/375 97/376
f 97/377 113/378 114/379 98/380
f 98/381 114/382 115/383 99/384
f 99/385 115/386 116/387 100/388
f 100/389 116/390 117/391 101/392
f 101/393 117/394 118/395 102/396
f 102/397 118/398 119/399 103/400
f 103/401 119/402 120/403 104/404
f 104/405 120/406 105/407 89/408
f 105/409 121/410 122/411 106/412
f 106/413 122/414 123/415 107/416
f 107/417 123/418 124/419 108/420
f 108/421 124/422 125/423 109/424
f 109/425 125/426 126/427 110/428
f 110/429 126/430 127/431 111/432
f 111/433 127/434 128/435 112/436
f 112/437 128/438 129/439 113/440
f 113/441 129/442 130/443 114/444
f 114/445 130/446 131/447 115/448
f 115/449 131/450 132/451 116/452
f 116/453 132/454 133/455 117/456
f 117/457 133/458 134/459 118/460
f 118/461 134/462 135/463 119/464
f 119/465 135/466 136/467 120/468
f 120/469 136/470 121/471 105/472
f 121/473 137/474 138/475 122/476
f 122/477 138/478 139/479 123/480
f 123/481 139/482 140/483 124/484
f 124/485 140/486 141/487 125/488
f 125/489 141/490 142/491 126/492
f 126/493 142/494 143/495 127/496
f 127/497 143/498 144/499 128/500
f 128/501 144/502 145/503 129/504
f 129/505 145/506 146/507 130/508
f 130/509 146/510 147/511 131/512
f 131/513 147/514 148/515 132/516
f 132/517 148/518 149/519 133/520
f 133/521 149/522 150/523 134/524
f 134/525 150/526 151/527 135/528
f 135/529 151/530 152/531 136/532
f 136/533 152/534 137/535 121/536
o Pilot_Back
v 0.1600 0.4200 0.0000
v 0.1600 0.4200 0.0001
v 0.1600 0.4200 0.0001
v 0.1600 0.4200 0.0001
v 0.1600 0.4200 0.0001
v 0.1600 0.4200 0.0001
v 0.1600 0.4200 0.0001
v 0.1600 0.4200 0.0001
v 0.1600 0.4200 0.0001
v 0.1600 0.4200 0.0000
v 0.1600 0.4200 -0.0001
v 0.1600 0.4200 -0.0001
v 0.1600 0.4200 -0.0001
v 0.1600 0.4200 -0.0001
v 0.1600 0.4200 -0.0001
v 0.1600 0.4200 -0.0001
v 0.1600 0.4200 -0.0001
v 0.1600 0.4200 -0.0001
v 0.2046 0.4216 0.0000
v 0.2041 0.4216 0.1374
v 0.2023 0.4216 0.1559
v 0.1989 0.4216 0.1655
v 0.1915 0.4216 0.1698
v 0.1289 0.4216 0.1698
v 0.1215 0.4216 0.1655
v 0.1181 0.4216 0.1559
v 0.1163 0.4216 0.1374
v 0.1158 0.4216 0.0001
v 0.1163 0.4216 -0.1374
v 0.1181 0.4216 -0.1559
v 0.1215 0.4216 -0.1655
v 0.1289 0.4216 -0.1698
v 0.1915 0.4216 -0.1698
v 0.1989 0.4216 -0.1655
v 0.2023 0.4216 -0.1559
v 0.2041 0.4216 -0.1374
v 0.2116 0.4264 0.0000
v 0.2110 0.4264 0.1570
v 0.2090 0.4264 0.1782
v 0.2050 0.4264 0.1891
v 0.1966 0.4264 0.1940
v 0.1251 0.4264 0.1940
v 0.1166 0.4264 0.1891
v 0.1127 0.4264 0.1782
v 0.1107 0.4264 0.1570
v 0.1101 0.4264 0.0001
v 0.1107 0.4264 -0.1570
v 0.1127 0.4264 -0.1782
v 0.1166 0.4264 -0.1891
v 0.1251 0.4264 -0.1940
v 0.1966 0.4264 -0.1940
v 0.2050 0.4264 -0.1891
v 0.2090 0.4264 -0.1782
v 0.2110 0.4264 -0.1570
v 0.2165 0.4349 0.0000
v 0.2158 0.4349 0.1689
v 0.2137 0.4349 0.1916
v 0.2094 0.4349 0.2033
v 0.2004 0.4349 0.2086
v 0.1235 0.4349 0.2086
v 0.1144 0.4349 0.2033
v 0.1102 0.4349 0.1916
v 0.1080 0.4349 0.1689
v 0.1073 0.4349 0.0001
v 0.1080 0.4349 -0.1689
v 0.1102 0.4349 -0.1916
v 0.1144 0.4349 -0.2033
v 0.1235 0.4349 -0.2086
v 0.2004 0.4349 -0.2086
v 0.2094 0.4349 -0.2033
v 0.2137 0.4349 -0.1916
v 0.2158 0.4349 -0.1689
v 0.2207 0.4479 0.0000
v 0.2200 0.4479 0.1767
v 0.2178 0.4479 0.2004
v 0.2133 0.4479 0.2127
v 0.2039 0.4479 0.2183
v 0.1234 0.4479 0.2183
v 0.1139 0.4479 0.2127
v 0.1095 0.4479 0.2004
v 0.1072 0.4479 0.1767
v 0.1065 0.4479 0.0001
v 0.1072 0.4479 -0.1767
v 0.1095 0.4479 -0.2004
v 0.1139 0.4479 -0.2127
v 0.1234 0.4479 -0.2183
v 0.2039 0.4479 -0.2183
v 0.2133 0.4479 -0.2127
v 0.2178 0.4479 -0.2004
v 0.2200 0.4479 -0.1767
v 0.2249 0.4677 0.0000
v 0.2242 0.4677 0.1818
v 0.2219 0.4677 0.2062
v 0.2173 0.4677 0.2189
v 0.2076 0.4677 0.2246
v 0.1247 0.4677 0.2246
v 0.1150 0.4677 0.2189
v 0.1104 0.4677 0.2062
v 0.1081 0.4677 0.1818
v 0.1074 0.4677 0.0001
v 0.1081 0.4677 -0.1818
v 0.1104 0.4677 -0.2062
v 0.1150 0.4677 -0.2189
v 0.1247 0.4677 -0.2246
v 0.2076 0.4677 -0.2246
v 0.2173 0.4677 -0.2189
v 0.2219 0.4677 -0.2062
v 0.2242 0.4677 -0.1818
v 0.2301 0.5005 0.0000
v 0.2293 0.5005 0.1846
v 0.2270 0.5005 0.2095
v 0.2224 0.5005 0.2223
v 0.2124 0.5005 0.2281
v 0.1283 0.5005 0.2281
v 0.1184 0.5005 0.2223
v 0.1138 0.5005 0.2095
v 0.1114 0.5005 0.1846
v 0.1107 0.5005 0.0002
v 0.1114 0.5005 -0.1846
v 0.1138 0.5005 -0.2095
v 0.1184 0.5005 -0.2223
v 0.1283 0.5005 -0.2281
v 0.2124 0.5005 -0.2281
v 0.2224 0.5005 -0.2223
v 0.2270 0.5005 -0.2095
v 0.2293 0.5005 -0.1846
v 0.2600 0.7300 0.0000
v 0.2593 0.7300 0.1856
v 0.2569 0.7300 0.2105
v 0.2522 0.7300 0.2235
v 0.2423 0.7300 0.2293
v 0.1577 0.7300 0.2293
v 0.1478 0.7300 0.2235
v 0.1431 0.7300 0.2105
v 0.1407 0.7300 0.1856
v 0.1400 0.7300 0.0002
v 0.1407 0.7300 -0.1856
v 0.1431 0.7300 -0.2105
v 0.1478 0.7300 -0.2235
v 0.1577 0.7300 -0.2293
v 0.2423 0.7300 -0.2293
v 0.2522 0.7300 -0.2235
v 0.2569 0.7300 -0.2105
v 0.2593 0.7300 -0.1856
v 0.2893 0.9595 0.0000
v 0.2886 0.9595 0.1846
v 0.2862 0.9595 0.2095
v 0.2816 0.9595 0.2223
v 0.2717 0.9595 0.2281
v 0.1876 0.9595 0.2281
v 0.1776 0.9595 0.2223
v 0.1730 0.9595 0.2095
v 0.1707 0.9595 0.1846
v 0.1699 0.9595 0.0002
v 0.1707 0.9595 -0.1846
v 0.1730 0.9595 -0.2095
v 0.1776 0.9595 -0.2223
v 0.1876 0.9595 -0.2281
v 0.2717 0.9595 -0.2281
v 0.2816 0.9595 -0.2223
v 0.2862 0.9595 -0.2095
v 0.2886 0.9595 -0.1846
v 0.2926 0.9923 0.0000
v 0.2919 0.9923 0.1818
v 0.2896 0.9923 0.2062
v 0.2850 0.9923 0.2189
v 0.2753 0.9923 0.2246
v 0.1924 0.9923 0.2246
v 0.1827 0.9923 0.2189
v 0.1781 0.9923 0.2062
v 0.1758 0.9923 0.1818
v 0.1751 0.9923 0.0001
v 0.1758 0.9923 -0.1818
v 0.1781 0.9923 -0.2062
v 0.1827 0.9923 -0.2189
v 0.1924 0.9923 -0.2246
v 0.2753 0.9923 -0.2246
v 0.2850 0.9923 -0.2189
v 0.2896 0.9923 -0.2062
v 0.2919 0.9923 -0.1818
v 0.2935 1.0121 0.0000
v 0.2928 1.0121 0.1767
v 0.2905 1.0121 0.2004
v 0.2861 1.0121 0.2127
v 0.2766 1.0121 0.2183
v 0.1961 1.0121 0.2183
v 0.1867 1.0121 0.2127
v 0.1822 1.0121 0.2004
v 0.1800 1.0121 0.1767
v 0.1793 1.0121 0.0001
v 0.1800 1.0121 -0.1767
v 0.1822 1.0121 -0.2004
v 0.1867 1.0121 -0.2127
v 0.1961 1.0121 -0.2183
v 0.2766 1.0121 -0.2183
v 0.2861 1.0121 -0.2127
v 0.2905 1.0121 -0.2004
v 0.2928 1.0121 -0.1767
v 0.2927 1.0251 0.0000
v 0.2920 1.0251 0.1689
v 0.2898 1.0251 0.1916
v 0.2856 1.0251 0.2033
v 0.2765 1.0251 0.2086
v 0.1996 1.0251 0.2086
v 0.1906 1.0251 0.2033
v 0.1863 1.0251 0.1916
v 0.1842 1.0251 0.1689
v 0.1835 1.0251 0.0001
v 0.1842 1.0251 -0.1689
v 0.1863 1.0251 -0.1916
v 0.1906 1.0251 -0.2033
v 0.1996 1.0251 -0.2086
v 0.2765 1.0251 -0.2086
v 0.2856 1.0251 -0.2033
v 0.2898 1.0251 -0.1916
v 0.2920 1.0251 -0.1689
v 0.2899 1.0336 0.0000
v 0.2893 1.0336 0.1570
v 0.2873 1.0336 0.1782
v 0.2834 1.0336 0.1891
v 0.2749 1.0336 0.1940
v 0.2034 1.0336 0.1940
v 0.1950 1.0336 0.1891
v 0.1910 1.0336 0.1782
v 0.1890 1.0336 0.1570
v 0.1884 1.0336 0.0001
v 0.1890 1.0336 -0.1570
v 0.1910 1.0336 -0.1782
v 0.1950 1.0336 -0.1891
v 0.2034 1.0336 -0.1940
v 0.2749 1.0336 -0.1940
v 0.2834 1.0336 -0.1891
v 0.2873 1.0336 -0.1782
v 0.2893 1.0336 -0.1570
v 0.2842 1.0384 0.0000
v 0.2837 1.0384 0.1374
v 0.2819 1.0384 0.1559
v 0.2785 1.0384 0.1655
v 0.2711 1.0384 0.1698
v 0.2085 1.0384 0.1698
v 0.2011 1.0384 0.1655
v 0.1977 1.0384 0.1559
v 0.1959 1.0384 0.1374
v 0.1954 1.0384 0.0001
v 0.1959 1.0384 -0.1374
v 0.1977 1.0384 -0.1559
v 0.2011 1.0384 -0.1655
v 0.2085 1.0384 -0.1698
v 0.2711 1.0384 -0.1698
v 0.2785 1.0384 -0.1655
v 0.2819 1.0384 -0.1559
v 0.2837 1.0384 -0.1374
v 0.2400 1.0400 0.0000
v 0.2400 1.0400 0.0001
v 0.2400 1.0400 0.0001
v 0.2400 1.0400 0.0001
v 0.2400 1.0400 0.0001
v 0.2400 1.0400 0.0001
v 0.2400 1.0400 0.0001
v 0.2400 1.0400 0.0001
v 0.2400 1.0400 0.0001
v 0.2400 1.0400 0.0000
v 0.2400 1.0400 -0.0001
v 0.2400 1.0400 -0.0001
v 0.2400 1.0400 -0.0001
v 0.2400 1.0400 -0.0001
v 0.2400 1.0400 -0.0001
v 0.2400 1.0400 -0.0001
v 0.2400 1.0400 -0.0001
v 0.2400 1.0400 -0.0001
vt 0.1600 0.0000
vt 0.2046 0.0000
vt 0.2041 0.1374
vt 0.1600 0.0001
vt 0.1600 0.0001
vt 0.2041 0.1374
vt 0.2023 0.1559
vt 0.1600 0.0001
vt 0.1600 0.0001
vt 0.2023 0.1559
vt 0.1989 0.1655
vt 0.1600 0.0001
vt 0.1600 0.0001
vt 0.1989 0.1655
vt 0.1915 0.1698
vt 0.1600 0.0001
vt 0.1600 0.0001
vt 0.1915 0.1698
vt 0.1289 0.1698
vt 0.1600 0.0001
vt 0.1600 0.0001
vt 0.1289 0.1698
vt 0.1215 0.1655
vt 0.1600 0.0001
vt 0.1600 0.0001
vt 0.1215 0.1655
vt 0.1181 0.1559
vt 0.1600 0.0001
vt 0.1600 0.0001
vt 0.1181 0.1559
vt 0.1163 0.1374
vt 0.1600 0.0001
vt 0.1600 0.0001
vt 0.1163 0.1374
vt 0.1158 0.0001
vt 0.1600 0.0000
vt 0.1600 0.0000
vt 0.1158 0.0001
vt 0.1163 -0.1374
vt 0.1600 -0.0001
vt 0.1600 -0.0001
vt 0.1163 -0.1374
vt 0.1181 -0.1559
vt 0.1600 -0.0001
vt 0.1600 -0.0001
vt 0.1181 -0.1559
vt 0.1215 -0.1655
vt 0.1600 -0.0001
vt 0.1600 -0.0001
vt 0.1215 -0.1655
vt 0.1289 -0.1698
vt 0.1600 -0.0001
vt 0.1600 -0.0001
vt 0.1289 -0.1698
vt 0.1915 -0.1698
vt 0.1600 -0.0001
vt 0.1600 -0.0001
vt 0.1915 -0.1698
vt 0.1989 -0.1655
vt 0.1600 -0.0001
vt 0.1600 -0.0001
vt 0.1989 -0.1655
vt 0.2023 -0.1559
vt 0.1600 -0.0001
vt 0.1600 -0.0001
vt 0.2023 -0.1559
vt 0.2041 -0.1374
vt 0.1600 -0.0001
vt 0.1600 -0.0001
vt 0.2041 -0.1374
vt 0.2046 0.0000
vt 0.1600 0.0000
vt 0.2046 0.0000
vt 0.2116 0.0000
vt 0.2110 0.1570
vt 0.2041 0.1374
vt 0.2041 0.1374
vt 0.2110 0.1570
vt 0.2090 0.1782
vt 0.2023 0.1559
vt 0.2023 0.1559
vt 0.2090 0.1782
vt 0.2050 0.1891
vt 0.1989 0.1655
vt 0.1989 0.1655
vt 0.2050 0.1891
vt 0.1966 0.1940
vt 0.1915 0.1698
vt 0.1915 0.1698
vt 0.1966 0.1940
vt 0.1251 0.1940
vt 0.1289 0.1698
vt 0.1289 0.1698
vt 0.1251 0.1940
vt 0.1166 0.1891
vt 0.1215 0.1655
vt 0.1215 0.1655
vt 0.1166 0.1891
vt 0.1127 0.1782
vt 0.1181 0.1559
vt 0.1181 0.1559
vt 0.1127 0.1782
vt 0.1107 0.1570
vt 0.1163 0.1374
vt 0.1163 0.1374
vt 0.1107 0.1570
vt 0.1101 0.0001
vt 0.1158 0.0001
vt 0.1158 0.0001
vt 0.1101 0.0001
vt 0.1107 -0.1570
vt 0.1163 -0.1374
vt 0.1163 -0.1374
vt 0.1107 -0.1570
vt 0.1127 -0.1782
vt 0.1181 -0.1559
vt 0.1181 -0.1559
vt 0.1127 -0.1782
vt 0.1166 -0.1891
vt 0.1215 -0.1655
vt 0.1215 -0.1655
vt 0.1166 -0.1891
vt 0.1251 -0.1940
vt 0.1289 -0.1698
vt 0.1289 -0.1698
vt 0.1251 -0.1940
vt 0.1966 -0.1940
vt 0.1915 -0.1698
vt 0.1915 -0.1698
vt 0.1966 -0.1940
vt 0.2050 -0.1891
vt 0.1989 -0.1655
vt 0.1989 -0.1655
vt 0.2050 -0.1891
vt 0.2090 -0.1782
vt 0.2023 -0.1559
vt 0.2023 -0.1559
vt 0.2090 -0.1782
vt 0.2110 -0.1570
vt 0.2041 -0.1374
vt 0.2041 -0.1374
vt 0.2110 -0.1570
vt 0.2116 0.0000
vt 0.2046 0.0000
vt 0.0000 0.4264
vt 0.0000 0.4349
vt 0.1689 0.4349
vt 0.1570 0.4264
vt 0.1570 0.4264
vt 0.1689 0.4349
vt 0.1916 0.4349
vt 0.1782 0.4264
vt 0.2090 0.1782
vt 0.2137 0.1916
vt 0.2094 0.2033
vt 0.2050 0.1891
vt 0.2050 0.1891
vt 0.2094 0.2033
vt 0.2004 0.2086
vt 0.1966 0.1940
vt 0.1966 0.1940
vt 0.2004 0.2086
vt 0.1235 0.2086
vt 0.1251 0.1940
vt 0.1251 0.1940
vt 0.1235 0.2086
vt 0.1144 0.2033
vt 0.1166 0.1891
vt 0.1891 0.4264
vt 0.2033 0.4349
vt 0.1916 0.4349
vt 0.1782 0.4264
vt 0.1782 0.4264
vt 0.1916 0.4349
vt 0.1689 0.4349
vt 0.1570 0.4264
vt 0.1570 0.4264
vt 0.1689 0.4349
vt 0.0001 0.4349
vt 0.0001 0.4264
vt 0.0001 0.4264
vt 0.0001 0.4349
vt -0.1689 0.4349
vt -0.1570 0.4264
vt -0.1570 0.4264
vt -0.1689 0.4349
vt -0.1916 0.4349
vt -0.1782 0.4264
vt -0.1782 0.4264
vt -0.1916 0.4349
vt -0.2033 0.4349
vt -0.1891 0.4264
vt 0.1166 -0.1891
vt 0.1144 -0.2033
vt 0.1235 -0.2086
vt 0.1251 -0.1940
vt 0.1251 -0.1940
vt 0.1235 -0.2086
vt 0.2004 -0.2086
vt 0.1966 -0.1940
vt 0.1966 -0.1940
vt 0.2004 -0.2086
vt 0.2094 -0.2033
vt 0.2050 -0.1891
vt 0.2050 -0.1891
vt 0.2094 -0.2033
vt 0.2137 -0.1916
vt 0.2090 -0.1782
vt -0.1782 0.4264
vt -0.1916 0.4349
vt -0.1689 0.4349
vt -0.1570 0.4264
vt -0.1570 0.4264
vt -0.1689 0.4349
vt 0.0000 0.4349
vt 0.0000 0.4264
vt 0.0000 0.4349
vt 0.0000 0.4479
vt 0.1767 0.4479
vt 0.1689 0.4349
vt 0.1689 0.4349
vt 0.1767 0.4479
vt 0.2004 0.4479
vt 0.1916 0.4349
vt 0.1916 0.4349
vt 0.2004 0.4479
vt 0.2127 0.4479
vt 0.2033 0.4349
vt 0.2094 0.4349
vt 0.2133 0.4479
vt 0.2039 0.4479
vt 0.2004 0.4349
vt 0.2004 0.4349
vt 0.2039 0.4479
vt 0.1234 0.4479
vt 0.1235 0.4349
vt 0.1235 0.4349
vt 0.1234 0.4479
vt 0.1139 0.4479
vt 0.1144 0.4349
vt 0.2033 0.4349
vt 0.2127 0.4479
vt 0.2004 0.4479
vt 0.1916 0.4349
vt 0.1916 0.4349
vt 0.2004 0.4479
vt 0.1767 0.4479
vt 0.1689 0.4349
vt 0.1689 0.4349
vt 0.1767 0.4479
vt 0.0001 0.4479
vt 0.0001 0.4349
vt 0.0001 0.4349
vt 0.0001 0.4479
vt -0.1767 0.4479
vt -0.1689 0.4349
vt -0.1689 0.4349
vt -0.1767 0.4479
vt -0.2004 0.4479
vt -0.1916 0.4349
vt -0.1916 0.4349
vt -0.2004 0.4479
vt -0.2127 0.4479
vt -0.2033 0.4349
vt 0.1144 0.4349
vt 0.1139 0.4479
vt 0.1234 0.4479
vt 0.1235 0.4349
vt 0.1235 0.4349
vt 0.1234 0.4479
vt 0.2039 0.4479
vt 0.2004 0.4349
vt 0.2004 0.4349
vt 0.2039 0.4479
vt 0.2133 0.4479
vt 0.2094 0.4349
vt -0.2033 0.4349
vt -0.2127 0.4479
vt -0.2004 0.4479
vt -0.1916 0.4349
vt -0.1916 0.4349
vt -0.2004 0.4479
vt -0.1767 0.4479
vt -0.1689 0.4349
vt -0.1689 0.4349
vt -0.1767 0.4479
vt 0.0000 0.4479
vt 0.0000 0.4349
vt 0.0000 0.4479
vt 0.0000 0.4677
vt 0.1818 0.4677
vt 0.1767 0.4479
vt 0.1767 0.4479
vt 0.1818 0.4677
vt 0.2062 0.4677
vt 0.2004 0.4479
vt 0.2004 0.4479
vt 0.2062 0.4677
vt 0.2189 0.4677
vt 0.2127 0.4479
vt 0.2133 0.4479
vt 0.2173 0.4677
vt 0.2076 0.4677
vt 0.2039 0.4479
vt 0.2039 0.4479
vt 0.2076 0.4677
vt 0.1247 0.4677
vt 0.1234 0.4479
vt 0.1234 0.4479
vt 0.1247 0.4677
vt 0.1150 0.4677
vt 0.1139 0.4479
vt 0.2127 0.4479
vt 0.2189 0.4677
vt 0.2062 0.4677
vt 0.2004 0.4479
vt 0.2004 0.4479
vt 0.2062 0.4677
vt 0.1818 0.4677
vt 0.1767 0.4479
vt 0.1767 0.4479
vt 0.1818 0.4677
vt 0.0001 0.4677
vt 0.0001 0.4479
vt 0.0001 0.4479
vt 0.0001 0.4677
vt -0.1818 0.4677
vt -0.1767 0.4479
vt -0.1767 0.4479
vt -0.1818 0.4677
vt -0.2062 0.4677
vt -0.2004 0.4479
vt -0.2004 0.4479
vt -0.2062 0.4677
vt -0.2189 0.4677
vt -0.2127 0.4479
vt 0.1139 0.4479
vt 0.1150 0.4677
vt 0.1247 0.4677
vt 0.1234 0.4479
vt 0.1234 0.4479
vt 0.1247 0.4677
vt 0.2076 0.4677
vt 0.2039 0.4479
vt 0.2039 0.4479
vt 0.2076 0.4677
vt 0.2173 0.4677
vt 0.2133 0.4479
vt -0.2127 0.4479
vt -0.2189 0.4677
vt -0.2062 0.4677
vt -0.2004 0.4479
vt -0.2004 0.4479
vt -0.2062 0.4677
vt -0.1818 0.4677
vt -0.1767 0.4479
vt -0.1767 0.4479
vt -0.1818 0.4677
vt 0.0000 0.4677
vt 0.0000 0.4479
vt 0.0000 0.4677
vt 0.0000 0.5005
vt 0.1846 0.5005
vt 0.1818 0.4677
vt 0.1818 0.4677
vt 0.1846 0.5005
vt 0.2095 0.5005
vt 0.2062 0.4677
vt 0.2062 0.4677
vt 0.2095 0.5005
vt 0.2223 0.5005
vt 0.2189 0.4677
vt 0.2173 0.4677
vt 0.2224 0.5005
vt 0.2124 0.5005
vt 0.2076 0.4677
vt 0.2076 0.4677
vt 0.2124 0.5005
vt 0.1283 0.5005
vt 0.1247 0.4677
vt 0.1247 0.4677
vt 0.1283 0.5005
vt 0.1184 0.5005
vt 0.1150 0.4677
vt 0.2189 0.4677
vt 0.2223 0.5005
vt 0.2095 0.5005
vt 0.2062 0.4677
vt 0.2062 0.4677
vt 0.2095 0.5005
vt 0.1846 0.5005
vt 0.1818 0.4677
vt 0.1818 0.4677
vt 0.1846 0.5005
vt 0.0002 0.5005
vt 0.0001 0.4677
vt 0.0001 0.4677
vt 0.0002 0.5005
vt -0.1846 0.5005
vt -0.1818 0.4677
vt -0.1818 0.4677
vt -0.1846 0.5005
vt -0.2095 0.5005
vt -0.2062 0.4677
vt -0.2062 0.4677
vt -0.2095 0.5005
vt -0.2223 0.5005
vt -0.2189 0.4677
vt 0.1150 0.4677
vt 0.1184 0.5005
vt 0.1283 0.5005
vt 0.1247 0.4677
vt 0.1247 0.4677
vt 0.1283 0.5005
vt 0.2124 0.5005
vt 0.2076 0.4677
vt 0.2076 0.4677
vt 0.2124 0.5005
vt 0.2224 0.5005
vt 0.2173 0.4677
vt -0.2189 0.4677
vt -0.2223 0.5005
vt -0.2095 0.5005
vt -0.2062 0.4677
vt -0.2062 0.4677
vt -0.2095 0.5005
vt -0.1846 0.5005
vt -0.1818 0.4677
vt -0.1818 0.4677
vt -0.1846 0.5005
vt 0.0000 0.5005
vt 0.0000 0.4677
vt 0.0000 0.5005
vt 0.0000 0.7300
vt 0.1856 0.7300
vt 0.1846 0.5005
vt 0.1846 0.5005
vt 0.1856 0.7300
vt 0.2105 0.7300
vt 0.2095 0.5005
vt 0.2095 0.5005
vt 0.2105 0.7300
vt 0.2235 0.7300
vt 0.2223 0.5005
vt 0.2224 0.5005
vt 0.2522 0.7300
vt 0.2423 0.7300
vt 0.2124 0.5005
vt 0.2124 0.5005
vt 0.2423 0.7300
vt 0.1577 0.7300
vt 0.1283 0.5005
vt 0.1283 0.5005
vt 0.1577 0.7300
vt 0.1478 0.7300
vt 0.1184 0.5005
vt 0.2223 0.5005
vt 0.2235 0.7300
vt 0.2105 0.7300
vt 0.2095 0.5005
vt 0.2095 0.5005
vt 0.2105 0.7300
vt 0.1856 0.7300
vt 0.1846 0.5005
vt 0.1846 0.5005
vt 0.1856 0.7300
vt 0.0002 0.7300
vt 0.0002 0.5005
vt 0.0002 0.5005
vt 0.0002 0.7300
vt -0.1856 0.7300
vt -0.1846 0.5005
vt -0.1846 0.5005
vt -0.1856 0.7300
vt -0.2105 0.7300
vt -0.2095 0.5005
vt -0.2095 0.5005
vt -0.2105 0.7300
vt -0.2235 0.7300
vt -0.2223 0.5005
vt 0.1184 0.5005
vt 0.1478 0.7300
vt 0.1577 0.7300
vt 0.1283 0.5005
vt 0.1283 0.5005
vt 0.1577 0.7300
vt 0.2423 0.7300
vt 0.2124 0.5005
vt 0.2124 0.5005
vt 0.2423 0.7300
vt 0.2522 0.7300
vt 0.2224 0.5005
vt -0.2223 0.5005
vt -0.2235 0.7300
vt -0.2105 0.7300
vt -0.2095 0.5005
vt -0.2095 0.5005
vt -0.2105 0.7300
vt -0.1856 0.7300
vt -0.1846 0.5005
vt -0.1846 0.5005
vt -0.1856 0.7300
vt 0.0000 0.7300
vt 0.0000 0.5005
vt 0.0000 0.7300
vt 0.0000 0.9595
vt 0.1846 0.9595
vt 0.1856 0.7300
vt 0.1856 0.7300
vt 0.1846 0.9595
vt 0.2095 0.9595
vt 0.2105 0.7300
vt 0.2105 0.7300
vt 0.2095 0.9595
vt 0.2223 0.9595
vt 0.2235 0.7300
vt 0.2522 0.7300
vt 0.2816 0.9595
vt 0.2717 0.9595
vt 0.2423 0.7300
vt 0.2423 0.7300
vt 0.2717 0.9595
vt 0.1876 0.9595
vt 0.1577 0.7300
vt 0.1577 0.7300
vt 0.1876 0.9595
vt 0.1776 0.9595
vt 0.1478 0.7300
vt 0.2235 0.7300
vt 0.2223 0.9595
vt 0.2095 0.9595
vt 0.2105 0.7300
vt 0.2105 0.7300
vt 0.2095 0.9595
vt 0.1846 0.9595
vt 0.1856 0.7300
vt 0.1856 0.7300
vt 0.1846 0.9595
vt 0.0002 0.9595
vt 0.0002 0.7300
vt 0.0002 0.7300
vt 0.0002 0.9595
vt -0.1846 0.9595
vt -0.1856 0.7300
vt -0.1856 0.7300
vt -0.1846 0.9595
vt -0.2095 0.9595
vt -0.2105 0.7300
vt -0.2105 0.7300
vt -0.2095 0.9595
vt -0.2223 0.9595
vt -0.2235 0.7300
vt 0.1478 0.7300
vt 0.1776 0.9595
vt 0.1876 0.9595
vt 0.1577 0.7300
vt 0.1577 0.7300
vt 0.1876 0.9595
vt 0.2717 0.9595
vt 0.2423 0.7300
vt 0.2423 0.7300
vt 0.2717 0.9595
vt 0.2816 0.9595
vt 0.2522 0.7300
vt -0.2235 0.7300
vt -0.2223 0.9595
vt -0.2095 0.9595
vt -0.2105 0.7300
vt -0.2105 0.7300
vt -0.2095 0.9595
vt -0.1846 0.9595
vt -0.1856 0.7300
vt -0.1856 0.7300
vt -0.1846 0.9595
vt 0.0000 0.9595
vt 0.0000 0.7300
vt 0.0000 0.9595
vt 0.0000 0.9923
vt 0.1818 0.9923
vt 0.1846 0.9595
vt 0.1846 0.9595
vt 0.1818 0.9923
vt 0.2062 0.9923
vt 0.2095 0.9595
vt 0.2095 0.9595
vt 0.2062 0.9923
vt 0.2189 0.9923
vt 0.2223 0.9595
vt 0.2816 0.9595
vt 0.2850 0.9923
vt 0.2753 0.9923
vt 0.2717 0.9595
vt 0.2717 0.9595
vt 0.2753 0.9923
vt 0.1924 0.9923
vt 0.1876 0.9595
vt 0.1876 0.9595
vt 0.1924 0.9923
vt 0.1827 0.9923
vt 0.1776 0.9595
vt 0.2223 0.9595
vt 0.2189 0.9923
vt 0.2062 0.9923
vt 0.2095 0.9595
vt 0.2095 0.9595
vt 0.2062 0.9923
vt 0.1818 0.9923
vt 0.1846 0.9595
vt 0.1846 0.9595
vt 0.1818 0.9923
vt 0.0001 0.9923
vt 0.0002 0.9595
vt 0.0002 0.9595
vt 0.0001 0.9923
vt -0.1818 0.9923
vt -0.1846 0.9595
vt -0.1846 0.9595
vt -0.1818 0.9923
vt -0.2062 0.9923
vt -0.2095 0.9595
vt -0.2095 0.9595
vt -0.2062 0.9923
vt -0.2189 0.9923
vt -0.2223 0.9595
vt 0.1776 0.9595
vt 0.1827 0.9923
vt 0.1924 0.9923
vt 0.1876 0.9595
vt 0.1876 0.9595
vt 0.1924 0.9923
vt 0.2753 0.9923
vt 0.2717 0.9595
vt 0.2717 0.9595
vt 0.2753 0.9923
vt 0.2850 0.9923
vt 0.2816 0.9595
vt -0.2223 0.9595
vt -0.2189 0.9923
vt -0.2062 0.9923
vt -0.2095 0.9595
vt -0.2095 0.9595
vt -0.2062 0.9923
vt -0.1818 0.9923
vt -0.1846 0.9595
vt -0.1846 0.9595
vt -0.1818 0.9923
vt 0.0000 0.9923
vt 0.0000 0.9595
vt 0.0000 0.9923
vt 0.0000 1.0121
vt 0.1767 1.0121
vt 0.1818 0.9923
vt 0.1818 0.9923
vt 0.1767 1.0121
vt 0.2004 1.0121
vt 0.2062 0.9923
vt 0.2062 0.9923
vt 0.2004 1.0121
vt 0.2127 1.0121
vt 0.2189 0.9923
vt 0.2850 0.9923
vt 0.2861 1.0121
vt 0.2766 1.0121
vt 0.2753 0.9923
vt 0.2753 0.9923
vt 0.2766 1.0121
vt 0.1961 1.0121
vt 0.1924 0.9923
vt 0.1924 0.9923
vt 0.1961 1.0121
vt 0.1867 1.0121
vt 0.1827 0.9923
vt 0.2189 0.9923
vt 0.2127 1.0121
vt 0.2004 1.0121
vt 0.2062 0.9923
vt 0.2062 0.9923
vt 0.2004 1.0121
vt 0.1767 1.0121
vt 0.1818 0.9923
vt 0.1818 0.9923
vt 0.1767 1.0121
vt 0.0001 1.0121
vt 0.0001 0.9923
vt 0.0001 0.9923
vt 0.0001 1.0121
vt -0.1767 1.0121
vt -0.1818 0.9923
vt -0.1818 0.9923
vt -0.1767 1.0121
vt -0.2004 1.0121
vt -0.2062 0.9923
vt -0.2062 0.9923
vt -0.2004 1.0121
vt -0.2127 1.0121
vt -0.2189 0.9923
vt 0.1827 0.9923
vt 0.1867 1.0121
vt 0.1961 1.0121
vt 0.1924 0.9923
vt 0.1924 0.9923
vt 0.1961 1.0121
vt 0.2766 1.0121
vt 0.2753 0.9923
vt 0.2753 0.9923
vt 0.2766 1.0121
vt 0.2861 1.0121
vt 0.2850 0.9923
vt -0.2189 0.9923
vt -0.2127 1.0121
vt -0.2004 1.0121
vt -0.2062 0.9923
vt -0.2062 0.9923
vt -0.2004 1.0121
vt -0.1767 1.0121
vt -0.1818 0.9923
vt -0.1818 0.9923
vt -0.1767 1.0121
vt 0.0000 1.0121
vt 0.0000 0.9923
vt 0.0000 1.0121
vt 0.0000 1.0251
vt 0.1689 1.0251
vt 0.1767 1.0121
vt 0.1767 1.0121
vt 0.1689 1.0251
vt 0.1916 1.0251
vt 0.2004 1.0121
vt 0.2004 1.0121
vt 0.1916 1.0251
vt 0.2033 1.0251
vt 0.2127 1.0121
vt 0.2861 1.0121
vt 0.2856 1.0251
vt 0.2765 1.0251
vt 0.2766 1.0121
vt 0.2766 1.0121
vt 0.2765 1.0251
vt 0.1996 1.0251
vt 0.1961 1.0121
vt 0.1961 1.0121
vt 0.1996 1.0251
vt 0.1906 1.0251
vt 0.1867 1.0121
vt 0.2127 1.0121
vt 0.2033 1.0251
vt 0.1916 1.0251
vt 0.2004 1.0121
vt 0.2004 1.0121
vt 0.1916 1.0251
vt 0.1689 1.0251
vt 0.1767 1.0121
vt 0.1767 1.0121
vt 0.1689 1.0251
vt 0.0001 1.0251
vt 0.0001 1.0121
vt 0.0001 1.0121
vt 0.0001 1.0251
vt -0.1689 1.0251
vt -0.1767 1.0121
vt -0.1767 1.0121
vt -0.1689 1.0251
vt -0.1916 1.0251
vt -0.2004 1.0121
vt -0.2004 1.0121
vt -0.1916 1.0251
vt -0.2033 1.0251
vt -0.2127 1.0121
vt 0.1867 1.0121
vt 0.1906 1.0251
vt 0.1996 1.0251
vt 0.1961 1.0121
vt 0.1961 1.0121
vt 0.1996 1.0251
vt 0.2765 1.0251
vt 0.2766 1.0121
vt 0.2766 1.0121
vt 0.2765 1.0251
vt 0.2856 1.0251
vt 0.2861 1.0121
vt -0.2127 1.0121
vt -0.2033 1.0251
vt -0.1916 1.0251
vt -0.2004 1.0121
vt -0.2004 1.0121
vt -0.1916 1.0251
vt -0.1689 1.0251
vt -0.1767 1.0121
vt -0.1767 1.0121
vt -0.1689 1.0251
vt 0.0000 1.0251
vt 0.0000 1.0121
vt 0.0000 1.0251
vt 0.0000 1.0336
vt 0.1570 1.0336
vt 0.1689 1.0251
vt 0.1689 1.0251
vt 0.1570 1.0336
vt 0.1782 1.0336
vt 0.1916 1.0251
vt 0.1916 1.0251
vt 0.1782 1.0336
vt 0.1891 1.0336
vt 0.2033 1.0251
vt 0.2856 0.2033
vt 0.2834 0.1891
vt 0.2749 0.1940
vt 0.2765 0.2086
vt 0.2765 0.2086
vt 0.2749 0.1940
vt 0.2034 0.1940
vt 0.1996 0.2086
vt 0.1996 0.2086
vt 0.2034 0.1940
vt 0.1950 0.1891
vt 0.1906 0.2033
vt 0.1906 0.2033
vt 0.1950 0.1891
vt 0.1910 0.1782
vt 0.1863 0.1916
vt 0.1916 1.0251
vt 0.1782 1.0336
vt 0.1570 1.0336
vt 0.1689 1.0251
vt 0.1689 1.0251
vt 0.1570 1.0336
vt 0.0001 1.0336
vt 0.0001 1.0251
vt 0.0001 1.0251
vt 0.0001 1.0336
vt -0.1570 1.0336
vt -0.1689 1.0251
vt -0.1689 1.0251
vt -0.1570 1.0336
vt -0.1782 1.0336
vt -0.1916 1.0251
vt 0.1863 -0.1916
vt 0.1910 -0.1782
vt 0.1950 -0.1891
vt 0.1906 -0.2033
vt 0.1906 -0.2033
vt 0.1950 -0.1891
vt 0.2034 -0.1940
vt 0.1996 -0.2086
vt 0.1996 -0.2086
vt 0.2034 -0.1940
vt 0.2749 -0.1940
vt 0.2765 -0.2086
vt 0.2765 -0.2086
vt 0.2749 -0.1940
vt 0.2834 -0.1891
vt 0.2856 -0.2033
vt -0.2033 1.0251
vt -0.1891 1.0336
vt -0.1782 1.0336
vt -0.1916 1.0251
vt -0.1916 1.0251
vt -0.1782 1.0336
vt -0.1570 1.0336
vt -0.1689 1.0251
vt -0.1689 1.0251
vt -0.1570 1.0336
vt 0.0000 1.0336
vt 0.0000 1.0251
vt 0.2899 0.0000
vt 0.2842 0.0000
vt 0.2837 0.1374
vt 0.2893 0.1570
vt 0.2893 0.1570
vt 0.2837 0.1374
vt 0.2819 0.1559
vt 0.2873 0.1782
vt 0.2873 0.1782
vt 0.2819 0.1559
vt 0.2785 0.1655
vt 0.2834 0.1891
vt 0.2834 0.1891
vt 0.2785 0.1655
vt 0.2711 0.1698
vt 0.2749 0.1940
vt 0.2749 0.1940
vt 0.2711 0.1698
vt 0.2085 0.1698
vt 0.2034 0.1940
vt 0.2034 0.1940
vt 0.2085 0.1698
vt 0.2011 0.1655
vt 0.1950 0.1891
vt 0.1950 0.1891
vt 0.2011 0.1655
vt 0.1977 0.1559
vt 0.1910 0.1782
vt 0.1910 0.1782
vt 0.1977 0.1559
vt 0.1959 0.1374
vt 0.1890 0.1570
vt 0.1890 0.1570
vt 0.1959 0.1374
vt 0.1954 0.0001
vt 0.1884 0.0001
vt 0.1884 0.0001
vt 0.1954 0.0001
vt 0.1959 -0.1374
vt 0.1890 -0.1570
vt 0.1890 -0.1570
vt 0.1959 -0.1374
vt 0.1977 -0.1559
vt 0.1910 -0.1782
vt 0.1910 -0.1782
vt 0.1977 -0.1559
vt 0.2011 -0.1655
vt 0.1950 -0.1891
vt 0.1950 -0.1891
vt 0.2011 -0.1655
vt 0.2085 -0.1698
vt 0.2034 -0.1940
vt 0.2034 -0.1940
vt 0.2085 -0.1698
vt 0.2711 -0.1698
vt 0.2749 -0.1940
vt 0.2749 -0.1940
vt 0.2711 -0.1698
vt 0.2785 -0.1655
vt 0.2834 -0.1891
vt 0.2834 -0.1891
vt 0.2785 -0.1655
vt 0.2819 -0.1559
vt 0.2873 -0.1782
vt 0.2873 -0.1782
vt 0.2819 -0.1559
vt 0.2837 -0.1374
vt 0.2893 -0.1570
vt 0.2893 -0.1570
vt 0.2837 -0.1374
vt 0.2842 0.0000
vt 0.2899 0.0000
vt 0.2842 0.0000
vt 0.2400 0.0000
vt 0.2400 0.0001
vt 0.2837 0.1374
vt 0.2837 0.1374
vt 0.2400 0.0001
vt 0.2400 0.0001
vt 0.2819 0.1559
vt 0.2819 0.1559
vt 0.2400 0.0001
vt 0.2400 0.0001
vt 0.2785 0.1655
vt 0.2785 0.1655
vt 0.2400 0.0001
vt 0.2400 0.0001
vt 0.2711 0.1698
vt 0.2711 0.1698
vt 0.2400 0.0001
vt 0.2400 0.0001
vt 0.2085 0.1698
vt 0.2085 0.1698
vt 0.2400 0.0001
vt 0.2400 0.0001
vt 0.2011 0.1655
vt 0.2011 0.1655
vt 0.2400 0.0001
vt 0.2400 0.0001
vt 0.1977 0.1559
vt 0.1977 0.1559
vt 0.2400 0.0001
vt 0.2400 0.0001
vt 0.1959 0.1374
vt 0.1959 0.1374
vt 0.2400 0.0001
vt 0.2400 0.0000
vt 0.1954 0.0001
vt 0.1954 0.0001
vt 0.2400 0.0000
vt 0.2400 -0.0001
vt 0.1959 -0.1374
vt 0.1959 -0.1374
vt 0.2400 -0.0001
vt 0.2400 -0.0001
vt 0.1977 -0.1559
vt 0.1977 -0.1559
vt 0.2400 -0.0001
vt 0.2400 -0.0001
vt 0.2011 -0.1655
vt 0.2011 -0.1655
vt 0.2400 -0.0001
vt 0.2400 -0.0001
vt 0.2085 -0.1698
vt 0.2085 -0.1698
vt 0.2400 -0.0001
vt 0.2400 -0.0001
vt 0.2711 -0.1698
vt 0.2711 -0.1698
vt 0.2400 -0.0001
vt 0.2400 -0.0001
vt 0.2785 -0.1655
vt 0.2785 -0.1655
vt 0.2400 -0.0001
vt 0.2400 -0.0001
vt 0.2819 -0.1559
vt 0.2819 -0.1559
vt 0.2400 -0.0001
vt 0.2400 -0.0001
vt 0.2837 -0.1374
vt 0.2837 -0.1374
vt 0.2400 -0.0001
vt 0.2400 0.0000
vt 0.2842 0.0000
f 153/537 171/538 172/539 154/540
f 154/541 172/542 173/543 155/544
f 155/545 173/546 174/547 156/548
f 156/549 174/550 175/551 157/552
f 157/553 175/554 176/555 158/556
f 158/557 176/558 177/559 159/560
f 159/561 177/562 178/563 160/564
f 160/565 178/566 179/567 161/568
f 161/569 179/570 180/571 162/572
f 162/573 180/574 181/575 163/576
f 163/577 181/578 182/579 164/580
f 164/581 182/582 183/583 165/584
f 165/585 183/586 184/587 166/588
f 166/589 184/590 185/591 167/592
f 167/593 185/594 186/595 168/596
f 168/597 186/598 187/599 169/600
f 169/601 187/602 188/603 170/604
f 170/605 188/606 171/607 153/608
f 171/609 189/610 190/611 172/612
f 172/613 190/614 191/615 173/616
f 173/617 191/618 192/619 174/620
f 174/621 192/622 193/623 175/624
f 175/625 193/626 194/627 176/628
f 176/629 194/630 195/631 177/632
f 177/633 195/634 196/635 178/636
f 178/637 196/638 197/639 179/640
f 179/641 197/642 198/643 180/644
f 180/645 198/646 199/647 181/648
f 181/649 199/650 200/651 182/652
f 182/653 200/654 201/655 183/656
f 183/657 201/658 202/659 184/660
f 184/661 202/662 203/663 185/664
f 185/665 203/666 204/667 186/668
f 186/669 204/670 205/671 187/672
f 187/673 205/674 206/675 188/676
f 188/677 206/678 189/679 171/680
f 189/681 207/682 208/683 190/684
f 190/685 208/686 209/687 191/688
f 191/689 209/690 210/691 192/692
f 192/693 210/694 211/695 193/696
f 193/697 211/698 212/699 194/700
f 194/701 212/702 213/703 195/704
f 195/705 213/706 214/707 196/708
f 196/709 214/710 215/711 197/712
f 197/713 215/714 216/715 198/716
f 198/717 216/718 217/719 199/720
f 199/721 217/722 218/723 200/724
f 200/725 218/726 219/727 201/728
f 201/729 219/730 220/731 202/732
f 202/733 220/734 221/735 203/736
f 203/737 221/738 222/739 204/740
f 204/741 222/742 223/743 205/744
f 205/745 223/746 224/747 206/748
f 206/749 224/750 207/751 189/752
f 207/753 225/754 226/755 208/756
f 208/757 226/758 227/759 209/760
f 209/761 227/762 228/763 210/764
f 210/765 228/766 229/767 211/768
f 211/769 229/770 230/771 212/772
f 212/773 230/774 231/775 213/776
f 213/777 231/778 232/779 214/780
f 214/781 232/782 233/783 215/784
f 215/785 233/786 234/787 216/788
f 216/789 234/790 235/791 217/792
f 217/793 235/794 236/795 218/796
f 218/797 236/798 237/799 219/800
f 219/801 237/802 238/803 220/804
f 220/805 238/806 239/807 221/808
f 221/809 239/810 240/811 222/812
f 222/813 240/814 241/815 223/816
f 223/817 241/818 242/819 224/820
f 224/821 242/822 225/823 207/824
f 225/825 243/826 244/827 226/828
f 226/829 244/830 245/831 227/832
f 227/833 245/834 246/835 228/836
f 228/837 246/838 247/839 229/840
f 229/841 247/842 248/843 230/844
f 230/845 248/846 249/847 231/848
f 231/849 249/850 250/851 232/852
f 232/853 250/854 251/855 233/856
f 233/857 251/858 252/859 234/860
f 234/861 252/862 253/863 235/864
f 235/865 253/866 254/867 236/868
f 236/869 254/870 255/871 237/872
f 237/873 255/874 256/875 238/876
f 238/877 256/878 257/879 239/880
f 239/881 257/882 258/883 240/884
f 240/885 258/886 259/887 241/888
f 241/889 259/890 260/891 242/892
f 242/893 260/894 243/895 225/896
f 243/897 261/898 262/899 244/900
f 244/901 262/902 263/903 245/904
f 245/905 263/906 264/907 246/908
f 246/909 264/910 265/911 247/912
f 247/913 265/914 266/915 248/916
f 248/917 266/918 267/919 249/920
f 249/921 267/922 268/923 250/924
f 250/925 268/926 269/927 251/928
f 251/929 269/930 270/931 252/932
f 252/933 270/934 271/935 253/936
f 253/937 271/938 272/939 254/940
f 254/941 272/942 273/943 255/944
f 255/945 273/946 274/947 256/948
f 256/949 274/950 275/951 257/952
f 257/953 275/954 276/955 258/956
f 258/957 276/958 277/959 259/960
f 259/961 277/962 278/963 260/964
f 260/965 278/966 261/967 243/968
f 261/969 279/970 280/971 262/972
f 262/973 280/974 281/975 263/976
f 263/977 281/978 282/979 264/980
f 264/981 282/982 283/983 265/984
f 265/985 283/986 284/987 266/988
f 266/989 284/990 285/991 267/992
f 267/993 285/994 286/995 268/996
f 268/997 286/998 287/999 269/1000
f 269/1001 287/1002 288/1003 270/1004
f 270/1005 288/1006 289/1007 271/1008
f 271/1009 289/1010 290/1011 272/1012
f 272/1013 290/1014 291/1015 273/1016
f 273/1017 291/1018 292/1019 274/1020
f 274/1021 292/1022 293/1023 275/1024
f 275/1025 293/1026 294/1027 276/1028
f 276/1029 294/1030 295/1031 277/1032
f 277/1033 295/1034 296/1035 278/1036
f 278/1037 296/1038 279/1039 261/1040
f 279/1041 297/1042 298/1043 280/1044
f 280/1045 298/1046 299/1047 281/1048
f 281/1049 299/1050 300/1051 282/1052
f 282/1053 300/1054 301/1055 283/1056
f 283/1057 301/1058 302/1059 284/1060
f 284/1061 302/1062 303/1063 285/1064
f 285/1065 303/1066 304/1067 286/1068
f 286/1069 304/1070 305/1071 287/1072
f 287/1073 305/1074 306/1075 288/1076
f 288/1077 306/1078 307/1079 289/1080
f 289/1081 307/1082 308/1083 290/1084
f 290/1085 308/1086 309/1087 291/1088
f 291/1089 309/1090 310/1091 292/1092
f 292/1093 310/1094 311/1095 293/1096
f 293/1097 311/1098 312/1099 294/1100
f 294/1101 312/1102 313/1103 295/1104
f 295/1105 313/1106 314/1107 296/1108
f 296/1109 314/1110 297/1111 279/1112
f 297/1113 315/1114 316/1115 298/1116
f 298/1117 316/1118 317/1119 299/1120
f 299/1121 317/1122 318/1123 300/1124
f 300/1125 318/1126 319/1127 301/1128
f 301/1129 319/1130 320/1131 302/1132
f 302/1133 320/1134 321/1135 303/1136
f 303/1137 321/1138 322/1139 304/1140
f 304/1141 322/1142 323/1143 305/1144
f 305/1145 323/1146 324/1147 306/1148
f 306/1149 324/1150 325/1151 307/1152
f 307/1153 325/1154 326/1155 308/1156
f 308/1157 326/1158 327/1159 309/1160
f 309/1161 327/1162 328/1163 310/1164
f 310/1165 328/1166 329/1167 311/1168
f 311/1169 329/1170 330/1171 312/1172
f 312/1173 330/1174 331/1175 313/1176
f 313/1177 331/1178 332/1179 314/1180
f 314/1181 332/1182 315/1183 297/1184
f 315/1185 333/1186 334/1187 316/1188
f 316/1189 334/1190 335/1191 317/1192
f 317/1193 335/1194 336/1195 318/1196
f 318/1197 336/1198 337/1199 319/1200
f 319/1201 337/1202 338/1203 320/1204
f 320/1205 338/1206 339/1207 321/1208
f 321/1209 339/1210 340/1211 322/1212
f 322/1213 340/1214 341/1215 323/1216
f 323/1217 341/1218 342/1219 324/1220
f 324/1221 342/1222 343/1223 325/1224
f 325/1225 343/1226 344/1227 326/1228
f 326/1229 344/1230 345/1231 327/1232
f 327/1233 345/1234 346/1235 328/1236
f 328/1237 346/1238 347/1239 329/1240
f 329/1241 347/1242 348/1243 330/1244
f 330/1245 348/1246 349/1247 331/1248
f 331/1249 349/1250 350/1251 332/1252
f 332/1253 350/1254 333/1255 315/1256
f 333/1257 351/1258 352/1259 334/1260
f 334/1261 352/1262 353/1263 335/1264
f 335/1265 353/1266 354/1267 336/1268
f 336/1269 354/1270 355/1271 337/1272
f 337/1273 355/1274 356/1275 338/1276
f 338/1277 356/1278 357/1279 339/1280
f 339/1281 357/1282 358/1283 340/1284
f 340/1285 358/1286 359/1287 341/1288
f 341/1289 359/1290 360/1291 342/1292
f 342/1293 360/1294 361/1295 343/1296
f 343/1297 361/1298 362/1299 344/1300
f 344/1301 362/1302 363/1303 345/1304
f 345/1305 363/1306 364/1307 346/1308
f 346/1309 364/1310 365/1311 347/1312
f 347/1313 365/1314 366/1315 348/1316
f 348/1317 366/1318 367/1319 349/1320
f 349/1321 367/1322 368/1323 350/1324
f 350/1325 368/1326 351/1327 333/1328
f 351/1329 369/1330 370/1331 352/1332
f 352/1333 370/1334 371/1335 353/1336
f 353/1337 371/1338 372/1339 354/1340
f 354/1341 372/1342 373/1343 355/1344
f 355/1345 373/1346 374/1347 356/1348
f 356/1349 374/1350 375/1351 357/1352
f 357/1353 375/1354 376/1355 358/1356
f 358/1357 376/1358 377/1359 359/1360
f 359/1361 377/1362 378/1363 360/1364
f 360/1365 378/1366 379/1367 361/1368
f 361/1369 379/1370 380/1371 362/1372
f 362/1373 380/1374 381/1375 363/1376
f 363/1377 381/1378 382/1379 364/1380
f 364/1381 382/1382 383/1383 365/1384
f 365/1385 383/1386 384/1387 366/1388
f 366/1389 384/1390 385/1391 367/1392
f 367/1393 385/1394 386/1395 368/1396
f 368/1397 386/1398 369/1399 351/1400
f 369/1401 387/1402 388/1403 370/1404
f 370/1405 388/1406 389/1407 371/1408
f 371/1409 389/1410 390/1411 372/1412
f 372/1413 390/1414 391/1415 373/1416
f 373/1417 391/1418 392/1419 374/1420
f 374/1421 392/1422 393/1423 375/1424
f 375/1425 393/1426 394/1427 376/1428
f 376/1429 394/1430 395/1431 377/1432
f 377/1433 395/1434 396/1435 378/1436
f 378/1437 396/1438 397/1439 379/1440
f 379/1441 397/1442 398/1443 380/1444
f 380/1445 398/1446 399/1447 381/1448
f 381/1449 399/1450 400/1451 382/1452
f 382/1453 400/1454 401/1455 383/1456
f 383/1457 401/1458 402/1459 384/1460
f 384/1461 402/1462 403/1463 385/1464
f 385/1465 403/1466 404/1467 386/1468
f 386/1469 404/1470 387/1471 369/1472
f 387/1473 405/1474 406/1475 388/1476
f 388/1477 406/1478 407/1479 389/1480
f 389/1481 407/1482 408/1483 390/1484
f 390/1485 408/1486 409/1487 391/1488
f 391/1489 409/1490 410/1491 392/1492
f 392/1493 410/1494 411/1495 393/1496
f 393/1497 411/1498 412/1499 394/1500
f 394/1501 412/1502 413/1503 395/1504
f 395/1505 413/1506 414/1507 396/1508
f 396/1509 414/1510 415/1511 397/1512
f 397/1513 415/1514 416/1515 398/1516
f 398/1517 416/1518 417/1519 399/1520
f 399/1521 417/1522 418/1523 400/1524
f 400/1525 418/1526 419/1527 401/1528
f 401/1529 419/1530 420/1531 402/1532
f 402/1533 420/1534 421/1535 403/1536
f 403/1537 421/1538 422/1539 404/1540
f 404/1541 422/1542 405/1543 387/1544
o Pilot_Headrest
v 0.2350 1.0400 0.0000
v 0.2350 1.0400 0.0000
v 0.2350 1.0400 0.0000
v 0.2350 1.0400 0.0000
v 0.2350 1.0400 0.0000
v 0.2350 1.0400 0.0000
v 0.2350 1.0400 0.0000
v 0.2350 1.0400 0.0000
v 0.2350 1.0400 -0.0000
v 0.2350 1.0400 -0.0000
v 0.2350 1.0400 -0.0000
v 0.2350 1.0400 -0.0000
v 0.2350 1.0400 -0.0000
v 0.2350 1.0400 -0.0000
v 0.2837 1.0420 0.0000
v 0.2822 1.0420 0.0759
v 0.2773 1.0420 0.0905
v 0.2660 1.0420 0.0967
v 0.2040 1.0420 0.0967
v 0.1927 1.0420 0.0905
v 0.1878 1.0420 0.0759
v 0.1863 1.0420 0.0000
v 0.1878 1.0420 -0.0759
v 0.1927 1.0420 -0.0905
v 0.2040 1.0420 -0.0967
v 0.2660 1.0420 -0.0967
v 0.2773 1.0420 -0.0905
v 0.2822 1.0420 -0.0759
v 0.2936 1.0484 0.0000
v 0.2918 1.0484 0.0912
v 0.2858 1.0484 0.1088
v 0.2723 1.0484 0.1163
v 0.1977 1.0484 0.1163
v 0.1842 1.0484 0.1088
v 0.1782 1.0484 0.0912
v 0.1764 1.0484 0.0000
v 0.1782 1.0484 -0.0912
v 0.1842 1.0484 -0.1088
v 0.1977 1.0484 -0.1163
v 0.2723 1.0484 -0.1163
v 0.2858 1.0484 -0.1088
v 0.2918 1.0484 -0.0912
v 0.2985 1.0613 0.0000
v 0.2965 1.0613 0.0988
v 0.2901 1.0613 0.1179
v 0.2754 1.0613 0.1260
v 0.1946 1.0613 0.1260
v 0.1799 1.0613 0.1179
v 0.1735 1.0613 0.0988
v 0.1715 1.0613 0.0000
v 0.1735 1.0613 -0.0988
v 0.1799 1.0613 -0.1179
v 0.1946 1.0613 -0.1260
v 0.2754 1.0613 -0.1260
v 0.2901 1.0613 -0.1179
v 0.2965 1.0613 -0.0988
v 0.3000 1.1250 0.0000
v 0.2980 1.1250 0.1012
v 0.2914 1.1250 0.1207
v 0.2764 1.1250 0.1290
v 0.1936 1.1250 0.1290
v 0.1786 1.1250 0.1207
v 0.1720 1.1250 0.1012
v 0.1700 1.1250 0.0000
v 0.1720 1.1250 -0.1012
v 0.1786 1.1250 -0.1207
v 0.1936 1.1250 -0.1290
v 0.2764 1.1250 -0.1290
v 0.2914 1.1250 -0.1207
v 0.2980 1.1250 -0.1012
v 0.2985 1.1887 0.0000
v 0.2965 1.1887 0.0988
v 0.2901 1.1887 0.1179
v 0.2754 1.1887 0.1260
v 0.1946 1.1887 0.1260
v 0.1799 1.1887 0.1179
v 0.1735 1.1887 0.0988
v 0.1715 1.1887 0.0000
v 0.1735 1.1887 -0.0988
v 0.1799 1.1887 -0.1179
v 0.1946 1.1887 -0.1260
v 0.2754 1.1887 -0.1260
v 0.2901 1.1887 -0.1179
v 0.2965 1.1887 -0.0988
v 0.2936 1.2016 0.0000
v 0.2918 1.2016 0.0912
v 0.2858 1.2016 0.1088
v 0.2723 1.2016 0.1163
v 0.1977 1.2016 0.1163
v 0.1842 1.2016 0.1088
v 0.1782 1.2016 0.0912
v 0.1764 1.2016 0.0000
v 0.1782 1.2016 -0.0912
v 0.1842 1.2016 -0.1088
v 0.1977 1.2016 -0.1163
v 0.2723 1.2016 -0.1163
v 0.2858 1.2016 -0.1088
v 0.2918 1.2016 -0.0912
v 0.2837 1.2080 0.0000
v 0.2822 1.2080 0.0759
v 0.2773 1.2080 0.0905
v 0.2660 1.2080 0.0967
v 0.2040 1.2080 0.0967
v 0.1927 1.2080 0.0905
v 0.1878 1.2080 0.0759
v 0.1863 1.2080 0.0000
v 0.1878 1.2080 -0.0759
v 0.1927 1.2080 -0.0905
v 0.2040 1.2080 -0.0967
v 0.2660 1.2080 -0.0967
v 0.2773 1.2080 -0.0905
v 0.2822 1.2080 -0.0759
v 0.2350 1.2100 0.0000
v 0.2350 1.2100 0.0000
v 0.2350 1.2100 0.0000
v 0.2350 1.2100 0.0000
v 0.2350 1.2100 0.0000
v 0.2350 1.2100 0.0000
v 0.2350 1.2100 0.0000
v 0.2350 1.2100 0.0000
v 0.2350 1.2100 -0.0000
v 0.2350 1.2100 -0.0000
v 0.2350 1.2100 -0.0000
v 0.2350 1.2100 -0.0000
v 0.2350 1.2100 -0.0000
v 0.2350 1.2100 -0.0000
vt 0.2350 0.0000
vt 0.2837 0.0000
vt 0.2822 0.0759
vt 0.2350 0.0000
vt 0.2350 0.0000
vt 0.2822 0.0759
vt 0.2773 0.0905
vt 0.2350 0.0000
vt 0.2350 0.0000
vt 0.2773 0.0905
vt 0.2660 0.0967
vt 0.2350 0.0000
vt 0.2350 0.0000
vt 0.2660 0.0967
vt 0.2040 0.0967
vt 0.2350 0.0000
vt 0.2350 0.0000
vt 0.2040 0.0967
vt 0.1927 0.0905
vt 0.2350 0.0000
vt 0.2350 0.0000
vt 0.1927 0.0905
vt 0.1878 0.0759
vt 0.2350 0.0000
vt 0.2350 0.0000
vt 0.1878 0.0759
vt 0.1863 0.0000
vt 0.2350 0.0000
vt 0.2350 0.0000
vt 0.1863 0.0000
vt 0.1878 -0.0759
vt 0.2350 -0.0000
vt 0.2350 -0.0000
vt 0.1878 -0.0759
vt 0.1927 -0.0905
vt 0.2350 -0.0000
vt 0.2350 -0.0000
vt 0.1927 -0.0905
vt 0.2040 -0.0967
vt 0.2350 -0.0000
vt 0.2350 -0.0000
vt 0.2040 -0.0967
vt 0.2660 -0.0967
vt 0.2350 -0.0000
vt 0.2350 -0.0000
vt 0.2660 -0.0967
vt 0.2773 -0.0905
vt 0.2350 -0.0000
vt 0.2350 -0.0000
vt 0.2773 -0.0905
vt 0.2822 -0.0759
vt 0.2350 -0.0000
vt 0.2350 -0.0000
vt 0.2822 -0.0759
vt 0.2837 0.0000
vt 0.2350 0.0000
vt 0.2837 0.0000
vt 0.2936 0.0000
vt 0.2918 0.0912
vt 0.2822 0.0759
vt 0.2822 0.0759
vt 0.2918 0.0912
vt 0.2858 0.1088
vt 0.2773 0.0905
vt 0.2773 0.0905
vt 0.2858 0.1088
vt 0.2723 0.1163
vt 0.2660 0.0967
vt 0.2660 0.0967
vt 0.2723 0.1163
vt 0.1977 0.1163
vt 0.2040 0.0967
vt 0.2040 0.0967
vt 0.1977 0.1163
vt 0.1842 0.1088
vt 0.1927 0.0905
vt 0.1927 0.0905
vt 0.1842 0.1088
vt 0.1782 0.0912
vt 0.1878 0.0759
vt 0.1878 0.0759
vt 0.1782 0.0912
vt 0.1764 0.0000
vt 0.1863 0.0000
vt 0.1863 0.0000
vt 0.1764 0.0000
vt 0.1782 -0.0912
vt 0.1878 -0.0759
vt 0.1878 -0.0759
vt 0.1782 -0.0912
vt 0.1842 -0.1088
vt 0.1927 -0.0905
vt 0.1927 -0.0905
vt 0.1842 -0.1088
vt 0.1977 -0.1163
vt 0.2040 -0.0967
vt 0.2040 -0.0967
vt 0.1977 -0.1163
vt 0.2723 -0.1163
vt 0.2660 -0.0967
vt 0.2660 -0.0967
vt 0.2723 -0.1163
vt 0.2858 -0.1088
vt 0.2773 -0.0905
vt 0.2773 -0.0905
vt 0.2858 -0.1088
vt 0.2918 -0.0912
vt 0.2822 -0.0759
vt 0.2822 -0.0759
vt 0.2918 -0.0912
vt 0.2936 0.0000
vt 0.2837 0.0000
vt 0.0000 1.0484
vt 0.0000 1.0613
vt 0.0988 1.0613
vt 0.0912 1.0484
vt 0.0912 1.0484
vt 0.0988 1.0613
vt 0.1179 1.0613
vt 0.1088 1.0484
vt 0.2858 1.0484
vt 0.2901 1.0613
vt 0.2754 1.0613
vt 0.2723 1.0484
vt 0.2723 1.0484
vt 0.2754 1.0613
vt 0.1946 1.0613
vt 0.1977 1.0484
vt 0.1977 1.0484
vt 0.1946 1.0613
vt 0.1799 1.0613
vt 0.1842 1.0484
vt 0.1088 1.0484
vt 0.1179 1.0613
vt 0.0988 1.0613
vt 0.0912 1.0484
vt 0.0912 1.0484
vt 0.0988 1.0613
vt 0.0000 1.0613
vt 0.0000 1.0484
vt 0.0000 1.0484
vt 0.0000 1.0613
vt -0.0988 1.0613
vt -0.0912 1.0484
vt -0.0912 1.0484
vt -0.0988 1.0613
vt -0.1179 1.0613
vt -0.1088 1.0484
vt 0.1842 1.0484
vt 0.1799 1.0613
vt 0.1946 1.0613
vt 0.1977 1.0484
vt 0.1977 1.0484
vt 0.1946 1.0613
vt 0.2754 1.0613
vt 0.2723 1.0484
vt 0.2723 1.0484
vt 0.2754 1.0613
vt 0.2901 1.0613
vt 0.2858 1.0484
vt -0.1088 1.0484
vt -0.1179 1.0613
vt -0.0988 1.0613
vt -0.0912 1.0484
vt -0.0912 1.0484
vt -0.0988 1.0613
vt 0.0000 1.0613
vt 0.0000 1.0484
vt 0.0000 1.0613
vt 0.0000 1.1250
vt 0.1012 1.1250
vt 0.0988 1.0613
vt 0.0988 1.0613
vt 0.1012 1.1250
vt 0.1207 1.1250
vt 0.1179 1.0613
vt 0.2901 1.0613
vt 0.2914 1.1250
vt 0.2764 1.1250
vt 0.2754 1.0613
vt 0.2754 1.0613
vt 0.2764 1.1250
vt 0.1936 1.1250
vt 0.1946 1.0613
vt 0.1946 1.0613
vt 0.1936 1.1250
vt 0.1786 1.1250
vt 0.1799 1.0613
vt 0.1179 1.0613
vt 0.1207 1.1250
vt 0.1012 1.1250
vt 0.0988 1.0613
vt 0.0988 1.0613
vt 0.1012 1.1250
vt 0.0000 1.1250
vt 0.0000 1.0613
vt 0.0000 1.0613
vt 0.0000 1.1250
vt -0.1012 1.1250
vt -0.0988 1.0613
vt -0.0988 1.0613
vt -0.1012 1.1250
vt -0.1207 1.1250
vt -0.1179 1.0613
vt 0.1799 1.0613
vt 0.1786 1.1250
vt 0.1936 1.1250
vt 0.1946 1.0613
vt 0.1946 1.0613
vt 0.1936 1.1250
vt 0.2764 1.1250
vt 0.2754 1.0613
vt 0.2754 1.0613
vt 0.2764 1.1250
vt 0.2914 1.1250
vt 0.2901 1.0613
vt -0.1179 1.0613
vt -0.1207 1.1250
vt -0.1012 1.1250
vt -0.0988 1.0613
vt -0.0988 1.0613
vt -0.1012 1.1250
vt 0.0000 1.1250
vt 0.0000 1.0613
vt 0.0000 1.1250
vt 0.0000 1.1887
vt 0.0988 1.1887
vt 0.1012 1.1250
vt 0.1012 1.1250
vt 0.0988 1.1887
vt 0.1179 1.1887
vt 0.1207 1.1250
vt 0.2914 1.1250
vt 0.2901 1.1887
vt 0.2754 1.1887
vt 0.2764 1.1250
vt 0.2764 1.1250
vt 0.2754 1.1887
vt 0.1946 1.1887
vt 0.1936 1.1250
vt 0.1936 1.1250
vt 0.1946 1.1887
vt 0.1799 1.1887
vt 0.1786 1.1250
vt 0.1207 1.1250
vt 0.1179 1.1887
vt 0.0988 1.1887
vt 0.1012 1.1250
vt 0.1012 1.1250
vt 0.0988 1.1887
vt 0.0000 1.1887
vt 0.0000 1.1250
vt 0.0000 1.1250
vt 0.0000 1.1887
vt -0.0988 1.1887
vt -0.1012 1.1250
vt -0.1012 1.1250
vt -0.0988 1.1887
vt -0.1179 1.1887
vt -0.1207 1.1250
vt 0.1786 1.1250
vt 0.1799 1.1887
vt 0.1946 1.1887
vt 0.1936 1.1250
vt 0.1936 1.1250
vt 0.1946 1.1887
vt 0.2754 1.1887
vt 0.2764 1.1250
vt 0.2764 1.1250
vt 0.2754 1.1887
vt 0.2901 1.1887
vt 0.2914 1.1250
vt -0.1207 1.1250
vt -0.1179 1.1887
vt -0.0988 1.1887
vt -0.1012 1.1250
vt -0.1012 1.1250
vt -0.0988 1.1887
vt 0.0000 1.1887
vt 0.0000 1.1250
vt 0.0000 1.1887
vt 0.0000 1.2016
vt 0.0912 1.2016
vt 0.0988 1.1887
vt 0.0988 1.1887
vt 0.0912 1.2016
vt 0.1088 1.2016
vt 0.1179 1.1887
vt 0.2901 1.1887
vt 0.2858 1.2016
vt 0.2723 1.2016
vt 0.2754 1.1887
vt 0.2754 1.1887
vt 0.2723 1.2016
vt 0.1977 1.2016
vt 0.1946 1.1887
vt 0.1946 1.1887
vt 0.1977 1.2016
vt 0.1842 1.2016
vt 0.1799 1.1887
vt 0.1179 1.1887
vt 0.1088 1.2016
vt 0.0912 1.2016
vt 0.0988 1.1887
vt 0.0988 1.1887
vt 0.0912 1.2016
vt 0.0000 1.2016
vt 0.0000 1.1887
vt 0.0000 1.1887
vt 0.0000 1.2016
vt -0.0912 1.2016
vt -0.0988 1.1887
vt -0.0988 1.1887
vt -0.0912 1.2016
vt -0.1088 1.2016
vt -0.1179 1.1887
vt 0.1799 1.1887
vt 0.1842 1.2016
vt 0.1977 1.2016
vt 0.1946 1.1887
vt 0.1946 1.1887
vt 0.1977 1.2016
vt 0.2723 1.2016
vt 0.2754 1.1887
vt 0.2754 1.1887
vt 0.2723 1.2016
vt 0.2858 1.2016
vt 0.2901 1.1887
vt -0.1179 1.1887
vt -0.1088 1.2016
vt -0.0912 1.2016
vt -0.0988 1.1887
vt -0.0988 1.1887
vt -0.0912 1.2016
vt 0.0000 1.2016
vt 0.0000 1.1887
vt 0.2936 0.0000
vt 0.2837 0.0000
vt 0.2822 0.0759
vt 0.2918 0.0912
vt 0.2918 0.0912
vt 0.2822 0.0759
vt 0.2773 0.0905
vt 0.2858 0.1088
vt 0.2858 0.1088
vt 0.2773 0.0905
vt 0.2660 0.0967
vt 0.2723 0.1163
vt 0.2723 0.1163
vt 0.2660 0.0967
vt 0.2040 0.0967
vt 0.1977 0.1163
vt 0.1977 0.1163
vt 0.2040 0.0967
vt 0.1927 0.0905
vt 0.1842 0.1088
vt 0.1842 0.1088
vt 0.1927 0.0905
vt 0.1878 0.0759
vt 0.1782 0.0912
vt 0.1782 0.0912
vt 0.1878 0.0759
vt 0.1863 0.0000
vt 0.1764 0.0000
vt 0.1764 0.0000
vt 0.1863 0.0000
vt 0.1878 -0.0759
vt 0.1782 -0.0912
vt 0.1782 -0.0912
vt 0.1878 -0.0759
vt 0.1927 -0.0905
vt 0.1842 -0.1088
vt 0.1842 -0.1088
vt 0.1927 -0.0905
vt 0.2040 -0.0967
vt 0.1977 -0.1163
vt 0.1977 -0.1163
vt 0.2040 -0.0967
vt 0.2660 -0.0967
vt 0.2723 -0.1163
vt 0.2723 -0.1163
vt 0.2660 -0.0967
vt 0.2773 -0.0905
vt 0.2858 -0.1088
vt 0.2858 -0.1088
vt 0.2773 -0.0905
vt 0.2822 -0.0759
vt 0.2918 -0.0912
vt 0.2918 -0.0912
vt 0.2822 -0.0759
vt 0.2837 0.0000
vt 0.2936 0.0000
vt 0.2837 0.0000
vt 0.2350 0.0000
vt 0.2350 0.0000
vt 0.2822 0.0759
vt 0.2822 0.0759
vt 0.2350 0.0000
vt 0.2350 0.0000
vt 0.2773 0.0905
vt 0.2773 0.0905
vt 0.2350 0.0000
vt 0.2350 0.0000
vt 0.2660 0.0967
vt 0.2660 0.0967
vt 0.2350 0.0000
vt 0.2350 0.0000
vt 0.2040 0.0967
vt 0.2040 0.0967
vt 0.2350 0.0000
vt 0.2350 0.0000
vt 0.1927 0.0905
vt 0.1927 0.0905
vt 0.2350 0.0000
vt 0.2350 0.0000
vt 0.1878 0.0759
vt 0.1878 0.0759
vt 0.2350 0.0000
vt 0.2350 0.0000
vt 0.1863 0.0000
vt 0.1863 0.0000
vt 0.2350 0.0000
vt 0.2350 -0.0000
vt 0.1878 -0.0759
vt 0.1878 -0.0759
vt 0.2350 -0.0000
vt 0.2350 -0.0000
vt 0.1927 -0.0905
vt 0.1927 -0.0905
vt 0.2350 -0.0000
vt 0.2350 -0.0000
vt 0.2040 -0.0967
vt 0.2040 -0.0967
vt 0.2350 -0.0000
vt 0.2350 -0.0000
vt 0.2660 -0.0967
vt 0.2660 -0.0967
vt 0.2350 -0.0000
vt 0.2350 -0.0000
vt 0.2773 -0.0905
vt 0.2773 -0.0905
vt 0.2350 -0.0000
vt 0.2350 -0.0000
vt 0.2822 -0.0759
vt 0.2822 -0.0759
vt 0.2350 -0.0000
vt 0.2350 0.0000
vt 0.2837 0.0000
f 423/1545 437/1546 438/1547 424/1548
f 424/1549 438/1550 439/1551 425/1552
f 425/1553 439/1554 440/1555 426/1556
f 426/1557 440/1558 441/1559 427/1560
f 427/1561 441/1562 442/1563 428/1564
f 428/1565 442/1566 443/1567 429/1568
f 429/1569 443/1570 444/1571 430/1572
f 430/1573 444/1574 445/1575 431/1576
f 431/1577 445/1578 446/1579 432/1580
f 432/1581 446/1582 447/1583 433/1584
f 433/1585 447/1586 448/1587 434/1588
f 434/1589 448/1590 449/1591 435/1592
f 435/1593 449/1594 450/1595 436/1596
f 436/1597 450/1598 437/1599 423/1600
f 437/1601 451/1602 452/1603 438/1604
f 438/1605 452/1606 453/1607 439/1608
f 439/1609 453/1610 454/1611 440/1612
f 440/1613 454/1614 455/1615 441/1616
f 441/1617 455/1618 456/1619 442/1620
f 442/1621 456/1622 457/1623 443/1624
f 443/1625 457/1626 458/1627 444/1628
f 444/1629 458/1630 459/1631 445/1632
f 445/1633 459/1634 460/1635 446/1636
f 446/1637 460/1638 461/1639 447/1640
f 447/1641 461/1642 462/1643 448/1644
f 448/1645 462/1646 463/1647 449/1648
f 449/1649 463/1650 464/1651 450/1652
f 450/1653 464/1654 451/1655 437/1656
f 451/1657 465/1658 466/1659 452/1660
f 452/1661 466/1662 467/1663 453/1664
f 453/1665 467/1666 468/1667 454/1668
f 454/1669 468/1670 469/1671 455/1672
f 455/1673 469/1674 470/1675 456/1676
f 456/1677 470/1678 471/1679 457/1680
f 457/1681 471/1682 472/1683 458/1684
f 458/1685 472/1686 473/1687 459/1688
f 459/1689 473/1690 474/1691 460/1692
f 460/1693 474/1694 475/1695 461/1696
f 461/1697 475/1698 476/1699 462/1700
f 462/1701 476/1702 477/1703 463/1704
f 463/1705 477/1706 478/1707 464/1708
f 464/1709 478/1710 465/1711 451/1712
f 465/1713 479/1714 480/1715 466/1716
f 466/1717 480/1718 481/1719 467/1720
f 467/1721 481/1722 482/1723 468/1724
f 468/1725 482/1726 483/1727 469/1728
f 469/1729 483/1730 484/1731 470/1732
f 470/1733 484/1734 485/1735 471/1736
f 471/1737 485/1738 486/1739 472/1740
f 472/1741 486/1742 487/1743 473/1744
f 473/1745 487/1746 488/1747 474/1748
f 474/1749 488/1750 489/1751 475/1752
f 475/1753 489/1754 490/1755 476/1756
f 476/1757 490/1758 491/1759 477/1760
f 477/1761 491/1762 492/1763 478/1764
f 478/1765 492/1766 479/1767 465/1768
f 479/1769 493/1770 494/1771 480/1772
f 480/1773 494/1774 495/1775 481/1776
f 481/1777 495/1778 496/1779 482/1780
f 482/1781 496/1782 497/1783 483/1784
f 483/1785 497/1786 498/1787 484/1788
f 484/1789 498/1790 499/1791 485/1792
f 485/1793 499/1794 500/1795 486/1796
f 486/1797 500/1798 501/1799 487/1800
f 487/1801 501/1802 502/1803 488/1804
f 488/1805 502/1806 503/1807 489/1808
f 489/1809 503/1810 504/1811 490/1812
f 490/1813 504/1814 505/1815 491/1816
f 491/1817 505/1818 506/1819 492/1820
f 492/1821 506/1822 493/1823 479/1824
f 493/1825 507/1826 508/1827 494/1828
f 494/1829 508/1830 509/1831 495/1832
f 495/1833 509/1834 510/1835 496/1836
f 496/1837 510/1838 511/1839 497/1840
f 497/1841 511/1842 512/1843 498/1844
f 498/1845 512/1846 513/1847 499/1848
f 499/1849 513/1850 514/1851 500/1852
f 500/1853 514/1854 515/1855 501/1856
f 501/1857 515/1858 516/1859 502/1860
f 502/1861 516/1862 517/1863 503/1864
f 503/1865 517/1866 518/1867 504/1868
f 504/1869 518/1870 519/1871 505/1872
f 505/1873 519/1874 520/1875 506/1876
f 506/1877 520/1878 507/1879 493/1880
f 507/1881 521/1882 522/1883 508/1884
f 508/1885 522/1886 523/1887 509/1888
f 509/1889 523/1890 524/1891 510/1892
f 510/1893 524/1894 525/1895 511/1896
f 511/1897 525/1898 526/1899 512/1900
f 512/1901 526/1902 527/1903 513/1904
f 513/1905 527/1906 528/1907 514/1908
f 514/1909 528/1910 529/1911 515/1912
f 515/1913 529/1914 530/1915 516/1916
f 516/1917 530/1918 531/1919 517/1920
f 517/1921 531/1922 532/1923 518/1924
f 518/1925 532/1926 533/1927 519/1928
f 519/1929 533/1930 534/1931 520/1932
f 520/1933 534/1934 521/1935 507/1936
f 521/1937 535/1938 536/1939 522/1940
f 522/1941 536/1942 537/1943 523/1944
f 523/1945 537/1946 538/1947 524/1948
f 524/1949 538/1950 539/1951 525/1952
f 525/1953 539/1954 540/1955 526/1956
f 526/1957 540/1958 541/1959 527/1960
f 527/1961 541/1962 542/1963 528/1964
f 528/1965 542/1966 543/1967 529/1968
f 529/1969 543/1970 544/1971 530/1972
f 530/1973 544/1974 545/1975 531/1976
f 531/1977 545/1978 546/1979 532/1980
f 532/1981 546/1982 547/1983 533/1984
f 533/1985 547/1986 548/1987 534/1988
f 534/1989 548/1990 535/1991 521/1992
o Pilot_Arm_Left
v -0.0200 0.5400 -0.2350
v -0.0200 0.5400 -0.2350
v -0.0200 0.5400 -0.2350
v -0.0200 0.5400 -0.2350
v -0.0200 0.5400 -0.2350
v -0.0200 0.5400 -0.2350
v -0.0200 0.5400 -0.2350
v -0.0200 0.5400 -0.2350
v -0.0200 0.5400 -0.2350
v -0.0200 0.5400 -0.2350
v -0.0200 0.5400 -0.2350
v -0.0200 0.5400 -0.2350
v 0.1314 0.5411 -0.2350
v 0.1260 0.5411 -0.2138
v 0.1073 0.5411 -0.2107
v -0.0200 0.5411 -0.2098
v -0.1473 0.5411 -0.2107
v -0.1660 0.5411 -0.2138
v -0.1714 0.5411 -0.2350
v -0.1660 0.5411 -0.2562
v -0.1473 0.5411 -0.2593
v -0.0200 0.5411 -0.2602
v 0.1073 0.5411 -0.2593
v 0.1260 0.5411 -0.2562
v 0.1536 0.5448 -0.2350
v 0.1475 0.5448 -0.2107
v 0.1260 0.5448 -0.2071
v -0.0200 0.5448 -0.2061
v -0.1660 0.5448 -0.2071
v -0.1875 0.5448 -0.2107
v -0.1936 0.5448 -0.2350
v -0.1875 0.5448 -0.2593
v -0.1660 0.5448 -0.2629
v -0.0200 0.5448 -0.2639
v 0.1260 0.5448 -0.2629
v 0.1475 0.5448 -0.2593
v 0.1600 0.5700 -0.2350
v 0.1536 0.5700 -0.2098
v 0.1314 0.5700 -0.2061
v -0.0200 0.5700 -0.2050
v -0.1714 0.5700 -0.2061
v -0.1936 0.5700 -0.2098
v -0.2000 0.5700 -0.2350
v -0.1936 0.5700 -0.2602
v -0.1714 0.5700 -0.2639
v -0.0200 0.5700 -0.2650
v 0.1314 0.5700 -0.2639
v 0.1536 0.5700 -0.2602
v 0.1536 0.5952 -0.2350
v 0.1475 0.5952 -0.2107
v 0.1260 0.5952 -0.2071
v -0.0200 0.5952 -0.2061
v -0.1660 0.5952 -0.2071
v -0.1875 0.5952 -0.2107
v -0.1936 0.5952 -0.2350
v -0.1875 0.5952 -0.2593
v -0.1660 0.5952 -0.2629
v -0.0200 0.5952 -0.2639
v 0.1260 0.5952 -0.2629
v 0.1475 0.5952 -0.2593
v 0.1314 0.5989 -0.2350
v 0.1260 0.5989 -0.2138
v 0.1073 0.5989 -0.2107
v -0.0200 0.5989 -0.2098
v -0.1473 0.5989 -0.2107
v -0.1660 0.5989 -0.2138
v -0.1714 0.5989 -0.2350
v -0.1660 0.5989 -0.2562
v -0.1473 0.5989 -0.2593
v -0.0200 0.5989 -0.2602
v 0.1073 0.5989 -0.2593
v 0.1260 0.5989 -0.2562
v -0.0200 0.6000 -0.2350
v -0.0200 0.6000 -0.2350
v -0.0200 0.6000 -0.2350
v -0.0200 0.6000 -0.2350
v -0.0200 0.6000 -0.2350
v -0.0200 0.6000 -0.2350
v -0.0200 0.6000 -0.2350
v -0.0200 0.6000 -0.2350
v -0.0200 0.6000 -0.2350
v -0.0200 0.6000 -0.2350
v -0.0200 0.6000 -0.2350
v -0.0200 0.6000 -0.2350
vt -0.0200 -0.2350
vt 0.1314 -0.2350
vt 0.1260 -0.2138
vt -0.0200 -0.2350
vt -0.0200 -0.2350
vt 0.1260 -0.2138
vt 0.1073 -0.2107
vt -0.0200 -0.2350
vt -0.0200 -0.2350
vt 0.1073 -0.2107
vt -0.0200 -0.2098
vt -0.0200 -0.2350
vt -0.0200 -0.2350
vt -0.0200 -0.2098
vt -0.1473 -0.2107
vt -0.0200 -0.2350
vt -0.0200 -0.2350
vt -0.1473 -0.2107
vt -0.1660 -0.2138
vt -0.0200 -0.2350
vt -0.0200 -0.2350
vt -0.1660 -0.2138
vt -0.1714 -0.2350
vt -0.0200 -0.2350
vt -0.0200 -0.2350
vt -0.1714 -0.2350
vt -0.1660 -0.2562
vt -0.0200 -0.2350
vt -0.0200 -0.2350
vt -0.1660 -0.2562
vt -0.1473 -0.2593
vt -0.0200 -0.2350
vt -0.0200 -0.2350
vt -0.1473 -0.2593
vt -0.0200 -0.2602
vt -0.0200 -0.2350
vt -0.0200 -0.2350
vt -0.0200 -0.2602
vt 0.1073 -0.2593
vt -0.0200 -0.2350
vt -0.0200 -0.2350
vt 0.1073 -0.2593
vt 0.1260 -0.2562
vt -0.0200 -0.2350
vt -0.0200 -0.2350
vt 0.1260 -0.2562
vt 0.1314 -0.2350
vt -0.0200 -0.2350
vt 0.1314 -0.2350
vt 0.1536 -0.2350
vt 0.1475 -0.2107
vt 0.1260 -0.2138
vt 0.1260 -0.2138
vt 0.1475 -0.2107
vt 0.1260 -0.2071
vt 0.1073 -0.2107
vt 0.1073 -0.2107
vt 0.1260 -0.2071
vt -0.0200 -0.2061
vt -0.0200 -0.2098
vt -0.0200 0.5411
vt -0.0200 0.5448
vt -0.1660 0.5448
vt -0.1473 0.5411
vt -0.1473 -0.2107
vt -0.1660 -0.2071
vt -0.1875 -0.2107
vt -0.1660 -0.2138
vt -0.1660 -0.2138
vt -0.1875 -0.2107
vt -0.1936 -0.2350
vt -0.1714 -0.2350
vt -0.1714 -0.2350
vt -0.1936 -0.2350
vt -0.1875 -0.2593
vt -0.1660 -0.2562
vt -0.1660 -0.2562
vt -0.1875 -0.2593
vt -0.1660 -0.2629
vt -0.1473 -0.2593
vt -0.1473 -0.2593
vt -0.1660 -0.2629
vt -0.0200 -0.2639
vt -0.0200 -0.2602
vt -0.0200 0.5411
vt -0.0200 0.5448
vt 0.1260 0.5448
vt 0.1073 0.5411
vt 0.1073 -0.2593
vt 0.1260 -0.2629
vt 0.1475 -0.2593
vt 0.1260 -0.2562
vt 0.1260 -0.2562
vt 0.1475 -0.2593
vt 0.1536 -0.2350
vt 0.1314 -0.2350
vt -0.2350 0.5448
vt -0.2350 0.5700
vt -0.2098 0.5700
vt -0.2107 0.5448
vt 0.1475 0.5448
vt 0.1536 0.5700
vt 0.1314 0.5700
vt 0.1260 0.5448
vt 0.1260 0.5448
vt 0.1314 0.5700
vt -0.0200 0.5700
vt -0.0200 0.5448
vt -0.0200 0.5448
vt -0.0200 0.5700
vt -0.1714 0.5700
vt -0.1660 0.5448
vt -0.1660 0.5448
vt -0.1714 0.5700
vt -0.1936 0.5700
vt -0.1875 0.5448
vt -0.2107 0.5448
vt -0.2098 0.5700
vt -0.2350 0.5700
vt -0.2350 0.5448
vt -0.2350 0.5448
vt -0.2350 0.5700
vt -0.2602 0.5700
vt -0.2593 0.5448
vt -0.1875 0.5448
vt -0.1936 0.5700
vt -0.1714 0.5700
vt -0.1660 0.5448
vt -0.1660 0.5448
vt -0.1714 0.5700
vt -0.0200 0.5700
vt -0.0200 0.5448
vt -0.0200 0.5448
vt -0.0200 0.5700
vt 0.1314 0.5700
vt 0.1260 0.5448
vt 0.1260 0.5448
vt 0.1314 0.5700
vt 0.1536 0.5700
vt 0.1475 0.5448
vt -0.2593 0.5448
vt -0.2602 0.5700
vt -0.2350 0.5700
vt -0.2350 0.5448
vt -0.2350 0.5700
vt -0.2350 0.5952
vt -0.2107 0.5952
vt -0.2098 0.5700
vt 0.1536 0.5700
vt 0.1475 0.5952
vt 0.1260 0.5952
vt 0.1314 0.5700
vt 0.1314 0.5700
vt 0.1260 0.5952
vt -0.0200 0.5952
vt -0.0200 0.5700
vt -0.0200 0.5700
vt -0.0200 0.5952
vt -0.1660 0.5952
vt -0.1714 0.5700
vt -0.1714 0.5700
vt -0.1660 0.5952
vt -0.1875 0.5952
vt -0.1936 0.5700
vt -0.2098 0.5700
vt -0.2107 0.5952
vt -0.2350 0.5952
vt -0.2350 0.5700
vt -0.2350 0.5700
vt -0.2350 0.5952
vt -0.2593 0.5952
vt -0.2602 0.5700
vt -0.1936 0.5700
vt -0.1875 0.5952
vt -0.1660 0.5952
vt -0.1714 0.5700
vt -0.1714 0.5700
vt -0.1660 0.5952
vt -0.0200 0.5952
vt -0.0200 0.5700
vt -0.0200 0.5700
vt -0.0200 0.5952
vt 0.1260 0.5952
vt 0.1314 0.5700
vt 0.1314 0.5700
vt 0.1260 0.5952
vt 0.1475 0.5952
vt 0.1536 0.5700
vt -0.2602 0.5700
vt -0.2593 0.5952
vt -0.2350 0.5952
vt -0.2350 0.5700
vt 0.1536 -0.2350
vt 0.1314 -0.2350
vt 0.1260 -0.2138
vt 0.1475 -0.2107
vt 0.1475 -0.2107
vt 0.1260 -0.2138
vt 0.1073 -0.2107
vt 0.1260 -0.2071
vt 0.1260 -0.2071
vt 0.1073 -0.2107
vt -0.0200 -0.2098
vt -0.0200 -0.2061
vt -0.0200 0.5952
vt -0.0200 0.5989
vt -0.1473 0.5989
vt -0.1660 0.5952
vt -0.1660 -0.2071
vt -0.1473 -0.2107
vt -0.1660 -0.2138
vt -0.1875 -0.2107
vt -0.1875 -0.2107
vt -0.1660 -0.2138
vt -0.1714 -0.2350
vt -0.1936 -0.2350
vt -0.1936 -0.2350
vt -0.1714 -0.2350
vt -0.1660 -0.2562
vt -0.1875 -0.2593
vt -0.1875 -0.2593
vt -0.1660 -0.2562
vt -0.1473 -0.2593
vt -0.1660 -0.2629
vt -0.1660 -0.2629
vt -0.1473 -0.2593
vt -0.0200 -0.2602
vt -0.0200 -0.2639
vt -0.0200 0.5952
vt -0.0200 0.5989
vt 0.1073 0.5989
vt 0.1260 0.5952
vt 0.1260 -0.2629
vt 0.1073 -0.2593
vt 0.1260 -0.2562
vt 0.1475 -0.2593
vt 0.1475 -0.2593
vt 0.1260 -0.2562
vt 0.1314 -0.2350
vt 0.1536 -0.2350
vt 0.1314 -0.2350
vt -0.0200 -0.2350
vt -0.0200 -0.2350
vt 0.1260 -0.2138
vt 0.1260 -0.2138
vt -0.0200 -0.2350
vt -0.0200 -0.2350
vt 0.1073 -0.2107
vt 0.1073 -0.2107
vt -0.0200 -0.2350
vt -0.0200 -0.2350
vt -0.0200 -0.2098
vt -0.0200 -0.2098
vt -0.0200 -0.2350
vt -0.0200 -0.2350
vt -0.1473 -0.2107
vt -0.1473 -0.2107
vt -0.0200 -0.2350
vt -0.0200 -0.2350
vt -0.1660 -0.2138
vt -0.1660 -0.2138
vt -0.0200 -0.2350
vt -0.0200 -0.2350
vt -0.1714 -0.2350
vt -0.1714 -0.2350
vt -0.0200 -0.2350
vt -0.0200 -0.2350
vt -0.1660 -0.2562
vt -0.1660 -0.2562
vt -0.0200 -0.2350
vt -0.0200 -0.2350
vt -0.1473 -0.2593
vt -0.1473 -0.2593
vt -0.0200 -0.2350
vt -0.0200 -0.2350
vt -0.0200 -0.2602
vt -0.0200 -0.2602
vt -0.0200 -0.2350
vt -0.0200 -0.2350
vt 0.1073 -0.2593
vt 0.1073 -0.2593
vt -0.0200 -0.2350
vt -0.0200 -0.2350
vt 0.1260 -0.2562
vt 0.1260 -0.2562
vt -0.0200 -0.2350
vt -0.0200 -0.2350
vt 0.1314 -0.2350
f 549/1993 561/1994 562/1995 550/1996
f 550/1997 562/1998 563/1999 551/2000
f 551/2001 563/2002 564/2003 552/2004
f 552/2005 564/2006 565/2007 553/2008
f 553/2009 565/2010 566/2011 554/2012
f 554/2013 566/2014 567/2015 555/2016
f 555/2017 567/2018 568/2019 556/2020
f 556/2021 568/2022 569/2023 557/2024
f 557/2025 569/2026 570/2027 558/2028
f 558/2029 570/2030 571/2031 559/2032
f 559/2033 571/2034 572/2035 560/2036
f 560/2037 572/2038 561/2039 549/2040
f 561/2041 573/2042 574/2043 562/2044
f 562/2045 574/2046 575/2047 563/2048
f 563/2049 575/2050 576/2051 564/2052
f 564/2053 576/2054 577/2055 565/2056
f 565/2057 577/2058 578/2059 566/2060
f 566/2061 578/2062 579/2063 567/2064
f 567/2065 579/2066 580/2067 568/2068
f 568/2069 580/2070 581/2071 569/2072
f 569/2073 581/2074 582/2075 570/2076
f 570/2077 582/2078 583/2079 571/2080
f 571/2081 583/2082 584/2083 572/2084
f 572/2085 584/2086 573/2087 561/2088
f 573/2089 585/2090 586/2091 574/2092
f 574/2093 586/2094 587/2095 575/2096
f 575/2097 587/2098 588/2099 576/2100
f 576/2101 588/2102 589/2103 577/2104
f 577/2105 589/2106 590/2107 578/2108
f 578/2109 590/2110 591/2111 579/2112
f 579/2113 591/2114 592/2115 580/2116
f 580/2117 592/2118 593/2119 581/2120
f 581/2121 593/2122 594/2123 582/2124
f 582/2125 594/2126 595/2127 583/2128
f 583/2129 595/2130 596/2131 584/2132
f 584/2133 596/2134 585/2135 573/2136
f 585/2137 597/2138 598/2139 586/2140
f 586/2141 598/2142 599/2143 587/2144
f 587/2145 599/2146 600/2147 588/2148
f 588/2149 600/2150 601/2151 589/2152
f 589/2153 601/2154 602/2155 590/2156
f 590/2157 602/2158 603/2159 591/2160
f 591/2161 603/2162 604/2163 592/2164
f 592/2165 604/2166 605/2167 593/2168
f 593/2169 605/2170 606/2171 594/2172
f 594/2173 606/2174 607/2175 595/2176
f 595/2177 607/2178 608/2179 596/2180
f 596/2181 608/2182 597/2183 585/2184
f 597/2185 609/2186 610/2187 598/2188
f 598/2189 610/2190 611/2191 599/2192
f 599/2193 611/2194 612/2195 600/2196
f 600/2197 612/2198 613/2199 601/2200
f 601/2201 613/2202 614/2203 602/2204
f 602/2205 614/2206 615/2207 603/2208
f 603/2209 615/2210 616/2211 604/2212
f 604/2213 616/2214 617/2215 605/2216
f 605/2217 617/2218 618/2219 606/2220
f 606/2221 618/2222 619/2223 607/2224
f 607/2225 619/2226 620/2227 608/2228
f 608/2229 620/2230 609/2231 597/2232
f 609/2233 621/2234 622/2235 610/2236
f 610/2237 622/2238 623/2239 611/2240
f 611/2241 623/2242 624/2243 612/2244
f 612/2245 624/2246 625/2247 613/2248
f 613/2249 625/2250 626/2251 614/2252
f 614/2253 626/2254 627/2255 615/2256
f 615/2257 627/2258 628/2259 616/2260
f 616/2261 628/2262 629/2263 617/2264
f 617/2265 629/2266 630/2267 618/2268
f 618/2269 630/2270 631/2271 619/2272
f 619/2273 631/2274 632/2275 620/2276
f 620/2277 632/2278 621/2279 609/2280
o Pilot_Arm_Right
v -0.0200 0.5400 0.2350
v -0.0200 0.5400 0.2350
v -0.0200 0.5400 0.2350
v -0.0200 0.5400 0.2350
v -0.0200 0.5400 0.2350
v -0.0200 0.5400 0.2350
v -0.0200 0.5400 0.2350
v -0.0200 0.5400 0.2350
v -0.0200 0.5400 0.2350
v -0.0200 0.5400 0.2350
v -0.0200 0.5400 0.2350
v -0.0200 0.5400 0.2350
v 0.1314 0.5411 0.2350
v 0.1260 0.5411 0.2562
v 0.1073 0.5411 0.2593
v -0.0200 0.5411 0.2602
v -0.1473 0.5411 0.2593
v -0.1660 0.5411 0.2562
v -0.1714 0.5411 0.2350
v -0.1660 0.5411 0.2138
v -0.1473 0.5411 0.2107
v -0.0200 0.5411 0.2098
v 0.1073 0.5411 0.2107
v 0.1260 0.5411 0.2138
v 0.1536 0.5448 0.2350
v 0.1475 0.5448 0.2593
v 0.1260 0.5448 0.2629
v -0.0200 0.5448 0.2639
v -0.1660 0.5448 0.2629
v -0.1875 0.5448 0.2593
v -0.1936 0.5448 0.2350
v -0.1875 0.5448 0.2107
v -0.1660 0.5448 0.2071
v -0.0200 0.5448 0.2061
v 0.1260 0.5448 0.2071
v 0.1475 0.5448 0.2107
v 0.1600 0.5700 0.2350
v 0.1536 0.5700 0.2602
v 0.1314 0.5700 0.2639
v -0.0200 0.5700 0.2650
v -0.1714 0.5700 0.2639
v -0.1936 0.5700 0.2602
v -0.2000 0.5700 0.2350
v -0.1936 0.5700 0.2098
v -0.1714 0.5700 0.2061
v -0.0200 0.5700 0.2050
v 0.1314 0.5700 0.2061
v 0.1536 0.5700 0.2098
v 0.1536 0.5952 0.2350
v 0.1475 0.5952 0.2593
v 0.1260 0.5952 0.2629
v -0.0200 0.5952 0.2639
v -0.1660 0.5952 0.2629
v -0.1875 0.5952 0.2593
v -0.1936 0.5952 0.2350
v -0.1875 0.5952 0.2107
v -0.1660 0.5952 0.2071
v -0.0200 0.5952 0.2061
v 0.1260 0.5952 0.2071
v 0.1475 0.5952 0.2107
v 0.1314 0.5989 0.2350
v 0.1260 0.5989 0.2562
v 0.1073 0.5989 0.2593
v -0.0200 0.5989 0.2602
v -0.1473 0.5989 0.2593
v -0.1660 0.5989 0.2562
v -0.1714 0.5989 0.2350
v -0.1660 0.5989 0.2138
v -0.1473 0.5989 0.2107
v -0.0200 0.5989 0.2098
v 0.1073 0.5989 0.2107
v 0.1260 0.5989 0.2138
v -0.0200 0.6000 0.2350
v -0.0200 0.6000 0.2350
v -0.0200 0.6000 0.2350
v -0.0200 0.6000 0.2350
v -0.0200 0.6000 0.2350
v -0.0200 0.6000 0.2350
v -0.0200 0.6000 0.2350
v -0.0200 0.6000 0.2350
v -0.0200 0.6000 0.2350
v -0.0200 0.6000 0.2350
v -0.0200 0.6000 0.2350
v -0.0200 0.6000 0.2350
vt -0.0200 0.2350
vt 0.1314 0.2350
vt 0.1260 0.2562
vt -0.0200 0.2350
vt -0.0200 0.2350
vt 0.1260 0.2562
vt 0.1073 0.2593
vt -0.0200 0.2350
vt -0.0200 0.2350
vt 0.1073 0.2593
vt -0.0200 0.2602
vt -0.0200 0.2350
vt -0.0200 0.2350
vt -0.0200 0.2602
vt -0.1473 0.2593
vt -0.0200 0.2350
vt -0.0200 0.2350
vt -0.1473 0.2593
vt -0.1660 0.2562
vt -0.0200 0.2350
vt -0.0200 0.2350
vt -0.1660 0.2562
vt -0.1714 0.2350
vt -0.0200 0.2350
vt -0.0200 0.2350
vt -0.1714 0.2350
vt -0.1660 0.2138
vt -0.0200 0.2350
vt -0.0200 0.2350
vt -0.1660 0.2138
vt -0.1473 0.2107
vt -0.0200 0.2350
vt -0.0200 0.2350
vt -0.1473 0.2107
vt -0.0200 0.2098
vt -0.0200 0.2350
vt -0.0200 0.2350
vt -0.0200 0.2098
vt 0.1073 0.2107
vt -0.0200 0.2350
vt -0.0200 0.2350
vt 0.1073 0.2107
vt 0.1260 0.2138
vt -0.0200 0.2350
vt -0.0200 0.2350
vt 0.1260 0.2138
vt 0.1314 0.2350
vt -0.0200 0.2350
vt 0.1314 0.2350
vt 0.1536 0.2350
vt 0.1475 0.2593
vt 0.1260 0.2562
vt 0.1260 0.2562
vt 0.1475 0.2593
vt 0.1260 0.2629
vt 0.1073 0.2593
vt 0.1073 0.2593
vt 0.1260 0.2629
vt -0.0200 0.2639
vt -0.0200 0.2602
vt -0.0200 0.5411
vt -0.0200 0.5448
vt -0.1660 0.5448
vt -0.1473 0.5411
vt -0.1473 0.2593
vt -0.1660 0.2629
vt -0.1875 0.2593
vt -0.1660 0.2562
vt -0.1660 0.2562
vt -0.1875 0.2593
vt -0.1936 0.2350
vt -0.1714 0.2350
vt -0.1714 0.2350
vt -0.1936 0.2350
vt -0.1875 0.2107
vt -0.1660 0.2138
vt -0.1660 0.2138
vt -0.1875 0.2107
vt -0.1660 0.2071
vt -0.1473 0.2107
vt -0.1473 0.2107
vt -0.1660 0.2071
vt -0.0200 0.2061
vt -0.0200 0.2098
vt -0.0200 0.5411
vt -0.0200 0.5448
vt 0.1260 0.5448
vt 0.1073 0.5411
vt 0.1073 0.2107
vt 0.1260 0.2071
vt 0.1475 0.2107
vt 0.1260 0.2138
vt 0.1260 0.2138
vt 0.1475 0.2107
vt 0.1536 0.2350
vt 0.1314 0.2350
vt 0.2350 0.5448
vt 0.2350 0.5700
vt 0.2602 0.5700
vt 0.2593 0.5448
vt 0.1475 0.5448
vt 0.1536 0.5700
vt 0.1314 0.5700
vt 0.1260 0.5448
vt 0.1260 0.5448
vt 0.1314 0.5700
vt -0.0200 0.5700
vt -0.0200 0.5448
vt -0.0200 0.5448
vt -0.0200 0.5700
vt -0.1714 0.5700
vt -0.1660 0.5448
vt -0.1660 0.5448
vt -0.1714 0.5700
vt -0.1936 0.5700
vt -0.1875 0.5448
vt 0.2593 0.5448
vt 0.2602 0.5700
vt 0.2350 0.5700
vt 0.2350 0.5448
vt 0.2350 0.5448
vt 0.2350 0.5700
vt 0.2098 0.5700
vt 0.2107 0.5448
vt -0.1875 0.5448
vt -0.1936 0.5700
vt -0.1714 0.5700
vt -0.1660 0.5448
vt -0.1660 0.5448
vt -0.1714 0.5700
vt -0.0200 0.5700
vt -0.0200 0.5448
vt -0.0200 0.5448
vt -0.0200 0.5700
vt 0.1314 0.5700
vt 0.1260 0.5448
vt 0.1260 0.5448
vt 0.1314 0.5700
vt 0.1536 0.5700
vt 0.1475 0.5448
vt 0.2107 0.5448
vt 0.2098 0.5700
vt 0.2350 0.5700
vt 0.2350 0.5448
vt 0.2350 0.5700
vt 0.2350 0.5952
vt 0.2593 0.5952
vt 0.2602 0.5700
vt 0.1536 0.5700
vt 0.1475 0.5952
vt 0.1260 0.5952
vt 0.1314 0.5700
vt 0.1314 0.5700
vt 0.1260 0.5952
vt -0.0200 0.5952
vt -0.0200 0.5700
vt -0.0200 0.5700
vt -0.0200 0.5952
vt -0.1660 0.5952
vt -0.1714 0.5700
vt -0.1714 0.5700
vt -0.1660 0.5952
vt -0.1875 0.5952
vt -0.1936 0.5700
vt 0.2602 0.5700
vt 0.2593 0.5952
vt 0.2350 0.5952
vt 0.2350 0.5700
vt 0.2350 0.5700
vt 0.2350 0.5952
vt 0.2107 0.5952
vt 0.2098 0.5700
vt -0.1936 0.5700
vt -0.1875 0.5952
vt -0.1660 0.5952
vt -0.1714 0.5700
vt -0.1714 0.5700
vt -0.1660 0.5952
vt -0.0200 0.5952
vt -0.0200 0.5700
vt -0.0200 0.5700
vt -0.0200 0.5952
vt 0.1260 0.5952
vt 0.1314 0.5700
vt 0.1314 0.5700
vt 0.1260 0.5952
vt 0.1475 0.5952
vt 0.1536 0.5700
vt 0.2098 0.5700
vt 0.2107 0.5952
vt 0.2350 0.5952
vt 0.2350 0.5700
vt 0.1536 0.2350
vt 0.1314 0.2350
vt 0.1260 0.2562
vt 0.1475 0.2593
vt 0.1475 0.2593
vt 0.1260 0.2562
vt 0.1073 0.2593
vt 0.1260 0.2629
vt 0.1260 0.2629
vt 0.1073 0.2593
vt -0.0200 0.2602
vt -0.0200 0.2639
vt -0.0200 0.5952
vt -0.0200 0.5989
vt -0.1473 0.5989
vt -0.1660 0.5952
vt -0.1660 0.2629
vt -0.1473 0.2593
vt -0.1660 0.2562
vt -0.1875 0.2593
vt -0.1875 0.2593
vt -0.1660 0.2562
vt -0.1714 0.2350
vt -0.1936 0.2350
vt -0.1936 0.2350
vt -0.1714 0.2350
vt -0.1660 0.2138
vt -0.1875 0.2107
vt -0.1875 0.2107
vt -0.1660 0.2138
vt -0.1473 0.2107
vt -0.1660 0.2071
vt -0.1660 0.2071
vt -0.1473 0.2107
vt -0.0200 0.2098
vt -0.0200 0.2061
vt -0.0200 0.5952
vt -0.0200 0.5989
vt 0.1073 0.5989
vt 0.1260 0.5952
vt 0.1260 0.2071
vt 0.1073 0.2107
vt 0.1260 0.2138
vt 0.1475 0.2107
vt 0.1475 0.2107
vt 0.1260 0.2138
vt 0.1314 0.2350
vt 0.1536 0.2350
vt 0.1314 0.2350
vt -0.0200 0.2350
vt -0.0200 0.2350
vt 0.1260 0.2562
vt 0.1260 0.2562
vt -0.0200 0.2350
vt -0.0200 0.2350
vt 0.1073 0.2593
vt 0.1073 0.2593
vt -0.0200 0.2350
vt -0.0200 0.2350
vt -0.0200 0.2602
vt -0.0200 0.2602
vt -0.0200 0.2350
vt -0.0200 0.2350
vt -0.1473 0.2593
vt -0.1473 0.2593
vt -0.0200 0.2350
vt -0.0200 0.2350
vt -0.1660 0.2562
vt -0.1660 0.2562
vt -0.0200 0.2350
vt -0.0200 0.2350
vt -0.1714 0.2350
vt -0.1714 0.2350
vt -0.0200 0.2350
vt -0.0200 0.2350
vt -0.1660 0.2138
vt -0.1660 0.2138
vt -0.0200 0.2350
vt -0.0200 0.2350
vt -0.1473 0.2107
vt -0.1473 0.2107
vt -0.0200 0.2350
vt -0.0200 0.2350
vt -0.0200 0.2098
vt -0.0200 0.2098
vt -0.0200 0.2350
vt -0.0200 0.2350
vt 0.1073 0.2107
vt 0.1073 0.2107
vt -0.0200 0.2350
vt -0.0200 0.2350
vt 0.1260 0.2138
vt 0.1260 0.2138
vt -0.0200 0.2350
vt -0.0200 0.2350
vt 0.1314 0.2350
f 633/2281 645/2282 646/2283 634/2284
f 634/2285 646/2286 647/2287 635/2288
f 635/2289 647/2290 648/2291 636/2292
f 636/2293 648/2294 649/2295 637/2296
f 637/2297 649/2298 650/2299 638/2300
f 638/2301 650/2302 651/2303 639/2304
f 639/2305 651/2306 652/2307 640/2308
f 640/2309 652/2310 653/2311 641/2312
f 641/2313 653/2314 654/2315 642/2316
f 642/2317 654/2318 655/2319 643/2320
f 643/2321 655/2322 656/2323 644/2324
f 644/2325 656/2326 645/2327 633/2328
f 645/2329 657/2330 658/2331 646/2332
f 646/2333 658/2334 659/2335 647/2336
f 647/2337 659/2338 660/2339 648/2340
f 648/2341 660/2342 661/2343 649/2344
f 649/2345 661/2346 662/2347 650/2348
f 650/2349 662/2350 663/2351 651/2352
f 651/2353 663/2354 664/2355 652/2356
f 652/2357 664/2358 665/2359 653/2360
f 653/2361 665/2362 666/2363 654/2364
f 654/2365 666/2366 667/2367 655/2368
f 655/2369 667/2370 668/2371 656/2372
f 656/2373 668/2374 657/2375 645/2376
f 657/2377 669/2378 670/2379 658/2380
f 658/2381 670/2382 671/2383 659/2384
f 659/2385 671/2386 672/2387 660/2388
f 660/2389 672/2390 673/2391 661/2392
f 661/2393 673/2394 674/2395 662/2396
f 662/2397 674/2398 675/2399 663/2400
f 663/2401 675/2402 676/2403 664/2404
f 664/2405 676/2406 677/2407 665/2408
f 665/2409 677/2410 678/2411 666/2412
f 666/2413 678/2414 679/2415 667/2416
f 667/2417 679/2418 680/2419 668/2420
f 668/2421 680/2422 669/2423 657/2424
f 669/2425 681/2426 682/2427 670/2428
f 670/2429 682/2430 683/2431 671/2432
f 671/2433 683/2434 684/2435 672/2436
f 672/2437 684/2438 685/2439 673/2440
f 673/2441 685/2442 686/2443 674/2444
f 674/2445 686/2446 687/2447 675/2448
f 675/2449 687/2450 688/2451 676/2452
f 676/2453 688/2454 689/2455 677/2456
f 677/2457 689/2458 690/2459 678/2460
f 678/2461 690/2462 691/2463 679/2464
f 679/2465 691/2466 692/2467 680/2468
f 680/2469 692/2470 681/2471 669/2472
f 681/2473 693/2474 694/2475 682/2476
f 682/2477 694/2478 695/2479 683/2480
f 683/2481 695/2482 696/2483 684/2484
f 684/2485 696/2486 697/2487 685/2488
f 685/2489 697/2490 698/2491 686/2492
f 686/2493 698/2494 699/2495 687/2496
f 687/2497 699/2498 700/2499 688/2500
f 688/2501 700/2502 701/2503 689/2504
f 689/2505 701/2506 702/2507 690/2508
f 690/2509 702/2510 703/2511 691/2512
f 691/2513 703/2514 704/2515 692/2516
f 692/2517 704/2518 693/2519 681/2520
f 693/2521 705/2522 706/2523 694/2524
f 694/2525 706/2526 707/2527 695/2528
f 695/2529 707/2530 708/2531 696/2532
f 696/2533 708/2534 709/2535 697/2536
f 697/2537 709/2538 710/2539 698/2540
f 698/2541 710/2542 711/2543 699/2544
f 699/2545 711/2546 712/2547 700/2548
f 700/2549 712/2550 713/2551 701/2552
f 701/2553 713/2554 714/2555 702/2556
f 702/2557 714/2558 715/2559 703/2560
f 703/2561 715/2562 716/2563 704/2564
f 704/2565 716/2566 705/2567 693/2568
