# ASTRAX zero gravity aircraft (MU-300) free area — seat
# build_parts.py が実測値（実機サイズ表）から作る。単位はメートル。X=機首→機尾, Y=上, Z=機首を向いて左（右舷は-Z）
o Seat_Pan
v -0.1047 0.3150 0.0000
v -0.1047 0.3150 0.0002
v -0.1047 0.3150 0.0003
v -0.1048 0.3150 0.0003
v -0.1050 0.3150 0.0003
v -0.1052 0.3150 0.0003
v -0.1053 0.3150 0.0003
v -0.1053 0.3150 0.0002
v -0.1053 0.3150 0.0000
v -0.1053 0.3150 -0.0002
v -0.1053 0.3150 -0.0003
v -0.1052 0.3150 -0.0003
v -0.1050 0.3150 -0.0003
v -0.1048 0.3150 -0.0003
v -0.1047 0.3150 -0.0003
v -0.1047 0.3150 -0.0002
v 0.0933 0.3154 0.0000
v 0.0905 0.3154 0.1600
v 0.0813 0.3154 0.1787
v 0.0618 0.3154 0.1875
v -0.1048 0.3154 0.1902
v -0.2718 0.3154 0.1875
v -0.2913 0.3154 0.1787
v -0.3005 0.3154 0.1600
v -0.3033 0.3154 0.0003
v -0.3005 0.3154 -0.1600
v -0.2913 0.3154 -0.1787
v -0.2718 0.3154 -0.1875
v -0.1053 0.3154 -0.1902
v 0.0618 0.3154 -0.1875
v 0.0813 0.3154 -0.1787
v 0.0905 0.3154 -0.1600
v 0.1177 0.3166 0.0000
v 0.1145 0.3166 0.1797
v 0.1042 0.3166 0.2006
v 0.0823 0.3166 0.2105
v -0.1047 0.3166 0.2136
v -0.2923 0.3166 0.2105
v -0.3142 0.3166 0.2006
v -0.3245 0.3166 0.1797
v -0.3277 0.3166 0.0003
v -0.3245 0.3166 -0.1797
v -0.3142 0.3166 -0.2006
v -0.2923 0.3166 -0.2105
v -0.1053 0.3166 -0.2136
v 0.0823 0.3166 -0.2105
v 0.1042 0.3166 -0.2006
v 0.1145 0.3166 -0.1797
v 0.1308 0.3189 0.0000
v 0.1275 0.3189 0.1903
v 0.1166 0.3189 0.2125
v 0.0934 0.3189 0.2230
v -0.1047 0.3189 0.2262
v -0.3034 0.3189 0.2230
v -0.3266 0.3189 0.2125
v -0.3375 0.3189 0.1903
v -0.3408 0.3189 0.0003
v -0.3375 0.3189 -0.1903
v -0.3266 0.3189 -0.2125
v -0.3034 0.3189 -0.2230
v -0.1053 0.3189 -0.2262
v 0.0934 0.3189 -0.2230
v 0.1166 0.3189 -0.2125
v 0.1275 0.3189 -0.1903
v 0.1378 0.3231 0.0000
v 0.1344 0.3231 0.1959
v 0.1231 0.3231 0.2188
v 0.0992 0.3231 0.2296
v -0.1047 0.3231 0.2329
v -0.3092 0.3231 0.2296
v -0.3331 0.3231 0.2188
v -0.3444 0.3231 0.1959
v -0.3478 0.3231 0.0003
v -0.3444 0.3231 -0.1959
v -0.3331 0.3231 -0.2188
v -0.3092 0.3231 -0.2296
v -0.1054 0.3231 -0.2329
v 0.0992 0.3231 -0.2296
v 0.1231 0.3231 -0.2188
v 0.1344 0.3231 -0.1959
v 0.1400 0.3575 0.0000
v 0.1365 0.3575 0.1977
v 0.1252 0.3575 0.2208
v 0.1011 0.3575 0.2317
v -0.1047 0.3575 0.2350
v -0.3111 0.3575 0.2317
v -0.3352 0.3575 0.2208
v -0.3465 0.3575 0.1977
v -0.3500 0.3575 0.0003
v -0.3465 0.3575 -0.1977
v -0.3352 0.3575 -0.2208
v -0.3111 0.3575 -0.2317
v -0.1054 0.3575 -0.2350
v 0.1011 0.3575 -0.2317
v 0.1252 0.3575 -0.2208
v 0.1365 0.3575 -0.1977
v 0.1378 0.3919 0.0000
v 0.1344 0.3919 0.1959
v 0.1231 0.3919 0.2188
v 0.0992 0.3919 0.2296
v -0.1047 0.3919 0.2329
v -0.3092 0.3919 0.2296
v -0.3331 0.3919 0.2188
v -0.3444 0.3919 0.1959
v -0.3478 0.3919 0.0003
v -0.3444 0.3919 -0.1959
v -0.3331 0.3919 -0.2188
v -0.3092 0.3919 -0.2296
v -0.1054 0.3919 -0.2329
v 0.0992 0.3919 -0.2296
v 0.1231 0.3919 -0.2188
v 0.1344 0.3919 -0.1959
v 0.1308 0.3961 0.0000
v 0.1275 0.3961 0.1903
v 0.1166 0.3961 0.2125
v 0.0934 0.3961 0.2230
v -0.1047 0.3961 0.2262
v -0.3034 0.3961 0.2230
v -0.3266 0.3961 0.2125
v -0.3375 0.3961 0.1903
v -0.3408 0.3961 0.0003
v -0.3375 0.3961 -0.1903
v -0.3266 0.3961 -0.2125
v -0.3034 0.3961 -0.2230
v -0.1053 0.3961 -0.2262
v 0.0934 0.3961 -0.2230
v 0.1166 0.3961 -0.2125
v 0.1275 0.3961 -0.1903
v 0.1177 0.3984 0.0000
v 0.1145 0.3984 0.1797
v 0.1042 0.3984 0.2006
v 0.0823 0.3984 0.2105
v -0.1047 0.3984 0.2136
v -0.2923 0.3984 0.2105
v -0.3142 0.3984 0.2006
v -0.3245 0.3984 0.1797
v -0.3277 0.3984 0.0003
v -0.3245 0.3984 -0.1797
v -0.3142 0.3984 -0.2006
v -0.2923 0.3984 -0.2105
v -0.1053 0.3984 -0.2136
v 0.0823 0.3984 -0.2105
v 0.1042 0.3984 -0.2006
v 0.1145 0.3984 -0.1797
v 0.0933 0.3996 0.0000
v 0.0905 0.3996 0.1600
v 0.0813 0.3996 0.1787
v 0.0618 0.3996 0.1875
v -0.1048 0.3996 0.1902
v -0.2718 0.3996 0.1875
v -0.2913 0.3996 0.1787
v -0.3005 0.3996 0.1600
v -0.3033 0.3996 0.0003
v -0.3005 0.3996 -0.1600
v -0.2913 0.3996 -0.1787
v -0.2718 0.3996 -0.1875
v -0.1053 0.3996 -0.1902
v 0.0618 0.3996 -0.1875
v 0.0813 0.3996 -0.1787
v 0.0905 0.3996 -0.1600
v -0.1047 0.4000 0.0000
v -0.1047 0.4000 0.0002
v -0.1047 0.4000 0.0003
v -0.1048 0.4000 0.0003
v -0.1050 0.4000 0.0003
v -0.1052 0.4000 0.0003
v -0.1053 0.4000 0.0003
v -0.1053 0.4000 0.0002
v -0.1053 0.4000 0.0000
v -0.1053 0.4000 -0.0002
v -0.1053 0.4000 -0.0003
v -0.1052 0.4000 -0.0003
v -0.1050 0.4000 -0.0003
v -0.1048 0.4000 -0.0003
v -0.1047 0.4000 -0.0003
v -0.1047 0.4000 -0.0002
vt -0.1047 0.0000
vt 0.0933 0.0000
vt 0.0905 0.1600
vt -0.1047 0.0002
vt -0.1047 0.0002
vt 0.0905 0.1600
vt 0.0813 0.1787
vt -0.1047 0.0003
vt -0.1047 0.0003
vt 0.0813 0.1787
vt 0.0618 0.1875
vt -0.1048 0.0003
vt -0.1048 0.0003
vt 0.0618 0.1875
vt -0.1048 0.1902
vt -0.1050 0.0003
vt -0.1050 0.0003
vt -0.1048 0.1902
vt -0.2718 0.1875
vt -0.1052 0.0003
vt -0.1052 0.0003
vt -0.2718 0.1875
vt -0.2913 0.1787
vt -0.1053 0.0003
vt -0.1053 0.0003
vt -0.2913 0.1787
vt -0.3005 0.1600
vt -0.1053 0.0002
vt -0.1053 0.0002
vt -0.3005 0.1600
vt -0.3033 0.0003
vt -0.1053 0.0000
vt -0.1053 0.0000
vt -0.3033 0.0003
vt -0.3005 -0.1600
vt -0.1053 -0.0002
vt -0.1053 -0.0002
vt -0.3005 -0.1600
vt -0.2913 -0.1787
vt -0.1053 -0.0003
vt -0.1053 -0.0003
vt -0.2913 -0.1787
vt -0.2718 -0.1875
vt -0.1052 -0.0003
vt -0.1052 -0.0003
vt -0.2718 -0.1875
vt -0.1053 -0.1902
vt -0.1050 -0.0003
vt -0.1050 -0.0003
vt -0.1053 -0.1902
vt 0.0618 -0.1875
vt -0.1048 -0.0003
vt -0.1048 -0.0003
vt 0.0618 -0.1875
vt 0.0813 -0.1787
vt -0.1047 -0.0003
vt -0.1047 -0.0003
vt 0.0813 -0.1787
vt 0.0905 -0.1600
vt -0.1047 -0.0002
vt -0.1047 -0.0002
vt 0.0905 -0.1600
vt 0.0933 0.0000
vt -0.1047 0.0000
vt 0.0933 0.0000
vt 0.1177 0.0000
vt 0.1145 0.1797
vt 0.0905 0.1600
vt 0.0905 0.1600
vt 0.1145 0.1797
vt 0.1042 0.2006
vt 0.0813 0.1787
vt 0.0813 0.1787
vt 0.1042 0.2006
vt 0.0823 0.2105
vt 0.0618 0.1875
vt 0.0618 0.1875
vt 0.0823 0.2105
vt -0.1047 0.2136
vt -0.1048 0.1902
vt -0.1048 0.1902
vt -0.1047 0.2136
vt -0.2923 0.2105
vt -0.2718 0.1875
vt -0.2718 0.1875
vt -0.2923 0.2105
vt -0.3142 0.2006
vt -0.2913 0.1787
vt -0.2913 0.1787
vt -0.3142 0.2006
vt -0.3245 0.1797
vt -0.3005 0.1600
vt -0.3005 0.1600
vt -0.3245 0.1797
vt -0.3277 0.0003
vt -0.3033 0.0003
vt -0.3033 0.0003
vt -0.3277 0.0003
vt -0.3245 -0.1797
vt -0.3005 -0.1600
vt -0.3005 -0.1600
vt -0.3245 -0.1797
vt -0.3142 -0.2006
vt -0.2913 -0.1787
vt -0.2913 -0.1787
vt -0.3142 -0.2006
vt -0.2923 -0.2105
vt -0.2718 -0.1875
vt -0.2718 -0.1875
vt -0.2923 -0.2105
vt -0.1053 -0.2136
vt -0.1053 -0.1902
vt -0.1053 -0.1902
vt -0.1053 -0.2136
vt 0.0823 -0.2105
vt 0.0618 -0.1875
vt 0.0618 -0.1875
vt 0.0823 -0.2105
vt 0.1042 -0.2006
vt 0.0813 -0.1787
vt 0.0813 -0.1787
vt 0.1042 -0.2006
vt 0.1145 -0.1797
vt 0.0905 -0.1600
vt 0.0905 -0.1600
vt 0.1145 -0.1797
vt 0.1177 0.0000
vt 0.0933 0.0000
vt 0.1177 0.0000
vt 0.1308 0.0000
vt 0.1275 0.1903
vt 0.1145 0.1797
vt 0.1145 0.1797
vt 0.1275 0.1903
vt 0.1166 0.2125
vt 0.1042 0.2006
vt 0.1042 0.2006
vt 0.1166 0.2125
vt 0.0934 0.2230
vt 0.0823 0.2105
vt 0.0823 0.2105
vt 0.0934 0.2230
vt -0.1047 0.2262
vt -0.1047 0.2136
vt -0.1047 0.2136
vt -0.1047 0.2262
vt -0.3034 0.2230
vt -0.2923 0.2105
vt -0.2923 0.2105
vt -0.3034 0.2230
vt -0.3266 0.2125
vt -0.3142 0.2006
vt -0.3142 0.2006
vt -0.3266 0.2125
vt -0.3375 0.1903
vt -0.3245 0.1797
vt -0.3245 0.1797
vt -0.3375 0.1903
vt -0.3408 0.0003
vt -0.3277 0.0003
vt -0.3277 0.0003
vt -0.3408 0.0003
vt -0.3375 -0.1903
vt -0.3245 -0.1797
vt -0.3245 -0.1797
vt -0.3375 -0.1903
vt -0.3266 -0.2125
vt -0.3142 -0.2006
vt -0.3142 -0.2006
vt -0.3266 -0.2125
vt -0.3034 -0.2230
vt -0.2923 -0.2105
vt -0.2923 -0.2105
vt -0.3034 -0.2230
vt -0.1053 -0.2262
vt -0.1053 -0.2136
vt -0.1053 -0.2136
vt -0.1053 -0.2262
vt 0.0934 -0.2230
vt 0.0823 -0.2105
vt 0.0823 -0.2105
vt 0.0934 -0.2230
vt 0.1166 -0.2125
vt 0.1042 -0.2006
vt 0.1042 -0.2006
vt 0.1166 -0.2125
vt 0.1275 -0.1903
vt 0.1145 -0.1797
vt 0.1145 -0.1797
vt 0.1275 -0.1903
vt 0.1308 0.0000
vt 0.1177 0.0000
vt 0.1308 0.0000
vt 0.1378 0.0000
vt 0.1344 0.1959
vt 0.1275 0.1903
vt 0.1275 0.1903
vt 0.1344 0.1959
vt 0.1231 0.2188
vt 0.1166 0.2125
vt 0.1166 0.2125
vt 0.1231 0.2188
vt 0.0992 0.2296
vt 0.0934 0.2230
vt 0.0934 0.2230
vt 0.0992 0.2296
vt -0.1047 0.2329
vt -0.1047 0.2262
vt -0.1047 0.2262
vt -0.1047 0.2329
vt -0.3092 0.2296
vt -0.3034 0.2230
vt -0.3034 0.2230
vt -0.3092 0.2296
vt -0.3331 0.2188
vt -0.3266 0.2125
vt -0.3266 0.2125
vt -0.3331 0.2188
vt -0.3444 0.1959
vt -0.3375 0.1903
vt -0.3375 0.1903
vt -0.3444 0.1959
vt -0.3478 0.0003
vt -0.3408 0.0003
vt -0.3408 0.0003
vt -0.3478 0.0003
vt -0.3444 -0.1959
vt -0.3375 -0.1903
vt -0.3375 -0.1903
vt -0.3444 -0.1959
vt -0.3331 -0.2188
vt -0.3266 -0.2125
vt -0.3266 -0.2125
vt -0.3331 -0.2188
vt -0.3092 -0.2296
vt -0.3034 -0.2230
vt -0.3034 -0.2230
vt -0.3092 -0.2296
vt -0.1054 -0.2329
vt -0.1053 -0.2262
vt -0.1053 -0.2262
vt -0.1054 -0.2329
vt 0.0992 -0.2296
vt 0.0934 -0.2230
vt 0.0934 -0.2230
vt 0.0992 -0.2296
vt 0.1231 -0.2188
vt 0.1166 -0.2125
vt 0.1166 -0.2125
vt 0.1231 -0.2188
vt 0.1344 -0.1959
vt 0.1275 -0.1903
vt 0.1275 -0.1903
vt 0.1344 -0.1959
vt 0.1378 0.0000
vt 0.1308 0.0000
vt 0.0000 0.3231
vt 0.0000 0.3575
vt 0.1977 0.3575
vt 0.1959 0.3231
vt 0.1959 0.3231
vt 0.1977 0.3575
vt 0.2208 0.3575
vt 0.2188 0.3231
vt 0.1231 0.3231
vt 0.1252 0.3575
vt 0.1011 0.3575
vt 0.0992 0.3231
vt 0.0992 0.3231
vt 0.1011 0.3575
vt -0.1047 0.3575
vt -0.1047 0.3231
vt -0.1047 0.3231
vt -0.1047 0.3575
vt -0.3111 0.3575
vt -0.3092 0.3231
vt -0.3092 0.3231
vt -0.3111 0.3575
vt -0.3352 0.3575
vt -0.3331 0.3231
vt 0.2188 0.3231
vt 0.2208 0.3575
vt 0.1977 0.3575
vt 0.1959 0.3231
vt 0.1959 0.3231
vt 0.1977 0.3575
vt 0.0003 0.3575
vt 0.0003 0.3231
vt 0.0003 0.3231
vt 0.0003 0.3575
vt -0.1977 0.3575
vt -0.1959 0.3231
vt -0.1959 0.3231
vt -0.1977 0.3575
vt -0.2208 0.3575
vt -0.2188 0.3231
vt -0.3331 0.3231
vt -0.3352 0.3575
vt -0.3111 0.3575
vt -0.3092 0.3231
vt -0.3092 0.3231
vt -0.3111 0.3575
vt -0.1054 0.3575
vt -0.1054 0.3231
vt -0.1054 0.3231
vt -0.1054 0.3575
vt 0.1011 0.3575
vt 0.0992 0.3231
vt 0.0992 0.3231
vt 0.1011 0.3575
vt 0.1252 0.3575
vt 0.1231 0.3231
vt -0.2188 0.3231
vt -0.2208 0.3575
vt -0.1977 0.3575
vt -0.1959 0.3231
vt -0.1959 0.3231
vt -0.1977 0.3575
vt 0.0000 0.3575
vt 0.0000 0.3231
vt 0.0000 0.3575
vt 0.0000 0.3919
vt 0.1959 0.3919
vt 0.1977 0.3575
vt 0.1977 0.3575
vt 0.1959 0.3919
vt 0.2188 0.3919
vt 0.2208 0.3575
vt 0.1252 0.3575
vt 0.1231 0.3919
vt 0.0992 0.3919
vt 0.1011 0.3575
vt 0.1011 0.3575
vt 0.0992 0.3919
vt -0.1047 0.3919
vt -0.1047 0.3575
vt -0.1047 0.3575
vt -0.1047 0.3919
vt -0.3092 0.3919
vt -0.3111 0.3575
vt -0.3111 0.3575
vt -0.3092 0.3919
vt -0.3331 0.3919
vt -0.3352 0.3575
vt 0.2208 0.3575
vt 0.2188 0.3919
vt 0.1959 0.3919
vt 0.1977 0.3575
vt 0.1977 0.3575
vt 0.1959 0.3919
vt 0.0003 0.3919
vt 0.0003 0.3575
vt 0.0003 0.3575
vt 0.0003 0.3919
vt -0.1959 0.3919
vt -0.1977 0.3575
vt -0.1977 0.3575
vt -0.1959 0.3919
vt -0.2188 0.3919
vt -0.2208 0.3575
vt -0.3352 0.3575
vt -0.3331 0.3919
vt -0.3092 0.3919
vt -0.3111 0.3575
vt -0.3111 0.3575
vt -0.3092 0.3919
vt -0.1054 0.3919
vt -0.1054 0.3575
vt -0.1054 0.3575
vt -0.1054 0.3919
vt 0.0992 0.3919
vt 0.1011 0.3575
vt 0.1011 0.3575
vt 0.0992 0.3919
vt 0.1231 0.3919
vt 0.1252 0.3575
vt -0.2208 0.3575
vt -0.2188 0.3919
vt -0.1959 0.3919
vt -0.1977 0.3575
vt -0.1977 0.3575
vt -0.1959 0.3919
vt 0.0000 0.3919
vt 0.0000 0.3575
vt 0.1378 0.0000
vt 0.1308 0.0000
vt 0.1275 0.1903
vt 0.1344 0.1959
vt 0.1344 0.1959
vt 0.1275 0.1903
vt 0.1166 0.2125
vt 0.1231 0.2188
vt 0.1231 0.2188
vt 0.1166 0.2125
vt 0.0934 0.2230
vt 0.0992 0.2296
vt 0.0992 0.2296
vt 0.0934 0.2230
vt -0.1047 0.2262
vt -0.1047 0.2329
vt -0.1047 0.2329
vt -0.1047 0.2262
vt -0.3034 0.2230
vt -0.3092 0.2296
vt -0.3092 0.2296
vt -0.3034 0.2230
vt -0.3266 0.2125
vt -0.3331 0.2188
vt -0.3331 0.2188
vt -0.3266 0.2125
vt -0.3375 0.1903
vt -0.3444 0.1959
vt -0.3444 0.1959
vt -0.3375 0.1903
vt -0.3408 0.0003
vt -0.3478 0.0003
vt -0.3478 0.0003
vt -0.3408 0.0003
vt -0.3375 -0.1903
vt -0.3444 -0.1959
vt -0.3444 -0.1959
vt -0.3375 -0.1903
vt -0.3266 -0.2125
vt -0.3331 -0.2188
vt -0.3331 -0.2188
vt -0.3266 -0.2125
vt -0.3034 -0.2230
vt -0.3092 -0.2296
vt -0.3092 -0.2296
vt -0.3034 -0.2230
vt -0.1053 -0.2262
vt -0.1054 -0.2329
vt -0.1054 -0.2329
vt -0.1053 -0.2262
vt 0.0934 -0.2230
vt 0.0992 -0.2296
vt 0.0992 -0.2296
vt 0.0934 -0.2230
vt 0.1166 -0.2125
vt 0.1231 -0.2188
vt 0.1231 -0.2188
vt 0.1166 -0.2125
vt 0.1275 -0.1903
vt 0.1344 -0.1959
vt 0.1344 -0.1959
vt 0.1275 -0.1903
vt 0.1308 0.0000
vt 0.1378 0.0000
vt 0.1308 0.0000
vt 0.1177 0.0000
vt 0.1145 0.1797
vt 0.1275 0.1903
vt 0.1275 0.1903
vt 0.1145 0.1797
vt 0.1042 0.2006
vt 0.1166 0.2125
vt 0.1166 0.2125
vt 0.1042 0.2006
vt 0.0823 0.2105
vt 0.0934 0.2230
vt 0.0934 0.2230
vt 0.0823 0.2105
vt -0.1047 0.2136
vt -0.1047 0.2262
vt -0.1047 0.2262
vt -0.1047 0.2136
vt -0.2923 0.2105
vt -0.3034 0.2230
vt -0.3034 0.2230
vt -0.2923 0.2105
vt -0.3142 0.2006
vt -0.3266 0.2125
vt -0.3266 0.2125
vt -0.3142 0.2006
vt -0.3245 0.1797
vt -0.3375 0.1903
vt -0.3375 0.1903
vt -0.3245 0.1797
vt -0.3277 0.0003
vt -0.3408 0.0003
vt -0.3408 0.0003
vt -0.3277 0.0003
vt -0.3245 -0.1797
vt -0.3375 -0.1903
vt -0.3375 -0.1903
vt -0.3245 -0.1797
vt -0.3142 -0.2006
vt -0.3266 -0.2125
vt -0.3266 -0.2125
vt -0.3142 -0.2006
vt -0.2923 -0.2105
vt -0.3034 -0.2230
vt -0.3034 -0.2230
vt -0.2923 -0.2105
vt -0.1053 -0.2136
vt -0.1053 -0.2262
vt -0.1053 -0.2262
vt -0.1053 -0.2136
vt 0.0823 -0.2105
vt 0.0934 -0.2230
vt 0.0934 -0.2230
vt 0.0823 -0.2105
vt 0.1042 -0.2006
vt 0.1166 -0.2125
vt 0.1166 -0.2125
vt 0.1042 -0.2006
vt 0.1145 -0.1797
vt 0.1275 -0.1903
vt 0.1275 -0.1903
vt 0.1145 -0.1797
vt 0.1177 0.0000
vt 0.1308 0.0000
vt 0.1177 0.0000
vt 0.0933 0.0000
vt 0.0905 0.1600
vt 0.1145 0.1797
vt 0.1145 0.1797
vt 0.0905 0.1600
vt 0.0813 0.1787
vt 0.1042 0.2006
vt 0.1042 0.2006
vt 0.0813 0.1787
vt 0.0618 0.1875
vt 0.0823 0.2105
vt 0.0823 0.2105
vt 0.0618 0.1875
vt -0.1048 0.1902
vt -0.1047 0.2136
vt -0.1047 0.2136
vt -0.1048 0.1902
vt -0.2718 0.1875
vt -0.2923 0.2105
vt -0.2923 0.2105
vt -0.2718 0.1875
vt -0.2913 0.1787
vt -0.3142 0.2006
vt -0.3142 0.2006
vt -0.2913 0.1787
vt -0.3005 0.1600
vt -0.3245 0.1797
vt -0.3245 0.1797
vt -0.3005 0.1600
vt -0.3033 0.0003
vt -0.3277 0.0003
vt -0.3277 0.0003
vt -0.3033 0.0003
vt -0.3005 -0.1600
vt -0.3245 -0.1797
vt -0.3245 -0.1797
vt -0.3005 -0.1600
vt -0.2913 -0.1787
vt -0.3142 -0.2006
vt -0.3142 -0.2006
vt -0.2913 -0.1787
vt -0.2718 -0.1875
vt -0.2923 -0.2105
vt -0.2923 -0.2105
vt -0.2718 -0.1875
vt -0.1053 -0.1902
vt -0.1053 -0.2136
vt -0.1053 -0.2136
vt -0.1053 -0.1902
vt 0.0618 -0.1875
vt 0.0823 -0.2105
vt 0.0823 -0.2105
vt 0.0618 -0.1875
vt 0.0813 -0.1787
vt 0.1042 -0.2006
vt 0.1042 -0.2006
vt 0.0813 -0.1787
vt 0.0905 -0.1600
vt 0.1145 -0.1797
vt 0.1145 -0.1797
vt 0.0905 -0.1600
vt 0.0933 0.0000
vt 0.1177 0.0000
vt 0.0933 0.0000
vt -0.1047 0.0000
vt -0.1047 0.0002
vt 0.0905 0.1600
vt 0.0905 0.1600
vt -0.1047 0.0002
vt -0.1047 0.0003
vt 0.0813 0.1787
vt 0.0813 0.1787
vt -0.1047 0.0003
vt -0.1048 0.0003
vt 0.0618 0.1875
vt 0.0618 0.1875
vt -0.1048 0.0003
vt -0.1050 0.0003
vt -0.1048 0.1902
vt -0.1048 0.1902
vt -0.1050 0.0003
vt -0.1052 0.0003
vt -0.2718 0.1875
vt -0.2718 0.1875
vt -0.1052 0.0003
vt -0.1053 0.0003
vt -0.2913 0.1787
vt -0.2913 0.1787
vt -0.1053 0.0003
vt -0.1053 0.0002
vt -0.3005 0.1600
vt -0.3005 0.1600
vt -0.1053 0.0002
vt -0.1053 0.0000
vt -0.3033 0.0003
vt -0.3033 0.0003
vt -0.1053 0.0000
vt -0.1053 -0.0002
vt -0.3005 -0.1600
vt -0.3005 -0.1600
vt -0.1053 -0.0002
vt -0.1053 -0.0003
vt -0.2913 -0.1787
vt -0.2913 -0.1787
vt -0.1053 -0.0003
vt -0.1052 -0.0003
vt -0.2718 -0.1875
vt -0.2718 -0.1875
vt -0.1052 -0.0003
vt -0.1050 -0.0003
vt -0.1053 -0.1902
vt -0.1053 -0.1902
vt -0.1050 -0.0003
vt -0.1048 -0.0003
vt 0.0618 -0.1875
vt 0.0618 -0.1875
vt -0.1048 -0.0003
vt -0.1047 -0.0003
vt 0.0813 -0.1787
vt 0.0813 -0.1787
vt -0.1047 -0.0003
vt -0.1047 -0.0002
vt 0.0905 -0.1600
vt 0.0905 -0.1600
vt -0.1047 -0.0002
vt -0.1047 0.0000
vt 0.0933 0.0000
f 1/1 17/2 18/3 2/4
f 2/5 18/6 19/7 3/8
f 3/9 19/10 20/11 4/12
f 4/13 20/14 21/15 5/16
f 5/17 21/18 22/19 6/20
f 6/21 22/22 23/23 7/24
f 7/25 23/26 24/27 8/28
f 8/29 24/30 25/31 9/32
f 9/33 25/34 26/35 10/36
f 10/37 26/38 27/39 11/40
f 11/41 27/42 28/43 12/44
f 12/45 28/46 29/47 13/48
f 13/49 29/50 30/51 14/52
f 14/53 30/54 31/55 15/56
f 15/57 31/58 32/59 16/60
f 16/61 32/62 17/63 1/64
f 17/65 33/66 34/67 18/68
f 18/69 34/70 35/71 19/72
f 19/73 35/74 36/75 20/76
f 20/77 36/78 37/79 21/80
f 21/81 37/82 38/83 22/84
f 22/85 38/86 39/87 23/88
f 23/89 39/90 40/91 24/92
f 24/93 40/94 41/95 25/96
f 25/97 41/98 42/99 26/100
f 26/101 42/102 43/103 27/104
f 27/105 43/106 44/107 28/108
f 28/109 44/110 45/111 29/112
f 29/113 45/114 46/115 30/116
f 30/117 46/118 47/119 31/120
f 31/121 47/122 48/123 32/124
f 32/125 48/126 33/127 17/128
f 33/129 49/130 50/131 34/132
f 34/133 50/134 51/135 35/136
f 35/137 51/138 52/139 36/140
f 36/141 52/142 53/143 37/144
f 37/145 53/146 54/147 38/148
f 38/149 54/150 55/151 39/152
f 39/153 55/154 56/155 40/156
f 40/157 56/158 57/159 41/160
f 41/161 57/162 58/163 42/164
f 42/165 58/166 59/167 43/168
f 43/169 59/170 60/171 44/172
f 44/173 60/174 61/175 45/176
f 45/177 61/178 62/179 46/180
f 46/181 62/182 63/183 47/184
f 47/185 63/186 64/187 48/188
f 48/189 64/190 49/191 33/192
f 49/193 65/194 66/195 50/196
f 50/197 66/198 67/199 51/200
f 51/201 67/202 68/203 52/204
f 52/205 68/206 69/207 53/208
f 53/209 69/210 70/211 54/212
f 54/213 70/214 71/215 55/216
f 55/217 71/218 72/219 56/220
f 56/221 72/222 73/223 57/224
f 57/225 73/226 74/227 58/228
f 58/229 74/230 75/231 59/232
f 59/233 75/234 76/235 60/236
f 60/237 76/238 77/239 61/240
f 61/241 77/242 78/243 62/244
f 62/245 78/246 79/247 63/248
f 63/249 79/250 80/251 64/252
f 64/253 80/254 65/255 49/256
f 65/257 81/258 82/259 66/260
f 66/261 82/262 83/263 67/264
f 67/265 83/266 84/267 68/268
f 68/269 84/270 85/271 69/272
f 69/273 85/274 86/275 70/276
f 70/277 86/278 87/279 71/280
f 71/281 87/282 88/283 72/284
f 72/285 88/286 89/287 73/288
f 73/289 89/290 90/291 74/292
f 74/293 90/294 91/295 75/296
f 75/297 91/298 92/299 76/300
f 76/301 92/302 93/303 77/304
f 77/305 93/306 94/307 78/308
f 78/309 94/310 95/311 79/312
f 79/313 95/314 96/315 80/316
f 80/317 96/318 81/319 65/320
f 81/321 97/322 98/323 82/324
f 82/325 98/326 99/327 83/328
f 83/329 99/330 100/331 84/332
f 84/333 100/334 101/335 85/336
f 85/337 101/338 102/339 86/340
f 86/341 102/342 103/343 87/344
f 87/345 103/346 104/347 88/348
f 88/349 104/350 105/351 89/352
f 89/353 105/354 106/355 90/356
f 90/357 106/358 107/359 91/360
f 91/361 107/362 108/363 92/364
f 92/365 108/366 109/367 93/368
f 93/369 109/370 110/371 94/372
f 94/373 110/374 111/375 95/376
f 95/377 111/378 112/379 96/380
f 96/381 112/382 97/383 81/384
f 97/385 113/386 114/387 98/388
f 98/389 114/390 115/391 99/392
f 99/393 115/394 116/395 100/396
f 100/397 116/398 117/399 101/400
f 101/401 117/402 118/403 102/404
f 102/405 118/406 119/407 103/408
f 103/409 119/410 120/411 104/412
f 104/413 120/414 121/415 105/416
f 105/417 121/418 122/419 106/420
f 106/421 122/422 123/423 107/424
f 107/425 123/426 124/427 108/428
f 108/429 124/430 125/431 109/432
f 109/433 125/434 126/435 110/436
f 110/437 126/438 127/439 111/440
f 111/441 127/442 128/443 112/444
f 112/445 128/446 113/447 97/448
f 113/449 129/450 130/451 114/452
f 114/453 130/454 131/455 115/456
f 115/457 131/458 132/459 116/460
f 116/461 132/462 133/463 117/464
f 117/465 133/466 134/467 118/468
f 118/469 134/470 135/471 119/472
f 119/473 135/474 136/475 120/476
f 120/477 136/478 137/479 121/480
f 121/481 137/482 138/483 122/484
f 122/485 138/486 139/487 123/488
f 123/489 139/490 140/491 124/492
f 124/493 140/494 141/495 125/496
f 125/497 141/498 142/499 126/500
f 126/501 142/502 143/503 127/504
f 127/505 143/506 144/507 128/508
f 128/509 144/510 129/511 113/512
f 129/513 145/514 146/515 130/516
f 130/517 146/518 147/519 131/520
f 131/521 147/522 148/523 132/524
f 132/525 148/526 149/527 133/528
f 133/529 149/530 150/531 134/532
f 134/533 150/534 151/535 135/536
f 135/537 151/538 152/539 136/540
f 136/541 152/542 153/543 137/544
f 137/545 153/546 154/547 138/548
f 138/549 154/550 155/551 139/552
f 139/553 155/554 156/555 140/556
f 140/557 156/558 157/559 141/560
f 141/561 157/562 158/563 142/564
f 142/565 158/566 159/567 143/568
f 143/569 159/570 160/571 144/572
f 144/573 160/574 145/575 129/576
f 145/577 161/578 162/579 146/580
f 146/581 162/582 163/583 147/584
f 147/585 163/586 164/587 148/588
f 148/589 164/590 165/591 149/592
f 149/593 165/594 166/595 150/596
f 150/597 166/598 167/599 151/600
f 151/601 167/602 168/603 152/604
f 152/605 168/606 169/607 153/608
f 153/609 169/610 170/611 154/612
f 154/613 170/614 171/615 155/616
f 155/617 171/618 172/619 156/620
f 156/621 172/622 173/623 157/624
f 157/625 173/626 174/627 158/628
f 158/629 174/630 175/631 159/632
f 159/633 175/634 176/635 160/636
f 160/637 176/638 161/639 145/640
o Seat_Back
v 0.1950 0.3700 0.0000
v 0.1950 0.3700 0.0001
v 0.1950 0.3700 0.0001
v 0.1950 0.3700 0.0001
v 0.1950 0.3700 0.0001
v 0.1950 0.3700 0.0001
v 0.1950 0.3700 0.0001
v 0.1950 0.3700 0.0001
v 0.1950 0.3700 0.0001
v 0.1950 0.3700 0.0001
v 0.1950 0.3700 0.0000
v 0.1950 0.3700 -0.0001
v 0.1950 0.3700 -0.0001
v 0.1950 0.3700 -0.0001
v 0.1950 0.3700 -0.0001
v 0.1950 0.3700 -0.0001
v 0.1950 0.3700 -0.0001
v 0.1950 0.3700 -0.0001
v 0.1950 0.3700 -0.0001
v 0.1950 0.3700 -0.0001
v 0.2349 0.3712 0.0000
v 0.2345 0.3712 0.1283
v 0.2332 0.3712 0.1459
v 0.2309 0.3712 0.1555
v 0.2266 0.3712 0.1606
v 0.1952 0.3712 0.1622
v 0.1638 0.3712 0.1606
v 0.1595 0.3712 0.1555
v 0.1572 0.3712 0.1459
v 0.1559 0.3712 0.1283
v 0.1555 0.3712 0.0001
v 0.1559 0.3712 -0.1283
v 0.1572 0.3712 -0.1459
v 0.1595 0.3712 -0.1555
v 0.1638 0.3712 -0.1606
v 0.1952 0.3712 -0.1622
v 0.2266 0.3712 -0.1606
v 0.2309 0.3712 -0.1555
v 0.2332 0.3712 -0.1459
v 0.2345 0.3712 -0.1283
v 0.2412 0.3749 0.0000
v 0.2407 0.3749 0.1467
v 0.2393 0.3749 0.1668
v 0.2366 0.3749 0.1778
v 0.2317 0.3749 0.1836
v 0.1958 0.3749 0.1855
v 0.1599 0.3749 0.1836
v 0.1550 0.3749 0.1778
v 0.1523 0.3749 0.1668
v 0.1509 0.3749 0.1467
v 0.1504 0.3749 0.0001
v 0.1509 0.3749 -0.1467
v 0.1523 0.3749 -0.1668
v 0.1550 0.3749 -0.1778
v 0.1599 0.3749 -0.1836
v 0.1958 0.3749 -0.1855
v 0.2317 0.3749 -0.1836
v 0.2366 0.3749 -0.1778
v 0.2393 0.3749 -0.1668
v 0.2407 0.3749 -0.1467
v 0.2457 0.3814 0.0000
v 0.2452 0.3814 0.1578
v 0.2437 0.3814 0.1795
v 0.2408 0.3814 0.1913
v 0.2355 0.3814 0.1976
v 0.1968 0.3814 0.1996
v 0.1581 0.3814 0.1976
v 0.1528 0.3814 0.1913
v 0.1499 0.3814 0.1795
v 0.1484 0.3814 0.1578
v 0.1479 0.3814 0.0001
v 0.1484 0.3814 -0.1578
v 0.1499 0.3814 -0.1795
v 0.1528 0.3814 -0.1913
v 0.1581 0.3814 -0.1976
v 0.1968 0.3814 -0.1996
v 0.2355 0.3814 -0.1976
v 0.2408 0.3814 -0.1913
v 0.2437 0.3814 -0.1795
v 0.2452 0.3814 -0.1578
v 0.2497 0.3911 0.0000
v 0.2492 0.3911 0.1653
v 0.2475 0.3911 0.1880
v 0.2445 0.3911 0.2004
v 0.2389 0.3911 0.2070
v 0.1984 0.3911 0.2091
v 0.1578 0.3911 0.2070
v 0.1522 0.3911 0.2004
v 0.1492 0.3911 0.1880
v 0.1475 0.3911 0.1653
v 0.1470 0.3911 0.0001
v 0.1475 0.3911 -0.1653
v 0.1492 0.3911 -0.1880
v 0.1522 0.3911 -0.2004
v 0.1578 0.3911 -0.2070
v 0.1983 0.3911 -0.2091
v 0.2389 0.3911 -0.2070
v 0.2445 0.3911 -0.2004
v 0.2475 0.3911 -0.1880
v 0.2492 0.3911 -0.1653
v 0.2536 0.4049 0.0000
v 0.2530 0.4049 0.1703
v 0.2514 0.4049 0.1937
v 0.2482 0.4049 0.2065
v 0.2425 0.4049 0.2133
v 0.2006 0.4049 0.2154
v 0.1586 0.4049 0.2133
v 0.1529 0.4049 0.2065
v 0.1497 0.4049 0.1937
v 0.1481 0.4049 0.1703
v 0.1475 0.4049 0.0001
v 0.1481 0.4049 -0.1703
v 0.1497 0.4049 -0.1937
v 0.1529 0.4049 -0.2065
v 0.1586 0.4049 -0.2133
v 0.2005 0.4049 -0.2154
v 0.2425 0.4049 -0.2133
v 0.2482 0.4049 -0.2065
v 0.2514 0.4049 -0.1937
v 0.2530 0.4049 -0.1703
v 0.2579 0.4251 0.0000
v 0.2573 0.4251 0.1733
v 0.2556 0.4251 0.1970
v 0.2524 0.4251 0.2100
v 0.2465 0.4251 0.2170
v 0.2038 0.4251 0.2191
v 0.1609 0.4251 0.2170
v 0.1551 0.4251 0.2100
v 0.1518 0.4251 0.1970
v 0.1501 0.4251 0.1733
v 0.1496 0.4251 0.0001
v 0.1501 0.4251 -0.1733
v 0.1518 0.4251 -0.1970
v 0.1551 0.4251 -0.2100
v 0.1609 0.4251 -0.2170
v 0.2037 0.4251 -0.2191
v 0.2465 0.4251 -0.2170
v 0.2524 0.4251 -0.2100
v 0.2556 0.4251 -0.1970
v 0.2573 0.4251 -0.1733
v 0.2637 0.4578 0.0000
v 0.2632 0.4578 0.1742
v 0.2615 0.4578 0.1982
v 0.2582 0.4578 0.2112
v 0.2523 0.4578 0.2182
v 0.2090 0.4578 0.2204
v 0.1656 0.4578 0.2182
v 0.1597 0.4578 0.2112
v 0.1564 0.4578 0.1982
v 0.1547 0.4578 0.1742
v 0.1542 0.4578 0.0001
v 0.1547 0.4578 -0.1742
v 0.1564 0.4578 -0.1982
v 0.1597 0.4578 -0.2112
v 0.1656 0.4578 -0.2182
v 0.2089 0.4578 -0.2204
v 0.2523 0.4578 -0.2182
v 0.2582 0.4578 -0.2112
v 0.2615 0.4578 -0.1982
v 0.2632 0.4578 -0.1742
v 0.3000 0.6850 0.0000
v 0.2995 0.6850 0.1672
v 0.2977 0.6850 0.1902
v 0.2945 0.6850 0.2027
v 0.2885 0.6850 0.2094
v 0.2450 0.6850 0.2115
v 0.2015 0.6850 0.2094
v 0.1955 0.6850 0.2027
v 0.1923 0.6850 0.1902
v 0.1905 0.6850 0.1672
v 0.1900 0.6850 0.0001
v 0.1905 0.6850 -0.1672
v 0.1923 0.6850 -0.1902
v 0.1955 0.6850 -0.2027
v 0.2015 0.6850 -0.2094
v 0.2450 0.6850 -0.2115
v 0.2885 0.6850 -0.2094
v 0.2945 0.6850 -0.2027
v 0.2977 0.6850 -0.1902
v 0.2995 0.6850 -0.1672
v 0.3358 0.9122 0.0000
v 0.3353 0.9122 0.1589
v 0.3336 0.9122 0.1807
v 0.3303 0.9122 0.1926
v 0.3244 0.9122 0.1990
v 0.2811 0.9122 0.2010
v 0.2377 0.9122 0.1990
v 0.2318 0.9122 0.1926
v 0.2285 0.9122 0.1807
v 0.2268 0.9122 0.1589
v 0.2263 0.9122 0.0001
v 0.2268 0.9122 -0.1589
v 0.2285 0.9122 -0.1807
v 0.2318 0.9122 -0.1926
v 0.2377 0.9122 -0.1990
v 0.2810 0.9122 -0.2010
v 0.3244 0.9122 -0.1990
v 0.3303 0.9122 -0.1926
v 0.3336 0.9122 -0.1807
v 0.3353 0.9122 -0.1589
v 0.3404 0.9449 0.0000
v 0.3399 0.9449 0.1559
v 0.3382 0.9449 0.1773
v 0.3349 0.9449 0.1890
v 0.3291 0.9449 0.1952
v 0.2863 0.9449 0.1972
v 0.2435 0.9449 0.1952
v 0.2376 0.9449 0.1890
v 0.2344 0.9449 0.1773
v 0.2327 0.9449 0.1559
v 0.2321 0.9449 0.0001
v 0.2327 0.9449 -0.1559
v 0.2344 0.9449 -0.1773
v 0.2376 0.9449 -0.1890
v 0.2435 0.9449 -0.1952
v 0.2862 0.9449 -0.1972
v 0.3291 0.9449 -0.1952
v 0.3349 0.9449 -0.1890
v 0.3382 0.9449 -0.1773
v 0.3399 0.9449 -0.1559
v 0.3425 0.9651 0.0000
v 0.3419 0.9651 0.1520
v 0.3403 0.9651 0.1729
v 0.3371 0.9651 0.1843
v 0.3314 0.9651 0.1903
v 0.2895 0.9651 0.1923
v 0.2475 0.9651 0.1903
v 0.2418 0.9651 0.1843
v 0.2386 0.9651 0.1729
v 0.2370 0.9651 0.1520
v 0.2364 0.9651 0.0001
v 0.2370 0.9651 -0.1520
v 0.2386 0.9651 -0.1729
v 0.2418 0.9651 -0.1843
v 0.2475 0.9651 -0.1903
v 0.2894 0.9651 -0.1923
v 0.3314 0.9651 -0.1903
v 0.3371 0.9651 -0.1843
v 0.3403 0.9651 -0.1729
v 0.3419 0.9651 -0.1520
v 0.3430 0.9789 0.0000
v 0.3425 0.9789 0.1467
v 0.3408 0.9789 0.1669
v 0.3378 0.9789 0.1779
v 0.3322 0.9789 0.1837
v 0.2917 0.9789 0.1856
v 0.2511 0.9789 0.1837
v 0.2455 0.9789 0.1779
v 0.2425 0.9789 0.1669
v 0.2408 0.9789 0.1467
v 0.2403 0.9789 0.0001
v 0.2408 0.9789 -0.1467
v 0.2425 0.9789 -0.1669
v 0.2455 0.9789 -0.1779
v 0.2511 0.9789 -0.1837
v 0.2916 0.9789 -0.1856
v 0.3322 0.9789 -0.1837
v 0.3378 0.9789 -0.1779
v 0.3408 0.9789 -0.1669
v 0.3425 0.9789 -0.1467
v 0.3421 0.9886 0.0000
v 0.3416 0.9886 0.1395
v 0.3401 0.9886 0.1587
v 0.3372 0.9886 0.1692
v 0.3319 0.9886 0.1747
v 0.2932 0.9886 0.1765
v 0.2545 0.9886 0.1747
v 0.2492 0.9886 0.1692
v 0.2463 0.9886 0.1587
v 0.2448 0.9886 0.1395
v 0.2443 0.9886 0.0001
v 0.2448 0.9886 -0.1395
v 0.2463 0.9886 -0.1587
v 0.2492 0.9886 -0.1692
v 0.2545 0.9886 -0.1747
v 0.2932 0.9886 -0.1765
v 0.3319 0.9886 -0.1747
v 0.3372 0.9886 -0.1692
v 0.3401 0.9886 -0.1587
v 0.3416 0.9886 -0.1395
v 0.3396 0.9951 0.0000
v 0.3391 0.9951 0.1293
v 0.3377 0.9951 0.1471
v 0.3350 0.9951 0.1568
v 0.3301 0.9951 0.1619
v 0.2942 0.9951 0.1636
v 0.2583 0.9951 0.1619
v 0.2534 0.9951 0.1568
v 0.2507 0.9951 0.1471
v 0.2493 0.9951 0.1293
v 0.2488 0.9951 0.0001
v 0.2493 0.9951 -0.1293
v 0.2507 0.9951 -0.1471
v 0.2534 0.9951 -0.1568
v 0.2583 0.9951 -0.1619
v 0.2942 0.9951 -0.1636
v 0.3301 0.9951 -0.1619
v 0.3350 0.9951 -0.1568
v 0.3377 0.9951 -0.1471
v 0.3391 0.9951 -0.1293
v 0.3345 0.9988 0.0000
v 0.3341 0.9988 0.1129
v 0.3328 0.9988 0.1284
v 0.3305 0.9988 0.1369
v 0.3262 0.9988 0.1414
v 0.2948 0.9988 0.1428
v 0.2634 0.9988 0.1414
v 0.2591 0.9988 0.1369
v 0.2568 0.9988 0.1284
v 0.2555 0.9988 0.1129
v 0.2551 0.9988 0.0001
v 0.2555 0.9988 -0.1129
v 0.2568 0.9988 -0.1284
v 0.2591 0.9988 -0.1369
v 0.2634 0.9988 -0.1414
v 0.2948 0.9988 -0.1428
v 0.3262 0.9988 -0.1414
v 0.3305 0.9988 -0.1369
v 0.3328 0.9988 -0.1284
v 0.3341 0.9988 -0.1129
v 0.2950 1.0000 0.0000
v 0.2950 1.0000 0.0001
v 0.2950 1.0000 0.0001
v 0.2950 1.0000 0.0001
v 0.2950 1.0000 0.0001
v 0.2950 1.0000 0.0001
v 0.2950 1.0000 0.0001
v 0.2950 1.0000 0.0001
v 0.2950 1.0000 0.0001
v 0.2950 1.0000 0.0001
v 0.2950 1.0000 0.0000
v 0.2950 1.0000 -0.0001
v 0.2950 1.0000 -0.0001
v 0.2950 1.0000 -0.0001
v 0.2950 1.0000 -0.0001
v 0.2950 1.0000 -0.0001
v 0.2950 1.0000 -0.0001
v 0.2950 1.0000 -0.0001
v 0.2950 1.0000 -0.0001
v 0.2950 1.0000 -0.0001
vt 0.1950 0.0000
vt 0.2349 0.0000
vt 0.2345 0.1283
vt 0.1950 0.0001
vt 0.1950 0.0001
vt 0.2345 0.1283
vt 0.2332 0.1459
vt 0.1950 0.0001
vt 0.1950 0.0001
vt 0.2332 0.1459
vt 0.2309 0.1555
vt 0.1950 0.0001
vt 0.1950 0.0001
vt 0.2309 0.1555
vt 0.2266 0.1606
vt 0.1950 0.0001
vt 0.1950 0.0001
vt 0.2266 0.1606
vt 0.1952 0.1622
vt 0.1950 0.0001
vt 0.1950 0.0001
vt 0.1952 0.1622
vt 0.1638 0.1606
vt 0.1950 0.0001
vt 0.1950 0.0001
vt 0.1638 0.1606
vt 0.1595 0.1555
vt 0.1950 0.0001
vt 0.1950 0.0001
vt 0.1595 0.1555
vt 0.1572 0.1459
vt 0.1950 0.0001
vt 0.1950 0.0001
vt 0.1572 0.1459
vt 0.1559 0.1283
vt 0.1950 0.0001
vt 0.1950 0.0001
vt 0.1559 0.1283
vt 0.1555 0.0001
vt 0.1950 0.0000
vt 0.1950 0.0000
vt 0.1555 0.0001
vt 0.1559 -0.1283
vt 0.1950 -0.0001
vt 0.1950 -0.0001
vt 0.1559 -0.1283
vt 0.1572 -0.1459
vt 0.1950 -0.0001
vt 0.1950 -0.0001
vt 0.1572 -0.1459
vt 0.1595 -0.1555
vt 0.1950 -0.0001
vt 0.1950 -0.0001
vt 0.1595 -0.1555
vt 0.1638 -0.1606
vt 0.1950 -0.0001
vt 0.1950 -0.0001
vt 0.1638 -0.1606
vt 0.1952 -0.1622
vt 0.1950 -0.0001
vt 0.1950 -0.0001
vt 0.1952 -0.1622
vt 0.2266 -0.1606
vt 0.1950 -0.0001
vt 0.1950 -0.0001
vt 0.2266 -0.1606
vt 0.2309 -0.1555
vt 0.1950 -0.0001
vt 0.1950 -0.0001
vt 0.2309 -0.1555
vt 0.2332 -0.1459
vt 0.1950 -0.0001
vt 0.1950 -0.0001
vt 0.2332 -0.1459
vt 0.2345 -0.1283
vt 0.1950 -0.0001
vt 0.1950 -0.0001
vt 0.2345 -0.1283
vt 0.2349 0.0000
vt 0.1950 0.0000
vt 0.2349 0.0000
vt 0.2412 0.0000
vt 0.2407 0.1467
vt 0.2345 0.1283
vt 0.2345 0.1283
vt 0.2407 0.1467
vt 0.2393 0.1668
vt 0.2332 0.1459
vt 0.2332 0.1459
vt 0.2393 0.1668
vt 0.2366 0.1778
vt 0.2309 0.1555
vt 0.2309 0.1555
vt 0.2366 0.1778
vt 0.2317 0.1836
vt 0.2266 0.1606
vt 0.2266 0.1606
vt 0.2317 0.1836
vt 0.1958 0.1855
vt 0.1952 0.1622
vt 0.1952 0.1622
vt 0.1958 0.1855
vt 0.1599 0.1836
vt 0.1638 0.1606
vt 0.1638 0.1606
vt 0.1599 0.1836
vt 0.1550 0.1778
vt 0.1595 0.1555
vt 0.1595 0.1555
vt 0.1550 0.1778
vt 0.1523 0.1668
vt 0.1572 0.1459
vt 0.1572 0.1459
vt 0.1523 0.1668
vt 0.1509 0.1467
vt 0.1559 0.1283
vt 0.1559 0.1283
vt 0.1509 0.1467
vt 0.1504 0.0001
vt 0.1555 0.0001
vt 0.1555 0.0001
vt 0.1504 0.0001
vt 0.1509 -0.1467
vt 0.1559 -0.1283
vt 0.1559 -0.1283
vt 0.1509 -0.1467
vt 0.1523 -0.1668
vt 0.1572 -0.1459
vt 0.1572 -0.1459
vt 0.1523 -0.1668
vt 0.1550 -0.1778
vt 0.1595 -0.1555
vt 0.1595 -0.1555
vt 0.1550 -0.1778
vt 0.1599 -0.1836
vt 0.1638 -0.1606
vt 0.1638 -0.1606
vt 0.1599 -0.1836
vt 0.1958 -0.1855
vt 0.1952 -0.1622
vt 0.1952 -0.1622
vt 0.1958 -0.1855
vt 0.2317 -0.1836
vt 0.2266 -0.1606
vt 0.2266 -0.1606
vt 0.2317 -0.1836
vt 0.2366 -0.1778
vt 0.2309 -0.1555
vt 0.2309 -0.1555
vt 0.2366 -0.1778
vt 0.2393 -0.1668
vt 0.2332 -0.1459
vt 0.2332 -0.1459
vt 0.2393 -0.1668
vt 0.2407 -0.1467
vt 0.2345 -0.1283
vt 0.2345 -0.1283
vt 0.2407 -0.1467
vt 0.2412 0.0000
vt 0.2349 0.0000
vt 0.0000 0.3749
vt 0.0000 0.3814
vt 0.1578 0.3814
vt 0.1467 0.3749
vt 0.1467 0.3749
vt 0.1578 0.3814
vt 0.1795 0.3814
vt 0.1668 0.3749
vt 0.2393 0.1668
vt 0.2437 0.1795
vt 0.2408 0.1913
vt 0.2366 0.1778
vt 0.2366 0.1778
vt 0.2408 0.1913
vt 0.2355 0.1976
vt 0.2317 0.1836
vt 0.2317 0.1836
vt 0.2355 0.1976
vt 0.1968 0.1996
vt 0.1958 0.1855
vt 0.1958 0.1855
vt 0.1968 0.1996
vt 0.1581 0.1976
vt 0.1599 0.1836
vt 0.1599 0.1836
vt 0.1581 0.1976
vt 0.1528 0.1913
vt 0.1550 0.1778
vt 0.1778 0.3749
vt 0.1913 0.3814
vt 0.1795 0.3814
vt 0.1668 0.3749
vt 0.1668 0.3749
vt 0.1795 0.3814
vt 0.1578 0.3814
vt 0.1467 0.3749
vt 0.1467 0.3749
vt 0.1578 0.3814
vt 0.0001 0.3814
vt 0.0001 0.3749
vt 0.0001 0.3749
vt 0.0001 0.3814
vt -0.1578 0.3814
vt -0.1467 0.3749
vt -0.1467 0.3749
vt -0.1578 0.3814
vt -0.1795 0.3814
vt -0.1668 0.3749
vt -0.1668 0.3749
vt -0.1795 0.3814
vt -0.1913 0.3814
vt -0.1778 0.3749
vt 0.1550 -0.1778
vt 0.1528 -0.1913
vt 0.1581 -0.1976
vt 0.1599 -0.1836
vt 0.1599 -0.1836
vt 0.1581 -0.1976
vt 0.1968 -0.1996
vt 0.1958 -0.1855
vt 0.1958 -0.1855
vt 0.1968 -0.1996
vt 0.2355 -0.1976
vt 0.2317 -0.1836
vt 0.2317 -0.1836
vt 0.2355 -0.1976
vt 0.2408 -0.1913
vt 0.2366 -0.1778
vt 0.2366 -0.1778
vt 0.2408 -0.1913
vt 0.2437 -0.1795
vt 0.2393 -0.1668
vt -0.1668 0.3749
vt -0.1795 0.3814
vt -0.1578 0.3814
vt -0.1467 0.3749
vt -0.1467 0.3749
vt -0.1578 0.3814
vt 0.0000 0.3814
vt 0.0000 0.3749
vt 0.0000 0.3814
vt 0.0000 0.3911
vt 0.1653 0.3911
vt 0.1578 0.3814
vt 0.1578 0.3814
vt 0.1653 0.3911
vt 0.1880 0.3911
vt 0.1795 0.3814
vt 0.1795 0.3814
vt 0.1880 0.3911
vt 0.2004 0.3911
vt 0.1913 0.3814
vt 0.2408 0.1913
vt 0.2445 0.2004
vt 0.2389 0.2070
vt 0.2355 0.1976
vt 0.2355 0.3814
vt 0.2389 0.3911
vt 0.1984 0.3911
vt 0.1968 0.3814
vt 0.1968 0.3814
vt 0.1984 0.3911
vt 0.1578 0.3911
vt 0.1581 0.3814
vt 0.1976 0.3814
vt 0.2070 0.3911
vt 0.2004 0.3911
vt 0.1913 0.3814
vt 0.1913 0.3814
vt 0.2004 0.3911
vt 0.1880 0.3911
vt 0.1795 0.3814
vt 0.1795 0.3814
vt 0.1880 0.3911
vt 0.1653 0.3911
vt 0.1578 0.3814
vt 0.1578 0.3814
vt 0.1653 0.3911
vt 0.0001 0.3911
vt 0.0001 0.3814
vt 0.0001 0.3814
vt 0.0001 0.3911
vt -0.1653 0.3911
vt -0.1578 0.3814
vt -0.1578 0.3814
vt -0.1653 0.3911
vt -0.1880 0.3911
vt -0.1795 0.3814
vt -0.1795 0.3814
vt -0.1880 0.3911
vt -0.2004 0.3911
vt -0.1913 0.3814
vt -0.1913 0.3814
vt -0.2004 0.3911
vt -0.2070 0.3911
vt -0.1976 0.3814
vt 0.1581 0.3814
vt 0.1578 0.3911
vt 0.1983 0.3911
vt 0.1968 0.3814
vt 0.1968 0.3814
vt 0.1983 0.3911
vt 0.2389 0.3911
vt 0.2355 0.3814
vt 0.2355 -0.1976
vt 0.2389 -0.2070
vt 0.2445 -0.2004
vt 0.2408 -0.1913
vt -0.1913 0.3814
vt -0.2004 0.3911
vt -0.1880 0.3911
vt -0.1795 0.3814
vt -0.1795 0.3814
vt -0.1880 0.3911
vt -0.1653 0.3911
vt -0.1578 0.3814
vt -0.1578 0.3814
vt -0.1653 0.3911
vt 0.0000 0.3911
vt 0.0000 0.3814
vt 0.0000 0.3911
vt 0.0000 0.4049
vt 0.1703 0.4049
vt 0.1653 0.3911
vt 0.1653 0.3911
vt 0.1703 0.4049
vt 0.1937 0.4049
vt 0.1880 0.3911
vt 0.1880 0.3911
vt 0.1937 0.4049
vt 0.2065 0.4049
vt 0.2004 0.3911
vt 0.2004 0.3911
vt 0.2065 0.4049
vt 0.2133 0.4049
vt 0.2070 0.3911
vt 0.2389 0.3911
vt 0.2425 0.4049
vt 0.2006 0.4049
vt 0.1984 0.3911
vt 0.1984 0.3911
vt 0.2006 0.4049
vt 0.1586 0.4049
vt 0.1578 0.3911
vt 0.2070 0.3911
vt 0.2133 0.4049
vt 0.2065 0.4049
vt 0.2004 0.3911
vt 0.2004 0.3911
vt 0.2065 0.4049
vt 0.1937 0.4049
vt 0.1880 0.3911
vt 0.1880 0.3911
vt 0.1937 0.4049
vt 0.1703 0.4049
vt 0.1653 0.3911
vt 0.1653 0.3911
vt 0.1703 0.4049
vt 0.0001 0.4049
vt 0.0001 0.3911
vt 0.0001 0.3911
vt 0.0001 0.4049
vt -0.1703 0.4049
vt -0.1653 0.3911
vt -0.1653 0.3911
vt -0.1703 0.4049
vt -0.1937 0.4049
vt -0.1880 0.3911
vt -0.1880 0.3911
vt -0.1937 0.4049
vt -0.2065 0.4049
vt -0.2004 0.3911
vt -0.2004 0.3911
vt -0.2065 0.4049
vt -0.2133 0.4049
vt -0.2070 0.3911
vt 0.1578 0.3911
vt 0.1586 0.4049
vt 0.2005 0.4049
vt 0.1983 0.3911
vt 0.1983 0.3911
vt 0.2005 0.4049
vt 0.2425 0.4049
vt 0.2389 0.3911
vt -0.2070 0.3911
vt -0.2133 0.4049
vt -0.2065 0.4049
vt -0.2004 0.3911
vt -0.2004 0.3911
vt -0.2065 0.4049
vt -0.1937 0.4049
vt -0.1880 0.3911
vt -0.1880 0.3911
vt -0.1937 0.4049
vt -0.1703 0.4049
vt -0.1653 0.3911
vt -0.1653 0.3911
vt -0.1703 0.4049
vt 0.0000 0.4049
vt 0.0000 0.3911
vt 0.0000 0.4049
vt 0.0000 0.4251
vt 0.1733 0.4251
vt 0.1703 0.4049
vt 0.1703 0.4049
vt 0.1733 0.4251
vt 0.1970 0.4251
vt 0.1937 0.4049
vt 0.1937 0.4049
vt 0.1970 0.4251
vt 0.2100 0.4251
vt 0.2065 0.4049
vt 0.2065 0.4049
vt 0.2100 0.4251
vt 0.2170 0.4251
vt 0.2133 0.4049
vt 0.2425 0.4049
vt 0.2465 0.4251
vt 0.2038 0.4251
vt 0.2006 0.4049
vt 0.2006 0.4049
vt 0.2038 0.4251
vt 0.1609 0.4251
vt 0.1586 0.4049
vt 0.2133 0.4049
vt 0.2170 0.4251
vt 0.2100 0.4251
vt 0.2065 0.4049
vt 0.2065 0.4049
vt 0.2100 0.4251
vt 0.1970 0.4251
vt 0.1937 0.4049
vt 0.1937 0.4049
vt 0.1970 0.4251
vt 0.1733 0.4251
vt 0.1703 0.4049
vt 0.1703 0.4049
vt 0.1733 0.4251
vt 0.0001 0.4251
vt 0.0001 0.4049
vt 0.0001 0.4049
vt 0.0001 0.4251
vt -0.1733 0.4251
vt -0.1703 0.4049
vt -0.1703 0.4049
vt -0.1733 0.4251
vt -0.1970 0.4251
vt -0.1937 0.4049
vt -0.1937 0.4049
vt -0.1970 0.4251
vt -0.2100 0.4251
vt -0.2065 0.4049
vt -0.2065 0.4049
vt -0.2100 0.4251
vt -0.2170 0.4251
vt -0.2133 0.4049
vt 0.1586 0.4049
vt 0.1609 0.4251
vt 0.2037 0.4251
vt 0.2005 0.4049
vt 0.2005 0.4049
vt 0.2037 0.4251
vt 0.2465 0.4251
vt 0.2425 0.4049
vt -0.2133 0.4049
vt -0.2170 0.4251
vt -0.2100 0.4251
vt -0.2065 0.4049
vt -0.2065 0.4049
vt -0.2100 0.4251
vt -0.1970 0.4251
vt -0.1937 0.4049
vt -0.1937 0.4049
vt -0.1970 0.4251
vt -0.1733 0.4251
vt -0.1703 0.4049
vt -0.1703 0.4049
vt -0.1733 0.4251
vt 0.0000 0.4251
vt 0.0000 0.4049
vt 0.0000 0.4251
vt 0.0000 0.4578
vt 0.1742 0.4578
vt 0.1733 0.4251
vt 0.1733 0.4251
vt 0.1742 0.4578
vt 0.1982 0.4578
vt 0.1970 0.4251
vt 0.1970 0.4251
vt 0.1982 0.4578
vt 0.2112 0.4578
vt 0.2100 0.4251
vt 0.2100 0.4251
vt 0.2112 0.4578
vt 0.2182 0.4578
vt 0.2170 0.4251
vt 0.2465 0.4251
vt 0.2523 0.4578
vt 0.2090 0.4578
vt 0.2038 0.4251
vt 0.2038 0.4251
vt 0.2090 0.4578
vt 0.1656 0.4578
vt 0.1609 0.4251
vt 0.2170 0.4251
vt 0.2182 0.4578
vt 0.2112 0.4578
vt 0.2100 0.4251
vt 0.2100 0.4251
vt 0.2112 0.4578
vt 0.1982 0.4578
vt 0.1970 0.4251
vt 0.1970 0.4251
vt 0.1982 0.4578
vt 0.1742 0.4578
vt 0.1733 0.4251
vt 0.1733 0.4251
vt 0.1742 0.4578
vt 0.0001 0.4578
vt 0.0001 0.4251
vt 0.0001 0.4251
vt 0.0001 0.4578
vt -0.1742 0.4578
vt -0.1733 0.4251
vt -0.1733 0.4251
vt -0.1742 0.4578
vt -0.1982 0.4578
vt -0.1970 0.4251
vt -0.1970 0.4251
vt -0.1982 0.4578
vt -0.2112 0.4578
vt -0.2100 0.4251
vt -0.2100 0.4251
vt -0.2112 0.4578
vt -0.2182 0.4578
vt -0.2170 0.4251
vt 0.1609 0.4251
vt 0.1656 0.4578
vt 0.2089 0.4578
vt 0.2037 0.4251
vt 0.2037 0.4251
vt 0.2089 0.4578
vt 0.2523 0.4578
vt 0.2465 0.4251
vt -0.2170 0.4251
vt -0.2182 0.4578
vt -0.2112 0.4578
vt -0.2100 0.4251
vt -0.2100 0.4251
vt -0.2112 0.4578
vt -0.1982 0.4578
vt -0.1970 0.4251
vt -0.1970 0.4251
vt -0.1982 0.4578
vt -0.1742 0.4578
vt -0.1733 0.4251
vt -0.1733 0.4251
vt -0.1742 0.4578
vt 0.0000 0.4578
vt 0.0000 0.4251
vt 0.0000 0.4578
vt 0.0000 0.6850
vt 0.1672 0.6850
vt 0.1742 0.4578
vt 0.1742 0.4578
vt 0.1672 0.6850
vt 0.1902 0.6850
vt 0.1982 0.4578
vt 0.1982 0.4578
vt 0.1902 0.6850
vt 0.2027 0.6850
vt 0.2112 0.4578
vt 0.2112 0.4578
vt 0.2027 0.6850
vt 0.2094 0.6850
vt 0.2182 0.4578
vt 0.2523 0.4578
vt 0.2885 0.6850
vt 0.2450 0.6850
vt 0.2090 0.4578
vt 0.2090 0.4578
vt 0.2450 0.6850
vt 0.2015 0.6850
vt 0.1656 0.4578
vt 0.2182 0.4578
vt 0.2094 0.6850
vt 0.2027 0.6850
vt 0.2112 0.4578
vt 0.2112 0.4578
vt 0.2027 0.6850
vt 0.1902 0.6850
vt 0.1982 0.4578
vt 0.1982 0.4578
vt 0.1902 0.6850
vt 0.1672 0.6850
vt 0.1742 0.4578
vt 0.1742 0.4578
vt 0.1672 0.6850
vt 0.0001 0.6850
vt 0.0001 0.4578
vt 0.0001 0.4578
vt 0.0001 0.6850
vt -0.1672 0.6850
vt -0.1742 0.4578
vt -0.1742 0.4578
vt -0.1672 0.6850
vt -0.1902 0.6850
vt -0.1982 0.4578
vt -0.1982 0.4578
vt -0.1902 0.6850
vt -0.2027 0.6850
vt -0.2112 0.4578
vt -0.2112 0.4578
vt -0.2027 0.6850
vt -0.2094 0.6850
vt -0.2182 0.4578
vt 0.1656 0.4578
vt 0.2015 0.6850
vt 0.2450 0.6850
vt 0.2089 0.4578
vt 0.2089 0.4578
vt 0.2450 0.6850
vt 0.2885 0.6850
vt 0.2523 0.4578
vt -0.2182 0.4578
vt -0.2094 0.6850
vt -0.2027 0.6850
vt -0.2112 0.4578
vt -0.2112 0.4578
vt -0.2027 0.6850
vt -0.1902 0.6850
vt -0.1982 0.4578
vt -0.1982 0.4578
vt -0.1902 0.6850
vt -0.1672 0.6850
vt -0.1742 0.4578
vt -0.1742 0.4578
vt -0.1672 0.6850
vt 0.0000 0.6850
vt 0.0000 0.4578
vt 0.0000 0.6850
vt 0.0000 0.9122
vt 0.1589 0.9122
vt 0.1672 0.6850
vt 0.1672 0.6850
vt 0.1589 0.9122
vt 0.1807 0.9122
vt 0.1902 0.6850
vt 0.1902 0.6850
vt 0.1807 0.9122
vt 0.1926 0.9122
vt 0.2027 0.6850
vt 0.2027 0.6850
vt 0.1926 0.9122
vt 0.1990 0.9122
vt 0.2094 0.6850
vt 0.2885 0.6850
vt 0.3244 0.9122
vt 0.2811 0.9122
vt 0.2450 0.6850
vt 0.2450 0.6850
vt 0.2811 0.9122
vt 0.2377 0.9122
vt 0.2015 0.6850
vt 0.2094 0.6850
vt 0.1990 0.9122
vt 0.1926 0.9122
vt 0.2027 0.6850
vt 0.2027 0.6850
vt 0.1926 0.9122
vt 0.1807 0.9122
vt 0.1902 0.6850
vt 0.1902 0.6850
vt 0.1807 0.9122
vt 0.1589 0.9122
vt 0.1672 0.6850
vt 0.1672 0.6850
vt 0.1589 0.9122
vt 0.0001 0.9122
vt 0.0001 0.6850
vt 0.0001 0.6850
vt 0.0001 0.9122
vt -0.1589 0.9122
vt -0.1672 0.6850
vt -0.1672 0.6850
vt -0.1589 0.9122
vt -0.1807 0.9122
vt -0.1902 0.6850
vt -0.1902 0.6850
vt -0.1807 0.9122
vt -0.1926 0.9122
vt -0.2027 0.6850
vt -0.2027 0.6850
vt -0.1926 0.9122
vt -0.1990 0.9122
vt -0.2094 0.6850
vt 0.2015 0.6850
vt 0.2377 0.9122
vt 0.2810 0.9122
vt 0.2450 0.6850
vt 0.2450 0.6850
vt 0.2810 0.9122
vt 0.3244 0.9122
vt 0.2885 0.6850
vt -0.2094 0.6850
vt -0.1990 0.9122
vt -0.1926 0.9122
vt -0.2027 0.6850
vt -0.2027 0.6850
vt -0.1926 0.9122
vt -0.1807 0.9122
vt -0.1902 0.6850
vt -0.1902 0.6850
vt -0.1807 0.9122
vt -0.1589 0.9122
vt -0.1672 0.6850
vt -0.1672 0.6850
vt -0.1589 0.9122
vt 0.0000 0.9122
vt 0.0000 0.6850
vt 0.0000 0.9122
vt 0.0000 0.9449
vt 0.1559 0.9449
vt 0.1589 0.9122
vt 0.1589 0.9122
vt 0.1559 0.9449
vt 0.1773 0.9449
vt 0.1807 0.9122
vt 0.1807 0.9122
vt 0.1773 0.9449
vt 0.1890 0.9449
vt 0.1926 0.9122
vt 0.1926 0.9122
vt 0.1890 0.9449
vt 0.1952 0.9449
vt 0.1990 0.9122
vt 0.3244 0.9122
vt 0.3291 0.9449
vt 0.2863 0.9449
vt 0.2811 0.9122
vt 0.2811 0.9122
vt 0.2863 0.9449
vt 0.2435 0.9449
vt 0.2377 0.9122
vt 0.1990 0.9122
vt 0.1952 0.9449
vt 0.1890 0.9449
vt 0.1926 0.9122
vt 0.1926 0.9122
vt 0.1890 0.9449
vt 0.1773 0.9449
vt 0.1807 0.9122
vt 0.1807 0.9122
vt 0.1773 0.9449
vt 0.1559 0.9449
vt 0.1589 0.9122
vt 0.1589 0.9122
vt 0.1559 0.9449
vt 0.0001 0.9449
vt 0.0001 0.9122
vt 0.0001 0.9122
vt 0.0001 0.9449
vt -0.1559 0.9449
vt -0.1589 0.9122
vt -0.1589 0.9122
vt -0.1559 0.9449
vt -0.1773 0.9449
vt -0.1807 0.9122
vt -0.1807 0.9122
vt -0.1773 0.9449
vt -0.1890 0.9449
vt -0.1926 0.9122
vt -0.1926 0.9122
vt -0.1890 0.9449
vt -0.1952 0.9449
vt -0.1990 0.9122
vt 0.2377 0.9122
vt 0.2435 0.9449
vt 0.2862 0.9449
vt 0.2810 0.9122
vt 0.2810 0.9122
vt 0.2862 0.9449
vt 0.3291 0.9449
vt 0.3244 0.9122
vt -0.1990 0.9122
vt -0.1952 0.9449
vt -0.1890 0.9449
vt -0.1926 0.9122
vt -0.1926 0.9122
vt -0.1890 0.9449
vt -0.1773 0.9449
vt -0.1807 0.9122
vt -0.1807 0.9122
vt -0.1773 0.9449
vt -0.1559 0.9449
vt -0.1589 0.9122
vt -0.1589 0.9122
vt -0.1559 0.9449
vt 0.0000 0.9449
vt 0.0000 0.9122
vt 0.0000 0.9449
vt 0.0000 0.9651
vt 0.1520 0.9651
vt 0.1559 0.9449
vt 0.1559 0.9449
vt 0.1520 0.9651
vt 0.1729 0.9651
vt 0.1773 0.9449
vt 0.1773 0.9449
vt 0.1729 0.9651
vt 0.1843 0.9651
vt 0.1890 0.9449
vt 0.1890 0.9449
vt 0.1843 0.9651
vt 0.1903 0.9651
vt 0.1952 0.9449
vt 0.3291 0.9449
vt 0.3314 0.9651
vt 0.2895 0.9651
vt 0.2863 0.9449
vt 0.2863 0.9449
vt 0.2895 0.9651
vt 0.2475 0.9651
vt 0.2435 0.9449
vt 0.1952 0.9449
vt 0.1903 0.9651
vt 0.1843 0.9651
vt 0.1890 0.9449
vt 0.1890 0.9449
vt 0.1843 0.9651
vt 0.1729 0.9651
vt 0.1773 0.9449
vt 0.1773 0.9449
vt 0.1729 0.9651
vt 0.1520 0.9651
vt 0.1559 0.9449
vt 0.1559 0.9449
vt 0.1520 0.9651
vt 0.0001 0.9651
vt 0.0001 0.9449
vt 0.0001 0.9449
vt 0.0001 0.9651
vt -0.1520 0.9651
vt -0.1559 0.9449
vt -0.1559 0.9449
vt -0.1520 0.9651
vt -0.1729 0.9651
vt -0.1773 0.9449
vt -0.1773 0.9449
vt -0.1729 0.9651
vt -0.1843 0.9651
vt -0.1890 0.9449
vt -0.1890 0.9449
vt -0.1843 0.9651
vt -0.1903 0.9651
vt -0.1952 0.9449
vt 0.2435 0.9449
vt 0.2475 0.9651
vt 0.2894 0.9651
vt 0.2862 0.9449
vt 0.2862 0.9449
vt 0.2894 0.9651
vt 0.3314 0.9651
vt 0.3291 0.9449
vt -0.1952 0.9449
vt -0.1903 0.9651
vt -0.1843 0.9651
vt -0.1890 0.9449
vt -0.1890 0.9449
vt -0.1843 0.9651
vt -0.1729 0.9651
vt -0.1773 0.9449
vt -0.1773 0.9449
vt -0.1729 0.9651
vt -0.1520 0.9651
vt -0.1559 0.9449
vt -0.1559 0.9449
vt -0.1520 0.9651
vt 0.0000 0.9651
vt 0.0000 0.9449
vt 0.0000 0.9651
vt 0.0000 0.9789
vt 0.1467 0.9789
vt 0.1520 0.9651
vt 0.1520 0.9651
vt 0.1467 0.9789
vt 0.1669 0.9789
vt 0.1729 0.9651
vt 0.1729 0.9651
vt 0.1669 0.9789
vt 0.1779 0.9789
vt 0.1843 0.9651
vt 0.1843 0.9651
vt 0.1779 0.9789
vt 0.1837 0.9789
vt 0.1903 0.9651
vt 0.3314 0.9651
vt 0.3322 0.9789
vt 0.2917 0.9789
vt 0.2895 0.9651
vt 0.2895 0.9651
vt 0.2917 0.9789
vt 0.2511 0.9789
vt 0.2475 0.9651
vt 0.1903 0.9651
vt 0.1837 0.9789
vt 0.1779 0.9789
vt 0.1843 0.9651
vt 0.1843 0.9651
vt 0.1779 0.9789
vt 0.1669 0.9789
vt 0.1729 0.9651
vt 0.1729 0.9651
vt 0.1669 0.9789
vt 0.1467 0.9789
vt 0.1520 0.9651
vt 0.1520 0.9651
vt 0.1467 0.9789
vt 0.0001 0.9789
vt 0.0001 0.9651
vt 0.0001 0.9651
vt 0.0001 0.9789
vt -0.1467 0.9789
vt -0.1520 0.9651
vt -0.1520 0.9651
vt -0.1467 0.9789
vt -0.1669 0.9789
vt -0.1729 0.9651
vt -0.1729 0.9651
vt -0.1669 0.9789
vt -0.1779 0.9789
vt -0.1843 0.9651
vt -0.1843 0.9651
vt -0.1779 0.9789
vt -0.1837 0.9789
vt -0.1903 0.9651
vt 0.2475 0.9651
vt 0.2511 0.9789
vt 0.2916 0.9789
vt 0.2894 0.9651
vt 0.2894 0.9651
vt 0.2916 0.9789
vt 0.3322 0.9789
vt 0.3314 0.9651
vt -0.1903 0.9651
vt -0.1837 0.9789
vt -0.1779 0.9789
vt -0.1843 0.9651
vt -0.1843 0.9651
vt -0.1779 0.9789
vt -0.1669 0.9789
vt -0.1729 0.9651
vt -0.1729 0.9651
vt -0.1669 0.9789
vt -0.1467 0.9789
vt -0.1520 0.9651
vt -0.1520 0.9651
vt -0.1467 0.9789
vt 0.0000 0.9789
vt 0.0000 0.9651
vt 0.0000 0.9789
vt 0.0000 0.9886
vt 0.1395 0.9886
vt 0.1467 0.9789
vt 0.1467 0.9789
vt 0.1395 0.9886
vt 0.1587 0.9886
vt 0.1669 0.9789
vt 0.1669 0.9789
vt 0.1587 0.9886
vt 0.1692 0.9886
vt 0.1779 0.9789
vt 0.1779 0.9789
vt 0.1692 0.9886
vt 0.1747 0.9886
vt 0.1837 0.9789
vt 0.3322 0.9789
vt 0.3319 0.9886
vt 0.2932 0.9886
vt 0.2917 0.9789
vt 0.2917 0.9789
vt 0.2932 0.9886
vt 0.2545 0.9886
vt 0.2511 0.9789
vt 0.2511 0.1837
vt 0.2545 0.1747
vt 0.2492 0.1692
vt 0.2455 0.1779
vt 0.1779 0.9789
vt 0.1692 0.9886
vt 0.1587 0.9886
vt 0.1669 0.9789
vt 0.1669 0.9789
vt 0.1587 0.9886
vt 0.1395 0.9886
vt 0.1467 0.9789
vt 0.1467 0.9789
vt 0.1395 0.9886
vt 0.0001 0.9886
vt 0.0001 0.9789
vt 0.0001 0.9789
vt 0.0001 0.9886
vt -0.1395 0.9886
vt -0.1467 0.9789
vt -0.1467 0.9789
vt -0.1395 0.9886
vt -0.1587 0.9886
vt -0.1669 0.9789
vt -0.1669 0.9789
vt -0.1587 0.9886
vt -0.1692 0.9886
vt -0.1779 0.9789
vt 0.2455 -0.1779
vt 0.2492 -0.1692
vt 0.2545 -0.1747
vt 0.2511 -0.1837
vt 0.2511 0.9789
vt 0.2545 0.9886
vt 0.2932 0.9886
vt 0.2916 0.9789
vt 0.2916 0.9789
vt 0.2932 0.9886
vt 0.3319 0.9886
vt 0.3322 0.9789
vt -0.1837 0.9789
vt -0.1747 0.9886
vt -0.1692 0.9886
vt -0.1779 0.9789
vt -0.1779 0.9789
vt -0.1692 0.9886
vt -0.1587 0.9886
vt -0.1669 0.9789
vt -0.1669 0.9789
vt -0.1587 0.9886
vt -0.1395 0.9886
vt -0.1467 0.9789
vt -0.1467 0.9789
vt -0.1395 0.9886
vt 0.0000 0.9886
vt 0.0000 0.9789
vt 0.0000 0.9886
vt 0.0000 0.9951
vt 0.1293 0.9951
vt 0.1395 0.9886
vt 0.1395 0.9886
vt 0.1293 0.9951
vt 0.1471 0.9951
vt 0.1587 0.9886
vt 0.1587 0.9886
vt 0.1471 0.9951
vt 0.1568 0.9951
vt 0.1692 0.9886
vt 0.3372 0.1692
vt 0.3350 0.1568
vt 0.3301 0.1619
vt 0.3319 0.1747
vt 0.3319 0.1747
vt 0.3301 0.1619
vt 0.2942 0.1636
vt 0.2932 0.1765
vt 0.2932 0.1765
vt 0.2942 0.1636
vt 0.2583 0.1619
vt 0.2545 0.1747
vt 0.2545 0.1747
vt 0.2583 0.1619
vt 0.2534 0.1568
vt 0.2492 0.1692
vt 0.2492 0.1692
vt 0.2534 0.1568
vt 0.2507 0.1471
vt 0.2463 0.1587
vt 0.1587 0.9886
vt 0.1471 0.9951
vt 0.1293 0.9951
vt 0.1395 0.9886
vt 0.1395 0.9886
vt 0.1293 0.9951
vt 0.0001 0.9951
vt 0.0001 0.9886
vt 0.0001 0.9886
vt 0.0001 0.9951
vt -0.1293 0.9951
vt -0.1395 0.9886
vt -0.1395 0.9886
vt -0.1293 0.9951
vt -0.1471 0.9951
vt -0.1587 0.9886
vt 0.2463 -0.1587
vt 0.2507 -0.1471
vt 0.2534 -0.1568
vt 0.2492 -0.1692
vt 0.2492 -0.1692
vt 0.2534 -0.1568
vt 0.2583 -0.1619
vt 0.2545 -0.1747
vt 0.2545 -0.1747
vt 0.2583 -0.1619
vt 0.2942 -0.1636
vt 0.2932 -0.1765
vt 0.2932 -0.1765
vt 0.2942 -0.1636
vt 0.3301 -0.1619
vt 0.3319 -0.1747
vt 0.3319 -0.1747
vt 0.3301 -0.1619
vt 0.3350 -0.1568
vt 0.3372 -0.1692
vt -0.1692 0.9886
vt -0.1568 0.9951
vt -0.1471 0.9951
vt -0.1587 0.9886
vt -0.1587 0.9886
vt -0.1471 0.9951
vt -0.1293 0.9951
vt -0.1395 0.9886
vt -0.1395 0.9886
vt -0.1293 0.9951
vt 0.0000 0.9951
vt 0.0000 0.9886
vt 0.3396 0.0000
vt 0.3345 0.0000
vt 0.3341 0.1129
vt 0.3391 0.1293
vt 0.3391 0.1293
vt 0.3341 0.1129
vt 0.3328 0.1284
vt 0.3377 0.1471
vt 0.3377 0.1471
vt 0.3328 0.1284
vt 0.3305 0.1369
vt 0.3350 0.1568
vt 0.3350 0.1568
vt 0.3305 0.1369
vt 0.3262 0.1414
vt 0.3301 0.1619
vt 0.3301 0.1619
vt 0.3262 0.1414
vt 0.2948 0.1428
vt 0.2942 0.1636
vt 0.2942 0.1636
vt 0.2948 0.1428
vt 0.2634 0.1414
vt 0.2583 0.1619
vt 0.2583 0.1619
vt 0.2634 0.1414
vt 0.2591 0.1369
vt 0.2534 0.1568
vt 0.2534 0.1568
vt 0.2591 0.1369
vt 0.2568 0.1284
vt 0.2507 0.1471
vt 0.2507 0.1471
vt 0.2568 0.1284
vt 0.2555 0.1129
vt 0.2493 0.1293
vt 0.2493 0.1293
vt 0.2555 0.1129
vt 0.2551 0.0001
vt 0.2488 0.0001
vt 0.2488 0.0001
vt 0.2551 0.0001
vt 0.2555 -0.1129
vt 0.2493 -0.1293
vt 0.2493 -0.1293
vt 0.2555 -0.1129
vt 0.2568 -0.1284
vt 0.2507 -0.1471
vt 0.2507 -0.1471
vt 0.2568 -0.1284
vt 0.2591 -0.1369
vt 0.2534 -0.1568
vt 0.2534 -0.1568
vt 0.2591 -0.1369
vt 0.2634 -0.1414
vt 0.2583 -0.1619
vt 0.2583 -0.1619
vt 0.2634 -0.1414
vt 0.2948 -0.1428
vt 0.2942 -0.1636
vt 0.2942 -0.1636
vt 0.2948 -0.1428
vt 0.3262 -0.1414
vt 0.3301 -0.1619
vt 0.3301 -0.1619
vt 0.3262 -0.1414
vt 0.3305 -0.1369
vt 0.3350 -0.1568
vt 0.3350 -0.1568
vt 0.3305 -0.1369
vt 0.3328 -0.1284
vt 0.3377 -0.1471
vt 0.3377 -0.1471
vt 0.3328 -0.1284
vt 0.3341 -0.1129
vt 0.3391 -0.1293
vt 0.3391 -0.1293
vt 0.3341 -0.1129
vt 0.3345 0.0000
vt 0.3396 0.0000
vt 0.3345 0.0000
vt 0.2950 0.0000
vt 0.2950 0.0001
vt 0.3341 0.1129
vt 0.3341 0.1129
vt 0.2950 0.0001
vt 0.2950 0.0001
vt 0.3328 0.1284
vt 0.3328 0.1284
vt 0.2950 0.0001
vt 0.2950 0.0001
vt 0.3305 0.1369
vt 0.3305 0.1369
vt 0.2950 0.0001
vt 0.2950 0.0001
vt 0.3262 0.1414
vt 0.3262 0.1414
vt 0.2950 0.0001
vt 0.2950 0.0001
vt 0.2948 0.1428
vt 0.2948 0.1428
vt 0.2950 0.0001
vt 0.2950 0.0001
vt 0.2634 0.1414
vt 0.2634 0.1414
vt 0.2950 0.0001
vt 0.2950 0.0001
vt 0.2591 0.1369
vt 0.2591 0.1369
vt 0.2950 0.0001
vt 0.2950 0.0001
vt 0.2568 0.1284
vt 0.2568 0.1284
vt 0.2950 0.0001
vt 0.2950 0.0001
vt 0.2555 0.1129
vt 0.2555 0.1129
vt 0.2950 0.0001
vt 0.2950 0.0000
vt 0.2551 0.0001
vt 0.2551 0.0001
vt 0.2950 0.0000
vt 0.2950 -0.0001
vt 0.2555 -0.1129
vt 0.2555 -0.1129
vt 0.2950 -0.0001
vt 0.2950 -0.0001
vt 0.2568 -0.1284
vt 0.2568 -0.1284
vt 0.2950 -0.0001
vt 0.2950 -0.0001
vt 0.2591 -0.1369
vt 0.2591 -0.1369
vt 0.2950 -0.0001
vt 0.2950 -0.0001
vt 0.2634 -0.1414
vt 0.2634 -0.1414
vt 0.2950 -0.0001
vt 0.2950 -0.0001
vt 0.2948 -0.1428
vt 0.2948 -0.1428
vt 0.2950 -0.0001
vt 0.2950 -0.0001
vt 0.3262 -0.1414
vt 0.3262 -0.1414
vt 0.2950 -0.0001
vt 0.2950 -0.0001
vt 0.3305 -0.1369
vt 0.3305 -0.1369
vt 0.2950 -0.0001
vt 0.2950 -0.0001
vt 0.3328 -0.1284
vt 0.3328 -0.1284
vt 0.2950 -0.0001
vt 0.2950 -0.0001
vt 0.3341 -0.1129
vt 0.3341 -0.1129
vt 0.2950 -0.0001
vt 0.2950 0.0000
vt 0.3345 0.0000
f 177/641 197/642 198/643 178/644
f 178/645 198/646 199/647 179/648
f 179/649 199/650 200/651 180/652
f 180/653 200/654 201/655 181/656
f 181/657 201/658 202/659 182/660
f 182/661 202/662 203/663 183/664
f 183/665 203/666 204/667 184/668
f 184/669 204/670 205/671 185/672
f 185/673 205/674 206/675 186/676
f 186/677 206/678 207/679 187/680
f 187/681 207/682 208/683 188/684
f 188/685 208/686 209/687 189/688
f 189/689 209/690 210/691 190/692
f 190/693 210/694 211/695 191/696
f 191/697 211/698 212/699 192/700
f 192/701 212/702 213/703 193/704
f 193/705 213/706 214/707 194/708
f 194/709 214/710 215/711 195/712
f 195/713 215/714 216/715 196/716
f 196/717 216/718 197/719 177/720
f 197/721 217/722 218/723 198/724
f 198/725 218/726 219/727 199/728
f 199/729 219/730 220/731 200/732
f 200/733 220/734 221/735 201/736
f 201/737 221/738 222/739 202/740
f 202/741 222/742 223/743 203/744
f 203/745 223/746 224/747 204/748
f 204/749 224/750 225/751 205/752
f 205/753 225/754 226/755 206/756
f 206/757 226/758 227/759 207/760
f 207/761 227/762 228/763 208/764
f 208/765 228/766 229/767 209/768
f 209/769 229/770 230/771 210/772
f 210/773 230/774 231/775 211/776
f 211/777 231/778 232/779 212/780
f 212/781 232/782 233/783 213/784
f 213/785 233/786 234/787 214/788
f 214/789 234/790 235/791 215/792
f 215/793 235/794 236/795 216/796
f 216/797 236/798 217/799 197/800
f 217/801 237/802 238/803 218/804
f 218/805 238/806 239/807 219/808
f 219/809 239/810 240/811 220/812
f 220/813 240/814 241/815 221/816
f 221/817 241/818 242/819 222/820
f 222/821 242/822 243/823 223/824
f 223/825 243/826 244/827 224/828
f 224/829 244/830 245/831 225/832
f 225/833 245/834 246/835 226/836
f 226/837 246/838 247/839 227/840
f 227/841 247/842 248/843 228/844
f 228/845 248/846 249/847 229/848
f 229/849 249/850 250/851 230/852
f 230/853 250/854 251/855 231/856
f 231/857 251/858 252/859 232/860
f 232/861 252/862 253/863 233/864
f 233/865 253/866 254/867 234/868
f 234/869 254/870 255/871 235/872
f 235/873 255/874 256/875 236/876
f 236/877 256/878 237/879 217/880
f 237/881 257/882 258/883 238/884
f 238/885 258/886 259/887 239/888
f 239/889 259/890 260/891 240/892
f 240/893 260/894 261/895 241/896
f 241/897 261/898 262/899 242/900
f 242/901 262/902 263/903 243/904
f 243/905 263/906 264/907 244/908
f 244/909 264/910 265/911 245/912
f 245/913 265/914 266/915 246/916
f 246/917 266/918 267/919 247/920
f 247/921 267/922 268/923 248/924
f 248/925 268/926 269/927 249/928
f 249/929 269/930 270/931 250/932
f 250/933 270/934 271/935 251/936
f 251/937 271/938 272/939 252/940
f 252/941 272/942 273/943 253/944
f 253/945 273/946 274/947 254/948
f 254/949 274/950 275/951 255/952
f 255/953 275/954 276/955 256/956
f 256/957 276/958 257/959 237/960
f 257/961 277/962 278/963 258/964
f 258/965 278/966 279/967 259/968
f 259/969 279/970 280/971 260/972
f 260/973 280/974 281/975 261/976
f 261/977 281/978 282/979 262/980
f 262/981 282/982 283/983 263/984
f 263/985 283/986 284/987 264/988
f 264/989 284/990 285/991 265/992
f 265/993 285/994 286/995 266/996
f 266/997 286/998 287/999 267/1000
f 267/1001 287/1002 288/1003 268/1004
f 268/1005 288/1006 289/1007 269/1008
f 269/1009 289/1010 290/1011 270/1012
f 270/1013 290/1014 291/1015 271/1016
f 271/1017 291/1018 292/1019 272/1020
f 272/1021 292/1022 293/1023 273/1024
f 273/1025 293/1026 294/1027 274/1028
f 274/1029 294/1030 295/1031 275/1032
f 275/1033 295/1034 296/1035 276/1036
f 276/1037 296/1038 277/1039 257/1040
f 277/1041 297/1042 298/1043 278/1044
f 278/1045 298/1046 299/1047 279/1048
f 279/1049 299/1050 300/1051 280/1052
f 280/1053 300/1054 301/1055 281/1056
f 281/1057 301/1058 302/1059 282/1060
f 282/1061 302/1062 303/1063 283/1064
f 283/1065 303/1066 304/1067 284/1068
f 284/1069 304/1070 305/1071 285/1072
f 285/1073 305/1074 306/1075 286/1076
f 286/1077 306/1078 307/1079 287/1080
f 287/1081 307/1082 308/1083 288/1084
f 288/1085 308/1086 309/1087 289/1088
f 289/1089 309/1090 310/1091 290/1092
f 290/1093 310/1094 311/1095 291/1096
f 291/1097 311/1098 312/1099 292/1100
f 292/1101 312/1102 313/1103 293/1104
f 293/1105 313/1106 314/1107 294/1108
f 294/1109 314/1110 315/1111 295/1112
f 295/1113 315/1114 316/1115 296/1116
f 296/1117 316/1118 297/1119 277/1120
f 297/1121 317/1122 318/1123 298/1124
f 298/1125 318/1126 319/1127 299/1128
f 299/1129 319/1130 320/1131 300/1132
f 300/1133 320/1134 321/1135 301/1136
f 301/1137 321/1138 322/1139 302/1140
f 302/1141 322/1142 323/1143 303/1144
f 303/1145 323/1146 324/1147 304/1148
f 304/1149 324/1150 325/1151 305/1152
f 305/1153 325/1154 326/1155 306/1156
f 306/1157 326/1158 327/1159 307/1160
f 307/1161 327/1162 328/1163 308/1164
f 308/1165 328/1166 329/1167 309/1168
f 309/1169 329/1170 330/1171 310/1172
f 310/1173 330/1174 331/1175 311/1176
f 311/1177 331/1178 332/1179 312/1180
f 312/1181 332/1182 333/1183 313/1184
f 313/1185 333/1186 334/1187 314/1188
f 314/1189 334/1190 335/1191 315/1192
f 315/1193 335/1194 336/1195 316/1196
f 316/1197 336/1198 317/1199 297/1200
f 317/1201 337/1202 338/1203 318/1204
f 318/1205 338/1206 339/1207 319/1208
f 319/1209 339/1210 340/1211 320/1212
f 320/1213 340/1214 341/1215 321/1216
f 321/1217 341/1218 342/1219 322/1220
f 322/1221 342/1222 343/1223 323/1224
f 323/1225 343/1226 344/1227 324/1228
f 324/1229 344/1230 345/1231 325/1232
f 325/1233 345/1234 346/1235 326/1236
f 326/1237 346/1238 347/1239 327/1240
f 327/1241 347/1242 348/1243 328/1244
f 328/1245 348/1246 349/1247 329/1248
f 329/1249 349/1250 350/1251 330/1252
f 330/1253 350/1254 351/1255 331/1256
f 331/1257 351/1258 352/1259 332/1260
f 332/1261 352/1262 353/1263 333/1264
f 333/1265 353/1266 354/1267 334/1268
f 334/1269 354/1270 355/1271 335/1272
f 335/1273 355/1274 356/1275 336/1276
f 336/1277 356/1278 337/1279 317/1280
f 337/1281 357/1282 358/1283 338/1284
f 338/1285 358/1286 359/1287 339/1288
f 339/1289 359/1290 360/1291 340/1292
f 340/1293 360/1294 361/1295 341/1296
f 341/1297 361/1298 362/1299 342/1300
f 342/1301 362/1302 363/1303 343/1304
f 343/1305 363/1306 364/1307 344/1308
f 344/1309 364/1310 365/1311 345/1312
f 345/1313 365/1314 366/1315 346/1316
f 346/1317 366/1318 367/1319 347/1320
f 347/1321 367/1322 368/1323 348/1324
f 348/1325 368/1326 369/1327 349/1328
f 349/1329 369/1330 370/1331 350/1332
f 350/1333 370/1334 371/1335 351/1336
f 351/1337 371/1338 372/1339 352/1340
f 352/1341 372/1342 373/1343 353/1344
f 353/1345 373/1346 374/1347 354/1348
f 354/1349 374/1350 375/1351 355/1352
f 355/1353 375/1354 376/1355 356/1356
f 356/1357 376/1358 357/1359 337/1360
f 357/1361 377/1362 378/1363 358/1364
f 358/1365 378/1366 379/1367 359/1368
f 359/1369 379/1370 380/1371 360/1372
f 360/1373 380/1374 381/1375 361/1376
f 361/1377 381/1378 382/1379 362/1380
f 362/1381 382/1382 383/1383 363/1384
f 363/1385 383/1386 384/1387 364/1388
f 364/1389 384/1390 385/1391 365/1392
f 365/1393 385/1394 386/1395 366/1396
f 366/1397 386/1398 387/1399 367/1400
f 367/1401 387/1402 388/1403 368/1404
f 368/1405 388/1406 389/1407 369/1408
f 369/1409 389/1410 390/1411 370/1412
f 370/1413 390/1414 391/1415 371/1416
f 371/1417 391/1418 392/1419 372/1420
f 372/1421 392/1422 393/1423 373/1424
f 373/1425 393/1426 394/1427 374/1428
f 374/1429 394/1430 395/1431 375/1432
f 375/1433 395/1434 396/1435 376/1436
f 376/1437 396/1438 377/1439 357/1440
f 377/1441 397/1442 398/1443 378/1444
f 378/1445 398/1446 399/1447 379/1448
f 379/1449 399/1450 400/1451 380/1452
f 380/1453 400/1454 401/1455 381/1456
f 381/1457 401/1458 402/1459 382/1460
f 382/1461 402/1462 403/1463 383/1464
f 383/1465 403/1466 404/1467 384/1468
f 384/1469 404/1470 405/1471 385/1472
f 385/1473 405/1474 406/1475 386/1476
f 386/1477 406/1478 407/1479 387/1480
f 387/1481 407/1482 408/1483 388/1484
f 388/1485 408/1486 409/1487 389/1488
f 389/1489 409/1490 410/1491 390/1492
f 390/1493 410/1494 411/1495 391/1496
f 391/1497 411/1498 412/1499 392/1500
f 392/1501 412/1502 413/1503 393/1504
f 393/1505 413/1506 414/1507 394/1508
f 394/1509 414/1510 415/1511 395/1512
f 395/1513 415/1514 416/1515 396/1516
f 396/1517 416/1518 397/1519 377/1520
f 397/1521 417/1522 418/1523 398/1524
f 398/1525 418/1526 419/1527 399/1528
f 399/1529 419/1530 420/1531 400/1532
f 400/1533 420/1534 421/1535 401/1536
f 401/1537 421/1538 422/1539 402/1540
f 402/1541 422/1542 423/1543 403/1544
f 403/1545 423/1546 424/1547 404/1548
f 404/1549 424/1550 425/1551 405/1552
f 405/1553 425/1554 426/1555 406/1556
f 406/1557 426/1558 427/1559 407/1560
f 407/1561 427/1562 428/1563 408/1564
f 408/1565 428/1566 429/1567 409/1568
f 409/1569 429/1570 430/1571 410/1572
f 410/1573 430/1574 431/1575 411/1576
f 411/1577 431/1578 432/1579 412/1580
f 412/1581 432/1582 433/1583 413/1584
f 413/1585 433/1586 434/1587 414/1588
f 414/1589 434/1590 435/1591 415/1592
f 415/1593 435/1594 436/1595 416/1596
f 416/1597 436/1598 417/1599 397/1600
f 417/1601 437/1602 438/1603 418/1604
f 418/1605 438/1606 439/1607 419/1608
f 419/1609 439/1610 440/1611 420/1612
f 420/1613 440/1614 441/1615 421/1616
f 421/1617 441/1618 442/1619 422/1620
f 422/1621 442/1622 443/1623 423/1624
f 423/1625 443/1626 444/1627 424/1628
f 424/1629 444/1630 445/1631 425/1632
f 425/1633 445/1634 446/1635 426/1636
f 426/1637 446/1638 447/1639 427/1640
f 427/1641 447/1642 448/1643 428/1644
f 428/1645 448/1646 449/1647 429/1648
f 429/1649 449/1650 450/1651 430/1652
f 430/1653 450/1654 451/1655 431/1656
f 431/1657 451/1658 452/1659 432/1660
f 432/1661 452/1662 453/1663 433/1664
f 433/1665 453/1666 454/1667 434/1668
f 434/1669 454/1670 455/1671 435/1672
f 435/1673 455/1674 456/1675 436/1676
f 436/1677 456/1678 437/1679 417/1680
f 437/1681 457/1682 458/1683 438/1684
f 438/1685 458/1686 459/1687 439/1688
f 439/1689 459/1690 460/1691 440/1692
f 440/1693 460/1694 461/1695 441/1696
f 441/1697 461/1698 462/1699 442/1700
f 442/1701 462/1702 463/1703 443/1704
f 443/1705 463/1706 464/1707 444/1708
f 444/1709 464/1710 465/1711 445/1712
f 445/1713 465/1714 466/1715 446/1716
f 446/1717 466/1718 467/1719 447/1720
f 447/1721 467/1722 468/1723 448/1724
f 448/1725 468/1726 469/1727 449/1728
f 449/1729 469/1730 470/1731 450/1732
f 450/1733 470/1734 471/1735 451/1736
f 451/1737 471/1738 472/1739 452/1740
f 452/1741 472/1742 473/1743 453/1744
f 453/1745 473/1746 474/1747 454/1748
f 454/1749 474/1750 475/1751 455/1752
f 455/1753 475/1754 476/1755 456/1756
f 456/1757 476/1758 457/1759 437/1760
f 457/1761 477/1762 478/1763 458/1764
f 458/1765 478/1766 479/1767 459/1768
f 459/1769 479/1770 480/1771 460/1772
f 460/1773 480/1774 481/1775 461/1776
f 461/1777 481/1778 482/1779 462/1780
f 462/1781 482/1782 483/1783 463/1784
f 463/1785 483/1786 484/1787 464/1788
f 464/1789 484/1790 485/1791 465/1792
f 465/1793 485/1794 486/1795 466/1796
f 466/1797 486/1798 487/1799 467/1800
f 467/1801 487/1802 488/1803 468/1804
f 468/1805 488/1806 489/1807 469/1808
f 469/1809 489/1810 490/1811 470/1812
f 470/1813 490/1814 491/1815 471/1816
f 471/1817 491/1818 492/1819 472/1820
f 472/1821 492/1822 493/1823 473/1824
f 473/1825 493/1826 494/1827 474/1828
f 474/1829 494/1830 495/1831 475/1832
f 475/1833 495/1834 496/1835 476/1836
f 476/1837 496/1838 477/1839 457/1840
f 477/1841 497/1842 498/1843 478/1844
f 478/1845 498/1846 499/1847 479/1848
f 479/1849 499/1850 500/1851 480/1852
f 480/1853 500/1854 501/1855 481/1856
f 481/1857 501/1858 502/1859 482/1860
f 482/1861 502/1862 503/1863 483/1864
f 483/1865 503/1866 504/1867 484/1868
f 484/1869 504/1870 505/1871 485/1872
f 485/1873 505/1874 506/1875 486/1876
f 486/1877 506/1878 507/1879 487/1880
f 487/1881 507/1882 508/1883 488/1884
f 488/1885 508/1886 509/1887 489/1888
f 489/1889 509/1890 510/1891 490/1892
f 490/1893 510/1894 511/1895 491/1896
f 491/1897 511/1898 512/1899 492/1900
f 492/1901 512/1902 513/1903 493/1904
f 493/1905 513/1906 514/1907 494/1908
f 494/1909 514/1910 515/1911 495/1912
f 495/1913 515/1914 516/1915 496/1916
f 496/1917 516/1918 497/1919 477/1920
o Seat_Leg_-27_-18
v -0.2630 0.0000 -0.1850
v -0.2630 0.3200 -0.1850
v -0.2680 0.0000 -0.1730
v -0.2680 0.3200 -0.1730
v -0.2800 0.0000 -0.1680
v -0.2800 0.3200 -0.1680
v -0.2920 0.0000 -0.1730
v -0.2920 0.3200 -0.1730
v -0.2970 0.0000 -0.1850
v -0.2970 0.3200 -0.1850
v -0.2920 0.0000 -0.1970
v -0.2920 0.3200 -0.1970
v -0.2800 0.0000 -0.2020
v -0.2800 0.3200 -0.2020
v -0.2680 0.0000 -0.1970
v -0.2680 0.3200 -0.1970
vt -0.1850 0.0000
vt -0.1850 0.3200
vt -0.1730 0.3200
vt -0.1730 0.0000
vt -0.2680 0.0000
vt -0.2680 0.3200
vt -0.2800 0.3200
vt -0.2800 0.0000
vt -0.2800 0.0000
vt -0.2800 0.3200
vt -0.2920 0.3200
vt -0.2920 0.0000
vt -0.1730 0.0000
vt -0.1730 0.3200
vt -0.1850 0.3200
vt -0.1850 0.0000
vt -0.1850 0.0000
vt -0.1850 0.3200
vt -0.1970 0.3200
vt -0.1970 0.0000
vt -0.2920 0.0000
vt -0.2920 0.3200
vt -0.2800 0.3200
vt -0.2800 0.0000
vt -0.2800 0.0000
vt -0.2800 0.3200
vt -0.2680 0.3200
vt -0.2680 0.0000
vt -0.1970 0.0000
vt -0.1970 0.3200
vt -0.1850 0.3200
vt -0.1850 0.0000
f 517/1921 518/1922 520/1923 519/1924
f 519/1925 520/1926 522/1927 521/1928
f 521/1929 522/1930 524/1931 523/1932
f 523/1933 524/1934 526/1935 525/1936
f 525/1937 526/1938 528/1939 527/1940
f 527/1941 528/1942 530/1943 529/1944
f 529/1945 530/1946 532/1947 531/1948
f 531/1949 532/1950 518/1951 517/1952
o Seat_Leg_-27_18
v -0.2630 0.0000 0.1850
v -0.2630 0.3200 0.1850
v -0.2680 0.0000 0.1970
v -0.2680 0.3200 0.1970
v -0.2800 0.0000 0.2020
v -0.2800 0.3200 0.2020
v -0.2920 0.0000 0.1970
v -0.2920 0.3200 0.1970
v -0.2970 0.0000 0.1850
v -0.2970 0.3200 0.1850
v -0.2920 0.0000 0.1730
v -0.2920 0.3200 0.1730
v -0.2800 0.0000 0.1680
v -0.2800 0.3200 0.1680
v -0.2680 0.0000 0.1730
v -0.2680 0.3200 0.1730
vt 0.1850 0.0000
vt 0.1850 0.3200
vt 0.1970 0.3200
vt 0.1970 0.0000
vt -0.2680 0.0000
vt -0.2680 0.3200
vt -0.2800 0.3200
vt -0.2800 0.0000
vt -0.2800 0.0000
vt -0.2800 0.3200
vt -0.2920 0.3200
vt -0.2920 0.0000
vt 0.1970 0.0000
vt 0.1970 0.3200
vt 0.1850 0.3200
vt 0.1850 0.0000
vt 0.1850 0.0000
vt 0.1850 0.3200
vt 0.1730 0.3200
vt 0.1730 0.0000
vt -0.2920 0.0000
vt -0.2920 0.3200
vt -0.2800 0.3200
vt -0.2800 0.0000
vt -0.2800 0.0000
vt -0.2800 0.3200
vt -0.2680 0.3200
vt -0.2680 0.0000
vt 0.1730 0.0000
vt 0.1730 0.3200
vt 0.1850 0.3200
vt 0.1850 0.0000
f 533/1953 534/1954 536/1955 535/1956
f 535/1957 536/1958 538/1959 537/1960
f 537/1961 538/1962 540/1963 539/1964
f 539/1965 540/1966 542/1967 541/1968
f 541/1969 542/1970 544/1971 543/1972
f 543/1973 544/1974 546/1975 545/1976
f 545/1977 546/1978 548/1979 547/1980
f 547/1981 548/1982 534/1983 533/1984
o Seat_Leg_14_-18
v 0.1670 0.0000 -0.1850
v 0.1670 0.3200 -0.1850
v 0.1620 0.0000 -0.1730
v 0.1620 0.3200 -0.1730
v 0.1500 0.0000 -0.1680
v 0.1500 0.3200 -0.1680
v 0.1380 0.0000 -0.1730
v 0.1380 0.3200 -0.1730
v 0.1330 0.0000 -0.1850
v 0.1330 0.3200 -0.1850
v 0.1380 0.0000 -0.1970
v 0.1380 0.3200 -0.1970
v 0.1500 0.0000 -0.2020
v 0.1500 0.3200 -0.2020
v 0.1620 0.0000 -0.1970
v 0.1620 0.3200 -0.1970
vt -0.1850 0.0000
vt -0.1850 0.3200
vt -0.1730 0.3200
vt -0.1730 0.0000
vt 0.1620 0.0000
vt 0.1620 0.3200
vt 0.1500 0.3200
vt 0.1500 0.0000
vt 0.1500 0.0000
vt 0.1500 0.3200
vt 0.1380 0.3200
vt 0.1380 0.0000
vt -0.1730 0.0000
vt -0.1730 0.3200
vt -0.1850 0.3200
vt -0.1850 0.0000
vt -0.1850 0.0000
vt -0.1850 0.3200
vt -0.1970 0.3200
vt -0.1970 0.0000
vt 0.1380 0.0000
vt 0.1380 0.3200
vt 0.1500 0.3200
vt 0.1500 0.0000
vt 0.1500 0.0000
vt 0.1500 0.3200
vt 0.1620 0.3200
vt 0.1620 0.0000
vt -0.1970 0.0000
vt -0.1970 0.3200
vt -0.1850 0.3200
vt -0.1850 0.0000
f 549/1985 550/1986 552/1987 551/1988
f 551/1989 552/1990 554/1991 553/1992
f 553/1993 554/1994 556/1995 555/1996
f 555/1997 556/1998 558/1999 557/2000
f 557/2001 558/2002 560/2003 559/2004
f 559/2005 560/2006 562/2007 561/2008
f 561/2009 562/2010 564/2011 563/2012
f 563/2013 564/2014 550/2015 549/2016
o Seat_Leg_14_18
v 0.1670 0.0000 0.1850
v 0.1670 0.3200 0.1850
v 0.1620 0.0000 0.1970
v 0.1620 0.3200 0.1970
v 0.1500 0.0000 0.2020
v 0.1500 0.3200 0.2020
v 0.1380 0.0000 0.1970
v 0.1380 0.3200 0.1970
v 0.1330 0.0000 0.1850
v 0.1330 0.3200 0.1850
v 0.1380 0.0000 0.1730
v 0.1380 0.3200 0.1730
v 0.1500 0.0000 0.1680
v 0.1500 0.3200 0.1680
v 0.1620 0.0000 0.1730
v 0.1620 0.3200 0.1730
vt 0.1850 0.0000
vt 0.1850 0.3200
vt 0.1970 0.3200
vt 0.1970 0.0000
vt 0.1620 0.0000
vt 0.1620 0.3200
vt 0.1500 0.3200
vt 0.1500 0.0000
vt 0.1500 0.0000
vt 0.1500 0.3200
vt 0.1380 0.3200
vt 0.1380 0.0000
vt 0.1970 0.0000
vt 0.1970 0.3200
vt 0.1850 0.3200
vt 0.1850 0.0000
vt 0.1850 0.0000
vt 0.1850 0.3200
vt 0.1730 0.3200
vt 0.1730 0.0000
vt 0.1380 0.0000
vt 0.1380 0.3200
vt 0.1500 0.3200
vt 0.1500 0.0000
vt 0.1500 0.0000
vt 0.1500 0.3200
vt 0.1620 0.3200
vt 0.1620 0.0000
vt 0.1730 0.0000
vt 0.1730 0.3200
vt 0.1850 0.3200
vt 0.1850 0.0000
f 565/2017 566/2018 568/2019 567/2020
f 567/2021 568/2022 570/2023 569/2024
f 569/2025 570/2026 572/2027 571/2028
f 571/2029 572/2030 574/2031 573/2032
f 573/2033 574/2034 576/2035 575/2036
f 575/2037 576/2038 578/2039 577/2040
f 577/2041 578/2042 580/2043 579/2044
f 579/2045 580/2046 566/2047 565/2048
o Seat_Frame_Left
v -0.3000 0.3000 -0.2050
v 0.1700 0.3000 -0.2050
v 0.1700 0.3200 -0.2050
v -0.3000 0.3200 -0.2050
v -0.3000 0.3000 -0.1650
v 0.1700 0.3000 -0.1650
v 0.1700 0.3200 -0.1650
v -0.3000 0.3200 -0.1650
vt -0.3000 0.3200
vt 0.1700 0.3200
vt 0.1700 0.3000
vt -0.3000 0.3000
vt -0.3000 0.3000
vt 0.1700 0.3000
vt 0.1700 0.3200
vt -0.3000 0.3200
vt -0.3000 -0.2050
vt 0.1700 -0.2050
vt 0.1700 -0.1650
vt -0.3000 -0.1650
vt 0.1700 -0.2050
vt -0.3000 -0.2050
vt -0.3000 -0.1650
vt 0.1700 -0.1650
vt -0.2050 0.3000
vt -0.2050 0.3200
vt -0.1650 0.3200
vt -0.1650 0.3000
vt -0.1650 0.3000
vt -0.1650 0.3200
vt -0.2050 0.3200
vt -0.2050 0.3000
f 584/2049 583/2050 582/2051 581/2052
f 585/2053 586/2054 587/2055 588/2056
f 581/2057 582/2058 586/2059 585/2060
f 583/2061 584/2062 588/2063 587/2064
f 582/2065 583/2066 587/2067 586/2068
f 585/2069 588/2070 584/2071 581/2072
o Seat_Frame_Right
v -0.3000 0.3000 0.1650
v 0.1700 0.3000 0.1650
v 0.1700 0.3200 0.1650
v -0.3000 0.3200 0.1650
v -0.3000 0.3000 0.2050
v 0.1700 0.3000 0.2050
v 0.1700 0.3200 0.2050
v -0.3000 0.3200 0.2050
vt -0.3000 0.3200
vt 0.1700 0.3200
vt 0.1700 0.3000
vt -0.3000 0.3000
vt -0.3000 0.3000
vt 0.1700 0.3000
vt 0.1700 0.3200
vt -0.3000 0.3200
vt -0.3000 0.1650
vt 0.1700 0.1650
vt 0.1700 0.2050
vt -0.3000 0.2050
vt 0.1700 0.1650
vt -0.3000 0.1650
vt -0.3000 0.2050
vt 0.1700 0.2050
vt 0.1650 0.3000
vt 0.1650 0.3200
vt 0.2050 0.3200
vt 0.2050 0.3000
vt 0.2050 0.3000
vt 0.2050 0.3200
vt 0.1650 0.3200
vt 0.1650 0.3000
f 592/2073 591/2074 590/2075 589/2076
f 593/2077 594/2078 595/2079 596/2080
f 589/2081 590/2082 594/2083 593/2084
f 591/2085 592/2086 596/2087 595/2088
f 590/2089 591/2090 595/2091 594/2092
f 593/2093 596/2094 592/2095 589/2096
o Seat_Belt_Left
v 0.1015 0.4020 -0.1982
v 0.0585 0.4020 -0.2118
v 0.0585 0.4060 -0.2118
v 0.1015 0.4060 -0.1982
v 0.0940 0.4020 -0.1745
v 0.0510 0.4020 -0.1880
v 0.0510 0.4060 -0.1880
v 0.0940 0.4060 -0.1745
v 0.0865 0.4020 -0.1507
v 0.0435 0.4020 -0.1643
v 0.0435 0.4060 -0.1643
v 0.0865 0.4060 -0.1507
v 0.0790 0.4020 -0.1270
v 0.0360 0.4020 -0.1405
v 0.0360 0.4060 -0.1405
v 0.0790 0.4060 -0.1270
v 0.0715 0.4020 -0.1032
v 0.0285 0.4020 -0.1168
v 0.0285 0.4060 -0.1168
v 0.0715 0.4060 -0.1032
v 0.0640 0.4020 -0.0795
v 0.0210 0.4020 -0.0930
v 0.0210 0.4060 -0.0930
v 0.0640 0.4060 -0.0795
v 0.0565 0.4020 -0.0557
v 0.0135 0.4020 -0.0693
v 0.0135 0.4060 -0.0693
v 0.0565 0.4060 -0.0557
v 0.0490 0.4020 -0.0320
v 0.0060 0.4020 -0.0455
v 0.0060 0.4060 -0.0455
v 0.0490 0.4060 -0.0320
v 0.0415 0.4020 -0.0082
v -0.0015 0.4020 -0.0218
v -0.0015 0.4060 -0.0218
v 0.0415 0.4060 -0.0082
vt 0.0940 -0.1745
vt 0.0510 -0.1880
vt 0.0585 -0.2118
vt 0.1015 -0.1982
vt -0.1880 0.4020
vt -0.1880 0.4060
vt -0.2118 0.4060
vt -0.2118 0.4020
vt 0.0510 -0.1880
vt 0.0940 -0.1745
vt 0.1015 -0.1982
vt 0.0585 -0.2118
vt -0.1745 0.4060
vt -0.1745 0.4020
vt -0.1982 0.4020
vt -0.1982 0.4060
vt 0.0865 -0.1507
vt 0.0435 -0.1643
vt 0.0510 -0.1880
vt 0.0940 -0.1745
vt -0.1643 0.4020
vt -0.1643 0.4060
vt -0.1880 0.4060
vt -0.1880 0.4020
vt 0.0435 -0.1643
vt 0.0865 -0.1507
vt 0.0940 -0.1745
vt 0.0510 -0.1880
vt -0.1507 0.4060
vt -0.1507 0.4020
vt -0.1745 0.4020
vt -0.1745 0.4060
vt 0.0790 -0.1270
vt 0.0360 -0.1405
vt 0.0435 -0.1643
vt 0.0865 -0.1507
vt -0.1405 0.4020
vt -0.1405 0.4060
vt -0.1643 0.4060
vt -0.1643 0.4020
vt 0.0360 -0.1405
vt 0.0790 -0.1270
vt 0.0865 -0.1507
vt 0.0435 -0.1643
vt -0.1270 0.4060
vt -0.1270 0.4020
vt -0.1507 0.4020
vt -0.1507 0.4060
vt 0.0715 -0.1032
vt 0.0285 -0.1168
vt 0.0360 -0.1405
vt 0.0790 -0.1270
vt -0.1168 0.4020
vt -0.1168 0.4060
vt -0.1405 0.4060
vt -0.1405 0.4020
vt 0.0285 -0.1168
vt 0.0715 -0.1032
vt 0.0790 -0.1270
vt 0.0360 -0.1405
vt -0.1032 0.4060
vt -0.1032 0.4020
vt -0.1270 0.4020
vt -0.1270 0.4060
vt 0.0640 -0.0795
vt 0.0210 -0.0930
vt 0.0285 -0.1168
vt 0.0715 -0.1032
vt -0.0930 0.4020
vt -0.0930 0.4060
vt -0.1168 0.4060
vt -0.1168 0.4020
vt 0.0210 -0.0930
vt 0.0640 -0.0795
vt 0.0715 -0.1032
vt 0.0285 -0.1168
vt -0.0795 0.4060
vt -0.0795 0.4020
vt -0.1032 0.4020
vt -0.1032 0.4060
vt 0.0565 -0.0557
vt 0.0135 -0.0693
vt 0.0210 -0.0930
vt 0.0640 -0.0795
vt -0.0693 0.4020
vt -0.0693 0.4060
vt -0.0930 0.4060
vt -0.0930 0.4020
vt 0.0135 -0.0693
vt 0.0565 -0.0557
vt 0.0640 -0.0795
vt 0.0210 -0.0930
vt -0.0557 0.4060
vt -0.0557 0.4020
vt -0.0795 0.4020
vt -0.0795 0.4060
vt 0.0490 -0.0320
vt 0.0060 -0.0455
vt 0.0135 -0.0693
vt 0.0565 -0.0557
vt -0.0455 0.4020
vt -0.0455 0.4060
vt -0.0693 0.4060
vt -0.0693 0.4020
vt 0.0060 -0.0455
vt 0.0490 -0.0320
vt 0.0565 -0.0557
vt 0.0135 -0.0693
vt -0.0320 0.4060
vt -0.0320 0.4020
vt -0.0557 0.4020
vt -0.0557 0.4060
vt 0.0415 -0.0082
vt -0.0015 -0.0218
vt 0.0060 -0.0455
vt 0.0490 -0.0320
vt -0.0218 0.4020
vt -0.0218 0.4060
vt -0.0455 0.4060
vt -0.0455 0.4020
vt -0.0015 -0.0218
vt 0.0415 -0.0082
vt 0.0490 -0.0320
vt 0.0060 -0.0455
vt -0.0082 0.4060
vt -0.0082 0.4020
vt -0.0320 0.4020
vt -0.0320 0.4060
vt 0.1015 0.4060
vt 0.0585 0.4060
vt 0.0585 0.4020
vt 0.1015 0.4020
vt 0.0415 0.4020
vt -0.0015 0.4020
vt -0.0015 0.4060
vt 0.0415 0.4060
f 601/2097 602/2098 598/2099 597/2100
f 602/2101 603/2102 599/2103 598/2104
f 603/2105 604/2106 600/2107 599/2108
f 604/2109 601/2110 597/2111 600/2112
f 605/2113 606/2114 602/2115 601/2116
f 606/2117 607/2118 603/2119 602/2120
f 607/2121 608/2122 604/2123 603/2124
f 608/2125 605/2126 601/2127 604/2128
f 609/2129 610/2130 606/2131 605/2132
f 610/2133 611/2134 607/2135 606/2136
f 611/2137 612/2138 608/2139 607/2140
f 612/2141 609/2142 605/2143 608/2144
f 613/2145 614/2146 610/2147 609/2148
f 614/2149 615/2150 611/2151 610/2152
f 615/2153 616/2154 612/2155 611/2156
f 616/2157 613/2158 609/2159 612/2160
f 617/2161 618/2162 614/2163 613/2164
f 618/2165 619/2166 615/2167 614/2168
f 619/2169 620/2170 616/2171 615/2172
f 620/2173 617/2174 613/2175 616/2176
f 621/2177 622/2178 618/2179 617/2180
f 622/2181 623/2182 619/2183 618/2184
f 623/2185 624/2186 620/2187 619/2188
f 624/2189 621/2190 617/2191 620/2192
f 625/2193 626/2194 622/2195 621/2196
f 626/2197 627/2198 623/2199 622/2200
f 627/2201 628/2202 624/2203 623/2204
f 628/2205 625/2206 621/2207 624/2208
f 629/2209 630/2210 626/2211 625/2212
f 630/2213 631/2214 627/2215 626/2216
f 631/2217 632/2218 628/2219 627/2220
f 632/2221 629/2222 625/2223 628/2224
f 600/2225 599/2226 598/2227 597/2228
f 629/2229 630/2230 631/2231 632/2232
o Seat_Belt_Right
v 0.0585 0.4020 0.2118
v 0.1015 0.4020 0.1982
v 0.1015 0.4060 0.1982
v 0.0585 0.4060 0.2118
v 0.0510 0.4020 0.1880
v 0.0940 0.4020 0.1745
v 0.0940 0.4060 0.1745
v 0.0510 0.4060 0.1880
v 0.0435 0.4020 0.1643
v 0.0865 0.4020 0.1507
v 0.0865 0.4060 0.1507
v 0.0435 0.4060 0.1643
v 0.0360 0.4020 0.1405
v 0.0790 0.4020 0.1270
v 0.0790 0.4060 0.1270
v 0.0360 0.4060 0.1405
v 0.0285 0.4020 0.1168
v 0.0715 0.4020 0.1032
v 0.0715 0.4060 0.1032
v 0.0285 0.4060 0.1168
v 0.0210 0.4020 0.0930
v 0.0640 0.4020 0.0795
v 0.0640 0.4060 0.0795
v 0.0210 0.4060 0.0930
v 0.0135 0.4020 0.0693
v 0.0565 0.4020 0.0557
v 0.0565 0.4060 0.0557
v 0.0135 0.4060 0.0693
v 0.0060 0.4020 0.0455
v 0.0490 0.4020 0.0320
v 0.0490 0.4060 0.0320
v 0.0060 0.4060 0.0455
v -0.0086 0.3940 0.0240
v 0.0486 0.3940 0.0060
v 0.0486 0.4140 0.0060
v -0.0086 0.4140 0.0240
vt 0.0510 0.1880
vt 0.0940 0.1745
vt 0.1015 0.1982
vt 0.0585 0.2118
vt 0.1745 0.4020
vt 0.1745 0.4060
vt 0.1982 0.4060
vt 0.1982 0.4020
vt 0.0940 0.1745
vt 0.0510 0.1880
vt 0.0585 0.2118
vt 0.1015 0.1982
vt 0.1880 0.4060
vt 0.1880 0.4020
vt 0.2118 0.4020
vt 0.2118 0.4060
vt 0.0435 0.1643
vt 0.0865 0.1507
vt 0.0940 0.1745
vt 0.0510 0.1880
vt 0.1507 0.4020
vt 0.1507 0.4060
vt 0.1745 0.4060
vt 0.1745 0.4020
vt 0.0865 0.1507
vt 0.0435 0.1643
vt 0.0510 0.1880
vt 0.0940 0.1745
vt 0.1643 0.4060
vt 0.1643 0.4020
vt 0.1880 0.4020
vt 0.1880 0.4060
vt 0.0360 0.1405
vt 0.0790 0.1270
vt 0.0865 0.1507
vt 0.0435 0.1643
vt 0.1270 0.4020
vt 0.1270 0.4060
vt 0.1507 0.4060
vt 0.1507 0.4020
vt 0.0790 0.1270
vt 0.0360 0.1405
vt 0.0435 0.1643
vt 0.0865 0.1507
vt 0.1405 0.4060
vt 0.1405 0.4020
vt 0.1643 0.4020
vt 0.1643 0.4060
vt 0.0285 0.1168
vt 0.0715 0.1032
vt 0.0790 0.1270
vt 0.0360 0.1405
vt 0.1032 0.4020
vt 0.1032 0.4060
vt 0.1270 0.4060
vt 0.1270 0.4020
vt 0.0715 0.1032
vt 0.0285 0.1168
vt 0.0360 0.1405
vt 0.0790 0.1270
vt 0.1168 0.4060
vt 0.1168 0.4020
vt 0.1405 0.4020
vt 0.1405 0.4060
vt 0.0210 0.0930
vt 0.0640 0.0795
vt 0.0715 0.1032
vt 0.0285 0.1168
vt 0.0795 0.4020
vt 0.0795 0.4060
vt 0.1032 0.4060
vt 0.1032 0.4020
vt 0.0640 0.0795
vt 0.0210 0.0930
vt 0.0285 0.1168
vt 0.0715 0.1032
vt 0.0930 0.4060
vt 0.0930 0.4020
vt 0.1168 0.4020
vt 0.1168 0.4060
vt 0.0135 0.0693
vt 0.0565 0.0557
vt 0.0640 0.0795
vt 0.0210 0.0930
vt 0.0557 0.4020
vt 0.0557 0.4060
vt 0.0795 0.4060
vt 0.0795 0.4020
vt 0.0565 0.0557
vt 0.0135 0.0693
vt 0.0210 0.0930
vt 0.0640 0.0795
vt 0.0693 0.4060
vt 0.0693 0.4020
vt 0.0930 0.4020
vt 0.0930 0.4060
vt 0.0060 0.0455
vt 0.0490 0.0320
vt 0.0565 0.0557
vt 0.0135 0.0693
vt 0.0320 0.4020
vt 0.0320 0.4060
vt 0.0557 0.4060
vt 0.0557 0.4020
vt 0.0490 0.0320
vt 0.0060 0.0455
vt 0.0135 0.0693
vt 0.0565 0.0557
vt 0.0455 0.4060
vt 0.0455 0.4020
vt 0.0693 0.4020
vt 0.0693 0.4060
vt -0.0086 0.0240
vt 0.0486 0.0060
vt 0.0490 0.0320
vt 0.0060 0.0455
vt 0.0060 0.3940
vt 0.0060 0.4140
vt 0.0320 0.4060
vt 0.0320 0.4020
vt 0.0486 0.0060
vt -0.0086 0.0240
vt 0.0060 0.0455
vt 0.0490 0.0320
vt 0.0240 0.4140
vt 0.0240 0.3940
vt 0.0455 0.4020
vt 0.0455 0.4060
vt 0.0585 0.4060
vt 0.1015 0.4060
vt 0.1015 0.4020
vt 0.0585 0.4020
vt -0.0086 0.3940
vt 0.0486 0.3940
vt 0.0486 0.4140
vt -0.0086 0.4140
f 637/2233 638/2234 634/2235 633/2236
f 638/2237 639/2238 635/2239 634/2240
f 639/2241 640/2242 636/2243 635/2244
f 640/2245 637/2246 633/2247 636/2248
f 641/2249 642/2250 638/2251 637/2252
f 642/2253 643/2254 639/2255 638/2256
f 643/2257 644/2258 640/2259 639/2260
f 644/2261 641/2262 637/2263 640/2264
f 645/2265 646/2266 642/2267 641/2268
f 646/2269 647/2270 643/2271 642/2272
f 647/2273 648/2274 644/2275 643/2276
f 648/2277 645/2278 641/2279 644/2280
f 649/2281 650/2282 646/2283 645/2284
f 650/2285 651/2286 647/2287 646/2288
f 651/2289 652/2290 648/2291 647/2292
f 652/2293 649/2294 645/2295 648/2296
f 653/2297 654/2298 650/2299 649/2300
f 654/2301 655/2302 651/2303 650/2304
f 655/2305 656/2306 652/2307 651/2308
f 656/2309 653/2310 649/2311 652/2312
f 657/2313 658/2314 654/2315 653/2316
f 658/2317 659/2318 655/2319 654/2320
f 659/2321 660/2322 656/2323 655/2324
f 660/2325 657/2326 653/2327 656/2328
f 661/2329 662/2330 658/2331 657/2332
f 662/2333 663/2334 659/2335 658/2336
f 663/2337 664/2338 660/2339 659/2340
f 664/2341 661/2342 657/2343 660/2344
f 665/2345 666/2346 662/2347 661/2348
f 666/2349 667/2350 663/2351 662/2352
f 667/2353 668/2354 664/2355 663/2356
f 668/2357 665/2358 661/2359 664/2360
f 636/2361 635/2362 634/2363 633/2364
f 665/2365 666/2366 667/2367 668/2368
